G04 (created by PCBNEW (2013-07-07 BZR 4022)-stable) date 4/1/2015 7:14:36 PM*
%MOIN*%
G04 Gerber Fmt 3.4, Leading zero omitted, Abs format*
%FSLAX34Y34*%
G01*
G70*
G90*
G04 APERTURE LIST*
%ADD10C,0.00590551*%
%ADD11O,0.0885X0.059*%
%ADD12O,0.059X0.059*%
%ADD13R,0.06X0.06*%
%ADD14C,0.06*%
%ADD15C,0.059*%
%ADD16R,0.069X0.069*%
%ADD17O,0.069X0.069*%
%ADD18C,0.125984*%
%ADD19C,0.23622*%
%ADD20R,0.059X0.059*%
%ADD21R,0.079X0.079*%
%ADD22C,0.079*%
%ADD23C,0.02*%
%ADD24C,0.04*%
%ADD25C,0.01*%
G04 APERTURE END LIST*
G54D10*
G54D11*
X46397Y-37250D03*
X45602Y-36750D03*
X46397Y-36250D03*
X48147Y-35000D03*
X47352Y-34500D03*
X48147Y-34000D03*
X50647Y-35000D03*
X49852Y-34500D03*
X50647Y-34000D03*
X35897Y-37500D03*
X35102Y-37000D03*
X35897Y-36500D03*
X37647Y-35250D03*
X36852Y-34750D03*
X37647Y-34250D03*
X40147Y-35250D03*
X39352Y-34750D03*
X40147Y-34250D03*
G54D12*
X43250Y-32000D03*
X42250Y-32000D03*
X38750Y-37500D03*
X38750Y-36500D03*
X35500Y-34250D03*
X35500Y-35250D03*
X37500Y-36750D03*
X37500Y-37750D03*
X40000Y-36750D03*
X40000Y-37750D03*
X49250Y-37250D03*
X49250Y-36250D03*
X40000Y-32000D03*
X41000Y-32000D03*
X46000Y-34000D03*
X46000Y-35000D03*
X47000Y-41000D03*
X48000Y-41000D03*
X48000Y-36500D03*
X48000Y-37500D03*
X39500Y-41000D03*
X40500Y-41000D03*
X50500Y-36500D03*
X50500Y-37500D03*
G54D13*
X42750Y-35750D03*
G54D14*
X42750Y-34750D03*
G54D15*
X35000Y-40992D03*
X34311Y-40500D03*
X35688Y-40500D03*
X35000Y-40007D03*
X50500Y-40992D03*
X49811Y-40500D03*
X51188Y-40500D03*
X50500Y-40007D03*
G54D16*
X42250Y-30500D03*
G54D17*
X43250Y-30500D03*
G54D16*
X41000Y-30500D03*
G54D17*
X40000Y-30500D03*
G54D16*
X45000Y-41000D03*
G54D17*
X46000Y-41000D03*
G54D16*
X37500Y-41000D03*
G54D17*
X38500Y-41000D03*
G54D18*
X48000Y-30500D03*
X42750Y-41000D03*
X37500Y-30500D03*
G54D19*
X34250Y-27250D03*
X51250Y-27250D03*
X34250Y-44250D03*
X51250Y-44250D03*
G54D20*
X39000Y-29500D03*
G54D12*
X39000Y-26500D03*
G54D20*
X46500Y-29500D03*
G54D12*
X46500Y-26500D03*
G54D20*
X40500Y-39000D03*
G54D12*
X37500Y-39000D03*
G54D20*
X42750Y-36750D03*
G54D12*
X42750Y-39750D03*
G54D20*
X45000Y-39000D03*
G54D12*
X48000Y-39000D03*
G54D21*
X44750Y-27500D03*
G54D22*
X42750Y-27500D03*
X40750Y-27500D03*
G54D21*
X38000Y-44000D03*
G54D22*
X40000Y-44000D03*
G54D21*
X45500Y-44000D03*
G54D22*
X47500Y-44000D03*
G54D23*
X35000Y-40992D02*
X35196Y-40992D01*
G54D24*
X35196Y-40992D02*
X35688Y-40500D01*
G54D23*
X50500Y-40992D02*
X50696Y-40992D01*
G54D24*
X50696Y-40992D02*
X51188Y-40500D01*
X45000Y-39000D02*
X45000Y-38000D01*
X45000Y-38000D02*
X44250Y-37250D01*
X44250Y-37250D02*
X44250Y-33500D01*
X44250Y-33500D02*
X46500Y-31250D01*
X46500Y-31250D02*
X46500Y-29500D01*
X42750Y-39750D02*
X43500Y-39000D01*
X43500Y-39000D02*
X45000Y-39000D01*
X45000Y-39000D02*
X45000Y-41000D01*
X45000Y-41000D02*
X45000Y-43500D01*
X45000Y-43500D02*
X45500Y-44000D01*
G54D23*
X42750Y-27500D02*
X42250Y-28000D01*
X42250Y-28000D02*
X42250Y-30500D01*
G54D24*
X42750Y-27500D02*
X43750Y-26500D01*
X43750Y-26500D02*
X46500Y-26500D01*
X37500Y-41000D02*
X37500Y-40250D01*
X37500Y-40250D02*
X38000Y-39750D01*
X38000Y-39750D02*
X39750Y-39750D01*
X39750Y-39750D02*
X40500Y-39000D01*
X42750Y-34750D02*
X42000Y-34750D01*
X41500Y-38000D02*
X40500Y-39000D01*
X41500Y-35250D02*
X41500Y-38000D01*
X42000Y-34750D02*
X41500Y-35250D01*
X39000Y-29500D02*
X39000Y-32500D01*
X39000Y-32500D02*
X39500Y-33000D01*
X39500Y-33000D02*
X39750Y-33250D01*
X39750Y-33250D02*
X41250Y-33250D01*
X41250Y-33250D02*
X42750Y-34750D01*
X37500Y-41000D02*
X37500Y-43500D01*
X37500Y-43500D02*
X38000Y-44000D01*
G54D23*
X40750Y-27500D02*
X41000Y-27750D01*
X41000Y-27750D02*
X41000Y-30500D01*
G54D24*
X40750Y-27500D02*
X39750Y-26500D01*
X39750Y-26500D02*
X39000Y-26500D01*
G54D23*
X35500Y-35250D02*
X35500Y-36250D01*
X35500Y-36250D02*
X35750Y-36500D01*
X35500Y-35250D02*
X36500Y-35250D01*
X36500Y-35250D02*
X37000Y-34750D01*
G54D25*
X37000Y-34750D02*
X39500Y-34750D01*
G54D23*
X37500Y-37750D02*
X37250Y-37750D01*
G54D25*
X36500Y-37000D02*
X35250Y-37000D01*
G54D23*
X37250Y-37750D02*
X36500Y-37000D01*
X40000Y-37750D02*
X39000Y-37750D01*
X39000Y-37750D02*
X38750Y-37500D01*
X37500Y-37750D02*
X38500Y-37750D01*
X38500Y-37750D02*
X38750Y-37500D01*
X46000Y-35000D02*
X46000Y-36000D01*
X46000Y-36000D02*
X46250Y-36250D01*
X46000Y-35000D02*
X47000Y-35000D01*
X47000Y-35000D02*
X47500Y-34500D01*
G54D25*
X47500Y-34500D02*
X50000Y-34500D01*
G54D23*
X46000Y-41000D02*
X47000Y-41000D01*
X40000Y-30500D02*
X40000Y-32000D01*
X43250Y-30500D02*
X43250Y-32000D01*
X48000Y-34000D02*
X47750Y-33750D01*
X46250Y-33750D02*
X46000Y-34000D01*
X47750Y-33750D02*
X46250Y-33750D01*
X50500Y-34000D02*
X50250Y-33750D01*
X48250Y-33750D02*
X48000Y-34000D01*
X50250Y-33750D02*
X48250Y-33750D01*
X50500Y-34000D02*
X51000Y-34000D01*
X51500Y-39007D02*
X50500Y-40007D01*
X51500Y-34500D02*
X51500Y-39007D01*
X51000Y-34000D02*
X51500Y-34500D01*
G54D24*
X49811Y-40500D02*
X49000Y-41311D01*
X49000Y-42500D02*
X47500Y-44000D01*
X49000Y-41311D02*
X49000Y-42500D01*
G54D23*
X49811Y-40500D02*
X48311Y-39000D01*
X48311Y-39000D02*
X48000Y-39000D01*
G54D24*
X49811Y-40500D02*
X50303Y-40007D01*
G54D23*
X50303Y-40007D02*
X50500Y-40007D01*
G54D24*
X42750Y-35750D02*
X42750Y-36750D01*
G54D23*
X38500Y-41000D02*
X39500Y-41000D01*
X48000Y-37500D02*
X47750Y-37500D01*
G54D25*
X47000Y-36750D02*
X45750Y-36750D01*
G54D23*
X47750Y-37500D02*
X47000Y-36750D01*
X50500Y-37500D02*
X49500Y-37500D01*
X49500Y-37500D02*
X49250Y-37250D01*
X48000Y-37500D02*
X49000Y-37500D01*
X49000Y-37500D02*
X49250Y-37250D01*
X48000Y-35000D02*
X48000Y-36500D01*
X50500Y-35000D02*
X50500Y-36500D01*
X37500Y-34250D02*
X37250Y-34000D01*
X35750Y-34000D02*
X35500Y-34250D01*
X37250Y-34000D02*
X35750Y-34000D01*
X40000Y-34250D02*
X39750Y-34000D01*
X37750Y-34000D02*
X37500Y-34250D01*
X39750Y-34000D02*
X37750Y-34000D01*
G54D24*
X40000Y-44000D02*
X39000Y-45000D01*
X39000Y-45000D02*
X37250Y-45000D01*
X37250Y-45000D02*
X36500Y-44250D01*
X36500Y-44250D02*
X36500Y-43000D01*
X36500Y-43000D02*
X35500Y-42000D01*
X35500Y-42000D02*
X34500Y-42000D01*
X34500Y-42000D02*
X34000Y-41500D01*
X34000Y-41500D02*
X34000Y-41000D01*
X34000Y-41000D02*
X34000Y-40811D01*
X34000Y-40811D02*
X34311Y-40500D01*
G54D23*
X35000Y-40007D02*
X34000Y-39007D01*
X34000Y-39007D02*
X34000Y-35000D01*
X34000Y-35000D02*
X34750Y-34250D01*
X34750Y-34250D02*
X35500Y-34250D01*
X37500Y-39000D02*
X36007Y-39000D01*
X36007Y-39000D02*
X35000Y-40007D01*
G54D24*
X34311Y-40500D02*
X34803Y-40007D01*
X34803Y-40007D02*
X35000Y-40007D01*
G54D23*
X40000Y-35250D02*
X40000Y-36750D01*
X37500Y-35250D02*
X37500Y-36750D01*
M02*
