G04 (created by PCBNEW (2013-07-07 BZR 4022)-stable) date 3/21/2015 3:58:04 AM*
%MOIN*%
G04 Gerber Fmt 3.4, Leading zero omitted, Abs format*
%FSLAX34Y34*%
G01*
G70*
G90*
G04 APERTURE LIST*
%ADD10C,0.00590551*%
%ADD11O,0.059X0.0885*%
%ADD12R,0.069X0.069*%
%ADD13C,0.069*%
%ADD14O,0.059X0.059*%
%ADD15R,0.06X0.06*%
%ADD16C,0.06*%
%ADD17C,0.059*%
%ADD18O,0.069X0.069*%
%ADD19C,0.125984*%
%ADD20R,0.059X0.059*%
%ADD21C,0.01*%
G04 APERTURE END LIST*
G54D10*
G54D11*
X50000Y-36397D03*
X50500Y-35602D03*
X51000Y-36397D03*
X34500Y-36397D03*
X35000Y-35602D03*
X35500Y-36397D03*
G54D12*
X44750Y-27500D03*
G54D13*
X42750Y-27500D03*
X40750Y-27500D03*
G54D12*
X38000Y-44000D03*
G54D13*
X40000Y-44000D03*
G54D12*
X45500Y-44000D03*
G54D13*
X47500Y-44000D03*
G54D14*
X50500Y-34500D03*
X50500Y-30500D03*
X47500Y-27000D03*
X51500Y-27000D03*
X38000Y-27000D03*
X34000Y-27000D03*
X44500Y-38500D03*
X48500Y-38500D03*
X37000Y-38500D03*
X41000Y-38500D03*
X48500Y-36500D03*
X44500Y-36500D03*
X35000Y-34500D03*
X35000Y-30500D03*
X37000Y-36500D03*
X41000Y-36500D03*
G54D15*
X42750Y-35000D03*
G54D16*
X42750Y-34000D03*
G54D17*
X50500Y-43007D03*
X51188Y-43500D03*
X49811Y-43500D03*
X50500Y-43992D03*
X35000Y-43007D03*
X35688Y-43500D03*
X34311Y-43500D03*
X35000Y-43992D03*
G54D12*
X38000Y-40500D03*
G54D18*
X38000Y-41500D03*
G54D12*
X45500Y-41500D03*
G54D18*
X45500Y-40500D03*
G54D12*
X40750Y-30250D03*
G54D18*
X40750Y-31250D03*
G54D12*
X42750Y-30250D03*
G54D18*
X42750Y-31250D03*
G54D19*
X48000Y-30500D03*
X42750Y-41000D03*
X37500Y-30500D03*
G54D14*
X37000Y-37500D03*
X41000Y-37500D03*
X41000Y-35000D03*
X37000Y-35000D03*
X41000Y-34000D03*
X37000Y-34000D03*
X48500Y-37500D03*
X44500Y-37500D03*
X44500Y-35000D03*
X48500Y-35000D03*
X44500Y-34000D03*
X48500Y-34000D03*
G54D20*
X46500Y-30000D03*
G54D14*
X46500Y-27000D03*
G54D20*
X39000Y-30000D03*
G54D14*
X39000Y-27000D03*
G54D20*
X42750Y-36000D03*
G54D14*
X42750Y-39000D03*
G54D20*
X37500Y-39500D03*
G54D14*
X40500Y-39500D03*
G54D20*
X45000Y-39500D03*
G54D14*
X48000Y-39500D03*
G54D10*
G36*
X52200Y-45200D02*
X52028Y-45200D01*
X52028Y-27134D01*
X52028Y-26865D01*
X51968Y-26721D01*
X51826Y-26563D01*
X51634Y-26471D01*
X51550Y-26519D01*
X51550Y-26950D01*
X51979Y-26950D01*
X52028Y-26865D01*
X52028Y-27134D01*
X51979Y-27050D01*
X51550Y-27050D01*
X51550Y-27480D01*
X51634Y-27528D01*
X51826Y-27436D01*
X51968Y-27278D01*
X52028Y-27134D01*
X52028Y-45200D01*
X51734Y-45200D01*
X51734Y-43392D01*
X51651Y-43191D01*
X51545Y-43085D01*
X51545Y-36558D01*
X51545Y-36236D01*
X51503Y-36027D01*
X51450Y-35947D01*
X51450Y-27480D01*
X51450Y-27050D01*
X51450Y-26950D01*
X51450Y-26519D01*
X51365Y-26471D01*
X51173Y-26563D01*
X51031Y-26721D01*
X50971Y-26865D01*
X51020Y-26950D01*
X51450Y-26950D01*
X51450Y-27050D01*
X51020Y-27050D01*
X50971Y-27134D01*
X51031Y-27278D01*
X51173Y-27436D01*
X51365Y-27528D01*
X51450Y-27480D01*
X51450Y-35947D01*
X51385Y-35851D01*
X51208Y-35732D01*
X51045Y-35700D01*
X51045Y-35441D01*
X51003Y-35232D01*
X50885Y-35056D01*
X50765Y-34976D01*
X50885Y-34896D01*
X51003Y-34719D01*
X51045Y-34510D01*
X51045Y-34489D01*
X51045Y-30510D01*
X51045Y-30489D01*
X51003Y-30280D01*
X50885Y-30103D01*
X50708Y-29985D01*
X50500Y-29944D01*
X50291Y-29985D01*
X50114Y-30103D01*
X49996Y-30280D01*
X49955Y-30489D01*
X49955Y-30510D01*
X49996Y-30719D01*
X50114Y-30896D01*
X50291Y-31014D01*
X50500Y-31055D01*
X50708Y-31014D01*
X50885Y-30896D01*
X51003Y-30719D01*
X51045Y-30510D01*
X51045Y-34489D01*
X51003Y-34280D01*
X50885Y-34103D01*
X50708Y-33985D01*
X50500Y-33944D01*
X50291Y-33985D01*
X50114Y-34103D01*
X49996Y-34280D01*
X49955Y-34489D01*
X49955Y-34510D01*
X49996Y-34719D01*
X50114Y-34896D01*
X50234Y-34976D01*
X50114Y-35056D01*
X49996Y-35232D01*
X49955Y-35441D01*
X49955Y-35705D01*
X49949Y-35705D01*
X49949Y-35770D01*
X49865Y-35721D01*
X49837Y-35727D01*
X49649Y-35829D01*
X49515Y-35995D01*
X49455Y-36200D01*
X49455Y-36347D01*
X49950Y-36347D01*
X49950Y-36339D01*
X50050Y-36339D01*
X50050Y-36347D01*
X50057Y-36347D01*
X50057Y-36447D01*
X50050Y-36447D01*
X50050Y-37024D01*
X50134Y-37073D01*
X50162Y-37067D01*
X50350Y-36965D01*
X50484Y-36799D01*
X50495Y-36762D01*
X50496Y-36767D01*
X50614Y-36943D01*
X50791Y-37062D01*
X51000Y-37103D01*
X51208Y-37062D01*
X51385Y-36943D01*
X51503Y-36767D01*
X51545Y-36558D01*
X51545Y-43085D01*
X51498Y-43038D01*
X51297Y-42955D01*
X51081Y-42954D01*
X51045Y-42969D01*
X51045Y-42899D01*
X50962Y-42699D01*
X50809Y-42546D01*
X50608Y-42462D01*
X50392Y-42462D01*
X50191Y-42545D01*
X50038Y-42698D01*
X49955Y-42898D01*
X49955Y-42969D01*
X49950Y-42967D01*
X49950Y-37024D01*
X49950Y-36447D01*
X49455Y-36447D01*
X49455Y-36595D01*
X49515Y-36799D01*
X49649Y-36965D01*
X49837Y-37067D01*
X49865Y-37073D01*
X49950Y-37024D01*
X49950Y-42967D01*
X49919Y-42955D01*
X49703Y-42954D01*
X49502Y-43037D01*
X49349Y-43190D01*
X49266Y-43391D01*
X49265Y-43607D01*
X49348Y-43808D01*
X49501Y-43961D01*
X49702Y-44044D01*
X49918Y-44045D01*
X49954Y-44030D01*
X49954Y-44100D01*
X50037Y-44300D01*
X50190Y-44453D01*
X50391Y-44537D01*
X50607Y-44537D01*
X50808Y-44454D01*
X50961Y-44301D01*
X51044Y-44101D01*
X51044Y-44030D01*
X51080Y-44044D01*
X51296Y-44045D01*
X51497Y-43962D01*
X51650Y-43809D01*
X51733Y-43608D01*
X51734Y-43392D01*
X51734Y-45200D01*
X49055Y-45200D01*
X49055Y-37500D01*
X49014Y-37291D01*
X48896Y-37114D01*
X48724Y-37000D01*
X48896Y-36885D01*
X49014Y-36708D01*
X49055Y-36500D01*
X49055Y-35000D01*
X49014Y-34791D01*
X48896Y-34614D01*
X48724Y-34500D01*
X48896Y-34385D01*
X49014Y-34208D01*
X49055Y-34000D01*
X49014Y-33791D01*
X48896Y-33614D01*
X48880Y-33603D01*
X48880Y-30325D01*
X48746Y-30002D01*
X48499Y-29754D01*
X48175Y-29620D01*
X48055Y-29620D01*
X48055Y-27000D01*
X48014Y-26791D01*
X47896Y-26614D01*
X47719Y-26496D01*
X47510Y-26455D01*
X47489Y-26455D01*
X47280Y-26496D01*
X47103Y-26614D01*
X46998Y-26772D01*
X46885Y-26603D01*
X46708Y-26485D01*
X46500Y-26444D01*
X46291Y-26485D01*
X46114Y-26603D01*
X45996Y-26780D01*
X45955Y-26989D01*
X45955Y-27010D01*
X45996Y-27219D01*
X46114Y-27396D01*
X46291Y-27514D01*
X46500Y-27555D01*
X46708Y-27514D01*
X46885Y-27396D01*
X46998Y-27227D01*
X47103Y-27385D01*
X47280Y-27503D01*
X47489Y-27545D01*
X47510Y-27545D01*
X47719Y-27503D01*
X47896Y-27385D01*
X48014Y-27208D01*
X48055Y-27000D01*
X48055Y-29620D01*
X47825Y-29619D01*
X47502Y-29753D01*
X47254Y-30000D01*
X47120Y-30324D01*
X47119Y-30674D01*
X47253Y-30997D01*
X47500Y-31245D01*
X47824Y-31379D01*
X48174Y-31380D01*
X48497Y-31246D01*
X48745Y-30999D01*
X48879Y-30675D01*
X48880Y-30325D01*
X48880Y-33603D01*
X48719Y-33496D01*
X48510Y-33455D01*
X48489Y-33455D01*
X48280Y-33496D01*
X48103Y-33614D01*
X47985Y-33791D01*
X47944Y-34000D01*
X47985Y-34208D01*
X48103Y-34385D01*
X48275Y-34500D01*
X48103Y-34614D01*
X47985Y-34791D01*
X47944Y-35000D01*
X47985Y-35208D01*
X48103Y-35385D01*
X48280Y-35503D01*
X48489Y-35545D01*
X48510Y-35545D01*
X48719Y-35503D01*
X48896Y-35385D01*
X49014Y-35208D01*
X49055Y-35000D01*
X49055Y-36500D01*
X49014Y-36291D01*
X48896Y-36114D01*
X48719Y-35996D01*
X48510Y-35955D01*
X48489Y-35955D01*
X48280Y-35996D01*
X48103Y-36114D01*
X47985Y-36291D01*
X47944Y-36500D01*
X47985Y-36708D01*
X48103Y-36885D01*
X48275Y-37000D01*
X48103Y-37114D01*
X47985Y-37291D01*
X47944Y-37500D01*
X47985Y-37708D01*
X48103Y-37885D01*
X48280Y-38003D01*
X48293Y-38006D01*
X48173Y-38063D01*
X48031Y-38221D01*
X47971Y-38365D01*
X48020Y-38450D01*
X48450Y-38450D01*
X48450Y-38442D01*
X48550Y-38442D01*
X48550Y-38450D01*
X48979Y-38450D01*
X49028Y-38365D01*
X48968Y-38221D01*
X48826Y-38063D01*
X48706Y-38006D01*
X48719Y-38003D01*
X48896Y-37885D01*
X49014Y-37708D01*
X49055Y-37500D01*
X49055Y-45200D01*
X49028Y-45200D01*
X49028Y-38634D01*
X48979Y-38550D01*
X48550Y-38550D01*
X48550Y-38980D01*
X48634Y-39028D01*
X48826Y-38936D01*
X48968Y-38778D01*
X49028Y-38634D01*
X49028Y-45200D01*
X48555Y-45200D01*
X48555Y-39500D01*
X48514Y-39291D01*
X48450Y-39195D01*
X48450Y-38980D01*
X48450Y-38550D01*
X48020Y-38550D01*
X47971Y-38634D01*
X48031Y-38778D01*
X48173Y-38936D01*
X48365Y-39028D01*
X48450Y-38980D01*
X48450Y-39195D01*
X48396Y-39114D01*
X48219Y-38996D01*
X48010Y-38955D01*
X47989Y-38955D01*
X47780Y-38996D01*
X47603Y-39114D01*
X47485Y-39291D01*
X47444Y-39500D01*
X47485Y-39708D01*
X47603Y-39885D01*
X47780Y-40003D01*
X47989Y-40045D01*
X48010Y-40045D01*
X48219Y-40003D01*
X48396Y-39885D01*
X48514Y-39708D01*
X48555Y-39500D01*
X48555Y-45200D01*
X48095Y-45200D01*
X48095Y-43882D01*
X48004Y-43663D01*
X47837Y-43495D01*
X47618Y-43405D01*
X47382Y-43404D01*
X47163Y-43495D01*
X47045Y-43613D01*
X47045Y-30245D01*
X47045Y-29655D01*
X47007Y-29563D01*
X46936Y-29493D01*
X46844Y-29455D01*
X46745Y-29454D01*
X46155Y-29454D01*
X46063Y-29492D01*
X45993Y-29563D01*
X45955Y-29655D01*
X45954Y-29754D01*
X45954Y-30344D01*
X45992Y-30436D01*
X46063Y-30506D01*
X46155Y-30544D01*
X46254Y-30545D01*
X46844Y-30545D01*
X46936Y-30507D01*
X47006Y-30436D01*
X47044Y-30344D01*
X47045Y-30245D01*
X47045Y-43613D01*
X46995Y-43662D01*
X46905Y-43881D01*
X46904Y-44117D01*
X46995Y-44336D01*
X47162Y-44504D01*
X47381Y-44594D01*
X47617Y-44595D01*
X47836Y-44504D01*
X48004Y-44337D01*
X48094Y-44118D01*
X48095Y-43882D01*
X48095Y-45200D01*
X46095Y-45200D01*
X46095Y-44295D01*
X46095Y-43605D01*
X46095Y-41795D01*
X46095Y-41105D01*
X46057Y-41013D01*
X45986Y-40943D01*
X45929Y-40919D01*
X46049Y-40739D01*
X46095Y-40511D01*
X46095Y-40488D01*
X46049Y-40260D01*
X45920Y-40067D01*
X45727Y-39938D01*
X45522Y-39897D01*
X45544Y-39844D01*
X45545Y-39745D01*
X45545Y-39155D01*
X45507Y-39063D01*
X45436Y-38993D01*
X45345Y-38955D01*
X45345Y-27795D01*
X45345Y-27204D01*
X45344Y-27105D01*
X45306Y-27013D01*
X45236Y-26942D01*
X45144Y-26904D01*
X44862Y-26905D01*
X44800Y-26967D01*
X44800Y-27450D01*
X45282Y-27450D01*
X45345Y-27387D01*
X45345Y-27204D01*
X45345Y-27795D01*
X45345Y-27612D01*
X45282Y-27550D01*
X44800Y-27550D01*
X44800Y-28032D01*
X44862Y-28095D01*
X45144Y-28095D01*
X45236Y-28057D01*
X45306Y-27986D01*
X45344Y-27894D01*
X45345Y-27795D01*
X45345Y-38955D01*
X45344Y-38955D01*
X45245Y-38954D01*
X44791Y-38954D01*
X44896Y-38885D01*
X45014Y-38708D01*
X45055Y-38500D01*
X45014Y-38291D01*
X44896Y-38114D01*
X44724Y-37999D01*
X44896Y-37885D01*
X45014Y-37708D01*
X45055Y-37500D01*
X45014Y-37291D01*
X44896Y-37114D01*
X44724Y-37000D01*
X44896Y-36885D01*
X45014Y-36708D01*
X45055Y-36500D01*
X45055Y-35000D01*
X45014Y-34791D01*
X44896Y-34614D01*
X44724Y-34500D01*
X44896Y-34385D01*
X45014Y-34208D01*
X45055Y-34000D01*
X45014Y-33791D01*
X44896Y-33614D01*
X44719Y-33496D01*
X44700Y-33492D01*
X44700Y-28032D01*
X44700Y-27550D01*
X44700Y-27450D01*
X44700Y-26967D01*
X44637Y-26905D01*
X44355Y-26904D01*
X44263Y-26942D01*
X44193Y-27013D01*
X44155Y-27105D01*
X44154Y-27204D01*
X44155Y-27387D01*
X44217Y-27450D01*
X44700Y-27450D01*
X44700Y-27550D01*
X44217Y-27550D01*
X44155Y-27612D01*
X44154Y-27795D01*
X44155Y-27894D01*
X44193Y-27986D01*
X44263Y-28057D01*
X44355Y-28095D01*
X44637Y-28095D01*
X44700Y-28032D01*
X44700Y-33492D01*
X44510Y-33455D01*
X44489Y-33455D01*
X44280Y-33496D01*
X44103Y-33614D01*
X43985Y-33791D01*
X43944Y-34000D01*
X43985Y-34208D01*
X44103Y-34385D01*
X44275Y-34500D01*
X44103Y-34614D01*
X43985Y-34791D01*
X43944Y-35000D01*
X43985Y-35208D01*
X44103Y-35385D01*
X44280Y-35503D01*
X44489Y-35545D01*
X44510Y-35545D01*
X44719Y-35503D01*
X44896Y-35385D01*
X45014Y-35208D01*
X45055Y-35000D01*
X45055Y-36500D01*
X45014Y-36291D01*
X44896Y-36114D01*
X44719Y-35996D01*
X44510Y-35955D01*
X44489Y-35955D01*
X44280Y-35996D01*
X44103Y-36114D01*
X43985Y-36291D01*
X43944Y-36500D01*
X43985Y-36708D01*
X44103Y-36885D01*
X44275Y-37000D01*
X44103Y-37114D01*
X43985Y-37291D01*
X43944Y-37500D01*
X43985Y-37708D01*
X44103Y-37885D01*
X44275Y-38000D01*
X44103Y-38114D01*
X43985Y-38291D01*
X43944Y-38500D01*
X43985Y-38708D01*
X44103Y-38885D01*
X44280Y-39003D01*
X44489Y-39045D01*
X44510Y-39045D01*
X44511Y-39044D01*
X44493Y-39063D01*
X44455Y-39155D01*
X44454Y-39254D01*
X44454Y-39844D01*
X44492Y-39936D01*
X44563Y-40006D01*
X44655Y-40044D01*
X44754Y-40045D01*
X45113Y-40045D01*
X45079Y-40067D01*
X44950Y-40260D01*
X44905Y-40488D01*
X44905Y-40511D01*
X44950Y-40739D01*
X45070Y-40919D01*
X45013Y-40942D01*
X44943Y-41013D01*
X44905Y-41105D01*
X44904Y-41204D01*
X44904Y-41894D01*
X44942Y-41986D01*
X45013Y-42056D01*
X45105Y-42094D01*
X45204Y-42095D01*
X45894Y-42095D01*
X45986Y-42057D01*
X46056Y-41986D01*
X46094Y-41894D01*
X46095Y-41795D01*
X46095Y-43605D01*
X46057Y-43513D01*
X45986Y-43443D01*
X45894Y-43405D01*
X45795Y-43404D01*
X45105Y-43404D01*
X45013Y-43442D01*
X44943Y-43513D01*
X44905Y-43605D01*
X44904Y-43704D01*
X44904Y-44394D01*
X44942Y-44486D01*
X45013Y-44556D01*
X45105Y-44594D01*
X45204Y-44595D01*
X45894Y-44595D01*
X45986Y-44557D01*
X46056Y-44486D01*
X46094Y-44394D01*
X46095Y-44295D01*
X46095Y-45200D01*
X43630Y-45200D01*
X43630Y-40825D01*
X43496Y-40502D01*
X43345Y-40350D01*
X43345Y-27382D01*
X43254Y-27163D01*
X43087Y-26995D01*
X42868Y-26905D01*
X42632Y-26904D01*
X42413Y-26995D01*
X42245Y-27162D01*
X42155Y-27381D01*
X42154Y-27617D01*
X42245Y-27836D01*
X42412Y-28004D01*
X42631Y-28094D01*
X42867Y-28095D01*
X43086Y-28004D01*
X43254Y-27837D01*
X43344Y-27618D01*
X43345Y-27382D01*
X43345Y-40350D01*
X43345Y-40350D01*
X43345Y-30545D01*
X43345Y-29855D01*
X43307Y-29763D01*
X43236Y-29693D01*
X43144Y-29655D01*
X43045Y-29654D01*
X42355Y-29654D01*
X42263Y-29692D01*
X42193Y-29763D01*
X42155Y-29855D01*
X42154Y-29954D01*
X42154Y-30644D01*
X42192Y-30736D01*
X42263Y-30806D01*
X42320Y-30830D01*
X42200Y-31010D01*
X42155Y-31238D01*
X42155Y-31261D01*
X42200Y-31489D01*
X42329Y-31682D01*
X42522Y-31811D01*
X42750Y-31856D01*
X42977Y-31811D01*
X43170Y-31682D01*
X43299Y-31489D01*
X43345Y-31261D01*
X43345Y-31238D01*
X43299Y-31010D01*
X43179Y-30830D01*
X43236Y-30807D01*
X43306Y-30736D01*
X43344Y-30644D01*
X43345Y-30545D01*
X43345Y-40350D01*
X43300Y-40305D01*
X43300Y-33891D01*
X43216Y-33688D01*
X43061Y-33534D01*
X42859Y-33450D01*
X42641Y-33449D01*
X42438Y-33533D01*
X42284Y-33688D01*
X42200Y-33890D01*
X42199Y-34108D01*
X42283Y-34311D01*
X42422Y-34449D01*
X42400Y-34449D01*
X42308Y-34487D01*
X42238Y-34558D01*
X42200Y-34650D01*
X42199Y-34749D01*
X42199Y-35349D01*
X42237Y-35441D01*
X42301Y-35505D01*
X42243Y-35563D01*
X42205Y-35655D01*
X42204Y-35754D01*
X42204Y-36344D01*
X42242Y-36436D01*
X42313Y-36506D01*
X42405Y-36544D01*
X42504Y-36545D01*
X43094Y-36545D01*
X43186Y-36507D01*
X43256Y-36436D01*
X43294Y-36344D01*
X43295Y-36245D01*
X43295Y-35655D01*
X43257Y-35563D01*
X43198Y-35504D01*
X43261Y-35441D01*
X43299Y-35349D01*
X43300Y-35250D01*
X43300Y-34650D01*
X43262Y-34558D01*
X43191Y-34488D01*
X43099Y-34450D01*
X43077Y-34450D01*
X43215Y-34311D01*
X43299Y-34109D01*
X43300Y-33891D01*
X43300Y-40305D01*
X43295Y-40300D01*
X43295Y-39010D01*
X43295Y-38989D01*
X43253Y-38780D01*
X43135Y-38603D01*
X42958Y-38485D01*
X42750Y-38444D01*
X42541Y-38485D01*
X42364Y-38603D01*
X42246Y-38780D01*
X42205Y-38989D01*
X42205Y-39010D01*
X42246Y-39219D01*
X42364Y-39396D01*
X42541Y-39514D01*
X42750Y-39555D01*
X42958Y-39514D01*
X43135Y-39396D01*
X43253Y-39219D01*
X43295Y-39010D01*
X43295Y-40300D01*
X43249Y-40254D01*
X42925Y-40120D01*
X42575Y-40119D01*
X42252Y-40253D01*
X42004Y-40500D01*
X41870Y-40824D01*
X41869Y-41174D01*
X42003Y-41497D01*
X42250Y-41745D01*
X42574Y-41879D01*
X42924Y-41880D01*
X43247Y-41746D01*
X43495Y-41499D01*
X43629Y-41175D01*
X43630Y-40825D01*
X43630Y-45200D01*
X41555Y-45200D01*
X41555Y-37500D01*
X41514Y-37291D01*
X41396Y-37114D01*
X41224Y-37000D01*
X41396Y-36885D01*
X41514Y-36708D01*
X41555Y-36500D01*
X41555Y-35000D01*
X41514Y-34791D01*
X41396Y-34614D01*
X41224Y-34500D01*
X41396Y-34385D01*
X41514Y-34208D01*
X41555Y-34000D01*
X41514Y-33791D01*
X41396Y-33614D01*
X41345Y-33580D01*
X41345Y-27382D01*
X41254Y-27163D01*
X41087Y-26995D01*
X40868Y-26905D01*
X40632Y-26904D01*
X40413Y-26995D01*
X40245Y-27162D01*
X40155Y-27381D01*
X40154Y-27617D01*
X40245Y-27836D01*
X40412Y-28004D01*
X40631Y-28094D01*
X40867Y-28095D01*
X41086Y-28004D01*
X41254Y-27837D01*
X41344Y-27618D01*
X41345Y-27382D01*
X41345Y-33580D01*
X41345Y-33580D01*
X41345Y-30545D01*
X41345Y-29855D01*
X41307Y-29763D01*
X41236Y-29693D01*
X41144Y-29655D01*
X41045Y-29654D01*
X40355Y-29654D01*
X40263Y-29692D01*
X40193Y-29763D01*
X40155Y-29855D01*
X40154Y-29954D01*
X40154Y-30644D01*
X40192Y-30736D01*
X40263Y-30806D01*
X40320Y-30830D01*
X40200Y-31010D01*
X40155Y-31238D01*
X40155Y-31261D01*
X40200Y-31489D01*
X40329Y-31682D01*
X40522Y-31811D01*
X40750Y-31856D01*
X40977Y-31811D01*
X41170Y-31682D01*
X41299Y-31489D01*
X41345Y-31261D01*
X41345Y-31238D01*
X41299Y-31010D01*
X41179Y-30830D01*
X41236Y-30807D01*
X41306Y-30736D01*
X41344Y-30644D01*
X41345Y-30545D01*
X41345Y-33580D01*
X41219Y-33496D01*
X41010Y-33455D01*
X40989Y-33455D01*
X40780Y-33496D01*
X40603Y-33614D01*
X40485Y-33791D01*
X40444Y-34000D01*
X40485Y-34208D01*
X40603Y-34385D01*
X40775Y-34500D01*
X40603Y-34614D01*
X40485Y-34791D01*
X40444Y-35000D01*
X40485Y-35208D01*
X40603Y-35385D01*
X40780Y-35503D01*
X40989Y-35545D01*
X41010Y-35545D01*
X41219Y-35503D01*
X41396Y-35385D01*
X41514Y-35208D01*
X41555Y-35000D01*
X41555Y-36500D01*
X41514Y-36291D01*
X41396Y-36114D01*
X41219Y-35996D01*
X41010Y-35955D01*
X40989Y-35955D01*
X40780Y-35996D01*
X40603Y-36114D01*
X40485Y-36291D01*
X40444Y-36500D01*
X40485Y-36708D01*
X40603Y-36885D01*
X40775Y-37000D01*
X40603Y-37114D01*
X40485Y-37291D01*
X40444Y-37500D01*
X40485Y-37708D01*
X40603Y-37885D01*
X40780Y-38003D01*
X40793Y-38006D01*
X40673Y-38063D01*
X40531Y-38221D01*
X40471Y-38365D01*
X40520Y-38450D01*
X40950Y-38450D01*
X40950Y-38442D01*
X41050Y-38442D01*
X41050Y-38450D01*
X41479Y-38450D01*
X41528Y-38365D01*
X41468Y-38221D01*
X41326Y-38063D01*
X41206Y-38006D01*
X41219Y-38003D01*
X41396Y-37885D01*
X41514Y-37708D01*
X41555Y-37500D01*
X41555Y-45200D01*
X41528Y-45200D01*
X41528Y-38634D01*
X41479Y-38550D01*
X41050Y-38550D01*
X41050Y-38980D01*
X41134Y-39028D01*
X41326Y-38936D01*
X41468Y-38778D01*
X41528Y-38634D01*
X41528Y-45200D01*
X41055Y-45200D01*
X41055Y-39500D01*
X41014Y-39291D01*
X40950Y-39195D01*
X40950Y-38980D01*
X40950Y-38550D01*
X40520Y-38550D01*
X40471Y-38634D01*
X40531Y-38778D01*
X40673Y-38936D01*
X40865Y-39028D01*
X40950Y-38980D01*
X40950Y-39195D01*
X40896Y-39114D01*
X40719Y-38996D01*
X40510Y-38955D01*
X40489Y-38955D01*
X40280Y-38996D01*
X40103Y-39114D01*
X39985Y-39291D01*
X39944Y-39500D01*
X39985Y-39708D01*
X40103Y-39885D01*
X40280Y-40003D01*
X40489Y-40045D01*
X40510Y-40045D01*
X40719Y-40003D01*
X40896Y-39885D01*
X41014Y-39708D01*
X41055Y-39500D01*
X41055Y-45200D01*
X40595Y-45200D01*
X40595Y-43882D01*
X40504Y-43663D01*
X40337Y-43495D01*
X40118Y-43405D01*
X39882Y-43404D01*
X39663Y-43495D01*
X39545Y-43613D01*
X39545Y-30245D01*
X39545Y-29655D01*
X39545Y-29655D01*
X39545Y-27010D01*
X39545Y-26989D01*
X39503Y-26780D01*
X39385Y-26603D01*
X39208Y-26485D01*
X39000Y-26444D01*
X38791Y-26485D01*
X38614Y-26603D01*
X38501Y-26772D01*
X38396Y-26614D01*
X38219Y-26496D01*
X38010Y-26455D01*
X37989Y-26455D01*
X37780Y-26496D01*
X37603Y-26614D01*
X37485Y-26791D01*
X37444Y-27000D01*
X37485Y-27208D01*
X37603Y-27385D01*
X37780Y-27503D01*
X37989Y-27545D01*
X38010Y-27545D01*
X38219Y-27503D01*
X38396Y-27385D01*
X38501Y-27227D01*
X38614Y-27396D01*
X38791Y-27514D01*
X39000Y-27555D01*
X39208Y-27514D01*
X39385Y-27396D01*
X39503Y-27219D01*
X39545Y-27010D01*
X39545Y-29655D01*
X39507Y-29563D01*
X39436Y-29493D01*
X39344Y-29455D01*
X39245Y-29454D01*
X38655Y-29454D01*
X38563Y-29492D01*
X38493Y-29563D01*
X38455Y-29655D01*
X38454Y-29754D01*
X38454Y-30344D01*
X38492Y-30436D01*
X38563Y-30506D01*
X38655Y-30544D01*
X38754Y-30545D01*
X39344Y-30545D01*
X39436Y-30507D01*
X39506Y-30436D01*
X39544Y-30344D01*
X39545Y-30245D01*
X39545Y-43613D01*
X39495Y-43662D01*
X39405Y-43881D01*
X39404Y-44117D01*
X39495Y-44336D01*
X39662Y-44504D01*
X39881Y-44594D01*
X40117Y-44595D01*
X40336Y-44504D01*
X40504Y-44337D01*
X40594Y-44118D01*
X40595Y-43882D01*
X40595Y-45200D01*
X38595Y-45200D01*
X38595Y-44295D01*
X38595Y-43605D01*
X38595Y-40795D01*
X38595Y-40105D01*
X38557Y-40013D01*
X38486Y-39943D01*
X38394Y-39905D01*
X38380Y-39905D01*
X38380Y-30325D01*
X38246Y-30002D01*
X37999Y-29754D01*
X37675Y-29620D01*
X37325Y-29619D01*
X37002Y-29753D01*
X36754Y-30000D01*
X36620Y-30324D01*
X36619Y-30674D01*
X36753Y-30997D01*
X37000Y-31245D01*
X37324Y-31379D01*
X37674Y-31380D01*
X37997Y-31246D01*
X38245Y-30999D01*
X38379Y-30675D01*
X38380Y-30325D01*
X38380Y-39905D01*
X38295Y-39904D01*
X38020Y-39904D01*
X38044Y-39844D01*
X38045Y-39745D01*
X38045Y-39155D01*
X38007Y-39063D01*
X37936Y-38993D01*
X37844Y-38955D01*
X37745Y-38954D01*
X37291Y-38954D01*
X37396Y-38885D01*
X37514Y-38708D01*
X37555Y-38500D01*
X37514Y-38291D01*
X37396Y-38114D01*
X37224Y-37999D01*
X37396Y-37885D01*
X37514Y-37708D01*
X37555Y-37500D01*
X37514Y-37291D01*
X37396Y-37114D01*
X37224Y-37000D01*
X37396Y-36885D01*
X37514Y-36708D01*
X37555Y-36500D01*
X37555Y-35000D01*
X37514Y-34791D01*
X37396Y-34614D01*
X37224Y-34500D01*
X37396Y-34385D01*
X37514Y-34208D01*
X37555Y-34000D01*
X37514Y-33791D01*
X37396Y-33614D01*
X37219Y-33496D01*
X37010Y-33455D01*
X36989Y-33455D01*
X36780Y-33496D01*
X36603Y-33614D01*
X36485Y-33791D01*
X36444Y-34000D01*
X36485Y-34208D01*
X36603Y-34385D01*
X36775Y-34500D01*
X36603Y-34614D01*
X36485Y-34791D01*
X36444Y-35000D01*
X36485Y-35208D01*
X36603Y-35385D01*
X36780Y-35503D01*
X36989Y-35545D01*
X37010Y-35545D01*
X37219Y-35503D01*
X37396Y-35385D01*
X37514Y-35208D01*
X37555Y-35000D01*
X37555Y-36500D01*
X37514Y-36291D01*
X37396Y-36114D01*
X37219Y-35996D01*
X37010Y-35955D01*
X36989Y-35955D01*
X36780Y-35996D01*
X36603Y-36114D01*
X36485Y-36291D01*
X36444Y-36500D01*
X36485Y-36708D01*
X36603Y-36885D01*
X36775Y-37000D01*
X36603Y-37114D01*
X36485Y-37291D01*
X36444Y-37500D01*
X36485Y-37708D01*
X36603Y-37885D01*
X36775Y-38000D01*
X36603Y-38114D01*
X36485Y-38291D01*
X36444Y-38500D01*
X36485Y-38708D01*
X36603Y-38885D01*
X36780Y-39003D01*
X36989Y-39045D01*
X37010Y-39045D01*
X37011Y-39044D01*
X36993Y-39063D01*
X36955Y-39155D01*
X36954Y-39254D01*
X36954Y-39844D01*
X36992Y-39936D01*
X37063Y-40006D01*
X37155Y-40044D01*
X37254Y-40045D01*
X37429Y-40045D01*
X37405Y-40105D01*
X37404Y-40204D01*
X37404Y-40894D01*
X37442Y-40986D01*
X37513Y-41056D01*
X37570Y-41080D01*
X37450Y-41260D01*
X37405Y-41488D01*
X37405Y-41511D01*
X37450Y-41739D01*
X37579Y-41932D01*
X37772Y-42061D01*
X38000Y-42106D01*
X38227Y-42061D01*
X38420Y-41932D01*
X38549Y-41739D01*
X38595Y-41511D01*
X38595Y-41488D01*
X38549Y-41260D01*
X38429Y-41080D01*
X38486Y-41057D01*
X38556Y-40986D01*
X38594Y-40894D01*
X38595Y-40795D01*
X38595Y-43605D01*
X38557Y-43513D01*
X38486Y-43443D01*
X38394Y-43405D01*
X38295Y-43404D01*
X37605Y-43404D01*
X37513Y-43442D01*
X37443Y-43513D01*
X37405Y-43605D01*
X37404Y-43704D01*
X37404Y-44394D01*
X37442Y-44486D01*
X37513Y-44556D01*
X37605Y-44594D01*
X37704Y-44595D01*
X38394Y-44595D01*
X38486Y-44557D01*
X38556Y-44486D01*
X38594Y-44394D01*
X38595Y-44295D01*
X38595Y-45200D01*
X36234Y-45200D01*
X36234Y-43392D01*
X36151Y-43191D01*
X36045Y-43085D01*
X36045Y-36558D01*
X36045Y-36236D01*
X36003Y-36027D01*
X35885Y-35851D01*
X35708Y-35732D01*
X35545Y-35700D01*
X35545Y-35441D01*
X35503Y-35232D01*
X35385Y-35056D01*
X35265Y-34976D01*
X35385Y-34896D01*
X35503Y-34719D01*
X35545Y-34510D01*
X35545Y-34489D01*
X35545Y-30510D01*
X35545Y-30489D01*
X35503Y-30280D01*
X35385Y-30103D01*
X35208Y-29985D01*
X35000Y-29944D01*
X34791Y-29985D01*
X34614Y-30103D01*
X34528Y-30233D01*
X34528Y-27134D01*
X34528Y-26865D01*
X34468Y-26721D01*
X34326Y-26563D01*
X34134Y-26471D01*
X34050Y-26519D01*
X34050Y-26950D01*
X34479Y-26950D01*
X34528Y-26865D01*
X34528Y-27134D01*
X34479Y-27050D01*
X34050Y-27050D01*
X34050Y-27480D01*
X34134Y-27528D01*
X34326Y-27436D01*
X34468Y-27278D01*
X34528Y-27134D01*
X34528Y-30233D01*
X34496Y-30280D01*
X34455Y-30489D01*
X34455Y-30510D01*
X34496Y-30719D01*
X34614Y-30896D01*
X34791Y-31014D01*
X35000Y-31055D01*
X35208Y-31014D01*
X35385Y-30896D01*
X35503Y-30719D01*
X35545Y-30510D01*
X35545Y-34489D01*
X35503Y-34280D01*
X35385Y-34103D01*
X35208Y-33985D01*
X35000Y-33944D01*
X34791Y-33985D01*
X34614Y-34103D01*
X34496Y-34280D01*
X34455Y-34489D01*
X34455Y-34510D01*
X34496Y-34719D01*
X34614Y-34896D01*
X34734Y-34976D01*
X34614Y-35056D01*
X34496Y-35232D01*
X34455Y-35441D01*
X34455Y-35705D01*
X34449Y-35705D01*
X34449Y-35770D01*
X34365Y-35721D01*
X34337Y-35727D01*
X34149Y-35829D01*
X34015Y-35995D01*
X33955Y-36200D01*
X33955Y-36347D01*
X34450Y-36347D01*
X34450Y-36339D01*
X34550Y-36339D01*
X34550Y-36347D01*
X34557Y-36347D01*
X34557Y-36447D01*
X34550Y-36447D01*
X34550Y-37024D01*
X34634Y-37073D01*
X34662Y-37067D01*
X34850Y-36965D01*
X34984Y-36799D01*
X34995Y-36762D01*
X34996Y-36767D01*
X35114Y-36943D01*
X35291Y-37062D01*
X35500Y-37103D01*
X35708Y-37062D01*
X35885Y-36943D01*
X36003Y-36767D01*
X36045Y-36558D01*
X36045Y-43085D01*
X35998Y-43038D01*
X35797Y-42955D01*
X35581Y-42954D01*
X35545Y-42969D01*
X35545Y-42899D01*
X35462Y-42699D01*
X35309Y-42546D01*
X35108Y-42462D01*
X34892Y-42462D01*
X34691Y-42545D01*
X34538Y-42698D01*
X34455Y-42898D01*
X34455Y-42969D01*
X34450Y-42967D01*
X34450Y-37024D01*
X34450Y-36447D01*
X33955Y-36447D01*
X33955Y-36595D01*
X34015Y-36799D01*
X34149Y-36965D01*
X34337Y-37067D01*
X34365Y-37073D01*
X34450Y-37024D01*
X34450Y-42967D01*
X34419Y-42955D01*
X34203Y-42954D01*
X34002Y-43037D01*
X33950Y-43090D01*
X33950Y-27480D01*
X33950Y-27050D01*
X33950Y-26950D01*
X33950Y-26519D01*
X33865Y-26471D01*
X33673Y-26563D01*
X33531Y-26721D01*
X33471Y-26865D01*
X33520Y-26950D01*
X33950Y-26950D01*
X33950Y-27050D01*
X33520Y-27050D01*
X33471Y-27134D01*
X33531Y-27278D01*
X33673Y-27436D01*
X33865Y-27528D01*
X33950Y-27480D01*
X33950Y-43090D01*
X33849Y-43190D01*
X33766Y-43391D01*
X33765Y-43607D01*
X33848Y-43808D01*
X34001Y-43961D01*
X34202Y-44044D01*
X34418Y-44045D01*
X34454Y-44030D01*
X34454Y-44100D01*
X34537Y-44300D01*
X34690Y-44453D01*
X34891Y-44537D01*
X35107Y-44537D01*
X35308Y-44454D01*
X35461Y-44301D01*
X35544Y-44101D01*
X35544Y-44030D01*
X35580Y-44044D01*
X35796Y-44045D01*
X35997Y-43962D01*
X36150Y-43809D01*
X36233Y-43608D01*
X36234Y-43392D01*
X36234Y-45200D01*
X33300Y-45200D01*
X33300Y-26300D01*
X52200Y-26300D01*
X52200Y-45200D01*
X52200Y-45200D01*
G37*
G54D21*
X52200Y-45200D02*
X52028Y-45200D01*
X52028Y-27134D01*
X52028Y-26865D01*
X51968Y-26721D01*
X51826Y-26563D01*
X51634Y-26471D01*
X51550Y-26519D01*
X51550Y-26950D01*
X51979Y-26950D01*
X52028Y-26865D01*
X52028Y-27134D01*
X51979Y-27050D01*
X51550Y-27050D01*
X51550Y-27480D01*
X51634Y-27528D01*
X51826Y-27436D01*
X51968Y-27278D01*
X52028Y-27134D01*
X52028Y-45200D01*
X51734Y-45200D01*
X51734Y-43392D01*
X51651Y-43191D01*
X51545Y-43085D01*
X51545Y-36558D01*
X51545Y-36236D01*
X51503Y-36027D01*
X51450Y-35947D01*
X51450Y-27480D01*
X51450Y-27050D01*
X51450Y-26950D01*
X51450Y-26519D01*
X51365Y-26471D01*
X51173Y-26563D01*
X51031Y-26721D01*
X50971Y-26865D01*
X51020Y-26950D01*
X51450Y-26950D01*
X51450Y-27050D01*
X51020Y-27050D01*
X50971Y-27134D01*
X51031Y-27278D01*
X51173Y-27436D01*
X51365Y-27528D01*
X51450Y-27480D01*
X51450Y-35947D01*
X51385Y-35851D01*
X51208Y-35732D01*
X51045Y-35700D01*
X51045Y-35441D01*
X51003Y-35232D01*
X50885Y-35056D01*
X50765Y-34976D01*
X50885Y-34896D01*
X51003Y-34719D01*
X51045Y-34510D01*
X51045Y-34489D01*
X51045Y-30510D01*
X51045Y-30489D01*
X51003Y-30280D01*
X50885Y-30103D01*
X50708Y-29985D01*
X50500Y-29944D01*
X50291Y-29985D01*
X50114Y-30103D01*
X49996Y-30280D01*
X49955Y-30489D01*
X49955Y-30510D01*
X49996Y-30719D01*
X50114Y-30896D01*
X50291Y-31014D01*
X50500Y-31055D01*
X50708Y-31014D01*
X50885Y-30896D01*
X51003Y-30719D01*
X51045Y-30510D01*
X51045Y-34489D01*
X51003Y-34280D01*
X50885Y-34103D01*
X50708Y-33985D01*
X50500Y-33944D01*
X50291Y-33985D01*
X50114Y-34103D01*
X49996Y-34280D01*
X49955Y-34489D01*
X49955Y-34510D01*
X49996Y-34719D01*
X50114Y-34896D01*
X50234Y-34976D01*
X50114Y-35056D01*
X49996Y-35232D01*
X49955Y-35441D01*
X49955Y-35705D01*
X49949Y-35705D01*
X49949Y-35770D01*
X49865Y-35721D01*
X49837Y-35727D01*
X49649Y-35829D01*
X49515Y-35995D01*
X49455Y-36200D01*
X49455Y-36347D01*
X49950Y-36347D01*
X49950Y-36339D01*
X50050Y-36339D01*
X50050Y-36347D01*
X50057Y-36347D01*
X50057Y-36447D01*
X50050Y-36447D01*
X50050Y-37024D01*
X50134Y-37073D01*
X50162Y-37067D01*
X50350Y-36965D01*
X50484Y-36799D01*
X50495Y-36762D01*
X50496Y-36767D01*
X50614Y-36943D01*
X50791Y-37062D01*
X51000Y-37103D01*
X51208Y-37062D01*
X51385Y-36943D01*
X51503Y-36767D01*
X51545Y-36558D01*
X51545Y-43085D01*
X51498Y-43038D01*
X51297Y-42955D01*
X51081Y-42954D01*
X51045Y-42969D01*
X51045Y-42899D01*
X50962Y-42699D01*
X50809Y-42546D01*
X50608Y-42462D01*
X50392Y-42462D01*
X50191Y-42545D01*
X50038Y-42698D01*
X49955Y-42898D01*
X49955Y-42969D01*
X49950Y-42967D01*
X49950Y-37024D01*
X49950Y-36447D01*
X49455Y-36447D01*
X49455Y-36595D01*
X49515Y-36799D01*
X49649Y-36965D01*
X49837Y-37067D01*
X49865Y-37073D01*
X49950Y-37024D01*
X49950Y-42967D01*
X49919Y-42955D01*
X49703Y-42954D01*
X49502Y-43037D01*
X49349Y-43190D01*
X49266Y-43391D01*
X49265Y-43607D01*
X49348Y-43808D01*
X49501Y-43961D01*
X49702Y-44044D01*
X49918Y-44045D01*
X49954Y-44030D01*
X49954Y-44100D01*
X50037Y-44300D01*
X50190Y-44453D01*
X50391Y-44537D01*
X50607Y-44537D01*
X50808Y-44454D01*
X50961Y-44301D01*
X51044Y-44101D01*
X51044Y-44030D01*
X51080Y-44044D01*
X51296Y-44045D01*
X51497Y-43962D01*
X51650Y-43809D01*
X51733Y-43608D01*
X51734Y-43392D01*
X51734Y-45200D01*
X49055Y-45200D01*
X49055Y-37500D01*
X49014Y-37291D01*
X48896Y-37114D01*
X48724Y-37000D01*
X48896Y-36885D01*
X49014Y-36708D01*
X49055Y-36500D01*
X49055Y-35000D01*
X49014Y-34791D01*
X48896Y-34614D01*
X48724Y-34500D01*
X48896Y-34385D01*
X49014Y-34208D01*
X49055Y-34000D01*
X49014Y-33791D01*
X48896Y-33614D01*
X48880Y-33603D01*
X48880Y-30325D01*
X48746Y-30002D01*
X48499Y-29754D01*
X48175Y-29620D01*
X48055Y-29620D01*
X48055Y-27000D01*
X48014Y-26791D01*
X47896Y-26614D01*
X47719Y-26496D01*
X47510Y-26455D01*
X47489Y-26455D01*
X47280Y-26496D01*
X47103Y-26614D01*
X46998Y-26772D01*
X46885Y-26603D01*
X46708Y-26485D01*
X46500Y-26444D01*
X46291Y-26485D01*
X46114Y-26603D01*
X45996Y-26780D01*
X45955Y-26989D01*
X45955Y-27010D01*
X45996Y-27219D01*
X46114Y-27396D01*
X46291Y-27514D01*
X46500Y-27555D01*
X46708Y-27514D01*
X46885Y-27396D01*
X46998Y-27227D01*
X47103Y-27385D01*
X47280Y-27503D01*
X47489Y-27545D01*
X47510Y-27545D01*
X47719Y-27503D01*
X47896Y-27385D01*
X48014Y-27208D01*
X48055Y-27000D01*
X48055Y-29620D01*
X47825Y-29619D01*
X47502Y-29753D01*
X47254Y-30000D01*
X47120Y-30324D01*
X47119Y-30674D01*
X47253Y-30997D01*
X47500Y-31245D01*
X47824Y-31379D01*
X48174Y-31380D01*
X48497Y-31246D01*
X48745Y-30999D01*
X48879Y-30675D01*
X48880Y-30325D01*
X48880Y-33603D01*
X48719Y-33496D01*
X48510Y-33455D01*
X48489Y-33455D01*
X48280Y-33496D01*
X48103Y-33614D01*
X47985Y-33791D01*
X47944Y-34000D01*
X47985Y-34208D01*
X48103Y-34385D01*
X48275Y-34500D01*
X48103Y-34614D01*
X47985Y-34791D01*
X47944Y-35000D01*
X47985Y-35208D01*
X48103Y-35385D01*
X48280Y-35503D01*
X48489Y-35545D01*
X48510Y-35545D01*
X48719Y-35503D01*
X48896Y-35385D01*
X49014Y-35208D01*
X49055Y-35000D01*
X49055Y-36500D01*
X49014Y-36291D01*
X48896Y-36114D01*
X48719Y-35996D01*
X48510Y-35955D01*
X48489Y-35955D01*
X48280Y-35996D01*
X48103Y-36114D01*
X47985Y-36291D01*
X47944Y-36500D01*
X47985Y-36708D01*
X48103Y-36885D01*
X48275Y-37000D01*
X48103Y-37114D01*
X47985Y-37291D01*
X47944Y-37500D01*
X47985Y-37708D01*
X48103Y-37885D01*
X48280Y-38003D01*
X48293Y-38006D01*
X48173Y-38063D01*
X48031Y-38221D01*
X47971Y-38365D01*
X48020Y-38450D01*
X48450Y-38450D01*
X48450Y-38442D01*
X48550Y-38442D01*
X48550Y-38450D01*
X48979Y-38450D01*
X49028Y-38365D01*
X48968Y-38221D01*
X48826Y-38063D01*
X48706Y-38006D01*
X48719Y-38003D01*
X48896Y-37885D01*
X49014Y-37708D01*
X49055Y-37500D01*
X49055Y-45200D01*
X49028Y-45200D01*
X49028Y-38634D01*
X48979Y-38550D01*
X48550Y-38550D01*
X48550Y-38980D01*
X48634Y-39028D01*
X48826Y-38936D01*
X48968Y-38778D01*
X49028Y-38634D01*
X49028Y-45200D01*
X48555Y-45200D01*
X48555Y-39500D01*
X48514Y-39291D01*
X48450Y-39195D01*
X48450Y-38980D01*
X48450Y-38550D01*
X48020Y-38550D01*
X47971Y-38634D01*
X48031Y-38778D01*
X48173Y-38936D01*
X48365Y-39028D01*
X48450Y-38980D01*
X48450Y-39195D01*
X48396Y-39114D01*
X48219Y-38996D01*
X48010Y-38955D01*
X47989Y-38955D01*
X47780Y-38996D01*
X47603Y-39114D01*
X47485Y-39291D01*
X47444Y-39500D01*
X47485Y-39708D01*
X47603Y-39885D01*
X47780Y-40003D01*
X47989Y-40045D01*
X48010Y-40045D01*
X48219Y-40003D01*
X48396Y-39885D01*
X48514Y-39708D01*
X48555Y-39500D01*
X48555Y-45200D01*
X48095Y-45200D01*
X48095Y-43882D01*
X48004Y-43663D01*
X47837Y-43495D01*
X47618Y-43405D01*
X47382Y-43404D01*
X47163Y-43495D01*
X47045Y-43613D01*
X47045Y-30245D01*
X47045Y-29655D01*
X47007Y-29563D01*
X46936Y-29493D01*
X46844Y-29455D01*
X46745Y-29454D01*
X46155Y-29454D01*
X46063Y-29492D01*
X45993Y-29563D01*
X45955Y-29655D01*
X45954Y-29754D01*
X45954Y-30344D01*
X45992Y-30436D01*
X46063Y-30506D01*
X46155Y-30544D01*
X46254Y-30545D01*
X46844Y-30545D01*
X46936Y-30507D01*
X47006Y-30436D01*
X47044Y-30344D01*
X47045Y-30245D01*
X47045Y-43613D01*
X46995Y-43662D01*
X46905Y-43881D01*
X46904Y-44117D01*
X46995Y-44336D01*
X47162Y-44504D01*
X47381Y-44594D01*
X47617Y-44595D01*
X47836Y-44504D01*
X48004Y-44337D01*
X48094Y-44118D01*
X48095Y-43882D01*
X48095Y-45200D01*
X46095Y-45200D01*
X46095Y-44295D01*
X46095Y-43605D01*
X46095Y-41795D01*
X46095Y-41105D01*
X46057Y-41013D01*
X45986Y-40943D01*
X45929Y-40919D01*
X46049Y-40739D01*
X46095Y-40511D01*
X46095Y-40488D01*
X46049Y-40260D01*
X45920Y-40067D01*
X45727Y-39938D01*
X45522Y-39897D01*
X45544Y-39844D01*
X45545Y-39745D01*
X45545Y-39155D01*
X45507Y-39063D01*
X45436Y-38993D01*
X45345Y-38955D01*
X45345Y-27795D01*
X45345Y-27204D01*
X45344Y-27105D01*
X45306Y-27013D01*
X45236Y-26942D01*
X45144Y-26904D01*
X44862Y-26905D01*
X44800Y-26967D01*
X44800Y-27450D01*
X45282Y-27450D01*
X45345Y-27387D01*
X45345Y-27204D01*
X45345Y-27795D01*
X45345Y-27612D01*
X45282Y-27550D01*
X44800Y-27550D01*
X44800Y-28032D01*
X44862Y-28095D01*
X45144Y-28095D01*
X45236Y-28057D01*
X45306Y-27986D01*
X45344Y-27894D01*
X45345Y-27795D01*
X45345Y-38955D01*
X45344Y-38955D01*
X45245Y-38954D01*
X44791Y-38954D01*
X44896Y-38885D01*
X45014Y-38708D01*
X45055Y-38500D01*
X45014Y-38291D01*
X44896Y-38114D01*
X44724Y-37999D01*
X44896Y-37885D01*
X45014Y-37708D01*
X45055Y-37500D01*
X45014Y-37291D01*
X44896Y-37114D01*
X44724Y-37000D01*
X44896Y-36885D01*
X45014Y-36708D01*
X45055Y-36500D01*
X45055Y-35000D01*
X45014Y-34791D01*
X44896Y-34614D01*
X44724Y-34500D01*
X44896Y-34385D01*
X45014Y-34208D01*
X45055Y-34000D01*
X45014Y-33791D01*
X44896Y-33614D01*
X44719Y-33496D01*
X44700Y-33492D01*
X44700Y-28032D01*
X44700Y-27550D01*
X44700Y-27450D01*
X44700Y-26967D01*
X44637Y-26905D01*
X44355Y-26904D01*
X44263Y-26942D01*
X44193Y-27013D01*
X44155Y-27105D01*
X44154Y-27204D01*
X44155Y-27387D01*
X44217Y-27450D01*
X44700Y-27450D01*
X44700Y-27550D01*
X44217Y-27550D01*
X44155Y-27612D01*
X44154Y-27795D01*
X44155Y-27894D01*
X44193Y-27986D01*
X44263Y-28057D01*
X44355Y-28095D01*
X44637Y-28095D01*
X44700Y-28032D01*
X44700Y-33492D01*
X44510Y-33455D01*
X44489Y-33455D01*
X44280Y-33496D01*
X44103Y-33614D01*
X43985Y-33791D01*
X43944Y-34000D01*
X43985Y-34208D01*
X44103Y-34385D01*
X44275Y-34500D01*
X44103Y-34614D01*
X43985Y-34791D01*
X43944Y-35000D01*
X43985Y-35208D01*
X44103Y-35385D01*
X44280Y-35503D01*
X44489Y-35545D01*
X44510Y-35545D01*
X44719Y-35503D01*
X44896Y-35385D01*
X45014Y-35208D01*
X45055Y-35000D01*
X45055Y-36500D01*
X45014Y-36291D01*
X44896Y-36114D01*
X44719Y-35996D01*
X44510Y-35955D01*
X44489Y-35955D01*
X44280Y-35996D01*
X44103Y-36114D01*
X43985Y-36291D01*
X43944Y-36500D01*
X43985Y-36708D01*
X44103Y-36885D01*
X44275Y-37000D01*
X44103Y-37114D01*
X43985Y-37291D01*
X43944Y-37500D01*
X43985Y-37708D01*
X44103Y-37885D01*
X44275Y-38000D01*
X44103Y-38114D01*
X43985Y-38291D01*
X43944Y-38500D01*
X43985Y-38708D01*
X44103Y-38885D01*
X44280Y-39003D01*
X44489Y-39045D01*
X44510Y-39045D01*
X44511Y-39044D01*
X44493Y-39063D01*
X44455Y-39155D01*
X44454Y-39254D01*
X44454Y-39844D01*
X44492Y-39936D01*
X44563Y-40006D01*
X44655Y-40044D01*
X44754Y-40045D01*
X45113Y-40045D01*
X45079Y-40067D01*
X44950Y-40260D01*
X44905Y-40488D01*
X44905Y-40511D01*
X44950Y-40739D01*
X45070Y-40919D01*
X45013Y-40942D01*
X44943Y-41013D01*
X44905Y-41105D01*
X44904Y-41204D01*
X44904Y-41894D01*
X44942Y-41986D01*
X45013Y-42056D01*
X45105Y-42094D01*
X45204Y-42095D01*
X45894Y-42095D01*
X45986Y-42057D01*
X46056Y-41986D01*
X46094Y-41894D01*
X46095Y-41795D01*
X46095Y-43605D01*
X46057Y-43513D01*
X45986Y-43443D01*
X45894Y-43405D01*
X45795Y-43404D01*
X45105Y-43404D01*
X45013Y-43442D01*
X44943Y-43513D01*
X44905Y-43605D01*
X44904Y-43704D01*
X44904Y-44394D01*
X44942Y-44486D01*
X45013Y-44556D01*
X45105Y-44594D01*
X45204Y-44595D01*
X45894Y-44595D01*
X45986Y-44557D01*
X46056Y-44486D01*
X46094Y-44394D01*
X46095Y-44295D01*
X46095Y-45200D01*
X43630Y-45200D01*
X43630Y-40825D01*
X43496Y-40502D01*
X43345Y-40350D01*
X43345Y-27382D01*
X43254Y-27163D01*
X43087Y-26995D01*
X42868Y-26905D01*
X42632Y-26904D01*
X42413Y-26995D01*
X42245Y-27162D01*
X42155Y-27381D01*
X42154Y-27617D01*
X42245Y-27836D01*
X42412Y-28004D01*
X42631Y-28094D01*
X42867Y-28095D01*
X43086Y-28004D01*
X43254Y-27837D01*
X43344Y-27618D01*
X43345Y-27382D01*
X43345Y-40350D01*
X43345Y-40350D01*
X43345Y-30545D01*
X43345Y-29855D01*
X43307Y-29763D01*
X43236Y-29693D01*
X43144Y-29655D01*
X43045Y-29654D01*
X42355Y-29654D01*
X42263Y-29692D01*
X42193Y-29763D01*
X42155Y-29855D01*
X42154Y-29954D01*
X42154Y-30644D01*
X42192Y-30736D01*
X42263Y-30806D01*
X42320Y-30830D01*
X42200Y-31010D01*
X42155Y-31238D01*
X42155Y-31261D01*
X42200Y-31489D01*
X42329Y-31682D01*
X42522Y-31811D01*
X42750Y-31856D01*
X42977Y-31811D01*
X43170Y-31682D01*
X43299Y-31489D01*
X43345Y-31261D01*
X43345Y-31238D01*
X43299Y-31010D01*
X43179Y-30830D01*
X43236Y-30807D01*
X43306Y-30736D01*
X43344Y-30644D01*
X43345Y-30545D01*
X43345Y-40350D01*
X43300Y-40305D01*
X43300Y-33891D01*
X43216Y-33688D01*
X43061Y-33534D01*
X42859Y-33450D01*
X42641Y-33449D01*
X42438Y-33533D01*
X42284Y-33688D01*
X42200Y-33890D01*
X42199Y-34108D01*
X42283Y-34311D01*
X42422Y-34449D01*
X42400Y-34449D01*
X42308Y-34487D01*
X42238Y-34558D01*
X42200Y-34650D01*
X42199Y-34749D01*
X42199Y-35349D01*
X42237Y-35441D01*
X42301Y-35505D01*
X42243Y-35563D01*
X42205Y-35655D01*
X42204Y-35754D01*
X42204Y-36344D01*
X42242Y-36436D01*
X42313Y-36506D01*
X42405Y-36544D01*
X42504Y-36545D01*
X43094Y-36545D01*
X43186Y-36507D01*
X43256Y-36436D01*
X43294Y-36344D01*
X43295Y-36245D01*
X43295Y-35655D01*
X43257Y-35563D01*
X43198Y-35504D01*
X43261Y-35441D01*
X43299Y-35349D01*
X43300Y-35250D01*
X43300Y-34650D01*
X43262Y-34558D01*
X43191Y-34488D01*
X43099Y-34450D01*
X43077Y-34450D01*
X43215Y-34311D01*
X43299Y-34109D01*
X43300Y-33891D01*
X43300Y-40305D01*
X43295Y-40300D01*
X43295Y-39010D01*
X43295Y-38989D01*
X43253Y-38780D01*
X43135Y-38603D01*
X42958Y-38485D01*
X42750Y-38444D01*
X42541Y-38485D01*
X42364Y-38603D01*
X42246Y-38780D01*
X42205Y-38989D01*
X42205Y-39010D01*
X42246Y-39219D01*
X42364Y-39396D01*
X42541Y-39514D01*
X42750Y-39555D01*
X42958Y-39514D01*
X43135Y-39396D01*
X43253Y-39219D01*
X43295Y-39010D01*
X43295Y-40300D01*
X43249Y-40254D01*
X42925Y-40120D01*
X42575Y-40119D01*
X42252Y-40253D01*
X42004Y-40500D01*
X41870Y-40824D01*
X41869Y-41174D01*
X42003Y-41497D01*
X42250Y-41745D01*
X42574Y-41879D01*
X42924Y-41880D01*
X43247Y-41746D01*
X43495Y-41499D01*
X43629Y-41175D01*
X43630Y-40825D01*
X43630Y-45200D01*
X41555Y-45200D01*
X41555Y-37500D01*
X41514Y-37291D01*
X41396Y-37114D01*
X41224Y-37000D01*
X41396Y-36885D01*
X41514Y-36708D01*
X41555Y-36500D01*
X41555Y-35000D01*
X41514Y-34791D01*
X41396Y-34614D01*
X41224Y-34500D01*
X41396Y-34385D01*
X41514Y-34208D01*
X41555Y-34000D01*
X41514Y-33791D01*
X41396Y-33614D01*
X41345Y-33580D01*
X41345Y-27382D01*
X41254Y-27163D01*
X41087Y-26995D01*
X40868Y-26905D01*
X40632Y-26904D01*
X40413Y-26995D01*
X40245Y-27162D01*
X40155Y-27381D01*
X40154Y-27617D01*
X40245Y-27836D01*
X40412Y-28004D01*
X40631Y-28094D01*
X40867Y-28095D01*
X41086Y-28004D01*
X41254Y-27837D01*
X41344Y-27618D01*
X41345Y-27382D01*
X41345Y-33580D01*
X41345Y-33580D01*
X41345Y-30545D01*
X41345Y-29855D01*
X41307Y-29763D01*
X41236Y-29693D01*
X41144Y-29655D01*
X41045Y-29654D01*
X40355Y-29654D01*
X40263Y-29692D01*
X40193Y-29763D01*
X40155Y-29855D01*
X40154Y-29954D01*
X40154Y-30644D01*
X40192Y-30736D01*
X40263Y-30806D01*
X40320Y-30830D01*
X40200Y-31010D01*
X40155Y-31238D01*
X40155Y-31261D01*
X40200Y-31489D01*
X40329Y-31682D01*
X40522Y-31811D01*
X40750Y-31856D01*
X40977Y-31811D01*
X41170Y-31682D01*
X41299Y-31489D01*
X41345Y-31261D01*
X41345Y-31238D01*
X41299Y-31010D01*
X41179Y-30830D01*
X41236Y-30807D01*
X41306Y-30736D01*
X41344Y-30644D01*
X41345Y-30545D01*
X41345Y-33580D01*
X41219Y-33496D01*
X41010Y-33455D01*
X40989Y-33455D01*
X40780Y-33496D01*
X40603Y-33614D01*
X40485Y-33791D01*
X40444Y-34000D01*
X40485Y-34208D01*
X40603Y-34385D01*
X40775Y-34500D01*
X40603Y-34614D01*
X40485Y-34791D01*
X40444Y-35000D01*
X40485Y-35208D01*
X40603Y-35385D01*
X40780Y-35503D01*
X40989Y-35545D01*
X41010Y-35545D01*
X41219Y-35503D01*
X41396Y-35385D01*
X41514Y-35208D01*
X41555Y-35000D01*
X41555Y-36500D01*
X41514Y-36291D01*
X41396Y-36114D01*
X41219Y-35996D01*
X41010Y-35955D01*
X40989Y-35955D01*
X40780Y-35996D01*
X40603Y-36114D01*
X40485Y-36291D01*
X40444Y-36500D01*
X40485Y-36708D01*
X40603Y-36885D01*
X40775Y-37000D01*
X40603Y-37114D01*
X40485Y-37291D01*
X40444Y-37500D01*
X40485Y-37708D01*
X40603Y-37885D01*
X40780Y-38003D01*
X40793Y-38006D01*
X40673Y-38063D01*
X40531Y-38221D01*
X40471Y-38365D01*
X40520Y-38450D01*
X40950Y-38450D01*
X40950Y-38442D01*
X41050Y-38442D01*
X41050Y-38450D01*
X41479Y-38450D01*
X41528Y-38365D01*
X41468Y-38221D01*
X41326Y-38063D01*
X41206Y-38006D01*
X41219Y-38003D01*
X41396Y-37885D01*
X41514Y-37708D01*
X41555Y-37500D01*
X41555Y-45200D01*
X41528Y-45200D01*
X41528Y-38634D01*
X41479Y-38550D01*
X41050Y-38550D01*
X41050Y-38980D01*
X41134Y-39028D01*
X41326Y-38936D01*
X41468Y-38778D01*
X41528Y-38634D01*
X41528Y-45200D01*
X41055Y-45200D01*
X41055Y-39500D01*
X41014Y-39291D01*
X40950Y-39195D01*
X40950Y-38980D01*
X40950Y-38550D01*
X40520Y-38550D01*
X40471Y-38634D01*
X40531Y-38778D01*
X40673Y-38936D01*
X40865Y-39028D01*
X40950Y-38980D01*
X40950Y-39195D01*
X40896Y-39114D01*
X40719Y-38996D01*
X40510Y-38955D01*
X40489Y-38955D01*
X40280Y-38996D01*
X40103Y-39114D01*
X39985Y-39291D01*
X39944Y-39500D01*
X39985Y-39708D01*
X40103Y-39885D01*
X40280Y-40003D01*
X40489Y-40045D01*
X40510Y-40045D01*
X40719Y-40003D01*
X40896Y-39885D01*
X41014Y-39708D01*
X41055Y-39500D01*
X41055Y-45200D01*
X40595Y-45200D01*
X40595Y-43882D01*
X40504Y-43663D01*
X40337Y-43495D01*
X40118Y-43405D01*
X39882Y-43404D01*
X39663Y-43495D01*
X39545Y-43613D01*
X39545Y-30245D01*
X39545Y-29655D01*
X39545Y-29655D01*
X39545Y-27010D01*
X39545Y-26989D01*
X39503Y-26780D01*
X39385Y-26603D01*
X39208Y-26485D01*
X39000Y-26444D01*
X38791Y-26485D01*
X38614Y-26603D01*
X38501Y-26772D01*
X38396Y-26614D01*
X38219Y-26496D01*
X38010Y-26455D01*
X37989Y-26455D01*
X37780Y-26496D01*
X37603Y-26614D01*
X37485Y-26791D01*
X37444Y-27000D01*
X37485Y-27208D01*
X37603Y-27385D01*
X37780Y-27503D01*
X37989Y-27545D01*
X38010Y-27545D01*
X38219Y-27503D01*
X38396Y-27385D01*
X38501Y-27227D01*
X38614Y-27396D01*
X38791Y-27514D01*
X39000Y-27555D01*
X39208Y-27514D01*
X39385Y-27396D01*
X39503Y-27219D01*
X39545Y-27010D01*
X39545Y-29655D01*
X39507Y-29563D01*
X39436Y-29493D01*
X39344Y-29455D01*
X39245Y-29454D01*
X38655Y-29454D01*
X38563Y-29492D01*
X38493Y-29563D01*
X38455Y-29655D01*
X38454Y-29754D01*
X38454Y-30344D01*
X38492Y-30436D01*
X38563Y-30506D01*
X38655Y-30544D01*
X38754Y-30545D01*
X39344Y-30545D01*
X39436Y-30507D01*
X39506Y-30436D01*
X39544Y-30344D01*
X39545Y-30245D01*
X39545Y-43613D01*
X39495Y-43662D01*
X39405Y-43881D01*
X39404Y-44117D01*
X39495Y-44336D01*
X39662Y-44504D01*
X39881Y-44594D01*
X40117Y-44595D01*
X40336Y-44504D01*
X40504Y-44337D01*
X40594Y-44118D01*
X40595Y-43882D01*
X40595Y-45200D01*
X38595Y-45200D01*
X38595Y-44295D01*
X38595Y-43605D01*
X38595Y-40795D01*
X38595Y-40105D01*
X38557Y-40013D01*
X38486Y-39943D01*
X38394Y-39905D01*
X38380Y-39905D01*
X38380Y-30325D01*
X38246Y-30002D01*
X37999Y-29754D01*
X37675Y-29620D01*
X37325Y-29619D01*
X37002Y-29753D01*
X36754Y-30000D01*
X36620Y-30324D01*
X36619Y-30674D01*
X36753Y-30997D01*
X37000Y-31245D01*
X37324Y-31379D01*
X37674Y-31380D01*
X37997Y-31246D01*
X38245Y-30999D01*
X38379Y-30675D01*
X38380Y-30325D01*
X38380Y-39905D01*
X38295Y-39904D01*
X38020Y-39904D01*
X38044Y-39844D01*
X38045Y-39745D01*
X38045Y-39155D01*
X38007Y-39063D01*
X37936Y-38993D01*
X37844Y-38955D01*
X37745Y-38954D01*
X37291Y-38954D01*
X37396Y-38885D01*
X37514Y-38708D01*
X37555Y-38500D01*
X37514Y-38291D01*
X37396Y-38114D01*
X37224Y-37999D01*
X37396Y-37885D01*
X37514Y-37708D01*
X37555Y-37500D01*
X37514Y-37291D01*
X37396Y-37114D01*
X37224Y-37000D01*
X37396Y-36885D01*
X37514Y-36708D01*
X37555Y-36500D01*
X37555Y-35000D01*
X37514Y-34791D01*
X37396Y-34614D01*
X37224Y-34500D01*
X37396Y-34385D01*
X37514Y-34208D01*
X37555Y-34000D01*
X37514Y-33791D01*
X37396Y-33614D01*
X37219Y-33496D01*
X37010Y-33455D01*
X36989Y-33455D01*
X36780Y-33496D01*
X36603Y-33614D01*
X36485Y-33791D01*
X36444Y-34000D01*
X36485Y-34208D01*
X36603Y-34385D01*
X36775Y-34500D01*
X36603Y-34614D01*
X36485Y-34791D01*
X36444Y-35000D01*
X36485Y-35208D01*
X36603Y-35385D01*
X36780Y-35503D01*
X36989Y-35545D01*
X37010Y-35545D01*
X37219Y-35503D01*
X37396Y-35385D01*
X37514Y-35208D01*
X37555Y-35000D01*
X37555Y-36500D01*
X37514Y-36291D01*
X37396Y-36114D01*
X37219Y-35996D01*
X37010Y-35955D01*
X36989Y-35955D01*
X36780Y-35996D01*
X36603Y-36114D01*
X36485Y-36291D01*
X36444Y-36500D01*
X36485Y-36708D01*
X36603Y-36885D01*
X36775Y-37000D01*
X36603Y-37114D01*
X36485Y-37291D01*
X36444Y-37500D01*
X36485Y-37708D01*
X36603Y-37885D01*
X36775Y-38000D01*
X36603Y-38114D01*
X36485Y-38291D01*
X36444Y-38500D01*
X36485Y-38708D01*
X36603Y-38885D01*
X36780Y-39003D01*
X36989Y-39045D01*
X37010Y-39045D01*
X37011Y-39044D01*
X36993Y-39063D01*
X36955Y-39155D01*
X36954Y-39254D01*
X36954Y-39844D01*
X36992Y-39936D01*
X37063Y-40006D01*
X37155Y-40044D01*
X37254Y-40045D01*
X37429Y-40045D01*
X37405Y-40105D01*
X37404Y-40204D01*
X37404Y-40894D01*
X37442Y-40986D01*
X37513Y-41056D01*
X37570Y-41080D01*
X37450Y-41260D01*
X37405Y-41488D01*
X37405Y-41511D01*
X37450Y-41739D01*
X37579Y-41932D01*
X37772Y-42061D01*
X38000Y-42106D01*
X38227Y-42061D01*
X38420Y-41932D01*
X38549Y-41739D01*
X38595Y-41511D01*
X38595Y-41488D01*
X38549Y-41260D01*
X38429Y-41080D01*
X38486Y-41057D01*
X38556Y-40986D01*
X38594Y-40894D01*
X38595Y-40795D01*
X38595Y-43605D01*
X38557Y-43513D01*
X38486Y-43443D01*
X38394Y-43405D01*
X38295Y-43404D01*
X37605Y-43404D01*
X37513Y-43442D01*
X37443Y-43513D01*
X37405Y-43605D01*
X37404Y-43704D01*
X37404Y-44394D01*
X37442Y-44486D01*
X37513Y-44556D01*
X37605Y-44594D01*
X37704Y-44595D01*
X38394Y-44595D01*
X38486Y-44557D01*
X38556Y-44486D01*
X38594Y-44394D01*
X38595Y-44295D01*
X38595Y-45200D01*
X36234Y-45200D01*
X36234Y-43392D01*
X36151Y-43191D01*
X36045Y-43085D01*
X36045Y-36558D01*
X36045Y-36236D01*
X36003Y-36027D01*
X35885Y-35851D01*
X35708Y-35732D01*
X35545Y-35700D01*
X35545Y-35441D01*
X35503Y-35232D01*
X35385Y-35056D01*
X35265Y-34976D01*
X35385Y-34896D01*
X35503Y-34719D01*
X35545Y-34510D01*
X35545Y-34489D01*
X35545Y-30510D01*
X35545Y-30489D01*
X35503Y-30280D01*
X35385Y-30103D01*
X35208Y-29985D01*
X35000Y-29944D01*
X34791Y-29985D01*
X34614Y-30103D01*
X34528Y-30233D01*
X34528Y-27134D01*
X34528Y-26865D01*
X34468Y-26721D01*
X34326Y-26563D01*
X34134Y-26471D01*
X34050Y-26519D01*
X34050Y-26950D01*
X34479Y-26950D01*
X34528Y-26865D01*
X34528Y-27134D01*
X34479Y-27050D01*
X34050Y-27050D01*
X34050Y-27480D01*
X34134Y-27528D01*
X34326Y-27436D01*
X34468Y-27278D01*
X34528Y-27134D01*
X34528Y-30233D01*
X34496Y-30280D01*
X34455Y-30489D01*
X34455Y-30510D01*
X34496Y-30719D01*
X34614Y-30896D01*
X34791Y-31014D01*
X35000Y-31055D01*
X35208Y-31014D01*
X35385Y-30896D01*
X35503Y-30719D01*
X35545Y-30510D01*
X35545Y-34489D01*
X35503Y-34280D01*
X35385Y-34103D01*
X35208Y-33985D01*
X35000Y-33944D01*
X34791Y-33985D01*
X34614Y-34103D01*
X34496Y-34280D01*
X34455Y-34489D01*
X34455Y-34510D01*
X34496Y-34719D01*
X34614Y-34896D01*
X34734Y-34976D01*
X34614Y-35056D01*
X34496Y-35232D01*
X34455Y-35441D01*
X34455Y-35705D01*
X34449Y-35705D01*
X34449Y-35770D01*
X34365Y-35721D01*
X34337Y-35727D01*
X34149Y-35829D01*
X34015Y-35995D01*
X33955Y-36200D01*
X33955Y-36347D01*
X34450Y-36347D01*
X34450Y-36339D01*
X34550Y-36339D01*
X34550Y-36347D01*
X34557Y-36347D01*
X34557Y-36447D01*
X34550Y-36447D01*
X34550Y-37024D01*
X34634Y-37073D01*
X34662Y-37067D01*
X34850Y-36965D01*
X34984Y-36799D01*
X34995Y-36762D01*
X34996Y-36767D01*
X35114Y-36943D01*
X35291Y-37062D01*
X35500Y-37103D01*
X35708Y-37062D01*
X35885Y-36943D01*
X36003Y-36767D01*
X36045Y-36558D01*
X36045Y-43085D01*
X35998Y-43038D01*
X35797Y-42955D01*
X35581Y-42954D01*
X35545Y-42969D01*
X35545Y-42899D01*
X35462Y-42699D01*
X35309Y-42546D01*
X35108Y-42462D01*
X34892Y-42462D01*
X34691Y-42545D01*
X34538Y-42698D01*
X34455Y-42898D01*
X34455Y-42969D01*
X34450Y-42967D01*
X34450Y-37024D01*
X34450Y-36447D01*
X33955Y-36447D01*
X33955Y-36595D01*
X34015Y-36799D01*
X34149Y-36965D01*
X34337Y-37067D01*
X34365Y-37073D01*
X34450Y-37024D01*
X34450Y-42967D01*
X34419Y-42955D01*
X34203Y-42954D01*
X34002Y-43037D01*
X33950Y-43090D01*
X33950Y-27480D01*
X33950Y-27050D01*
X33950Y-26950D01*
X33950Y-26519D01*
X33865Y-26471D01*
X33673Y-26563D01*
X33531Y-26721D01*
X33471Y-26865D01*
X33520Y-26950D01*
X33950Y-26950D01*
X33950Y-27050D01*
X33520Y-27050D01*
X33471Y-27134D01*
X33531Y-27278D01*
X33673Y-27436D01*
X33865Y-27528D01*
X33950Y-27480D01*
X33950Y-43090D01*
X33849Y-43190D01*
X33766Y-43391D01*
X33765Y-43607D01*
X33848Y-43808D01*
X34001Y-43961D01*
X34202Y-44044D01*
X34418Y-44045D01*
X34454Y-44030D01*
X34454Y-44100D01*
X34537Y-44300D01*
X34690Y-44453D01*
X34891Y-44537D01*
X35107Y-44537D01*
X35308Y-44454D01*
X35461Y-44301D01*
X35544Y-44101D01*
X35544Y-44030D01*
X35580Y-44044D01*
X35796Y-44045D01*
X35997Y-43962D01*
X36150Y-43809D01*
X36233Y-43608D01*
X36234Y-43392D01*
X36234Y-45200D01*
X33300Y-45200D01*
X33300Y-26300D01*
X52200Y-26300D01*
X52200Y-45200D01*
M02*
