G04 (created by PCBNEW (2013-07-07 BZR 4022)-stable) date 3/20/2015 7:52:39 PM*
%MOIN*%
G04 Gerber Fmt 3.4, Leading zero omitted, Abs format*
%FSLAX34Y34*%
G01*
G70*
G90*
G04 APERTURE LIST*
%ADD10C,0.00590551*%
%ADD11C,0.005*%
%ADD12C,0.00787402*%
%ADD13C,0.011811*%
%ADD14C,0.01*%
%ADD15C,0.006*%
%ADD16C,0.012*%
%ADD17C,0.0001*%
G04 APERTURE END LIST*
G54D10*
G54D11*
X33601Y-32119D02*
X33779Y-32119D01*
X33815Y-32130D01*
X33839Y-32154D01*
X33851Y-32190D01*
X33851Y-32214D01*
X33684Y-31892D02*
X33851Y-31892D01*
X33684Y-32000D02*
X33815Y-32000D01*
X33839Y-31988D01*
X33851Y-31964D01*
X33851Y-31928D01*
X33839Y-31904D01*
X33827Y-31892D01*
X33851Y-31773D02*
X33684Y-31773D01*
X33708Y-31773D02*
X33696Y-31761D01*
X33684Y-31738D01*
X33684Y-31702D01*
X33696Y-31678D01*
X33720Y-31666D01*
X33851Y-31666D01*
X33720Y-31666D02*
X33696Y-31654D01*
X33684Y-31630D01*
X33684Y-31595D01*
X33696Y-31571D01*
X33720Y-31559D01*
X33851Y-31559D01*
X33684Y-31440D02*
X33934Y-31440D01*
X33696Y-31440D02*
X33684Y-31416D01*
X33684Y-31369D01*
X33696Y-31345D01*
X33708Y-31333D01*
X33732Y-31321D01*
X33803Y-31321D01*
X33827Y-31333D01*
X33839Y-31345D01*
X33851Y-31369D01*
X33851Y-31416D01*
X33839Y-31440D01*
X33839Y-31119D02*
X33851Y-31142D01*
X33851Y-31190D01*
X33839Y-31214D01*
X33815Y-31226D01*
X33720Y-31226D01*
X33696Y-31214D01*
X33684Y-31190D01*
X33684Y-31142D01*
X33696Y-31119D01*
X33720Y-31107D01*
X33744Y-31107D01*
X33767Y-31226D01*
X33851Y-30999D02*
X33684Y-30999D01*
X33732Y-30999D02*
X33708Y-30988D01*
X33696Y-30976D01*
X33684Y-30952D01*
X33684Y-30928D01*
X33851Y-30654D02*
X33601Y-30654D01*
X33755Y-30630D02*
X33851Y-30559D01*
X33684Y-30559D02*
X33779Y-30654D01*
X33839Y-30357D02*
X33851Y-30380D01*
X33851Y-30428D01*
X33839Y-30452D01*
X33815Y-30464D01*
X33720Y-30464D01*
X33696Y-30452D01*
X33684Y-30428D01*
X33684Y-30380D01*
X33696Y-30357D01*
X33720Y-30345D01*
X33744Y-30345D01*
X33767Y-30464D01*
X33839Y-30142D02*
X33851Y-30166D01*
X33851Y-30214D01*
X33839Y-30238D01*
X33815Y-30249D01*
X33720Y-30249D01*
X33696Y-30238D01*
X33684Y-30214D01*
X33684Y-30166D01*
X33696Y-30142D01*
X33720Y-30130D01*
X33744Y-30130D01*
X33767Y-30249D01*
X33684Y-30023D02*
X33934Y-30023D01*
X33696Y-30023D02*
X33684Y-29999D01*
X33684Y-29952D01*
X33696Y-29928D01*
X33708Y-29916D01*
X33732Y-29904D01*
X33803Y-29904D01*
X33827Y-29916D01*
X33839Y-29928D01*
X33851Y-29952D01*
X33851Y-29999D01*
X33839Y-30023D01*
X33839Y-29809D02*
X33851Y-29785D01*
X33851Y-29738D01*
X33839Y-29714D01*
X33815Y-29702D01*
X33803Y-29702D01*
X33779Y-29714D01*
X33767Y-29738D01*
X33767Y-29773D01*
X33755Y-29797D01*
X33732Y-29809D01*
X33720Y-29809D01*
X33696Y-29797D01*
X33684Y-29773D01*
X33684Y-29738D01*
X33696Y-29714D01*
X33851Y-29369D02*
X33839Y-29392D01*
X33815Y-29404D01*
X33601Y-29404D01*
X33851Y-29238D02*
X33839Y-29261D01*
X33827Y-29273D01*
X33803Y-29285D01*
X33732Y-29285D01*
X33708Y-29273D01*
X33696Y-29261D01*
X33684Y-29238D01*
X33684Y-29202D01*
X33696Y-29178D01*
X33708Y-29166D01*
X33732Y-29154D01*
X33803Y-29154D01*
X33827Y-29166D01*
X33839Y-29178D01*
X33851Y-29202D01*
X33851Y-29238D01*
X33684Y-29071D02*
X33851Y-29023D01*
X33732Y-28976D01*
X33851Y-28928D01*
X33684Y-28880D01*
X33851Y-28595D02*
X33601Y-28595D01*
X33696Y-28595D02*
X33684Y-28571D01*
X33684Y-28523D01*
X33696Y-28499D01*
X33708Y-28488D01*
X33732Y-28476D01*
X33803Y-28476D01*
X33827Y-28488D01*
X33839Y-28499D01*
X33851Y-28523D01*
X33851Y-28571D01*
X33839Y-28595D01*
X33839Y-28273D02*
X33851Y-28297D01*
X33851Y-28345D01*
X33839Y-28369D01*
X33815Y-28380D01*
X33720Y-28380D01*
X33696Y-28369D01*
X33684Y-28345D01*
X33684Y-28297D01*
X33696Y-28273D01*
X33720Y-28261D01*
X33744Y-28261D01*
X33767Y-28380D01*
X33851Y-28047D02*
X33720Y-28047D01*
X33696Y-28059D01*
X33684Y-28083D01*
X33684Y-28130D01*
X33696Y-28154D01*
X33839Y-28047D02*
X33851Y-28071D01*
X33851Y-28130D01*
X33839Y-28154D01*
X33815Y-28166D01*
X33791Y-28166D01*
X33767Y-28154D01*
X33755Y-28130D01*
X33755Y-28071D01*
X33744Y-28047D01*
X33851Y-27928D02*
X33684Y-27928D01*
X33708Y-27928D02*
X33696Y-27916D01*
X33684Y-27892D01*
X33684Y-27857D01*
X33696Y-27833D01*
X33720Y-27821D01*
X33851Y-27821D01*
X33720Y-27821D02*
X33696Y-27809D01*
X33684Y-27785D01*
X33684Y-27749D01*
X33696Y-27726D01*
X33720Y-27714D01*
X33851Y-27714D01*
X33839Y-27607D02*
X33851Y-27583D01*
X33851Y-27535D01*
X33839Y-27511D01*
X33815Y-27499D01*
X33803Y-27499D01*
X33779Y-27511D01*
X33767Y-27535D01*
X33767Y-27571D01*
X33755Y-27595D01*
X33732Y-27607D01*
X33720Y-27607D01*
X33696Y-27595D01*
X33684Y-27571D01*
X33684Y-27535D01*
X33696Y-27511D01*
X33851Y-27166D02*
X33839Y-27190D01*
X33827Y-27202D01*
X33803Y-27214D01*
X33732Y-27214D01*
X33708Y-27202D01*
X33696Y-27190D01*
X33684Y-27166D01*
X33684Y-27130D01*
X33696Y-27107D01*
X33708Y-27095D01*
X33732Y-27083D01*
X33803Y-27083D01*
X33827Y-27095D01*
X33839Y-27107D01*
X33851Y-27130D01*
X33851Y-27166D01*
X33684Y-26976D02*
X33851Y-26976D01*
X33708Y-26976D02*
X33696Y-26964D01*
X33684Y-26940D01*
X33684Y-26904D01*
X33696Y-26880D01*
X33720Y-26869D01*
X33851Y-26869D01*
X34084Y-32214D02*
X34251Y-32166D01*
X34132Y-32119D01*
X34251Y-32071D01*
X34084Y-32023D01*
X34251Y-31928D02*
X34001Y-31928D01*
X34251Y-31821D02*
X34120Y-31821D01*
X34096Y-31833D01*
X34084Y-31857D01*
X34084Y-31892D01*
X34096Y-31916D01*
X34108Y-31928D01*
X34239Y-31607D02*
X34251Y-31630D01*
X34251Y-31678D01*
X34239Y-31702D01*
X34215Y-31714D01*
X34120Y-31714D01*
X34096Y-31702D01*
X34084Y-31678D01*
X34084Y-31630D01*
X34096Y-31607D01*
X34120Y-31595D01*
X34144Y-31595D01*
X34167Y-31714D01*
X34084Y-31488D02*
X34251Y-31488D01*
X34108Y-31488D02*
X34096Y-31476D01*
X34084Y-31452D01*
X34084Y-31416D01*
X34096Y-31392D01*
X34120Y-31380D01*
X34251Y-31380D01*
X34251Y-31071D02*
X34001Y-31071D01*
X34251Y-30964D02*
X34120Y-30964D01*
X34096Y-30976D01*
X34084Y-30999D01*
X34084Y-31035D01*
X34096Y-31059D01*
X34108Y-31071D01*
X34251Y-30845D02*
X34084Y-30845D01*
X34001Y-30845D02*
X34013Y-30857D01*
X34025Y-30845D01*
X34013Y-30833D01*
X34001Y-30845D01*
X34025Y-30845D01*
X34084Y-30619D02*
X34286Y-30619D01*
X34310Y-30630D01*
X34322Y-30642D01*
X34334Y-30666D01*
X34334Y-30702D01*
X34322Y-30726D01*
X34239Y-30619D02*
X34251Y-30642D01*
X34251Y-30690D01*
X34239Y-30714D01*
X34227Y-30726D01*
X34203Y-30738D01*
X34132Y-30738D01*
X34108Y-30726D01*
X34096Y-30714D01*
X34084Y-30690D01*
X34084Y-30642D01*
X34096Y-30619D01*
X34251Y-30499D02*
X34001Y-30499D01*
X34251Y-30392D02*
X34120Y-30392D01*
X34096Y-30404D01*
X34084Y-30428D01*
X34084Y-30464D01*
X34096Y-30488D01*
X34108Y-30499D01*
X34251Y-30083D02*
X34001Y-30083D01*
X34096Y-30083D02*
X34084Y-30059D01*
X34084Y-30011D01*
X34096Y-29988D01*
X34108Y-29976D01*
X34132Y-29964D01*
X34203Y-29964D01*
X34227Y-29976D01*
X34239Y-29988D01*
X34251Y-30011D01*
X34251Y-30059D01*
X34239Y-30083D01*
X34239Y-29761D02*
X34251Y-29785D01*
X34251Y-29833D01*
X34239Y-29857D01*
X34215Y-29869D01*
X34120Y-29869D01*
X34096Y-29857D01*
X34084Y-29833D01*
X34084Y-29785D01*
X34096Y-29761D01*
X34120Y-29749D01*
X34144Y-29749D01*
X34167Y-29869D01*
X34251Y-29535D02*
X34120Y-29535D01*
X34096Y-29547D01*
X34084Y-29571D01*
X34084Y-29619D01*
X34096Y-29642D01*
X34239Y-29535D02*
X34251Y-29559D01*
X34251Y-29619D01*
X34239Y-29642D01*
X34215Y-29654D01*
X34191Y-29654D01*
X34167Y-29642D01*
X34155Y-29619D01*
X34155Y-29559D01*
X34144Y-29535D01*
X34251Y-29416D02*
X34084Y-29416D01*
X34108Y-29416D02*
X34096Y-29404D01*
X34084Y-29380D01*
X34084Y-29345D01*
X34096Y-29321D01*
X34120Y-29309D01*
X34251Y-29309D01*
X34120Y-29309D02*
X34096Y-29297D01*
X34084Y-29273D01*
X34084Y-29238D01*
X34096Y-29214D01*
X34120Y-29202D01*
X34251Y-29202D01*
X34239Y-29095D02*
X34251Y-29071D01*
X34251Y-29023D01*
X34239Y-28999D01*
X34215Y-28988D01*
X34203Y-28988D01*
X34179Y-28999D01*
X34167Y-29023D01*
X34167Y-29059D01*
X34155Y-29083D01*
X34132Y-29095D01*
X34120Y-29095D01*
X34096Y-29083D01*
X34084Y-29059D01*
X34084Y-29023D01*
X34096Y-28999D01*
X34239Y-28595D02*
X34251Y-28619D01*
X34251Y-28666D01*
X34239Y-28690D01*
X34215Y-28702D01*
X34120Y-28702D01*
X34096Y-28690D01*
X34084Y-28666D01*
X34084Y-28619D01*
X34096Y-28595D01*
X34120Y-28583D01*
X34144Y-28583D01*
X34167Y-28702D01*
X34084Y-28476D02*
X34251Y-28476D01*
X34108Y-28476D02*
X34096Y-28464D01*
X34084Y-28440D01*
X34084Y-28404D01*
X34096Y-28380D01*
X34120Y-28369D01*
X34251Y-28369D01*
X34084Y-28142D02*
X34286Y-28142D01*
X34310Y-28154D01*
X34322Y-28166D01*
X34334Y-28190D01*
X34334Y-28226D01*
X34322Y-28249D01*
X34239Y-28142D02*
X34251Y-28166D01*
X34251Y-28214D01*
X34239Y-28238D01*
X34227Y-28249D01*
X34203Y-28261D01*
X34132Y-28261D01*
X34108Y-28249D01*
X34096Y-28238D01*
X34084Y-28214D01*
X34084Y-28166D01*
X34096Y-28142D01*
X34251Y-27916D02*
X34120Y-27916D01*
X34096Y-27928D01*
X34084Y-27952D01*
X34084Y-27999D01*
X34096Y-28023D01*
X34239Y-27916D02*
X34251Y-27940D01*
X34251Y-27999D01*
X34239Y-28023D01*
X34215Y-28035D01*
X34191Y-28035D01*
X34167Y-28023D01*
X34155Y-27999D01*
X34155Y-27940D01*
X34144Y-27916D01*
X34084Y-27690D02*
X34286Y-27690D01*
X34310Y-27702D01*
X34322Y-27714D01*
X34334Y-27738D01*
X34334Y-27773D01*
X34322Y-27797D01*
X34239Y-27690D02*
X34251Y-27714D01*
X34251Y-27761D01*
X34239Y-27785D01*
X34227Y-27797D01*
X34203Y-27809D01*
X34132Y-27809D01*
X34108Y-27797D01*
X34096Y-27785D01*
X34084Y-27761D01*
X34084Y-27714D01*
X34096Y-27690D01*
X34239Y-27476D02*
X34251Y-27499D01*
X34251Y-27547D01*
X34239Y-27571D01*
X34215Y-27583D01*
X34120Y-27583D01*
X34096Y-27571D01*
X34084Y-27547D01*
X34084Y-27499D01*
X34096Y-27476D01*
X34120Y-27464D01*
X34144Y-27464D01*
X34167Y-27583D01*
X34251Y-27249D02*
X34001Y-27249D01*
X34239Y-27249D02*
X34251Y-27273D01*
X34251Y-27321D01*
X34239Y-27345D01*
X34227Y-27357D01*
X34203Y-27369D01*
X34132Y-27369D01*
X34108Y-27357D01*
X34096Y-27345D01*
X34084Y-27321D01*
X34084Y-27273D01*
X34096Y-27249D01*
X34227Y-27130D02*
X34239Y-27119D01*
X34251Y-27130D01*
X34239Y-27142D01*
X34227Y-27130D01*
X34251Y-27130D01*
X51815Y-26916D02*
X51613Y-26916D01*
X51589Y-26904D01*
X51577Y-26892D01*
X51565Y-26869D01*
X51565Y-26833D01*
X51577Y-26809D01*
X51660Y-26916D02*
X51648Y-26892D01*
X51648Y-26845D01*
X51660Y-26821D01*
X51672Y-26809D01*
X51696Y-26797D01*
X51767Y-26797D01*
X51791Y-26809D01*
X51803Y-26821D01*
X51815Y-26845D01*
X51815Y-26892D01*
X51803Y-26916D01*
X51648Y-27035D02*
X51815Y-27035D01*
X51898Y-27035D02*
X51886Y-27023D01*
X51875Y-27035D01*
X51886Y-27047D01*
X51898Y-27035D01*
X51875Y-27035D01*
X51815Y-27119D02*
X51815Y-27214D01*
X51898Y-27154D02*
X51684Y-27154D01*
X51660Y-27166D01*
X51648Y-27190D01*
X51648Y-27214D01*
X51648Y-27297D02*
X51898Y-27297D01*
X51648Y-27404D02*
X51779Y-27404D01*
X51803Y-27392D01*
X51815Y-27369D01*
X51815Y-27333D01*
X51803Y-27309D01*
X51791Y-27297D01*
X51815Y-27630D02*
X51648Y-27630D01*
X51815Y-27523D02*
X51684Y-27523D01*
X51660Y-27535D01*
X51648Y-27559D01*
X51648Y-27595D01*
X51660Y-27619D01*
X51672Y-27630D01*
X51648Y-27750D02*
X51898Y-27750D01*
X51803Y-27750D02*
X51815Y-27773D01*
X51815Y-27821D01*
X51803Y-27845D01*
X51791Y-27857D01*
X51767Y-27869D01*
X51696Y-27869D01*
X51672Y-27857D01*
X51660Y-27845D01*
X51648Y-27821D01*
X51648Y-27773D01*
X51660Y-27750D01*
X51672Y-27976D02*
X51660Y-27988D01*
X51648Y-27976D01*
X51660Y-27964D01*
X51672Y-27976D01*
X51648Y-27976D01*
X51660Y-28202D02*
X51648Y-28178D01*
X51648Y-28130D01*
X51660Y-28107D01*
X51672Y-28095D01*
X51696Y-28083D01*
X51767Y-28083D01*
X51791Y-28095D01*
X51803Y-28107D01*
X51815Y-28130D01*
X51815Y-28178D01*
X51803Y-28202D01*
X51648Y-28345D02*
X51660Y-28321D01*
X51672Y-28309D01*
X51696Y-28297D01*
X51767Y-28297D01*
X51791Y-28309D01*
X51803Y-28321D01*
X51815Y-28345D01*
X51815Y-28380D01*
X51803Y-28404D01*
X51791Y-28416D01*
X51767Y-28428D01*
X51696Y-28428D01*
X51672Y-28416D01*
X51660Y-28404D01*
X51648Y-28380D01*
X51648Y-28345D01*
X51648Y-28535D02*
X51815Y-28535D01*
X51791Y-28535D02*
X51803Y-28547D01*
X51815Y-28571D01*
X51815Y-28607D01*
X51803Y-28630D01*
X51779Y-28642D01*
X51648Y-28642D01*
X51779Y-28642D02*
X51803Y-28654D01*
X51815Y-28678D01*
X51815Y-28714D01*
X51803Y-28738D01*
X51779Y-28750D01*
X51648Y-28750D01*
X51910Y-29047D02*
X51589Y-28833D01*
X51815Y-29130D02*
X51565Y-29130D01*
X51803Y-29130D02*
X51815Y-29154D01*
X51815Y-29202D01*
X51803Y-29226D01*
X51791Y-29238D01*
X51767Y-29250D01*
X51696Y-29250D01*
X51672Y-29238D01*
X51660Y-29226D01*
X51648Y-29202D01*
X51648Y-29154D01*
X51660Y-29130D01*
X51660Y-29452D02*
X51648Y-29428D01*
X51648Y-29380D01*
X51660Y-29357D01*
X51684Y-29345D01*
X51779Y-29345D01*
X51803Y-29357D01*
X51815Y-29380D01*
X51815Y-29428D01*
X51803Y-29452D01*
X51779Y-29464D01*
X51755Y-29464D01*
X51732Y-29345D01*
X51815Y-29571D02*
X51565Y-29571D01*
X51803Y-29571D02*
X51815Y-29595D01*
X51815Y-29642D01*
X51803Y-29666D01*
X51791Y-29678D01*
X51767Y-29690D01*
X51696Y-29690D01*
X51672Y-29678D01*
X51660Y-29666D01*
X51648Y-29642D01*
X51648Y-29595D01*
X51660Y-29571D01*
X51648Y-29904D02*
X51779Y-29904D01*
X51803Y-29892D01*
X51815Y-29869D01*
X51815Y-29821D01*
X51803Y-29797D01*
X51660Y-29904D02*
X51648Y-29880D01*
X51648Y-29821D01*
X51660Y-29797D01*
X51684Y-29785D01*
X51708Y-29785D01*
X51732Y-29797D01*
X51744Y-29821D01*
X51744Y-29880D01*
X51755Y-29904D01*
X51660Y-30011D02*
X51648Y-30035D01*
X51648Y-30083D01*
X51660Y-30107D01*
X51684Y-30119D01*
X51696Y-30119D01*
X51720Y-30107D01*
X51732Y-30083D01*
X51732Y-30047D01*
X51744Y-30023D01*
X51767Y-30011D01*
X51779Y-30011D01*
X51803Y-30023D01*
X51815Y-30047D01*
X51815Y-30083D01*
X51803Y-30107D01*
X51648Y-30261D02*
X51660Y-30238D01*
X51684Y-30226D01*
X51898Y-30226D01*
X51648Y-30464D02*
X51779Y-30464D01*
X51803Y-30452D01*
X51815Y-30428D01*
X51815Y-30380D01*
X51803Y-30357D01*
X51660Y-30464D02*
X51648Y-30440D01*
X51648Y-30380D01*
X51660Y-30357D01*
X51684Y-30345D01*
X51708Y-30345D01*
X51732Y-30357D01*
X51744Y-30380D01*
X51744Y-30440D01*
X51755Y-30464D01*
X51648Y-30583D02*
X51898Y-30583D01*
X51803Y-30583D02*
X51815Y-30607D01*
X51815Y-30654D01*
X51803Y-30678D01*
X51791Y-30690D01*
X51767Y-30702D01*
X51696Y-30702D01*
X51672Y-30690D01*
X51660Y-30678D01*
X51648Y-30654D01*
X51648Y-30607D01*
X51660Y-30583D01*
X51660Y-30797D02*
X51648Y-30821D01*
X51648Y-30869D01*
X51660Y-30892D01*
X51684Y-30904D01*
X51696Y-30904D01*
X51720Y-30892D01*
X51732Y-30869D01*
X51732Y-30833D01*
X51744Y-30809D01*
X51767Y-30797D01*
X51779Y-30797D01*
X51803Y-30809D01*
X51815Y-30833D01*
X51815Y-30869D01*
X51803Y-30892D01*
X51910Y-31190D02*
X51589Y-30976D01*
X51648Y-31273D02*
X51898Y-31273D01*
X51779Y-31273D02*
X51779Y-31416D01*
X51648Y-31416D02*
X51898Y-31416D01*
X51660Y-31630D02*
X51648Y-31607D01*
X51648Y-31559D01*
X51660Y-31535D01*
X51684Y-31523D01*
X51779Y-31523D01*
X51803Y-31535D01*
X51815Y-31559D01*
X51815Y-31607D01*
X51803Y-31630D01*
X51779Y-31642D01*
X51755Y-31642D01*
X51732Y-31523D01*
X51648Y-31857D02*
X51779Y-31857D01*
X51803Y-31845D01*
X51815Y-31821D01*
X51815Y-31773D01*
X51803Y-31750D01*
X51660Y-31857D02*
X51648Y-31833D01*
X51648Y-31773D01*
X51660Y-31750D01*
X51684Y-31738D01*
X51708Y-31738D01*
X51732Y-31750D01*
X51744Y-31773D01*
X51744Y-31833D01*
X51755Y-31857D01*
X51648Y-32083D02*
X51898Y-32083D01*
X51660Y-32083D02*
X51648Y-32059D01*
X51648Y-32011D01*
X51660Y-31988D01*
X51672Y-31976D01*
X51696Y-31964D01*
X51767Y-31964D01*
X51791Y-31976D01*
X51803Y-31988D01*
X51815Y-32011D01*
X51815Y-32059D01*
X51803Y-32083D01*
X51648Y-32238D02*
X51660Y-32214D01*
X51684Y-32202D01*
X51898Y-32202D01*
X51648Y-32333D02*
X51815Y-32333D01*
X51898Y-32333D02*
X51886Y-32321D01*
X51875Y-32333D01*
X51886Y-32345D01*
X51898Y-32333D01*
X51875Y-32333D01*
X51815Y-32559D02*
X51613Y-32559D01*
X51589Y-32547D01*
X51577Y-32535D01*
X51565Y-32511D01*
X51565Y-32476D01*
X51577Y-32452D01*
X51660Y-32559D02*
X51648Y-32535D01*
X51648Y-32488D01*
X51660Y-32464D01*
X51672Y-32452D01*
X51696Y-32440D01*
X51767Y-32440D01*
X51791Y-32452D01*
X51803Y-32464D01*
X51815Y-32488D01*
X51815Y-32535D01*
X51803Y-32559D01*
X51648Y-32678D02*
X51898Y-32678D01*
X51648Y-32785D02*
X51779Y-32785D01*
X51803Y-32773D01*
X51815Y-32750D01*
X51815Y-32714D01*
X51803Y-32690D01*
X51791Y-32678D01*
X51815Y-32869D02*
X51815Y-32964D01*
X51898Y-32904D02*
X51684Y-32904D01*
X51660Y-32916D01*
X51648Y-32940D01*
X51648Y-32964D01*
X51648Y-33190D02*
X51767Y-33107D01*
X51648Y-33047D02*
X51898Y-33047D01*
X51898Y-33142D01*
X51886Y-33166D01*
X51875Y-33178D01*
X51851Y-33190D01*
X51815Y-33190D01*
X51791Y-33178D01*
X51779Y-33166D01*
X51767Y-33142D01*
X51767Y-33047D01*
X51660Y-33392D02*
X51648Y-33369D01*
X51648Y-33321D01*
X51660Y-33297D01*
X51684Y-33285D01*
X51779Y-33285D01*
X51803Y-33297D01*
X51815Y-33321D01*
X51815Y-33369D01*
X51803Y-33392D01*
X51779Y-33404D01*
X51755Y-33404D01*
X51732Y-33285D01*
X51648Y-33547D02*
X51660Y-33523D01*
X51684Y-33511D01*
X51898Y-33511D01*
X51648Y-33750D02*
X51779Y-33750D01*
X51803Y-33738D01*
X51815Y-33714D01*
X51815Y-33666D01*
X51803Y-33642D01*
X51660Y-33750D02*
X51648Y-33726D01*
X51648Y-33666D01*
X51660Y-33642D01*
X51684Y-33630D01*
X51708Y-33630D01*
X51732Y-33642D01*
X51744Y-33666D01*
X51744Y-33726D01*
X51755Y-33750D01*
X51815Y-33845D02*
X51648Y-33904D01*
X51815Y-33964D02*
X51648Y-33904D01*
X51589Y-33880D01*
X51577Y-33869D01*
X51565Y-33845D01*
X51672Y-34202D02*
X51660Y-34190D01*
X51648Y-34154D01*
X51648Y-34130D01*
X51660Y-34095D01*
X51684Y-34071D01*
X51708Y-34059D01*
X51755Y-34047D01*
X51791Y-34047D01*
X51839Y-34059D01*
X51863Y-34071D01*
X51886Y-34095D01*
X51898Y-34130D01*
X51898Y-34154D01*
X51886Y-34190D01*
X51875Y-34202D01*
X51648Y-34345D02*
X51660Y-34321D01*
X51672Y-34309D01*
X51696Y-34297D01*
X51767Y-34297D01*
X51791Y-34309D01*
X51803Y-34321D01*
X51815Y-34345D01*
X51815Y-34380D01*
X51803Y-34404D01*
X51791Y-34416D01*
X51767Y-34428D01*
X51696Y-34428D01*
X51672Y-34416D01*
X51660Y-34404D01*
X51648Y-34380D01*
X51648Y-34345D01*
X51815Y-34535D02*
X51648Y-34535D01*
X51791Y-34535D02*
X51803Y-34547D01*
X51815Y-34571D01*
X51815Y-34607D01*
X51803Y-34630D01*
X51779Y-34642D01*
X51648Y-34642D01*
X51815Y-34726D02*
X51815Y-34821D01*
X51898Y-34761D02*
X51684Y-34761D01*
X51660Y-34773D01*
X51648Y-34797D01*
X51648Y-34821D01*
X51648Y-34904D02*
X51815Y-34904D01*
X51767Y-34904D02*
X51791Y-34916D01*
X51803Y-34928D01*
X51815Y-34952D01*
X51815Y-34976D01*
X51648Y-35095D02*
X51660Y-35071D01*
X51672Y-35059D01*
X51696Y-35047D01*
X51767Y-35047D01*
X51791Y-35059D01*
X51803Y-35071D01*
X51815Y-35095D01*
X51815Y-35130D01*
X51803Y-35154D01*
X51791Y-35166D01*
X51767Y-35178D01*
X51696Y-35178D01*
X51672Y-35166D01*
X51660Y-35154D01*
X51648Y-35130D01*
X51648Y-35095D01*
X51648Y-35321D02*
X51660Y-35297D01*
X51684Y-35285D01*
X51898Y-35285D01*
G54D12*
X48775Y-44934D02*
X48737Y-44915D01*
X48718Y-44896D01*
X48700Y-44859D01*
X48700Y-44840D01*
X48718Y-44803D01*
X48737Y-44784D01*
X48775Y-44765D01*
X48850Y-44765D01*
X48887Y-44784D01*
X48906Y-44803D01*
X48925Y-44840D01*
X48925Y-44859D01*
X48906Y-44896D01*
X48887Y-44915D01*
X48850Y-44934D01*
X48775Y-44934D01*
X48737Y-44953D01*
X48718Y-44971D01*
X48700Y-45009D01*
X48700Y-45084D01*
X48718Y-45121D01*
X48737Y-45140D01*
X48775Y-45159D01*
X48850Y-45159D01*
X48887Y-45140D01*
X48906Y-45121D01*
X48925Y-45084D01*
X48925Y-45009D01*
X48906Y-44971D01*
X48887Y-44953D01*
X48850Y-44934D01*
X49281Y-44765D02*
X49093Y-44765D01*
X49074Y-44953D01*
X49093Y-44934D01*
X49131Y-44915D01*
X49224Y-44915D01*
X49262Y-44934D01*
X49281Y-44953D01*
X49299Y-44990D01*
X49299Y-45084D01*
X49281Y-45121D01*
X49262Y-45140D01*
X49224Y-45159D01*
X49131Y-45159D01*
X49093Y-45140D01*
X49074Y-45121D01*
X43775Y-44934D02*
X43737Y-44915D01*
X43718Y-44896D01*
X43700Y-44859D01*
X43700Y-44840D01*
X43718Y-44803D01*
X43737Y-44784D01*
X43775Y-44765D01*
X43850Y-44765D01*
X43887Y-44784D01*
X43906Y-44803D01*
X43925Y-44840D01*
X43925Y-44859D01*
X43906Y-44896D01*
X43887Y-44915D01*
X43850Y-44934D01*
X43775Y-44934D01*
X43737Y-44953D01*
X43718Y-44971D01*
X43700Y-45009D01*
X43700Y-45084D01*
X43718Y-45121D01*
X43737Y-45140D01*
X43775Y-45159D01*
X43850Y-45159D01*
X43887Y-45140D01*
X43906Y-45121D01*
X43925Y-45084D01*
X43925Y-45009D01*
X43906Y-44971D01*
X43887Y-44953D01*
X43850Y-44934D01*
X44262Y-44765D02*
X44187Y-44765D01*
X44149Y-44784D01*
X44131Y-44803D01*
X44093Y-44859D01*
X44074Y-44934D01*
X44074Y-45084D01*
X44093Y-45121D01*
X44112Y-45140D01*
X44149Y-45159D01*
X44224Y-45159D01*
X44262Y-45140D01*
X44281Y-45121D01*
X44299Y-45084D01*
X44299Y-44990D01*
X44281Y-44953D01*
X44262Y-44934D01*
X44224Y-44915D01*
X44149Y-44915D01*
X44112Y-44934D01*
X44093Y-44953D01*
X44074Y-44990D01*
X36275Y-44934D02*
X36237Y-44915D01*
X36218Y-44896D01*
X36200Y-44859D01*
X36200Y-44840D01*
X36218Y-44803D01*
X36237Y-44784D01*
X36275Y-44765D01*
X36350Y-44765D01*
X36387Y-44784D01*
X36406Y-44803D01*
X36425Y-44840D01*
X36425Y-44859D01*
X36406Y-44896D01*
X36387Y-44915D01*
X36350Y-44934D01*
X36275Y-44934D01*
X36237Y-44953D01*
X36218Y-44971D01*
X36200Y-45009D01*
X36200Y-45084D01*
X36218Y-45121D01*
X36237Y-45140D01*
X36275Y-45159D01*
X36350Y-45159D01*
X36387Y-45140D01*
X36406Y-45121D01*
X36425Y-45084D01*
X36425Y-45009D01*
X36406Y-44971D01*
X36387Y-44953D01*
X36350Y-44934D01*
X36762Y-44765D02*
X36687Y-44765D01*
X36649Y-44784D01*
X36631Y-44803D01*
X36593Y-44859D01*
X36574Y-44934D01*
X36574Y-45084D01*
X36593Y-45121D01*
X36612Y-45140D01*
X36649Y-45159D01*
X36724Y-45159D01*
X36762Y-45140D01*
X36781Y-45121D01*
X36799Y-45084D01*
X36799Y-44990D01*
X36781Y-44953D01*
X36762Y-44934D01*
X36724Y-44915D01*
X36649Y-44915D01*
X36612Y-44934D01*
X36593Y-44953D01*
X36574Y-44990D01*
X41275Y-44934D02*
X41237Y-44915D01*
X41218Y-44896D01*
X41200Y-44859D01*
X41200Y-44840D01*
X41218Y-44803D01*
X41237Y-44784D01*
X41275Y-44765D01*
X41350Y-44765D01*
X41387Y-44784D01*
X41406Y-44803D01*
X41425Y-44840D01*
X41425Y-44859D01*
X41406Y-44896D01*
X41387Y-44915D01*
X41350Y-44934D01*
X41275Y-44934D01*
X41237Y-44953D01*
X41218Y-44971D01*
X41200Y-45009D01*
X41200Y-45084D01*
X41218Y-45121D01*
X41237Y-45140D01*
X41275Y-45159D01*
X41350Y-45159D01*
X41387Y-45140D01*
X41406Y-45121D01*
X41425Y-45084D01*
X41425Y-45009D01*
X41406Y-44971D01*
X41387Y-44953D01*
X41350Y-44934D01*
X41781Y-44765D02*
X41593Y-44765D01*
X41574Y-44953D01*
X41593Y-44934D01*
X41631Y-44915D01*
X41724Y-44915D01*
X41762Y-44934D01*
X41781Y-44953D01*
X41799Y-44990D01*
X41799Y-45084D01*
X41781Y-45121D01*
X41762Y-45140D01*
X41724Y-45159D01*
X41631Y-45159D01*
X41593Y-45140D01*
X41574Y-45121D01*
G54D13*
X45073Y-30199D02*
X45101Y-30143D01*
X45101Y-30059D01*
X45073Y-29974D01*
X45017Y-29918D01*
X44960Y-29890D01*
X44848Y-29862D01*
X44764Y-29862D01*
X44651Y-29890D01*
X44595Y-29918D01*
X44539Y-29974D01*
X44510Y-30059D01*
X44510Y-30115D01*
X44539Y-30199D01*
X44567Y-30228D01*
X44764Y-30228D01*
X44764Y-30115D01*
X44510Y-30481D02*
X45101Y-30481D01*
X44510Y-30818D01*
X45101Y-30818D01*
X44510Y-31099D02*
X45101Y-31099D01*
X45101Y-31240D01*
X45073Y-31324D01*
X45017Y-31381D01*
X44960Y-31409D01*
X44848Y-31437D01*
X44764Y-31437D01*
X44651Y-31409D01*
X44595Y-31381D01*
X44539Y-31324D01*
X44510Y-31240D01*
X44510Y-31099D01*
X46586Y-41239D02*
X46586Y-40648D01*
X46586Y-40929D02*
X46923Y-40929D01*
X46923Y-41239D02*
X46923Y-40648D01*
X47204Y-41239D02*
X47204Y-40648D01*
X47795Y-40676D02*
X47739Y-40648D01*
X47654Y-40648D01*
X47570Y-40676D01*
X47514Y-40732D01*
X47485Y-40789D01*
X47457Y-40901D01*
X47457Y-40985D01*
X47485Y-41098D01*
X47514Y-41154D01*
X47570Y-41210D01*
X47654Y-41239D01*
X47710Y-41239D01*
X47795Y-41210D01*
X47823Y-41182D01*
X47823Y-40985D01*
X47710Y-40985D01*
X48076Y-41239D02*
X48076Y-40648D01*
X48076Y-40929D02*
X48413Y-40929D01*
X48413Y-41239D02*
X48413Y-40648D01*
X39535Y-41239D02*
X39254Y-41239D01*
X39254Y-40648D01*
X39845Y-40648D02*
X39957Y-40648D01*
X40014Y-40676D01*
X40070Y-40732D01*
X40098Y-40845D01*
X40098Y-41042D01*
X40070Y-41154D01*
X40014Y-41210D01*
X39957Y-41239D01*
X39845Y-41239D01*
X39789Y-41210D01*
X39732Y-41154D01*
X39704Y-41042D01*
X39704Y-40845D01*
X39732Y-40732D01*
X39789Y-40676D01*
X39845Y-40648D01*
X40295Y-40648D02*
X40435Y-41239D01*
X40548Y-40817D01*
X40660Y-41239D01*
X40801Y-40648D01*
X42510Y-31890D02*
X43101Y-31890D01*
X42820Y-31890D02*
X42820Y-32228D01*
X42510Y-32228D02*
X43101Y-32228D01*
X42510Y-32509D02*
X43101Y-32509D01*
X43073Y-33099D02*
X43101Y-33043D01*
X43101Y-32959D01*
X43073Y-32874D01*
X43017Y-32818D01*
X42960Y-32790D01*
X42848Y-32762D01*
X42764Y-32762D01*
X42651Y-32790D01*
X42595Y-32818D01*
X42539Y-32874D01*
X42510Y-32959D01*
X42510Y-33015D01*
X42539Y-33099D01*
X42567Y-33127D01*
X42764Y-33127D01*
X42764Y-33015D01*
X42510Y-33381D02*
X43101Y-33381D01*
X42820Y-33381D02*
X42820Y-33718D01*
X42510Y-33718D02*
X43101Y-33718D01*
X40510Y-32171D02*
X40510Y-31890D01*
X41101Y-31890D01*
X41101Y-32481D02*
X41101Y-32593D01*
X41073Y-32649D01*
X41017Y-32706D01*
X40904Y-32734D01*
X40707Y-32734D01*
X40595Y-32706D01*
X40539Y-32649D01*
X40510Y-32593D01*
X40510Y-32481D01*
X40539Y-32424D01*
X40595Y-32368D01*
X40707Y-32340D01*
X40904Y-32340D01*
X41017Y-32368D01*
X41073Y-32424D01*
X41101Y-32481D01*
X41101Y-32931D02*
X40510Y-33071D01*
X40932Y-33184D01*
X40510Y-33296D01*
X41101Y-33437D01*
G54D10*
X49600Y-36000D02*
X49600Y-36850D01*
X49600Y-36850D02*
X51400Y-36850D01*
X51400Y-36850D02*
X51400Y-36000D01*
X51400Y-36000D02*
G75*
G03X50500Y-35100I-900J0D01*
G74*
G01*
X50500Y-35100D02*
G75*
G03X49600Y-36000I0J-900D01*
G74*
G01*
X34100Y-36000D02*
X34100Y-36850D01*
X34100Y-36850D02*
X35900Y-36850D01*
X35900Y-36850D02*
X35900Y-36000D01*
X35900Y-36000D02*
G75*
G03X35000Y-35100I-900J0D01*
G74*
G01*
X35000Y-35100D02*
G75*
G03X34100Y-36000I0J-900D01*
G74*
G01*
X41250Y-26000D02*
X41250Y-26500D01*
X41250Y-26500D02*
X40250Y-26500D01*
X40250Y-26500D02*
X40250Y-26000D01*
X45750Y-26000D02*
X39750Y-26000D01*
X45750Y-29500D02*
X39750Y-29500D01*
X43250Y-26000D02*
X43250Y-26500D01*
X43250Y-26500D02*
X42250Y-26500D01*
X42250Y-26500D02*
X42250Y-26000D01*
X45250Y-26000D02*
X45250Y-26500D01*
X45250Y-26500D02*
X44250Y-26500D01*
X44250Y-26500D02*
X44250Y-26000D01*
X45750Y-29500D02*
X45750Y-26000D01*
X39750Y-26000D02*
X39750Y-29500D01*
X39500Y-45500D02*
X39500Y-45000D01*
X39500Y-45000D02*
X40500Y-45000D01*
X40500Y-45000D02*
X40500Y-45500D01*
X37500Y-45500D02*
X37500Y-45000D01*
X37500Y-45000D02*
X38500Y-45000D01*
X38500Y-45000D02*
X38500Y-45500D01*
X37000Y-42000D02*
X37000Y-45500D01*
X37000Y-45500D02*
X41000Y-45500D01*
X41000Y-45500D02*
X41000Y-42000D01*
X41000Y-42000D02*
X37000Y-42000D01*
X47000Y-45500D02*
X47000Y-45000D01*
X47000Y-45000D02*
X48000Y-45000D01*
X48000Y-45000D02*
X48000Y-45500D01*
X45000Y-45500D02*
X45000Y-45000D01*
X45000Y-45000D02*
X46000Y-45000D01*
X46000Y-45000D02*
X46000Y-45500D01*
X44500Y-42000D02*
X44500Y-45500D01*
X44500Y-45500D02*
X48500Y-45500D01*
X48500Y-45500D02*
X48500Y-42000D01*
X48500Y-42000D02*
X44500Y-42000D01*
G54D14*
X48500Y-35500D02*
X48100Y-35500D01*
X48100Y-35500D02*
X48100Y-35900D01*
X48100Y-35900D02*
X44900Y-35900D01*
X44900Y-35900D02*
X44900Y-35100D01*
X44900Y-35100D02*
X48100Y-35100D01*
X48100Y-35100D02*
X48100Y-35500D01*
X44500Y-35500D02*
X44900Y-35500D01*
X44500Y-34500D02*
X44900Y-34500D01*
X44900Y-34500D02*
X44900Y-34100D01*
X44900Y-34100D02*
X48100Y-34100D01*
X48100Y-34100D02*
X48100Y-34900D01*
X48100Y-34900D02*
X44900Y-34900D01*
X44900Y-34900D02*
X44900Y-34500D01*
X48500Y-34500D02*
X48100Y-34500D01*
X41000Y-34500D02*
X40600Y-34500D01*
X40600Y-34500D02*
X40600Y-34900D01*
X40600Y-34900D02*
X37400Y-34900D01*
X37400Y-34900D02*
X37400Y-34100D01*
X37400Y-34100D02*
X40600Y-34100D01*
X40600Y-34100D02*
X40600Y-34500D01*
X37000Y-34500D02*
X37400Y-34500D01*
X44500Y-37500D02*
X44900Y-37500D01*
X44900Y-37500D02*
X44900Y-37100D01*
X44900Y-37100D02*
X48100Y-37100D01*
X48100Y-37100D02*
X48100Y-37900D01*
X48100Y-37900D02*
X44900Y-37900D01*
X44900Y-37900D02*
X44900Y-37500D01*
X48500Y-37500D02*
X48100Y-37500D01*
X37000Y-37500D02*
X37400Y-37500D01*
X37400Y-37500D02*
X37400Y-37100D01*
X37400Y-37100D02*
X40600Y-37100D01*
X40600Y-37100D02*
X40600Y-37900D01*
X40600Y-37900D02*
X37400Y-37900D01*
X37400Y-37900D02*
X37400Y-37500D01*
X41000Y-37500D02*
X40600Y-37500D01*
X44500Y-36500D02*
X44900Y-36500D01*
X44900Y-36500D02*
X44900Y-36100D01*
X44900Y-36100D02*
X48100Y-36100D01*
X48100Y-36100D02*
X48100Y-36900D01*
X48100Y-36900D02*
X44900Y-36900D01*
X44900Y-36900D02*
X44900Y-36500D01*
X48500Y-36500D02*
X48100Y-36500D01*
X37000Y-35500D02*
X37400Y-35500D01*
X37400Y-35500D02*
X37400Y-35100D01*
X37400Y-35100D02*
X40600Y-35100D01*
X40600Y-35100D02*
X40600Y-35900D01*
X40600Y-35900D02*
X37400Y-35900D01*
X37400Y-35900D02*
X37400Y-35500D01*
X41000Y-35500D02*
X40600Y-35500D01*
X41000Y-36500D02*
X40600Y-36500D01*
X40600Y-36500D02*
X40600Y-36900D01*
X40600Y-36900D02*
X37400Y-36900D01*
X37400Y-36900D02*
X37400Y-36100D01*
X37400Y-36100D02*
X40600Y-36100D01*
X40600Y-36100D02*
X40600Y-36500D01*
X37000Y-36500D02*
X37400Y-36500D01*
G54D15*
X42750Y-37000D02*
X41750Y-37000D01*
X41750Y-37000D02*
X41750Y-35000D01*
X41750Y-35000D02*
X42750Y-35000D01*
X42750Y-35000D02*
X42750Y-37000D01*
G54D14*
X52074Y-43500D02*
G75*
G03X52074Y-43500I-1574J0D01*
G74*
G01*
X36574Y-43500D02*
G75*
G03X36574Y-43500I-1574J0D01*
G74*
G01*
X38551Y-41551D02*
X37448Y-41551D01*
X37448Y-40448D02*
G75*
G03X37448Y-41551I551J-551D01*
G74*
G01*
X38551Y-40448D02*
G75*
G03X37448Y-40448I-551J-551D01*
G74*
G01*
X38551Y-41551D02*
G75*
G03X38551Y-40448I-551J551D01*
G74*
G01*
X44948Y-40448D02*
X46051Y-40448D01*
X46051Y-41551D02*
G75*
G03X46051Y-40448I-551J551D01*
G74*
G01*
X44948Y-41551D02*
G75*
G03X46051Y-41551I551J551D01*
G74*
G01*
X44948Y-40448D02*
G75*
G03X44948Y-41551I551J-551D01*
G74*
G01*
X41301Y-31301D02*
X40198Y-31301D01*
X40198Y-30198D02*
G75*
G03X40198Y-31301I551J-551D01*
G74*
G01*
X41301Y-30198D02*
G75*
G03X40198Y-30198I-551J-551D01*
G74*
G01*
X41301Y-31301D02*
G75*
G03X41301Y-30198I-551J551D01*
G74*
G01*
X43301Y-31301D02*
X42198Y-31301D01*
X42198Y-30198D02*
G75*
G03X42198Y-31301I551J-551D01*
G74*
G01*
X43301Y-30198D02*
G75*
G03X42198Y-30198I-551J-551D01*
G74*
G01*
X43301Y-31301D02*
G75*
G03X43301Y-30198I-551J551D01*
G74*
G01*
G54D16*
X40100Y-39000D02*
X40500Y-39000D01*
X37900Y-39000D02*
X37500Y-39000D01*
X40100Y-38600D02*
X37900Y-38600D01*
X37900Y-39400D02*
X40100Y-39400D01*
X38150Y-39400D02*
X38150Y-38600D01*
X37900Y-39000D02*
X37900Y-39400D01*
X40100Y-39400D02*
X40100Y-39000D01*
X40100Y-39000D02*
X40100Y-38600D01*
X37900Y-38600D02*
X37900Y-39000D01*
X46500Y-27400D02*
X46500Y-27000D01*
X46500Y-29600D02*
X46500Y-30000D01*
X46100Y-27400D02*
X46100Y-29600D01*
X46900Y-29600D02*
X46900Y-27400D01*
X46900Y-29350D02*
X46100Y-29350D01*
X46500Y-29600D02*
X46900Y-29600D01*
X46900Y-27400D02*
X46500Y-27400D01*
X46500Y-27400D02*
X46100Y-27400D01*
X46100Y-29600D02*
X46500Y-29600D01*
X39000Y-27400D02*
X39000Y-27000D01*
X39000Y-29600D02*
X39000Y-30000D01*
X38600Y-27400D02*
X38600Y-29600D01*
X39400Y-29600D02*
X39400Y-27400D01*
X39400Y-29350D02*
X38600Y-29350D01*
X39000Y-29600D02*
X39400Y-29600D01*
X39400Y-27400D02*
X39000Y-27400D01*
X39000Y-27400D02*
X38600Y-27400D01*
X38600Y-29600D02*
X39000Y-29600D01*
X43500Y-37100D02*
X43500Y-37500D01*
X43500Y-34900D02*
X43500Y-34500D01*
X43900Y-37100D02*
X43900Y-34900D01*
X43100Y-34900D02*
X43100Y-37100D01*
X43100Y-35150D02*
X43900Y-35150D01*
X43500Y-34900D02*
X43100Y-34900D01*
X43100Y-37100D02*
X43500Y-37100D01*
X43500Y-37100D02*
X43900Y-37100D01*
X43900Y-34900D02*
X43500Y-34900D01*
X47600Y-39000D02*
X48000Y-39000D01*
X45400Y-39000D02*
X45000Y-39000D01*
X47600Y-38600D02*
X45400Y-38600D01*
X45400Y-39400D02*
X47600Y-39400D01*
X45650Y-39400D02*
X45650Y-38600D01*
X45400Y-39000D02*
X45400Y-39400D01*
X47600Y-39400D02*
X47600Y-39000D01*
X47600Y-39000D02*
X47600Y-38600D01*
X45400Y-38600D02*
X45400Y-39000D01*
G54D17*
G36*
X49793Y-27273D02*
X49797Y-27281D01*
X49809Y-27300D01*
X49826Y-27326D01*
X49847Y-27357D01*
X49868Y-27388D01*
X49885Y-27414D01*
X49897Y-27432D01*
X49901Y-27439D01*
X49900Y-27443D01*
X49892Y-27458D01*
X49881Y-27480D01*
X49875Y-27492D01*
X49866Y-27512D01*
X49864Y-27522D01*
X49867Y-27523D01*
X49882Y-27531D01*
X49908Y-27542D01*
X49942Y-27557D01*
X49982Y-27574D01*
X50025Y-27592D01*
X50069Y-27610D01*
X50111Y-27628D01*
X50149Y-27643D01*
X50179Y-27656D01*
X50201Y-27664D01*
X50210Y-27667D01*
X50212Y-27666D01*
X50221Y-27656D01*
X50234Y-27639D01*
X50265Y-27601D01*
X50311Y-27565D01*
X50363Y-27542D01*
X50421Y-27535D01*
X50474Y-27541D01*
X50525Y-27562D01*
X50572Y-27598D01*
X50606Y-27642D01*
X50628Y-27693D01*
X50635Y-27750D01*
X50629Y-27805D01*
X50608Y-27857D01*
X50573Y-27904D01*
X50550Y-27923D01*
X50503Y-27950D01*
X50453Y-27966D01*
X50441Y-27967D01*
X50385Y-27965D01*
X50332Y-27949D01*
X50285Y-27920D01*
X50246Y-27879D01*
X50242Y-27874D01*
X50228Y-27855D01*
X50219Y-27843D01*
X50211Y-27833D01*
X50041Y-27903D01*
X50014Y-27914D01*
X49968Y-27934D01*
X49928Y-27951D01*
X49896Y-27964D01*
X49875Y-27974D01*
X49866Y-27978D01*
X49866Y-27978D01*
X49865Y-27984D01*
X49870Y-27997D01*
X49881Y-28021D01*
X49889Y-28037D01*
X49898Y-28055D01*
X49901Y-28063D01*
X49897Y-28070D01*
X49886Y-28087D01*
X49869Y-28112D01*
X49849Y-28142D01*
X49829Y-28171D01*
X49811Y-28198D01*
X49799Y-28217D01*
X49794Y-28227D01*
X49794Y-28228D01*
X49799Y-28236D01*
X49811Y-28252D01*
X49833Y-28275D01*
X49865Y-28307D01*
X49870Y-28312D01*
X49898Y-28339D01*
X49921Y-28361D01*
X49937Y-28376D01*
X49944Y-28381D01*
X49944Y-28381D01*
X49954Y-28376D01*
X49973Y-28364D01*
X50000Y-28346D01*
X50031Y-28325D01*
X50113Y-28269D01*
X50190Y-28300D01*
X50213Y-28309D01*
X50242Y-28321D01*
X50262Y-28330D01*
X50271Y-28335D01*
X50274Y-28343D01*
X50279Y-28364D01*
X50286Y-28395D01*
X50292Y-28431D01*
X50299Y-28466D01*
X50305Y-28497D01*
X50309Y-28520D01*
X50311Y-28530D01*
X50313Y-28532D01*
X50318Y-28534D01*
X50328Y-28536D01*
X50347Y-28536D01*
X50377Y-28537D01*
X50421Y-28537D01*
X50425Y-28537D01*
X50467Y-28536D01*
X50500Y-28536D01*
X50521Y-28535D01*
X50529Y-28533D01*
X50529Y-28533D01*
X50532Y-28523D01*
X50536Y-28501D01*
X50543Y-28470D01*
X50550Y-28432D01*
X50550Y-28430D01*
X50557Y-28393D01*
X50564Y-28362D01*
X50569Y-28340D01*
X50572Y-28331D01*
X50574Y-28329D01*
X50589Y-28321D01*
X50612Y-28310D01*
X50640Y-28298D01*
X50669Y-28286D01*
X50696Y-28275D01*
X50715Y-28268D01*
X50724Y-28266D01*
X50724Y-28266D01*
X50733Y-28272D01*
X50753Y-28285D01*
X50779Y-28303D01*
X50811Y-28325D01*
X50814Y-28326D01*
X50845Y-28348D01*
X50872Y-28365D01*
X50891Y-28377D01*
X50899Y-28381D01*
X50900Y-28381D01*
X50909Y-28374D01*
X50927Y-28358D01*
X50951Y-28335D01*
X50979Y-28307D01*
X50987Y-28298D01*
X51017Y-28268D01*
X51037Y-28247D01*
X51047Y-28233D01*
X51050Y-28227D01*
X51049Y-28227D01*
X51044Y-28217D01*
X51031Y-28197D01*
X51012Y-28170D01*
X50991Y-28138D01*
X50989Y-28136D01*
X50968Y-28105D01*
X50950Y-28079D01*
X50938Y-28060D01*
X50933Y-28052D01*
X50933Y-28050D01*
X50937Y-28038D01*
X50944Y-28015D01*
X50955Y-27988D01*
X50967Y-27959D01*
X50978Y-27932D01*
X50987Y-27912D01*
X50992Y-27903D01*
X50993Y-27903D01*
X51004Y-27899D01*
X51028Y-27894D01*
X51060Y-27887D01*
X51099Y-27880D01*
X51105Y-27879D01*
X51142Y-27872D01*
X51173Y-27866D01*
X51195Y-27861D01*
X51204Y-27859D01*
X51205Y-27854D01*
X51206Y-27835D01*
X51207Y-27807D01*
X51207Y-27773D01*
X51207Y-27738D01*
X51206Y-27704D01*
X51205Y-27674D01*
X51204Y-27653D01*
X51202Y-27644D01*
X51201Y-27643D01*
X51190Y-27640D01*
X51166Y-27635D01*
X51134Y-27628D01*
X51095Y-27621D01*
X51088Y-27620D01*
X51051Y-27613D01*
X51020Y-27606D01*
X50999Y-27602D01*
X50991Y-27599D01*
X50989Y-27596D01*
X50982Y-27581D01*
X50972Y-27556D01*
X50959Y-27524D01*
X50930Y-27452D01*
X50991Y-27364D01*
X50996Y-27356D01*
X51018Y-27324D01*
X51035Y-27298D01*
X51047Y-27280D01*
X51051Y-27272D01*
X51051Y-27272D01*
X51043Y-27263D01*
X51027Y-27245D01*
X51003Y-27221D01*
X50976Y-27194D01*
X50955Y-27173D01*
X50930Y-27149D01*
X50914Y-27133D01*
X50903Y-27125D01*
X50896Y-27122D01*
X50892Y-27123D01*
X50883Y-27128D01*
X50864Y-27141D01*
X50837Y-27159D01*
X50806Y-27181D01*
X50779Y-27199D01*
X50750Y-27218D01*
X50729Y-27230D01*
X50718Y-27235D01*
X50714Y-27234D01*
X50697Y-27227D01*
X50670Y-27217D01*
X50639Y-27204D01*
X50569Y-27173D01*
X50561Y-27127D01*
X50555Y-27099D01*
X50548Y-27060D01*
X50541Y-27023D01*
X50529Y-26965D01*
X50317Y-26963D01*
X50313Y-26972D01*
X50310Y-26981D01*
X50306Y-27002D01*
X50300Y-27033D01*
X50293Y-27069D01*
X50287Y-27100D01*
X50281Y-27131D01*
X50277Y-27153D01*
X50275Y-27163D01*
X50271Y-27166D01*
X50256Y-27174D01*
X50232Y-27185D01*
X50203Y-27197D01*
X50174Y-27209D01*
X50146Y-27220D01*
X50125Y-27228D01*
X50114Y-27231D01*
X50106Y-27227D01*
X50088Y-27215D01*
X50062Y-27198D01*
X50031Y-27177D01*
X50000Y-27155D01*
X49973Y-27138D01*
X49954Y-27125D01*
X49946Y-27120D01*
X49940Y-27123D01*
X49925Y-27135D01*
X49901Y-27158D01*
X49866Y-27193D01*
X49861Y-27199D01*
X49834Y-27226D01*
X49813Y-27250D01*
X49798Y-27266D01*
X49793Y-27273D01*
X49793Y-27273D01*
G37*
G54D15*
X51900Y-36278D02*
X51885Y-36307D01*
X51857Y-36335D01*
X51814Y-36378D01*
X51800Y-36407D01*
X51800Y-36435D01*
X51871Y-36421D02*
X51857Y-36450D01*
X51828Y-36478D01*
X51771Y-36492D01*
X51671Y-36492D01*
X51614Y-36478D01*
X51585Y-36450D01*
X51571Y-36421D01*
X51571Y-36364D01*
X51585Y-36335D01*
X51614Y-36307D01*
X51671Y-36292D01*
X51771Y-36292D01*
X51828Y-36307D01*
X51857Y-36335D01*
X51871Y-36364D01*
X51871Y-36421D01*
X51600Y-36178D02*
X51585Y-36164D01*
X51571Y-36135D01*
X51571Y-36064D01*
X51585Y-36035D01*
X51600Y-36021D01*
X51628Y-36007D01*
X51657Y-36007D01*
X51700Y-36021D01*
X51871Y-36192D01*
X51871Y-36007D01*
G54D11*
X49125Y-36928D02*
X49113Y-36916D01*
X49101Y-36892D01*
X49101Y-36833D01*
X49113Y-36809D01*
X49125Y-36797D01*
X49148Y-36785D01*
X49172Y-36785D01*
X49208Y-36797D01*
X49351Y-36940D01*
X49351Y-36785D01*
X49351Y-36678D02*
X49101Y-36678D01*
X49351Y-36535D01*
X49101Y-36535D01*
X49101Y-36440D02*
X49101Y-36285D01*
X49196Y-36369D01*
X49196Y-36333D01*
X49208Y-36309D01*
X49220Y-36297D01*
X49244Y-36285D01*
X49303Y-36285D01*
X49327Y-36297D01*
X49339Y-36309D01*
X49351Y-36333D01*
X49351Y-36404D01*
X49339Y-36428D01*
X49327Y-36440D01*
X49351Y-36166D02*
X49351Y-36119D01*
X49339Y-36095D01*
X49327Y-36083D01*
X49291Y-36059D01*
X49244Y-36047D01*
X49148Y-36047D01*
X49125Y-36059D01*
X49113Y-36071D01*
X49101Y-36095D01*
X49101Y-36142D01*
X49113Y-36166D01*
X49125Y-36178D01*
X49148Y-36190D01*
X49208Y-36190D01*
X49232Y-36178D01*
X49244Y-36166D01*
X49255Y-36142D01*
X49255Y-36095D01*
X49244Y-36071D01*
X49232Y-36059D01*
X49208Y-36047D01*
X49101Y-35892D02*
X49101Y-35869D01*
X49113Y-35845D01*
X49125Y-35833D01*
X49148Y-35821D01*
X49196Y-35809D01*
X49255Y-35809D01*
X49303Y-35821D01*
X49327Y-35833D01*
X49339Y-35845D01*
X49351Y-35869D01*
X49351Y-35892D01*
X49339Y-35916D01*
X49327Y-35928D01*
X49303Y-35940D01*
X49255Y-35952D01*
X49196Y-35952D01*
X49148Y-35940D01*
X49125Y-35928D01*
X49113Y-35916D01*
X49101Y-35892D01*
X49184Y-35595D02*
X49351Y-35595D01*
X49089Y-35654D02*
X49267Y-35714D01*
X49267Y-35559D01*
X49946Y-35620D02*
X50029Y-35620D01*
X50065Y-35751D02*
X49946Y-35751D01*
X49946Y-35501D01*
X50065Y-35501D01*
X50517Y-36270D02*
X50553Y-36282D01*
X50565Y-36294D01*
X50577Y-36317D01*
X50577Y-36353D01*
X50565Y-36377D01*
X50553Y-36389D01*
X50529Y-36401D01*
X50434Y-36401D01*
X50434Y-36151D01*
X50517Y-36151D01*
X50541Y-36163D01*
X50553Y-36175D01*
X50565Y-36198D01*
X50565Y-36222D01*
X50553Y-36246D01*
X50541Y-36258D01*
X50517Y-36270D01*
X50434Y-36270D01*
X51077Y-35727D02*
X51065Y-35739D01*
X51029Y-35751D01*
X51005Y-35751D01*
X50970Y-35739D01*
X50946Y-35715D01*
X50934Y-35691D01*
X50922Y-35644D01*
X50922Y-35608D01*
X50934Y-35560D01*
X50946Y-35536D01*
X50970Y-35513D01*
X51005Y-35501D01*
X51029Y-35501D01*
X51065Y-35513D01*
X51077Y-35525D01*
G54D15*
X36400Y-36278D02*
X36385Y-36307D01*
X36357Y-36335D01*
X36314Y-36378D01*
X36300Y-36407D01*
X36300Y-36435D01*
X36371Y-36421D02*
X36357Y-36450D01*
X36328Y-36478D01*
X36271Y-36492D01*
X36171Y-36492D01*
X36114Y-36478D01*
X36085Y-36450D01*
X36071Y-36421D01*
X36071Y-36364D01*
X36085Y-36335D01*
X36114Y-36307D01*
X36171Y-36292D01*
X36271Y-36292D01*
X36328Y-36307D01*
X36357Y-36335D01*
X36371Y-36364D01*
X36371Y-36421D01*
X36371Y-36007D02*
X36371Y-36178D01*
X36371Y-36092D02*
X36071Y-36092D01*
X36114Y-36121D01*
X36142Y-36150D01*
X36157Y-36178D01*
G54D11*
X33625Y-36928D02*
X33613Y-36916D01*
X33601Y-36892D01*
X33601Y-36833D01*
X33613Y-36809D01*
X33625Y-36797D01*
X33648Y-36785D01*
X33672Y-36785D01*
X33708Y-36797D01*
X33851Y-36940D01*
X33851Y-36785D01*
X33851Y-36678D02*
X33601Y-36678D01*
X33851Y-36535D01*
X33601Y-36535D01*
X33601Y-36440D02*
X33601Y-36285D01*
X33696Y-36369D01*
X33696Y-36333D01*
X33708Y-36309D01*
X33720Y-36297D01*
X33744Y-36285D01*
X33803Y-36285D01*
X33827Y-36297D01*
X33839Y-36309D01*
X33851Y-36333D01*
X33851Y-36404D01*
X33839Y-36428D01*
X33827Y-36440D01*
X33851Y-36166D02*
X33851Y-36119D01*
X33839Y-36095D01*
X33827Y-36083D01*
X33791Y-36059D01*
X33744Y-36047D01*
X33648Y-36047D01*
X33625Y-36059D01*
X33613Y-36071D01*
X33601Y-36095D01*
X33601Y-36142D01*
X33613Y-36166D01*
X33625Y-36178D01*
X33648Y-36190D01*
X33708Y-36190D01*
X33732Y-36178D01*
X33744Y-36166D01*
X33755Y-36142D01*
X33755Y-36095D01*
X33744Y-36071D01*
X33732Y-36059D01*
X33708Y-36047D01*
X33601Y-35892D02*
X33601Y-35869D01*
X33613Y-35845D01*
X33625Y-35833D01*
X33648Y-35821D01*
X33696Y-35809D01*
X33755Y-35809D01*
X33803Y-35821D01*
X33827Y-35833D01*
X33839Y-35845D01*
X33851Y-35869D01*
X33851Y-35892D01*
X33839Y-35916D01*
X33827Y-35928D01*
X33803Y-35940D01*
X33755Y-35952D01*
X33696Y-35952D01*
X33648Y-35940D01*
X33625Y-35928D01*
X33613Y-35916D01*
X33601Y-35892D01*
X33684Y-35595D02*
X33851Y-35595D01*
X33589Y-35654D02*
X33767Y-35714D01*
X33767Y-35559D01*
X34446Y-35620D02*
X34529Y-35620D01*
X34565Y-35751D02*
X34446Y-35751D01*
X34446Y-35501D01*
X34565Y-35501D01*
X35017Y-36270D02*
X35053Y-36282D01*
X35065Y-36294D01*
X35077Y-36317D01*
X35077Y-36353D01*
X35065Y-36377D01*
X35053Y-36389D01*
X35029Y-36401D01*
X34934Y-36401D01*
X34934Y-36151D01*
X35017Y-36151D01*
X35041Y-36163D01*
X35053Y-36175D01*
X35065Y-36198D01*
X35065Y-36222D01*
X35053Y-36246D01*
X35041Y-36258D01*
X35017Y-36270D01*
X34934Y-36270D01*
X35577Y-35727D02*
X35565Y-35739D01*
X35529Y-35751D01*
X35505Y-35751D01*
X35470Y-35739D01*
X35446Y-35715D01*
X35434Y-35691D01*
X35422Y-35644D01*
X35422Y-35608D01*
X35434Y-35560D01*
X35446Y-35536D01*
X35470Y-35513D01*
X35505Y-35501D01*
X35529Y-35501D01*
X35565Y-35513D01*
X35577Y-35525D01*
G54D15*
X42528Y-29121D02*
X42528Y-28821D01*
X42642Y-28821D01*
X42671Y-28835D01*
X42685Y-28850D01*
X42700Y-28878D01*
X42700Y-28921D01*
X42685Y-28950D01*
X42671Y-28964D01*
X42642Y-28978D01*
X42528Y-28978D01*
X42985Y-29121D02*
X42814Y-29121D01*
X42900Y-29121D02*
X42900Y-28821D01*
X42871Y-28864D01*
X42842Y-28892D01*
X42814Y-28907D01*
X38778Y-42621D02*
X38778Y-42321D01*
X38892Y-42321D01*
X38921Y-42335D01*
X38935Y-42350D01*
X38950Y-42378D01*
X38950Y-42421D01*
X38935Y-42450D01*
X38921Y-42464D01*
X38892Y-42478D01*
X38778Y-42478D01*
X39064Y-42350D02*
X39078Y-42335D01*
X39107Y-42321D01*
X39178Y-42321D01*
X39207Y-42335D01*
X39221Y-42350D01*
X39235Y-42378D01*
X39235Y-42407D01*
X39221Y-42450D01*
X39050Y-42621D01*
X39235Y-42621D01*
X46278Y-42621D02*
X46278Y-42321D01*
X46392Y-42321D01*
X46421Y-42335D01*
X46435Y-42350D01*
X46450Y-42378D01*
X46450Y-42421D01*
X46435Y-42450D01*
X46421Y-42464D01*
X46392Y-42478D01*
X46278Y-42478D01*
X46550Y-42321D02*
X46735Y-42321D01*
X46635Y-42435D01*
X46678Y-42435D01*
X46707Y-42450D01*
X46721Y-42464D01*
X46735Y-42492D01*
X46735Y-42564D01*
X46721Y-42592D01*
X46707Y-42607D01*
X46678Y-42621D01*
X46592Y-42621D01*
X46564Y-42607D01*
X46550Y-42592D01*
X47250Y-35621D02*
X47150Y-35478D01*
X47078Y-35621D02*
X47078Y-35321D01*
X47192Y-35321D01*
X47221Y-35335D01*
X47235Y-35350D01*
X47250Y-35378D01*
X47250Y-35421D01*
X47235Y-35450D01*
X47221Y-35464D01*
X47192Y-35478D01*
X47078Y-35478D01*
X47350Y-35321D02*
X47535Y-35321D01*
X47435Y-35435D01*
X47478Y-35435D01*
X47507Y-35450D01*
X47521Y-35464D01*
X47535Y-35492D01*
X47535Y-35564D01*
X47521Y-35592D01*
X47507Y-35607D01*
X47478Y-35621D01*
X47392Y-35621D01*
X47364Y-35607D01*
X47350Y-35592D01*
X45664Y-35621D02*
X45492Y-35621D01*
X45578Y-35621D02*
X45578Y-35321D01*
X45550Y-35364D01*
X45521Y-35392D01*
X45492Y-35407D01*
X45792Y-35621D02*
X45792Y-35321D01*
X45821Y-35507D02*
X45907Y-35621D01*
X45907Y-35421D02*
X45792Y-35535D01*
X45650Y-34621D02*
X45550Y-34478D01*
X45478Y-34621D02*
X45478Y-34321D01*
X45592Y-34321D01*
X45621Y-34335D01*
X45635Y-34350D01*
X45650Y-34378D01*
X45650Y-34421D01*
X45635Y-34450D01*
X45621Y-34464D01*
X45592Y-34478D01*
X45478Y-34478D01*
X45750Y-34321D02*
X45950Y-34321D01*
X45821Y-34621D01*
X47264Y-34621D02*
X47092Y-34621D01*
X47178Y-34621D02*
X47178Y-34321D01*
X47150Y-34364D01*
X47121Y-34392D01*
X47092Y-34407D01*
X47392Y-34621D02*
X47392Y-34321D01*
X47421Y-34507D02*
X47507Y-34621D01*
X47507Y-34421D02*
X47392Y-34535D01*
X39750Y-34621D02*
X39650Y-34478D01*
X39578Y-34621D02*
X39578Y-34321D01*
X39692Y-34321D01*
X39721Y-34335D01*
X39735Y-34350D01*
X39750Y-34378D01*
X39750Y-34421D01*
X39735Y-34450D01*
X39721Y-34464D01*
X39692Y-34478D01*
X39578Y-34478D01*
X40021Y-34321D02*
X39878Y-34321D01*
X39864Y-34464D01*
X39878Y-34450D01*
X39907Y-34435D01*
X39978Y-34435D01*
X40007Y-34450D01*
X40021Y-34464D01*
X40035Y-34492D01*
X40035Y-34564D01*
X40021Y-34592D01*
X40007Y-34607D01*
X39978Y-34621D01*
X39907Y-34621D01*
X39878Y-34607D01*
X39864Y-34592D01*
X38164Y-34621D02*
X37992Y-34621D01*
X38078Y-34621D02*
X38078Y-34321D01*
X38050Y-34364D01*
X38021Y-34392D01*
X37992Y-34407D01*
X38292Y-34621D02*
X38292Y-34321D01*
X38321Y-34507D02*
X38407Y-34621D01*
X38407Y-34421D02*
X38292Y-34535D01*
X45650Y-37621D02*
X45550Y-37478D01*
X45478Y-37621D02*
X45478Y-37321D01*
X45592Y-37321D01*
X45621Y-37335D01*
X45635Y-37350D01*
X45650Y-37378D01*
X45650Y-37421D01*
X45635Y-37450D01*
X45621Y-37464D01*
X45592Y-37478D01*
X45478Y-37478D01*
X45821Y-37450D02*
X45792Y-37435D01*
X45778Y-37421D01*
X45764Y-37392D01*
X45764Y-37378D01*
X45778Y-37350D01*
X45792Y-37335D01*
X45821Y-37321D01*
X45878Y-37321D01*
X45907Y-37335D01*
X45921Y-37350D01*
X45935Y-37378D01*
X45935Y-37392D01*
X45921Y-37421D01*
X45907Y-37435D01*
X45878Y-37450D01*
X45821Y-37450D01*
X45792Y-37464D01*
X45778Y-37478D01*
X45764Y-37507D01*
X45764Y-37564D01*
X45778Y-37592D01*
X45792Y-37607D01*
X45821Y-37621D01*
X45878Y-37621D01*
X45907Y-37607D01*
X45921Y-37592D01*
X45935Y-37564D01*
X45935Y-37507D01*
X45921Y-37478D01*
X45907Y-37464D01*
X45878Y-37450D01*
X47264Y-37621D02*
X47092Y-37621D01*
X47178Y-37621D02*
X47178Y-37321D01*
X47150Y-37364D01*
X47121Y-37392D01*
X47092Y-37407D01*
X47392Y-37621D02*
X47392Y-37321D01*
X47421Y-37507D02*
X47507Y-37621D01*
X47507Y-37421D02*
X47392Y-37535D01*
X38150Y-37621D02*
X38050Y-37478D01*
X37978Y-37621D02*
X37978Y-37321D01*
X38092Y-37321D01*
X38121Y-37335D01*
X38135Y-37350D01*
X38150Y-37378D01*
X38150Y-37421D01*
X38135Y-37450D01*
X38121Y-37464D01*
X38092Y-37478D01*
X37978Y-37478D01*
X38407Y-37321D02*
X38350Y-37321D01*
X38321Y-37335D01*
X38307Y-37350D01*
X38278Y-37392D01*
X38264Y-37450D01*
X38264Y-37564D01*
X38278Y-37592D01*
X38292Y-37607D01*
X38321Y-37621D01*
X38378Y-37621D01*
X38407Y-37607D01*
X38421Y-37592D01*
X38435Y-37564D01*
X38435Y-37492D01*
X38421Y-37464D01*
X38407Y-37450D01*
X38378Y-37435D01*
X38321Y-37435D01*
X38292Y-37450D01*
X38278Y-37464D01*
X38264Y-37492D01*
X39764Y-37621D02*
X39592Y-37621D01*
X39678Y-37621D02*
X39678Y-37321D01*
X39650Y-37364D01*
X39621Y-37392D01*
X39592Y-37407D01*
X39892Y-37621D02*
X39892Y-37321D01*
X39921Y-37507D02*
X40007Y-37621D01*
X40007Y-37421D02*
X39892Y-37535D01*
X45650Y-36621D02*
X45550Y-36478D01*
X45478Y-36621D02*
X45478Y-36321D01*
X45592Y-36321D01*
X45621Y-36335D01*
X45635Y-36350D01*
X45650Y-36378D01*
X45650Y-36421D01*
X45635Y-36450D01*
X45621Y-36464D01*
X45592Y-36478D01*
X45478Y-36478D01*
X45907Y-36421D02*
X45907Y-36621D01*
X45835Y-36307D02*
X45764Y-36521D01*
X45950Y-36521D01*
X47100Y-36621D02*
X46928Y-36621D01*
X47014Y-36621D02*
X47014Y-36321D01*
X46985Y-36364D01*
X46957Y-36392D01*
X46928Y-36407D01*
X47285Y-36321D02*
X47314Y-36321D01*
X47342Y-36335D01*
X47357Y-36350D01*
X47371Y-36378D01*
X47385Y-36435D01*
X47385Y-36507D01*
X47371Y-36564D01*
X47357Y-36592D01*
X47342Y-36607D01*
X47314Y-36621D01*
X47285Y-36621D01*
X47257Y-36607D01*
X47242Y-36592D01*
X47228Y-36564D01*
X47214Y-36507D01*
X47214Y-36435D01*
X47228Y-36378D01*
X47242Y-36350D01*
X47257Y-36335D01*
X47285Y-36321D01*
X47571Y-36321D02*
X47600Y-36321D01*
X47628Y-36335D01*
X47642Y-36350D01*
X47657Y-36378D01*
X47671Y-36435D01*
X47671Y-36507D01*
X47657Y-36564D01*
X47642Y-36592D01*
X47628Y-36607D01*
X47600Y-36621D01*
X47571Y-36621D01*
X47542Y-36607D01*
X47528Y-36592D01*
X47514Y-36564D01*
X47500Y-36507D01*
X47500Y-36435D01*
X47514Y-36378D01*
X47528Y-36350D01*
X47542Y-36335D01*
X47571Y-36321D01*
X38150Y-35621D02*
X38050Y-35478D01*
X37978Y-35621D02*
X37978Y-35321D01*
X38092Y-35321D01*
X38121Y-35335D01*
X38135Y-35350D01*
X38150Y-35378D01*
X38150Y-35421D01*
X38135Y-35450D01*
X38121Y-35464D01*
X38092Y-35478D01*
X37978Y-35478D01*
X38435Y-35621D02*
X38264Y-35621D01*
X38350Y-35621D02*
X38350Y-35321D01*
X38321Y-35364D01*
X38292Y-35392D01*
X38264Y-35407D01*
X39764Y-35621D02*
X39592Y-35621D01*
X39678Y-35621D02*
X39678Y-35321D01*
X39650Y-35364D01*
X39621Y-35392D01*
X39592Y-35407D01*
X39892Y-35621D02*
X39892Y-35321D01*
X39921Y-35507D02*
X40007Y-35621D01*
X40007Y-35421D02*
X39892Y-35535D01*
X39750Y-36621D02*
X39650Y-36478D01*
X39578Y-36621D02*
X39578Y-36321D01*
X39692Y-36321D01*
X39721Y-36335D01*
X39735Y-36350D01*
X39750Y-36378D01*
X39750Y-36421D01*
X39735Y-36450D01*
X39721Y-36464D01*
X39692Y-36478D01*
X39578Y-36478D01*
X39864Y-36350D02*
X39878Y-36335D01*
X39907Y-36321D01*
X39978Y-36321D01*
X40007Y-36335D01*
X40021Y-36350D01*
X40035Y-36378D01*
X40035Y-36407D01*
X40021Y-36450D01*
X39850Y-36621D01*
X40035Y-36621D01*
X38000Y-36621D02*
X37828Y-36621D01*
X37914Y-36621D02*
X37914Y-36321D01*
X37885Y-36364D01*
X37857Y-36392D01*
X37828Y-36407D01*
X38185Y-36321D02*
X38214Y-36321D01*
X38242Y-36335D01*
X38257Y-36350D01*
X38271Y-36378D01*
X38285Y-36435D01*
X38285Y-36507D01*
X38271Y-36564D01*
X38257Y-36592D01*
X38242Y-36607D01*
X38214Y-36621D01*
X38185Y-36621D01*
X38157Y-36607D01*
X38142Y-36592D01*
X38128Y-36564D01*
X38114Y-36507D01*
X38114Y-36435D01*
X38128Y-36378D01*
X38142Y-36350D01*
X38157Y-36335D01*
X38185Y-36321D01*
X38471Y-36321D02*
X38500Y-36321D01*
X38528Y-36335D01*
X38542Y-36350D01*
X38557Y-36378D01*
X38571Y-36435D01*
X38571Y-36507D01*
X38557Y-36564D01*
X38542Y-36592D01*
X38528Y-36607D01*
X38500Y-36621D01*
X38471Y-36621D01*
X38442Y-36607D01*
X38428Y-36592D01*
X38414Y-36564D01*
X38400Y-36507D01*
X38400Y-36435D01*
X38414Y-36378D01*
X38428Y-36350D01*
X38442Y-36335D01*
X38471Y-36321D01*
X42028Y-34871D02*
X42028Y-34571D01*
X42142Y-34571D01*
X42171Y-34585D01*
X42185Y-34600D01*
X42200Y-34628D01*
X42200Y-34671D01*
X42185Y-34700D01*
X42171Y-34714D01*
X42142Y-34728D01*
X42028Y-34728D01*
X42457Y-34671D02*
X42457Y-34871D01*
X42385Y-34557D02*
X42314Y-34771D01*
X42500Y-34771D01*
X51700Y-45092D02*
X51685Y-45107D01*
X51642Y-45121D01*
X51614Y-45121D01*
X51571Y-45107D01*
X51542Y-45078D01*
X51528Y-45050D01*
X51514Y-44992D01*
X51514Y-44950D01*
X51528Y-44892D01*
X51542Y-44864D01*
X51571Y-44835D01*
X51614Y-44821D01*
X51642Y-44821D01*
X51685Y-44835D01*
X51700Y-44850D01*
X51814Y-44850D02*
X51828Y-44835D01*
X51857Y-44821D01*
X51928Y-44821D01*
X51957Y-44835D01*
X51971Y-44850D01*
X51985Y-44878D01*
X51985Y-44907D01*
X51971Y-44950D01*
X51800Y-45121D01*
X51985Y-45121D01*
X50035Y-41652D02*
X49864Y-41652D01*
X49950Y-41652D02*
X49950Y-41352D01*
X49921Y-41395D01*
X49892Y-41424D01*
X49864Y-41438D01*
X50221Y-41352D02*
X50250Y-41352D01*
X50278Y-41367D01*
X50292Y-41381D01*
X50307Y-41410D01*
X50321Y-41467D01*
X50321Y-41538D01*
X50307Y-41595D01*
X50292Y-41624D01*
X50278Y-41638D01*
X50250Y-41652D01*
X50221Y-41652D01*
X50192Y-41638D01*
X50178Y-41624D01*
X50164Y-41595D01*
X50150Y-41538D01*
X50150Y-41467D01*
X50164Y-41410D01*
X50178Y-41381D01*
X50192Y-41367D01*
X50221Y-41352D01*
X50507Y-41352D02*
X50535Y-41352D01*
X50564Y-41367D01*
X50578Y-41381D01*
X50592Y-41410D01*
X50607Y-41467D01*
X50607Y-41538D01*
X50592Y-41595D01*
X50578Y-41624D01*
X50564Y-41638D01*
X50535Y-41652D01*
X50507Y-41652D01*
X50478Y-41638D01*
X50464Y-41624D01*
X50450Y-41595D01*
X50435Y-41538D01*
X50435Y-41467D01*
X50450Y-41410D01*
X50464Y-41381D01*
X50478Y-41367D01*
X50507Y-41352D01*
X50864Y-41452D02*
X50864Y-41652D01*
X50735Y-41452D02*
X50735Y-41610D01*
X50749Y-41638D01*
X50778Y-41652D01*
X50821Y-41652D01*
X50849Y-41638D01*
X50864Y-41624D01*
X51107Y-41495D02*
X51007Y-41495D01*
X51007Y-41652D02*
X51007Y-41352D01*
X51150Y-41352D01*
G54D11*
X48822Y-42760D02*
X48976Y-42760D01*
X48893Y-42855D01*
X48929Y-42855D01*
X48953Y-42867D01*
X48964Y-42879D01*
X48976Y-42903D01*
X48976Y-42963D01*
X48964Y-42986D01*
X48953Y-42998D01*
X48929Y-43010D01*
X48857Y-43010D01*
X48833Y-42998D01*
X48822Y-42986D01*
X49083Y-42986D02*
X49095Y-42998D01*
X49083Y-43010D01*
X49072Y-42998D01*
X49083Y-42986D01*
X49083Y-43010D01*
X49322Y-42760D02*
X49203Y-42760D01*
X49191Y-42879D01*
X49203Y-42867D01*
X49226Y-42855D01*
X49286Y-42855D01*
X49310Y-42867D01*
X49322Y-42879D01*
X49333Y-42903D01*
X49333Y-42963D01*
X49322Y-42986D01*
X49310Y-42998D01*
X49286Y-43010D01*
X49226Y-43010D01*
X49203Y-42998D01*
X49191Y-42986D01*
X49441Y-43010D02*
X49441Y-42843D01*
X49441Y-42867D02*
X49453Y-42855D01*
X49476Y-42843D01*
X49512Y-42843D01*
X49536Y-42855D01*
X49548Y-42879D01*
X49548Y-43010D01*
X49548Y-42879D02*
X49560Y-42855D01*
X49583Y-42843D01*
X49619Y-42843D01*
X49643Y-42855D01*
X49655Y-42879D01*
X49655Y-43010D01*
X49774Y-43010D02*
X49774Y-42843D01*
X49774Y-42867D02*
X49786Y-42855D01*
X49810Y-42843D01*
X49845Y-42843D01*
X49869Y-42855D01*
X49881Y-42879D01*
X49881Y-43010D01*
X49881Y-42879D02*
X49893Y-42855D01*
X49917Y-42843D01*
X49953Y-42843D01*
X49976Y-42855D01*
X49988Y-42879D01*
X49988Y-43010D01*
X49916Y-42292D02*
X49928Y-42280D01*
X49952Y-42268D01*
X50011Y-42268D01*
X50035Y-42280D01*
X50047Y-42292D01*
X50059Y-42316D01*
X50059Y-42339D01*
X50047Y-42375D01*
X49904Y-42518D01*
X50059Y-42518D01*
X50166Y-42494D02*
X50178Y-42506D01*
X50166Y-42518D01*
X50154Y-42506D01*
X50166Y-42494D01*
X50166Y-42518D01*
X50404Y-42268D02*
X50285Y-42268D01*
X50273Y-42387D01*
X50285Y-42375D01*
X50309Y-42363D01*
X50369Y-42363D01*
X50392Y-42375D01*
X50404Y-42387D01*
X50416Y-42411D01*
X50416Y-42470D01*
X50404Y-42494D01*
X50392Y-42506D01*
X50369Y-42518D01*
X50309Y-42518D01*
X50285Y-42506D01*
X50273Y-42494D01*
X50523Y-42518D02*
X50523Y-42351D01*
X50523Y-42375D02*
X50535Y-42363D01*
X50559Y-42351D01*
X50595Y-42351D01*
X50619Y-42363D01*
X50630Y-42387D01*
X50630Y-42518D01*
X50630Y-42387D02*
X50642Y-42363D01*
X50666Y-42351D01*
X50702Y-42351D01*
X50726Y-42363D01*
X50738Y-42387D01*
X50738Y-42518D01*
X50857Y-42518D02*
X50857Y-42351D01*
X50857Y-42375D02*
X50869Y-42363D01*
X50892Y-42351D01*
X50928Y-42351D01*
X50952Y-42363D01*
X50964Y-42387D01*
X50964Y-42518D01*
X50964Y-42387D02*
X50976Y-42363D01*
X51000Y-42351D01*
X51035Y-42351D01*
X51059Y-42363D01*
X51071Y-42387D01*
X51071Y-42518D01*
G54D16*
X51058Y-44301D02*
X51515Y-44301D01*
X51287Y-44530D02*
X51287Y-44073D01*
G54D15*
X33700Y-45092D02*
X33685Y-45107D01*
X33642Y-45121D01*
X33614Y-45121D01*
X33571Y-45107D01*
X33542Y-45078D01*
X33528Y-45050D01*
X33514Y-44992D01*
X33514Y-44950D01*
X33528Y-44892D01*
X33542Y-44864D01*
X33571Y-44835D01*
X33614Y-44821D01*
X33642Y-44821D01*
X33685Y-44835D01*
X33700Y-44850D01*
X33985Y-45121D02*
X33814Y-45121D01*
X33900Y-45121D02*
X33900Y-44821D01*
X33871Y-44864D01*
X33842Y-44892D01*
X33814Y-44907D01*
X34535Y-41652D02*
X34364Y-41652D01*
X34450Y-41652D02*
X34450Y-41352D01*
X34421Y-41395D01*
X34392Y-41424D01*
X34364Y-41438D01*
X34721Y-41352D02*
X34750Y-41352D01*
X34778Y-41367D01*
X34792Y-41381D01*
X34807Y-41410D01*
X34821Y-41467D01*
X34821Y-41538D01*
X34807Y-41595D01*
X34792Y-41624D01*
X34778Y-41638D01*
X34750Y-41652D01*
X34721Y-41652D01*
X34692Y-41638D01*
X34678Y-41624D01*
X34664Y-41595D01*
X34650Y-41538D01*
X34650Y-41467D01*
X34664Y-41410D01*
X34678Y-41381D01*
X34692Y-41367D01*
X34721Y-41352D01*
X35007Y-41352D02*
X35035Y-41352D01*
X35064Y-41367D01*
X35078Y-41381D01*
X35092Y-41410D01*
X35107Y-41467D01*
X35107Y-41538D01*
X35092Y-41595D01*
X35078Y-41624D01*
X35064Y-41638D01*
X35035Y-41652D01*
X35007Y-41652D01*
X34978Y-41638D01*
X34964Y-41624D01*
X34950Y-41595D01*
X34935Y-41538D01*
X34935Y-41467D01*
X34950Y-41410D01*
X34964Y-41381D01*
X34978Y-41367D01*
X35007Y-41352D01*
X35364Y-41452D02*
X35364Y-41652D01*
X35235Y-41452D02*
X35235Y-41610D01*
X35249Y-41638D01*
X35278Y-41652D01*
X35321Y-41652D01*
X35349Y-41638D01*
X35364Y-41624D01*
X35607Y-41495D02*
X35507Y-41495D01*
X35507Y-41652D02*
X35507Y-41352D01*
X35650Y-41352D01*
G54D11*
X33322Y-42760D02*
X33476Y-42760D01*
X33393Y-42855D01*
X33429Y-42855D01*
X33453Y-42867D01*
X33464Y-42879D01*
X33476Y-42903D01*
X33476Y-42963D01*
X33464Y-42986D01*
X33453Y-42998D01*
X33429Y-43010D01*
X33357Y-43010D01*
X33333Y-42998D01*
X33322Y-42986D01*
X33583Y-42986D02*
X33595Y-42998D01*
X33583Y-43010D01*
X33572Y-42998D01*
X33583Y-42986D01*
X33583Y-43010D01*
X33822Y-42760D02*
X33703Y-42760D01*
X33691Y-42879D01*
X33703Y-42867D01*
X33726Y-42855D01*
X33786Y-42855D01*
X33810Y-42867D01*
X33822Y-42879D01*
X33833Y-42903D01*
X33833Y-42963D01*
X33822Y-42986D01*
X33810Y-42998D01*
X33786Y-43010D01*
X33726Y-43010D01*
X33703Y-42998D01*
X33691Y-42986D01*
X33941Y-43010D02*
X33941Y-42843D01*
X33941Y-42867D02*
X33953Y-42855D01*
X33976Y-42843D01*
X34012Y-42843D01*
X34036Y-42855D01*
X34048Y-42879D01*
X34048Y-43010D01*
X34048Y-42879D02*
X34060Y-42855D01*
X34083Y-42843D01*
X34119Y-42843D01*
X34143Y-42855D01*
X34155Y-42879D01*
X34155Y-43010D01*
X34274Y-43010D02*
X34274Y-42843D01*
X34274Y-42867D02*
X34286Y-42855D01*
X34310Y-42843D01*
X34345Y-42843D01*
X34369Y-42855D01*
X34381Y-42879D01*
X34381Y-43010D01*
X34381Y-42879D02*
X34393Y-42855D01*
X34417Y-42843D01*
X34453Y-42843D01*
X34476Y-42855D01*
X34488Y-42879D01*
X34488Y-43010D01*
X34416Y-42292D02*
X34428Y-42280D01*
X34452Y-42268D01*
X34511Y-42268D01*
X34535Y-42280D01*
X34547Y-42292D01*
X34559Y-42316D01*
X34559Y-42339D01*
X34547Y-42375D01*
X34404Y-42518D01*
X34559Y-42518D01*
X34666Y-42494D02*
X34678Y-42506D01*
X34666Y-42518D01*
X34654Y-42506D01*
X34666Y-42494D01*
X34666Y-42518D01*
X34904Y-42268D02*
X34785Y-42268D01*
X34773Y-42387D01*
X34785Y-42375D01*
X34809Y-42363D01*
X34869Y-42363D01*
X34892Y-42375D01*
X34904Y-42387D01*
X34916Y-42411D01*
X34916Y-42470D01*
X34904Y-42494D01*
X34892Y-42506D01*
X34869Y-42518D01*
X34809Y-42518D01*
X34785Y-42506D01*
X34773Y-42494D01*
X35023Y-42518D02*
X35023Y-42351D01*
X35023Y-42375D02*
X35035Y-42363D01*
X35059Y-42351D01*
X35095Y-42351D01*
X35119Y-42363D01*
X35130Y-42387D01*
X35130Y-42518D01*
X35130Y-42387D02*
X35142Y-42363D01*
X35166Y-42351D01*
X35202Y-42351D01*
X35226Y-42363D01*
X35238Y-42387D01*
X35238Y-42518D01*
X35357Y-42518D02*
X35357Y-42351D01*
X35357Y-42375D02*
X35369Y-42363D01*
X35392Y-42351D01*
X35428Y-42351D01*
X35452Y-42363D01*
X35464Y-42387D01*
X35464Y-42518D01*
X35464Y-42387D02*
X35476Y-42363D01*
X35500Y-42351D01*
X35535Y-42351D01*
X35559Y-42363D01*
X35571Y-42387D01*
X35571Y-42518D01*
G54D16*
X35558Y-44301D02*
X36015Y-44301D01*
X35787Y-44530D02*
X35787Y-44073D01*
G54D15*
X37021Y-41121D02*
X36721Y-41121D01*
X36721Y-41050D01*
X36735Y-41007D01*
X36764Y-40978D01*
X36792Y-40964D01*
X36850Y-40950D01*
X36892Y-40950D01*
X36950Y-40964D01*
X36978Y-40978D01*
X37007Y-41007D01*
X37021Y-41050D01*
X37021Y-41121D01*
X36721Y-40850D02*
X36721Y-40650D01*
X37021Y-40778D01*
X44571Y-41221D02*
X44271Y-41221D01*
X44271Y-41150D01*
X44285Y-41107D01*
X44314Y-41078D01*
X44342Y-41064D01*
X44400Y-41050D01*
X44442Y-41050D01*
X44500Y-41064D01*
X44528Y-41078D01*
X44557Y-41107D01*
X44571Y-41150D01*
X44571Y-41221D01*
X44571Y-40907D02*
X44571Y-40850D01*
X44557Y-40821D01*
X44542Y-40807D01*
X44500Y-40778D01*
X44442Y-40764D01*
X44328Y-40764D01*
X44300Y-40778D01*
X44285Y-40792D01*
X44271Y-40821D01*
X44271Y-40878D01*
X44285Y-40907D01*
X44300Y-40921D01*
X44328Y-40935D01*
X44400Y-40935D01*
X44428Y-40921D01*
X44442Y-40907D01*
X44457Y-40878D01*
X44457Y-40821D01*
X44442Y-40792D01*
X44428Y-40778D01*
X44400Y-40764D01*
X39921Y-31571D02*
X39621Y-31571D01*
X39621Y-31500D01*
X39635Y-31457D01*
X39664Y-31428D01*
X39692Y-31414D01*
X39750Y-31400D01*
X39792Y-31400D01*
X39850Y-31414D01*
X39878Y-31428D01*
X39907Y-31457D01*
X39921Y-31500D01*
X39921Y-31571D01*
X39621Y-31142D02*
X39621Y-31200D01*
X39635Y-31228D01*
X39650Y-31242D01*
X39692Y-31271D01*
X39750Y-31285D01*
X39864Y-31285D01*
X39892Y-31271D01*
X39907Y-31257D01*
X39921Y-31228D01*
X39921Y-31171D01*
X39907Y-31142D01*
X39892Y-31128D01*
X39864Y-31114D01*
X39792Y-31114D01*
X39764Y-31128D01*
X39750Y-31142D01*
X39735Y-31171D01*
X39735Y-31228D01*
X39750Y-31257D01*
X39764Y-31271D01*
X39792Y-31285D01*
X43971Y-30971D02*
X43671Y-30971D01*
X43671Y-30900D01*
X43685Y-30857D01*
X43714Y-30828D01*
X43742Y-30814D01*
X43800Y-30800D01*
X43842Y-30800D01*
X43900Y-30814D01*
X43928Y-30828D01*
X43957Y-30857D01*
X43971Y-30900D01*
X43971Y-30971D01*
X43800Y-30628D02*
X43785Y-30657D01*
X43771Y-30671D01*
X43742Y-30685D01*
X43728Y-30685D01*
X43700Y-30671D01*
X43685Y-30657D01*
X43671Y-30628D01*
X43671Y-30571D01*
X43685Y-30542D01*
X43700Y-30528D01*
X43728Y-30514D01*
X43742Y-30514D01*
X43771Y-30528D01*
X43785Y-30542D01*
X43800Y-30571D01*
X43800Y-30628D01*
X43814Y-30657D01*
X43828Y-30671D01*
X43857Y-30685D01*
X43914Y-30685D01*
X43942Y-30671D01*
X43957Y-30657D01*
X43971Y-30628D01*
X43971Y-30571D01*
X43957Y-30542D01*
X43942Y-30528D01*
X43914Y-30514D01*
X43857Y-30514D01*
X43828Y-30528D01*
X43814Y-30542D01*
X43800Y-30571D01*
G54D11*
X38815Y-39851D02*
X38815Y-39601D01*
X38875Y-39601D01*
X38910Y-39613D01*
X38934Y-39636D01*
X38946Y-39660D01*
X38958Y-39708D01*
X38958Y-39744D01*
X38946Y-39791D01*
X38934Y-39815D01*
X38910Y-39839D01*
X38875Y-39851D01*
X38815Y-39851D01*
X39172Y-39684D02*
X39172Y-39851D01*
X39113Y-39589D02*
X39053Y-39767D01*
X39208Y-39767D01*
X38464Y-39101D02*
X38321Y-39101D01*
X38392Y-39101D02*
X38392Y-38851D01*
X38369Y-38886D01*
X38345Y-38910D01*
X38321Y-38922D01*
X38571Y-39101D02*
X38571Y-38851D01*
X38714Y-39101D01*
X38714Y-38851D01*
X38940Y-38934D02*
X38940Y-39101D01*
X38880Y-38839D02*
X38821Y-39017D01*
X38976Y-39017D01*
X39119Y-38851D02*
X39142Y-38851D01*
X39166Y-38863D01*
X39178Y-38875D01*
X39190Y-38898D01*
X39202Y-38946D01*
X39202Y-39005D01*
X39190Y-39053D01*
X39178Y-39077D01*
X39166Y-39089D01*
X39142Y-39101D01*
X39119Y-39101D01*
X39095Y-39089D01*
X39083Y-39077D01*
X39071Y-39053D01*
X39059Y-39005D01*
X39059Y-38946D01*
X39071Y-38898D01*
X39083Y-38875D01*
X39095Y-38863D01*
X39119Y-38851D01*
X39357Y-38851D02*
X39380Y-38851D01*
X39404Y-38863D01*
X39416Y-38875D01*
X39428Y-38898D01*
X39440Y-38946D01*
X39440Y-39005D01*
X39428Y-39053D01*
X39416Y-39077D01*
X39404Y-39089D01*
X39380Y-39101D01*
X39357Y-39101D01*
X39333Y-39089D01*
X39321Y-39077D01*
X39309Y-39053D01*
X39297Y-39005D01*
X39297Y-38946D01*
X39309Y-38898D01*
X39321Y-38875D01*
X39333Y-38863D01*
X39357Y-38851D01*
X39678Y-39101D02*
X39535Y-39101D01*
X39607Y-39101D02*
X39607Y-38851D01*
X39583Y-38886D01*
X39559Y-38910D01*
X39535Y-38922D01*
X47351Y-28684D02*
X47101Y-28684D01*
X47101Y-28625D01*
X47113Y-28589D01*
X47136Y-28565D01*
X47160Y-28553D01*
X47208Y-28541D01*
X47244Y-28541D01*
X47291Y-28553D01*
X47315Y-28565D01*
X47339Y-28589D01*
X47351Y-28625D01*
X47351Y-28684D01*
X47351Y-28303D02*
X47351Y-28446D01*
X47351Y-28375D02*
X47101Y-28375D01*
X47136Y-28398D01*
X47160Y-28422D01*
X47172Y-28446D01*
X46601Y-29035D02*
X46601Y-29178D01*
X46601Y-29107D02*
X46351Y-29107D01*
X46386Y-29130D01*
X46410Y-29154D01*
X46422Y-29178D01*
X46601Y-28928D02*
X46351Y-28928D01*
X46601Y-28785D01*
X46351Y-28785D01*
X46434Y-28559D02*
X46601Y-28559D01*
X46339Y-28619D02*
X46517Y-28678D01*
X46517Y-28523D01*
X46351Y-28380D02*
X46351Y-28357D01*
X46363Y-28333D01*
X46375Y-28321D01*
X46398Y-28309D01*
X46446Y-28297D01*
X46505Y-28297D01*
X46553Y-28309D01*
X46577Y-28321D01*
X46589Y-28333D01*
X46601Y-28357D01*
X46601Y-28380D01*
X46589Y-28404D01*
X46577Y-28416D01*
X46553Y-28428D01*
X46505Y-28440D01*
X46446Y-28440D01*
X46398Y-28428D01*
X46375Y-28416D01*
X46363Y-28404D01*
X46351Y-28380D01*
X46351Y-28142D02*
X46351Y-28119D01*
X46363Y-28095D01*
X46375Y-28083D01*
X46398Y-28071D01*
X46446Y-28059D01*
X46505Y-28059D01*
X46553Y-28071D01*
X46577Y-28083D01*
X46589Y-28095D01*
X46601Y-28119D01*
X46601Y-28142D01*
X46589Y-28166D01*
X46577Y-28178D01*
X46553Y-28190D01*
X46505Y-28202D01*
X46446Y-28202D01*
X46398Y-28190D01*
X46375Y-28178D01*
X46363Y-28166D01*
X46351Y-28142D01*
X46601Y-27821D02*
X46601Y-27964D01*
X46601Y-27892D02*
X46351Y-27892D01*
X46386Y-27916D01*
X46410Y-27940D01*
X46422Y-27964D01*
X38351Y-28684D02*
X38101Y-28684D01*
X38101Y-28625D01*
X38113Y-28589D01*
X38136Y-28565D01*
X38160Y-28553D01*
X38208Y-28541D01*
X38244Y-28541D01*
X38291Y-28553D01*
X38315Y-28565D01*
X38339Y-28589D01*
X38351Y-28625D01*
X38351Y-28684D01*
X38125Y-28446D02*
X38113Y-28434D01*
X38101Y-28410D01*
X38101Y-28351D01*
X38113Y-28327D01*
X38125Y-28315D01*
X38148Y-28303D01*
X38172Y-28303D01*
X38208Y-28315D01*
X38351Y-28458D01*
X38351Y-28303D01*
X39101Y-29035D02*
X39101Y-29178D01*
X39101Y-29107D02*
X38851Y-29107D01*
X38886Y-29130D01*
X38910Y-29154D01*
X38922Y-29178D01*
X39101Y-28928D02*
X38851Y-28928D01*
X39101Y-28785D01*
X38851Y-28785D01*
X38934Y-28559D02*
X39101Y-28559D01*
X38839Y-28619D02*
X39017Y-28678D01*
X39017Y-28523D01*
X38851Y-28380D02*
X38851Y-28357D01*
X38863Y-28333D01*
X38875Y-28321D01*
X38898Y-28309D01*
X38946Y-28297D01*
X39005Y-28297D01*
X39053Y-28309D01*
X39077Y-28321D01*
X39089Y-28333D01*
X39101Y-28357D01*
X39101Y-28380D01*
X39089Y-28404D01*
X39077Y-28416D01*
X39053Y-28428D01*
X39005Y-28440D01*
X38946Y-28440D01*
X38898Y-28428D01*
X38875Y-28416D01*
X38863Y-28404D01*
X38851Y-28380D01*
X38851Y-28142D02*
X38851Y-28119D01*
X38863Y-28095D01*
X38875Y-28083D01*
X38898Y-28071D01*
X38946Y-28059D01*
X39005Y-28059D01*
X39053Y-28071D01*
X39077Y-28083D01*
X39089Y-28095D01*
X39101Y-28119D01*
X39101Y-28142D01*
X39089Y-28166D01*
X39077Y-28178D01*
X39053Y-28190D01*
X39005Y-28202D01*
X38946Y-28202D01*
X38898Y-28190D01*
X38875Y-28178D01*
X38863Y-28166D01*
X38851Y-28142D01*
X39101Y-27821D02*
X39101Y-27964D01*
X39101Y-27892D02*
X38851Y-27892D01*
X38886Y-27916D01*
X38910Y-27940D01*
X38922Y-27964D01*
X43101Y-37684D02*
X42851Y-37684D01*
X42851Y-37625D01*
X42863Y-37589D01*
X42886Y-37565D01*
X42910Y-37553D01*
X42958Y-37541D01*
X42994Y-37541D01*
X43041Y-37553D01*
X43065Y-37565D01*
X43089Y-37589D01*
X43101Y-37625D01*
X43101Y-37684D01*
X42851Y-37458D02*
X42851Y-37303D01*
X42946Y-37386D01*
X42946Y-37351D01*
X42958Y-37327D01*
X42970Y-37315D01*
X42994Y-37303D01*
X43053Y-37303D01*
X43077Y-37315D01*
X43089Y-37327D01*
X43101Y-37351D01*
X43101Y-37422D01*
X43089Y-37446D01*
X43077Y-37458D01*
X43601Y-36535D02*
X43601Y-36678D01*
X43601Y-36607D02*
X43351Y-36607D01*
X43386Y-36630D01*
X43410Y-36654D01*
X43422Y-36678D01*
X43601Y-36428D02*
X43351Y-36428D01*
X43601Y-36285D01*
X43351Y-36285D01*
X43434Y-36059D02*
X43601Y-36059D01*
X43339Y-36119D02*
X43517Y-36178D01*
X43517Y-36023D01*
X43351Y-35880D02*
X43351Y-35857D01*
X43363Y-35833D01*
X43375Y-35821D01*
X43398Y-35809D01*
X43446Y-35797D01*
X43505Y-35797D01*
X43553Y-35809D01*
X43577Y-35821D01*
X43589Y-35833D01*
X43601Y-35857D01*
X43601Y-35880D01*
X43589Y-35904D01*
X43577Y-35916D01*
X43553Y-35928D01*
X43505Y-35940D01*
X43446Y-35940D01*
X43398Y-35928D01*
X43375Y-35916D01*
X43363Y-35904D01*
X43351Y-35880D01*
X43351Y-35642D02*
X43351Y-35619D01*
X43363Y-35595D01*
X43375Y-35583D01*
X43398Y-35571D01*
X43446Y-35559D01*
X43505Y-35559D01*
X43553Y-35571D01*
X43577Y-35583D01*
X43589Y-35595D01*
X43601Y-35619D01*
X43601Y-35642D01*
X43589Y-35666D01*
X43577Y-35678D01*
X43553Y-35690D01*
X43505Y-35702D01*
X43446Y-35702D01*
X43398Y-35690D01*
X43375Y-35678D01*
X43363Y-35666D01*
X43351Y-35642D01*
X43601Y-35321D02*
X43601Y-35464D01*
X43601Y-35392D02*
X43351Y-35392D01*
X43386Y-35416D01*
X43410Y-35440D01*
X43422Y-35464D01*
X46315Y-39851D02*
X46315Y-39601D01*
X46375Y-39601D01*
X46410Y-39613D01*
X46434Y-39636D01*
X46446Y-39660D01*
X46458Y-39708D01*
X46458Y-39744D01*
X46446Y-39791D01*
X46434Y-39815D01*
X46410Y-39839D01*
X46375Y-39851D01*
X46315Y-39851D01*
X46684Y-39601D02*
X46565Y-39601D01*
X46553Y-39720D01*
X46565Y-39708D01*
X46589Y-39696D01*
X46648Y-39696D01*
X46672Y-39708D01*
X46684Y-39720D01*
X46696Y-39744D01*
X46696Y-39803D01*
X46684Y-39827D01*
X46672Y-39839D01*
X46648Y-39851D01*
X46589Y-39851D01*
X46565Y-39839D01*
X46553Y-39827D01*
X45964Y-39101D02*
X45821Y-39101D01*
X45892Y-39101D02*
X45892Y-38851D01*
X45869Y-38886D01*
X45845Y-38910D01*
X45821Y-38922D01*
X46071Y-39101D02*
X46071Y-38851D01*
X46214Y-39101D01*
X46214Y-38851D01*
X46440Y-38934D02*
X46440Y-39101D01*
X46380Y-38839D02*
X46321Y-39017D01*
X46476Y-39017D01*
X46619Y-38851D02*
X46642Y-38851D01*
X46666Y-38863D01*
X46678Y-38875D01*
X46690Y-38898D01*
X46702Y-38946D01*
X46702Y-39005D01*
X46690Y-39053D01*
X46678Y-39077D01*
X46666Y-39089D01*
X46642Y-39101D01*
X46619Y-39101D01*
X46595Y-39089D01*
X46583Y-39077D01*
X46571Y-39053D01*
X46559Y-39005D01*
X46559Y-38946D01*
X46571Y-38898D01*
X46583Y-38875D01*
X46595Y-38863D01*
X46619Y-38851D01*
X46857Y-38851D02*
X46880Y-38851D01*
X46904Y-38863D01*
X46916Y-38875D01*
X46928Y-38898D01*
X46940Y-38946D01*
X46940Y-39005D01*
X46928Y-39053D01*
X46916Y-39077D01*
X46904Y-39089D01*
X46880Y-39101D01*
X46857Y-39101D01*
X46833Y-39089D01*
X46821Y-39077D01*
X46809Y-39053D01*
X46797Y-39005D01*
X46797Y-38946D01*
X46809Y-38898D01*
X46821Y-38875D01*
X46833Y-38863D01*
X46857Y-38851D01*
X47178Y-39101D02*
X47035Y-39101D01*
X47107Y-39101D02*
X47107Y-38851D01*
X47083Y-38886D01*
X47059Y-38910D01*
X47035Y-38922D01*
M02*
