G04 (created by PCBNEW (2013-07-07 BZR 4022)-stable) date 4/1/2015 7:14:36 PM*
%MOIN*%
G04 Gerber Fmt 3.4, Leading zero omitted, Abs format*
%FSLAX34Y34*%
G01*
G70*
G90*
G04 APERTURE LIST*
%ADD10C,0.00590551*%
%ADD11C,0.008*%
%ADD12C,0.0001*%
G04 APERTURE END LIST*
G54D10*
G54D11*
X45054Y-26530D02*
X45092Y-26511D01*
X45150Y-26511D01*
X45207Y-26530D01*
X45245Y-26569D01*
X45264Y-26607D01*
X45283Y-26683D01*
X45283Y-26740D01*
X45264Y-26816D01*
X45245Y-26854D01*
X45207Y-26892D01*
X45150Y-26911D01*
X45111Y-26911D01*
X45054Y-26892D01*
X45035Y-26873D01*
X45035Y-26740D01*
X45111Y-26740D01*
X44864Y-26911D02*
X44864Y-26511D01*
X44635Y-26911D01*
X44635Y-26511D01*
X44445Y-26911D02*
X44445Y-26511D01*
X44349Y-26511D01*
X44292Y-26530D01*
X44254Y-26569D01*
X44235Y-26607D01*
X44216Y-26683D01*
X44216Y-26740D01*
X44235Y-26816D01*
X44254Y-26854D01*
X44292Y-26892D01*
X44349Y-26911D01*
X44445Y-26911D01*
X41064Y-26911D02*
X41254Y-26911D01*
X41254Y-26511D01*
X40854Y-26511D02*
X40778Y-26511D01*
X40740Y-26530D01*
X40702Y-26569D01*
X40683Y-26645D01*
X40683Y-26778D01*
X40702Y-26854D01*
X40740Y-26892D01*
X40778Y-26911D01*
X40854Y-26911D01*
X40892Y-26892D01*
X40930Y-26854D01*
X40950Y-26778D01*
X40950Y-26645D01*
X40930Y-26569D01*
X40892Y-26530D01*
X40854Y-26511D01*
X40550Y-26511D02*
X40454Y-26911D01*
X40378Y-26626D01*
X40302Y-26911D01*
X40207Y-26511D01*
X43369Y-26911D02*
X43369Y-26511D01*
X43369Y-26702D02*
X43140Y-26702D01*
X43140Y-26911D02*
X43140Y-26511D01*
X42950Y-26911D02*
X42950Y-26511D01*
X42550Y-26530D02*
X42588Y-26511D01*
X42645Y-26511D01*
X42702Y-26530D01*
X42740Y-26569D01*
X42759Y-26607D01*
X42778Y-26683D01*
X42778Y-26740D01*
X42759Y-26816D01*
X42740Y-26854D01*
X42702Y-26892D01*
X42645Y-26911D01*
X42607Y-26911D01*
X42550Y-26892D01*
X42530Y-26873D01*
X42530Y-26740D01*
X42607Y-26740D01*
X42359Y-26911D02*
X42359Y-26511D01*
X42359Y-26702D02*
X42130Y-26702D01*
X42130Y-26911D02*
X42130Y-26511D01*
X47652Y-45009D02*
X47347Y-45009D01*
X45652Y-45009D02*
X45347Y-45009D01*
X45500Y-45161D02*
X45500Y-44857D01*
X40152Y-45009D02*
X39847Y-45009D01*
X38152Y-45009D02*
X37847Y-45009D01*
X38000Y-45161D02*
X38000Y-44857D01*
X49369Y-32645D02*
X49369Y-32969D01*
X49388Y-33007D01*
X49407Y-33026D01*
X49445Y-33045D01*
X49502Y-33045D01*
X49540Y-33026D01*
X49369Y-32892D02*
X49407Y-32911D01*
X49483Y-32911D01*
X49521Y-32892D01*
X49540Y-32873D01*
X49559Y-32835D01*
X49559Y-32721D01*
X49540Y-32683D01*
X49521Y-32664D01*
X49483Y-32645D01*
X49407Y-32645D01*
X49369Y-32664D01*
X49178Y-32911D02*
X49178Y-32645D01*
X49178Y-32511D02*
X49197Y-32530D01*
X49178Y-32550D01*
X49159Y-32530D01*
X49178Y-32511D01*
X49178Y-32550D01*
X49045Y-32645D02*
X48892Y-32645D01*
X48988Y-32511D02*
X48988Y-32854D01*
X48969Y-32892D01*
X48930Y-32911D01*
X48892Y-32911D01*
X48759Y-32911D02*
X48759Y-32511D01*
X48588Y-32911D02*
X48588Y-32702D01*
X48607Y-32664D01*
X48645Y-32645D01*
X48702Y-32645D01*
X48740Y-32664D01*
X48759Y-32683D01*
X48226Y-32645D02*
X48226Y-32911D01*
X48397Y-32645D02*
X48397Y-32854D01*
X48378Y-32892D01*
X48340Y-32911D01*
X48283Y-32911D01*
X48245Y-32892D01*
X48226Y-32873D01*
X48035Y-32911D02*
X48035Y-32511D01*
X48035Y-32664D02*
X47997Y-32645D01*
X47921Y-32645D01*
X47883Y-32664D01*
X47864Y-32683D01*
X47845Y-32721D01*
X47845Y-32835D01*
X47864Y-32873D01*
X47883Y-32892D01*
X47921Y-32911D01*
X47997Y-32911D01*
X48035Y-32892D01*
X47673Y-32873D02*
X47654Y-32892D01*
X47673Y-32911D01*
X47692Y-32892D01*
X47673Y-32873D01*
X47673Y-32911D01*
X47311Y-32892D02*
X47349Y-32911D01*
X47426Y-32911D01*
X47464Y-32892D01*
X47483Y-32873D01*
X47502Y-32835D01*
X47502Y-32721D01*
X47483Y-32683D01*
X47464Y-32664D01*
X47426Y-32645D01*
X47349Y-32645D01*
X47311Y-32664D01*
X47083Y-32911D02*
X47121Y-32892D01*
X47140Y-32873D01*
X47159Y-32835D01*
X47159Y-32721D01*
X47140Y-32683D01*
X47121Y-32664D01*
X47083Y-32645D01*
X47026Y-32645D01*
X46988Y-32664D01*
X46969Y-32683D01*
X46949Y-32721D01*
X46949Y-32835D01*
X46969Y-32873D01*
X46988Y-32892D01*
X47026Y-32911D01*
X47083Y-32911D01*
X46778Y-32911D02*
X46778Y-32645D01*
X46778Y-32683D02*
X46759Y-32664D01*
X46721Y-32645D01*
X46664Y-32645D01*
X46626Y-32664D01*
X46607Y-32702D01*
X46607Y-32911D01*
X46607Y-32702D02*
X46588Y-32664D01*
X46549Y-32645D01*
X46492Y-32645D01*
X46454Y-32664D01*
X46435Y-32702D01*
X46435Y-32911D01*
X45959Y-32492D02*
X46302Y-33007D01*
X45826Y-32645D02*
X45826Y-33045D01*
X45826Y-32664D02*
X45788Y-32645D01*
X45711Y-32645D01*
X45673Y-32664D01*
X45654Y-32683D01*
X45635Y-32721D01*
X45635Y-32835D01*
X45654Y-32873D01*
X45673Y-32892D01*
X45711Y-32911D01*
X45788Y-32911D01*
X45826Y-32892D01*
X45311Y-32892D02*
X45349Y-32911D01*
X45426Y-32911D01*
X45464Y-32892D01*
X45483Y-32854D01*
X45483Y-32702D01*
X45464Y-32664D01*
X45426Y-32645D01*
X45349Y-32645D01*
X45311Y-32664D01*
X45292Y-32702D01*
X45292Y-32740D01*
X45483Y-32778D01*
X45121Y-32645D02*
X45121Y-33045D01*
X45121Y-32664D02*
X45083Y-32645D01*
X45007Y-32645D01*
X44969Y-32664D01*
X44949Y-32683D01*
X44930Y-32721D01*
X44930Y-32835D01*
X44949Y-32873D01*
X44969Y-32892D01*
X45007Y-32911D01*
X45083Y-32911D01*
X45121Y-32892D01*
X44588Y-32911D02*
X44588Y-32702D01*
X44607Y-32664D01*
X44645Y-32645D01*
X44721Y-32645D01*
X44759Y-32664D01*
X44588Y-32892D02*
X44626Y-32911D01*
X44721Y-32911D01*
X44759Y-32892D01*
X44778Y-32854D01*
X44778Y-32816D01*
X44759Y-32778D01*
X44721Y-32759D01*
X44626Y-32759D01*
X44588Y-32740D01*
X44416Y-32892D02*
X44378Y-32911D01*
X44302Y-32911D01*
X44264Y-32892D01*
X44245Y-32854D01*
X44245Y-32835D01*
X44264Y-32797D01*
X44302Y-32778D01*
X44359Y-32778D01*
X44397Y-32759D01*
X44416Y-32721D01*
X44416Y-32702D01*
X44397Y-32664D01*
X44359Y-32645D01*
X44302Y-32645D01*
X44264Y-32664D01*
X44016Y-32911D02*
X44054Y-32892D01*
X44073Y-32854D01*
X44073Y-32511D01*
X43692Y-32911D02*
X43692Y-32702D01*
X43711Y-32664D01*
X43749Y-32645D01*
X43826Y-32645D01*
X43864Y-32664D01*
X43692Y-32892D02*
X43730Y-32911D01*
X43826Y-32911D01*
X43864Y-32892D01*
X43883Y-32854D01*
X43883Y-32816D01*
X43864Y-32778D01*
X43826Y-32759D01*
X43730Y-32759D01*
X43692Y-32740D01*
X43502Y-32911D02*
X43502Y-32511D01*
X43502Y-32664D02*
X43464Y-32645D01*
X43388Y-32645D01*
X43349Y-32664D01*
X43330Y-32683D01*
X43311Y-32721D01*
X43311Y-32835D01*
X43330Y-32873D01*
X43349Y-32892D01*
X43388Y-32911D01*
X43464Y-32911D01*
X43502Y-32892D01*
X43159Y-32892D02*
X43121Y-32911D01*
X43045Y-32911D01*
X43007Y-32892D01*
X42988Y-32854D01*
X42988Y-32835D01*
X43007Y-32797D01*
X43045Y-32778D01*
X43102Y-32778D01*
X43140Y-32759D01*
X43159Y-32721D01*
X43159Y-32702D01*
X43140Y-32664D01*
X43102Y-32645D01*
X43045Y-32645D01*
X43007Y-32664D01*
X42530Y-32492D02*
X42873Y-33007D01*
X42397Y-32911D02*
X42397Y-32511D01*
X42397Y-32702D02*
X42169Y-32702D01*
X42169Y-32911D02*
X42169Y-32511D01*
X41826Y-32892D02*
X41864Y-32911D01*
X41940Y-32911D01*
X41978Y-32892D01*
X41997Y-32854D01*
X41997Y-32702D01*
X41978Y-32664D01*
X41940Y-32645D01*
X41864Y-32645D01*
X41826Y-32664D01*
X41807Y-32702D01*
X41807Y-32740D01*
X41997Y-32778D01*
X41464Y-32911D02*
X41464Y-32702D01*
X41483Y-32664D01*
X41521Y-32645D01*
X41597Y-32645D01*
X41635Y-32664D01*
X41464Y-32892D02*
X41502Y-32911D01*
X41597Y-32911D01*
X41635Y-32892D01*
X41654Y-32854D01*
X41654Y-32816D01*
X41635Y-32778D01*
X41597Y-32759D01*
X41502Y-32759D01*
X41464Y-32740D01*
X41102Y-32911D02*
X41102Y-32511D01*
X41102Y-32892D02*
X41140Y-32911D01*
X41216Y-32911D01*
X41254Y-32892D01*
X41273Y-32873D01*
X41292Y-32835D01*
X41292Y-32721D01*
X41273Y-32683D01*
X41254Y-32664D01*
X41216Y-32645D01*
X41140Y-32645D01*
X41102Y-32664D01*
X40854Y-32911D02*
X40892Y-32892D01*
X40911Y-32854D01*
X40911Y-32511D01*
X40702Y-32911D02*
X40702Y-32645D01*
X40702Y-32511D02*
X40721Y-32530D01*
X40702Y-32550D01*
X40683Y-32530D01*
X40702Y-32511D01*
X40702Y-32550D01*
X40340Y-32645D02*
X40340Y-32969D01*
X40359Y-33007D01*
X40378Y-33026D01*
X40416Y-33045D01*
X40473Y-33045D01*
X40511Y-33026D01*
X40340Y-32892D02*
X40378Y-32911D01*
X40454Y-32911D01*
X40492Y-32892D01*
X40511Y-32873D01*
X40530Y-32835D01*
X40530Y-32721D01*
X40511Y-32683D01*
X40492Y-32664D01*
X40454Y-32645D01*
X40378Y-32645D01*
X40340Y-32664D01*
X40149Y-32911D02*
X40149Y-32511D01*
X39978Y-32911D02*
X39978Y-32702D01*
X39997Y-32664D01*
X40035Y-32645D01*
X40092Y-32645D01*
X40130Y-32664D01*
X40149Y-32683D01*
X39845Y-32645D02*
X39692Y-32645D01*
X39788Y-32511D02*
X39788Y-32854D01*
X39769Y-32892D01*
X39730Y-32911D01*
X39692Y-32911D01*
X39330Y-32911D02*
X39464Y-32721D01*
X39559Y-32911D02*
X39559Y-32511D01*
X39407Y-32511D01*
X39369Y-32530D01*
X39350Y-32550D01*
X39330Y-32588D01*
X39330Y-32645D01*
X39350Y-32683D01*
X39369Y-32702D01*
X39407Y-32721D01*
X39559Y-32721D01*
X39007Y-32892D02*
X39045Y-32911D01*
X39121Y-32911D01*
X39159Y-32892D01*
X39178Y-32854D01*
X39178Y-32702D01*
X39159Y-32664D01*
X39121Y-32645D01*
X39045Y-32645D01*
X39007Y-32664D01*
X38988Y-32702D01*
X38988Y-32740D01*
X39178Y-32778D01*
X38759Y-32911D02*
X38797Y-32892D01*
X38816Y-32854D01*
X38816Y-32511D01*
X38435Y-32911D02*
X38435Y-32702D01*
X38454Y-32664D01*
X38492Y-32645D01*
X38569Y-32645D01*
X38607Y-32664D01*
X38435Y-32892D02*
X38473Y-32911D01*
X38569Y-32911D01*
X38607Y-32892D01*
X38626Y-32854D01*
X38626Y-32816D01*
X38607Y-32778D01*
X38569Y-32759D01*
X38473Y-32759D01*
X38435Y-32740D01*
X38283Y-32645D02*
X38188Y-32911D01*
X38092Y-32645D02*
X38188Y-32911D01*
X38226Y-33007D01*
X38245Y-33026D01*
X38283Y-33045D01*
X37711Y-32873D02*
X37730Y-32892D01*
X37788Y-32911D01*
X37826Y-32911D01*
X37883Y-32892D01*
X37921Y-32854D01*
X37940Y-32816D01*
X37959Y-32740D01*
X37959Y-32683D01*
X37940Y-32607D01*
X37921Y-32569D01*
X37883Y-32530D01*
X37826Y-32511D01*
X37788Y-32511D01*
X37730Y-32530D01*
X37711Y-32550D01*
X37483Y-32911D02*
X37521Y-32892D01*
X37540Y-32873D01*
X37559Y-32835D01*
X37559Y-32721D01*
X37540Y-32683D01*
X37521Y-32664D01*
X37483Y-32645D01*
X37426Y-32645D01*
X37388Y-32664D01*
X37369Y-32683D01*
X37350Y-32721D01*
X37350Y-32835D01*
X37369Y-32873D01*
X37388Y-32892D01*
X37426Y-32911D01*
X37483Y-32911D01*
X37178Y-32645D02*
X37178Y-32911D01*
X37178Y-32683D02*
X37159Y-32664D01*
X37121Y-32645D01*
X37064Y-32645D01*
X37026Y-32664D01*
X37007Y-32702D01*
X37007Y-32911D01*
X36873Y-32645D02*
X36721Y-32645D01*
X36816Y-32511D02*
X36816Y-32854D01*
X36797Y-32892D01*
X36759Y-32911D01*
X36721Y-32911D01*
X36588Y-32911D02*
X36588Y-32645D01*
X36588Y-32721D02*
X36569Y-32683D01*
X36550Y-32664D01*
X36511Y-32645D01*
X36473Y-32645D01*
X36283Y-32911D02*
X36321Y-32892D01*
X36340Y-32873D01*
X36359Y-32835D01*
X36359Y-32721D01*
X36340Y-32683D01*
X36321Y-32664D01*
X36283Y-32645D01*
X36226Y-32645D01*
X36188Y-32664D01*
X36169Y-32683D01*
X36150Y-32721D01*
X36150Y-32835D01*
X36169Y-32873D01*
X36188Y-32892D01*
X36226Y-32911D01*
X36283Y-32911D01*
X35921Y-32911D02*
X35959Y-32892D01*
X35978Y-32854D01*
X35978Y-32511D01*
G54D12*
G36*
X43704Y-45164D02*
X43688Y-45156D01*
X43651Y-45133D01*
X43598Y-45098D01*
X43536Y-45057D01*
X43474Y-45014D01*
X43423Y-44980D01*
X43387Y-44957D01*
X43372Y-44949D01*
X43364Y-44951D01*
X43334Y-44966D01*
X43291Y-44988D01*
X43266Y-45001D01*
X43227Y-45018D01*
X43207Y-45022D01*
X43204Y-45016D01*
X43189Y-44986D01*
X43167Y-44934D01*
X43137Y-44866D01*
X43103Y-44786D01*
X43066Y-44700D01*
X43030Y-44612D01*
X42995Y-44528D01*
X42964Y-44453D01*
X42939Y-44392D01*
X42923Y-44349D01*
X42917Y-44331D01*
X42919Y-44327D01*
X42939Y-44308D01*
X42973Y-44282D01*
X43048Y-44221D01*
X43121Y-44129D01*
X43166Y-44025D01*
X43181Y-43909D01*
X43168Y-43802D01*
X43126Y-43699D01*
X43054Y-43606D01*
X42967Y-43537D01*
X42865Y-43493D01*
X42750Y-43479D01*
X42640Y-43491D01*
X42535Y-43533D01*
X42442Y-43604D01*
X42403Y-43649D01*
X42349Y-43743D01*
X42318Y-43844D01*
X42315Y-43869D01*
X42319Y-43980D01*
X42352Y-44086D01*
X42410Y-44181D01*
X42491Y-44258D01*
X42502Y-44266D01*
X42539Y-44294D01*
X42564Y-44313D01*
X42584Y-44329D01*
X42443Y-44668D01*
X42421Y-44722D01*
X42382Y-44815D01*
X42348Y-44895D01*
X42321Y-44958D01*
X42302Y-45001D01*
X42294Y-45018D01*
X42293Y-45019D01*
X42281Y-45021D01*
X42255Y-45011D01*
X42208Y-44988D01*
X42176Y-44972D01*
X42140Y-44955D01*
X42124Y-44949D01*
X42110Y-44956D01*
X42076Y-44979D01*
X42025Y-45012D01*
X41965Y-45053D01*
X41907Y-45093D01*
X41854Y-45128D01*
X41815Y-45152D01*
X41796Y-45163D01*
X41793Y-45163D01*
X41777Y-45153D01*
X41746Y-45128D01*
X41700Y-45084D01*
X41635Y-45020D01*
X41625Y-45010D01*
X41571Y-44955D01*
X41527Y-44909D01*
X41498Y-44877D01*
X41488Y-44862D01*
X41488Y-44862D01*
X41497Y-44843D01*
X41522Y-44805D01*
X41557Y-44751D01*
X41600Y-44688D01*
X41712Y-44525D01*
X41650Y-44371D01*
X41631Y-44324D01*
X41607Y-44267D01*
X41590Y-44226D01*
X41580Y-44208D01*
X41564Y-44202D01*
X41521Y-44192D01*
X41460Y-44179D01*
X41388Y-44166D01*
X41318Y-44153D01*
X41255Y-44141D01*
X41210Y-44132D01*
X41190Y-44128D01*
X41185Y-44125D01*
X41181Y-44115D01*
X41178Y-44094D01*
X41177Y-44056D01*
X41176Y-43996D01*
X41176Y-43909D01*
X41176Y-43900D01*
X41177Y-43817D01*
X41178Y-43751D01*
X41180Y-43708D01*
X41183Y-43691D01*
X41183Y-43691D01*
X41203Y-43686D01*
X41247Y-43677D01*
X41310Y-43664D01*
X41385Y-43650D01*
X41389Y-43649D01*
X41464Y-43635D01*
X41526Y-43622D01*
X41570Y-43612D01*
X41588Y-43606D01*
X41592Y-43601D01*
X41607Y-43572D01*
X41629Y-43526D01*
X41653Y-43469D01*
X41678Y-43411D01*
X41699Y-43358D01*
X41713Y-43319D01*
X41717Y-43301D01*
X41717Y-43301D01*
X41706Y-43283D01*
X41680Y-43244D01*
X41644Y-43191D01*
X41600Y-43127D01*
X41597Y-43122D01*
X41554Y-43059D01*
X41519Y-43006D01*
X41496Y-42968D01*
X41488Y-42951D01*
X41488Y-42950D01*
X41502Y-42931D01*
X41534Y-42896D01*
X41580Y-42848D01*
X41635Y-42792D01*
X41653Y-42775D01*
X41714Y-42715D01*
X41756Y-42676D01*
X41783Y-42655D01*
X41796Y-42650D01*
X41796Y-42651D01*
X41815Y-42662D01*
X41855Y-42688D01*
X41909Y-42725D01*
X41973Y-42768D01*
X41977Y-42771D01*
X42040Y-42814D01*
X42092Y-42849D01*
X42130Y-42874D01*
X42146Y-42884D01*
X42149Y-42884D01*
X42174Y-42876D01*
X42219Y-42861D01*
X42274Y-42839D01*
X42332Y-42816D01*
X42385Y-42794D01*
X42425Y-42775D01*
X42444Y-42765D01*
X42444Y-42764D01*
X42451Y-42741D01*
X42462Y-42694D01*
X42475Y-42629D01*
X42490Y-42552D01*
X42492Y-42540D01*
X42506Y-42465D01*
X42518Y-42403D01*
X42527Y-42360D01*
X42532Y-42342D01*
X42542Y-42340D01*
X42579Y-42337D01*
X42635Y-42336D01*
X42703Y-42335D01*
X42774Y-42336D01*
X42843Y-42337D01*
X42903Y-42339D01*
X42945Y-42342D01*
X42963Y-42346D01*
X42964Y-42347D01*
X42970Y-42370D01*
X42980Y-42417D01*
X42994Y-42482D01*
X43009Y-42560D01*
X43011Y-42573D01*
X43025Y-42648D01*
X43038Y-42709D01*
X43047Y-42752D01*
X43052Y-42768D01*
X43058Y-42772D01*
X43089Y-42785D01*
X43139Y-42806D01*
X43202Y-42831D01*
X43346Y-42890D01*
X43522Y-42768D01*
X43539Y-42757D01*
X43602Y-42714D01*
X43655Y-42679D01*
X43691Y-42656D01*
X43706Y-42647D01*
X43707Y-42648D01*
X43725Y-42663D01*
X43760Y-42696D01*
X43808Y-42743D01*
X43863Y-42798D01*
X43904Y-42839D01*
X43953Y-42889D01*
X43984Y-42922D01*
X44001Y-42944D01*
X44007Y-42957D01*
X44005Y-42965D01*
X43994Y-42983D01*
X43968Y-43022D01*
X43932Y-43076D01*
X43889Y-43138D01*
X43853Y-43191D01*
X43815Y-43250D01*
X43790Y-43292D01*
X43781Y-43313D01*
X43783Y-43322D01*
X43796Y-43356D01*
X43817Y-43409D01*
X43843Y-43471D01*
X43905Y-43611D01*
X43997Y-43628D01*
X44052Y-43639D01*
X44130Y-43654D01*
X44204Y-43668D01*
X44320Y-43691D01*
X44324Y-44117D01*
X44306Y-44125D01*
X44289Y-44130D01*
X44246Y-44139D01*
X44185Y-44151D01*
X44112Y-44165D01*
X44051Y-44177D01*
X43988Y-44188D01*
X43944Y-44197D01*
X43924Y-44201D01*
X43919Y-44208D01*
X43903Y-44238D01*
X43881Y-44286D01*
X43857Y-44344D01*
X43832Y-44403D01*
X43810Y-44458D01*
X43794Y-44500D01*
X43789Y-44522D01*
X43797Y-44539D01*
X43821Y-44575D01*
X43855Y-44627D01*
X43897Y-44689D01*
X43940Y-44751D01*
X43975Y-44804D01*
X44000Y-44842D01*
X44010Y-44859D01*
X44005Y-44871D01*
X43981Y-44901D01*
X43934Y-44949D01*
X43865Y-45018D01*
X43853Y-45029D01*
X43798Y-45082D01*
X43751Y-45125D01*
X43719Y-45154D01*
X43704Y-45164D01*
X43704Y-45164D01*
G37*
M02*
