G04 (created by PCBNEW (2013-07-07 BZR 4022)-stable) date 3/21/2015 3:58:04 AM*
%MOIN*%
G04 Gerber Fmt 3.4, Leading zero omitted, Abs format*
%FSLAX34Y34*%
G01*
G70*
G90*
G04 APERTURE LIST*
%ADD10C,0.00590551*%
%ADD11O,0.059X0.0885*%
%ADD12R,0.069X0.069*%
%ADD13C,0.069*%
%ADD14O,0.059X0.059*%
%ADD15R,0.06X0.06*%
%ADD16C,0.06*%
%ADD17C,0.059*%
%ADD18O,0.069X0.069*%
%ADD19C,0.125984*%
%ADD20R,0.059X0.059*%
G04 APERTURE END LIST*
G54D10*
G54D11*
X50000Y-36397D03*
X50500Y-35602D03*
X51000Y-36397D03*
X34500Y-36397D03*
X35000Y-35602D03*
X35500Y-36397D03*
G54D12*
X44750Y-27500D03*
G54D13*
X42750Y-27500D03*
X40750Y-27500D03*
G54D12*
X38000Y-44000D03*
G54D13*
X40000Y-44000D03*
G54D12*
X45500Y-44000D03*
G54D13*
X47500Y-44000D03*
G54D14*
X50500Y-34500D03*
X50500Y-30500D03*
X47500Y-27000D03*
X51500Y-27000D03*
X38000Y-27000D03*
X34000Y-27000D03*
X44500Y-38500D03*
X48500Y-38500D03*
X37000Y-38500D03*
X41000Y-38500D03*
X48500Y-36500D03*
X44500Y-36500D03*
X35000Y-34500D03*
X35000Y-30500D03*
X37000Y-36500D03*
X41000Y-36500D03*
G54D15*
X42750Y-35000D03*
G54D16*
X42750Y-34000D03*
G54D17*
X50500Y-43007D03*
X51188Y-43500D03*
X49811Y-43500D03*
X50500Y-43992D03*
X35000Y-43007D03*
X35688Y-43500D03*
X34311Y-43500D03*
X35000Y-43992D03*
G54D12*
X38000Y-40500D03*
G54D18*
X38000Y-41500D03*
G54D12*
X45500Y-41500D03*
G54D18*
X45500Y-40500D03*
G54D12*
X40750Y-30250D03*
G54D18*
X40750Y-31250D03*
G54D12*
X42750Y-30250D03*
G54D18*
X42750Y-31250D03*
G54D19*
X48000Y-30500D03*
X42750Y-41000D03*
X37500Y-30500D03*
G54D14*
X37000Y-37500D03*
X41000Y-37500D03*
X41000Y-35000D03*
X37000Y-35000D03*
X41000Y-34000D03*
X37000Y-34000D03*
X48500Y-37500D03*
X44500Y-37500D03*
X44500Y-35000D03*
X48500Y-35000D03*
X44500Y-34000D03*
X48500Y-34000D03*
G54D20*
X46500Y-30000D03*
G54D14*
X46500Y-27000D03*
G54D20*
X39000Y-30000D03*
G54D14*
X39000Y-27000D03*
G54D20*
X42750Y-36000D03*
G54D14*
X42750Y-39000D03*
G54D20*
X37500Y-39500D03*
G54D14*
X40500Y-39500D03*
G54D20*
X45000Y-39500D03*
G54D14*
X48000Y-39500D03*
M02*
