M48
;DRILL file {Pcbnew (2013-07-07 BZR 4022)-stable} date 4/1/2015 7:14:40 PM
;FORMAT={-:-/ absolute / inch / decimal}
FMAT,2
INCH,TZ
T1C0.032
T2C0.040
T3C0.056
T4C0.126
%
G90
G05
M72
T1
X3.4311Y-4.05
X3.5Y-4.0008
X3.5Y-4.0992
X3.525Y-3.7
X3.55Y-3.425
X3.55Y-3.525
X3.5689Y-4.05
X3.575Y-3.65
X3.575Y-3.75
X3.7Y-3.475
X3.75Y-3.425
X3.75Y-3.525
X3.75Y-3.675
X3.75Y-3.775
X3.75Y-3.9
X3.875Y-3.65
X3.875Y-3.75
X3.9Y-2.65
X3.9Y-2.95
X3.95Y-3.475
X3.95Y-4.1
X4.Y-3.2
X4.Y-3.425
X4.Y-3.525
X4.Y-3.675
X4.Y-3.775
X4.05Y-3.9
X4.05Y-4.1
X4.1Y-3.2
X4.225Y-3.2
X4.275Y-3.675
X4.275Y-3.975
X4.325Y-3.2
X4.5Y-3.9
X4.575Y-3.675
X4.6Y-3.4
X4.6Y-3.5
X4.625Y-3.625
X4.625Y-3.725
X4.65Y-2.65
X4.65Y-2.95
X4.7Y-4.1
X4.75Y-3.45
X4.8Y-3.4
X4.8Y-3.5
X4.8Y-3.65
X4.8Y-3.75
X4.8Y-3.9
X4.8Y-4.1
X4.925Y-3.625
X4.925Y-3.725
X4.9811Y-4.05
X5.Y-3.45
X5.05Y-3.4
X5.05Y-3.5
X5.05Y-3.65
X5.05Y-3.75
X5.05Y-4.0008
X5.05Y-4.0992
X5.1189Y-4.05
T2
X3.75Y-4.1
X3.85Y-4.1
X4.Y-3.05
X4.1Y-3.05
X4.225Y-3.05
X4.275Y-3.475
X4.275Y-3.575
X4.325Y-3.05
X4.5Y-4.1
X4.6Y-4.1
T3
X3.8Y-4.4
X4.Y-4.4
X4.075Y-2.75
X4.275Y-2.75
X4.475Y-2.75
X4.55Y-4.4
X4.75Y-4.4
T4
X3.425Y-2.725
X3.425Y-4.425
X3.75Y-3.05
X4.275Y-4.1
X4.8Y-3.05
X5.125Y-2.725
X5.125Y-4.425
T0
M30
