M48
;DRILL file {Pcbnew (2013-07-07 BZR 4022)-stable} date 3/21/2015 11:08:20 PM
;FORMAT={-:-/ absolute / inch / decimal}
FMAT,2
INCH,TZ
T1C0.032
T2C0.040
T3C0.126
%
G90
G05
M72
T1
X3.4561Y-4.
X3.5172Y-3.0828
X3.525Y-3.9508
X3.525Y-4.0492
X3.5939Y-4.
X3.7Y-3.4
X3.7Y-3.5
X3.7Y-3.65
X3.7Y-3.75
X3.7Y-3.85
X3.75Y-3.95
X3.8Y-2.8
X3.9Y-2.7
X3.9Y-3.
X4.05Y-3.95
X4.1Y-3.4
X4.1Y-3.5
X4.1Y-3.65
X4.1Y-3.75
X4.1Y-3.85
X4.275Y-3.6
X4.275Y-3.9
X4.45Y-3.4
X4.45Y-3.5
X4.45Y-3.65
X4.45Y-3.75
X4.45Y-3.85
X4.5Y-3.95
X4.65Y-2.7
X4.65Y-3.
X4.75Y-2.8
X4.8Y-3.95
X4.85Y-3.4
X4.85Y-3.5
X4.85Y-3.65
X4.85Y-3.75
X4.85Y-3.85
X4.9561Y-4.
X5.025Y-3.9508
X5.025Y-4.0492
X5.0328Y-3.0828
X5.0939Y-4.
T2
X3.8Y-4.05
X3.8Y-4.15
X3.8Y-4.4
X4.Y-4.4
X4.075Y-2.75
X4.075Y-3.025
X4.075Y-3.125
X4.275Y-2.75
X4.275Y-3.025
X4.275Y-3.125
X4.275Y-3.4
X4.275Y-3.5
X4.475Y-2.75
X4.55Y-4.05
X4.55Y-4.15
X4.55Y-4.4
X4.75Y-4.4
T3
X3.475Y-2.775
X3.475Y-4.375
X3.75Y-3.05
X4.275Y-4.1
X4.8Y-3.05
X5.075Y-2.775
X5.075Y-4.375
T0
M30
