G04 (created by PCBNEW (2013-07-07 BZR 4022)-stable) date 3/20/2015 7:52:39 PM*
%MOIN*%
G04 Gerber Fmt 3.4, Leading zero omitted, Abs format*
%FSLAX34Y34*%
G01*
G70*
G90*
G04 APERTURE LIST*
%ADD10C,0.00590551*%
%ADD11O,0.059X0.0885*%
%ADD12R,0.069X0.069*%
%ADD13C,0.069*%
%ADD14O,0.059X0.059*%
%ADD15R,0.06X0.06*%
%ADD16C,0.06*%
%ADD17C,0.059*%
%ADD18O,0.069X0.069*%
%ADD19C,0.125984*%
%ADD20R,0.0885X0.059*%
%ADD21O,0.0885X0.059*%
%ADD22R,0.059X0.0885*%
%ADD23C,0.01*%
G04 APERTURE END LIST*
G54D10*
G54D11*
X50000Y-36397D03*
X50500Y-35602D03*
X51000Y-36397D03*
X34500Y-36397D03*
X35000Y-35602D03*
X35500Y-36397D03*
G54D12*
X44750Y-27500D03*
G54D13*
X42750Y-27500D03*
X40750Y-27500D03*
G54D12*
X38000Y-44000D03*
G54D13*
X40000Y-44000D03*
G54D12*
X45500Y-44000D03*
G54D13*
X47500Y-44000D03*
G54D14*
X48500Y-35500D03*
X44500Y-35500D03*
X44500Y-34500D03*
X48500Y-34500D03*
X41000Y-34500D03*
X37000Y-34500D03*
X44500Y-37500D03*
X48500Y-37500D03*
X37000Y-37500D03*
X41000Y-37500D03*
X44500Y-36500D03*
X48500Y-36500D03*
X37000Y-35500D03*
X41000Y-35500D03*
X41000Y-36500D03*
X37000Y-36500D03*
G54D15*
X42250Y-36500D03*
G54D16*
X42250Y-35500D03*
G54D17*
X50500Y-43007D03*
X51188Y-43500D03*
X49811Y-43500D03*
X50500Y-43992D03*
X35000Y-43007D03*
X35688Y-43500D03*
X34311Y-43500D03*
X35000Y-43992D03*
G54D12*
X38000Y-40500D03*
G54D18*
X38000Y-41500D03*
G54D12*
X45500Y-41500D03*
G54D18*
X45500Y-40500D03*
G54D12*
X40750Y-30250D03*
G54D18*
X40750Y-31250D03*
G54D12*
X42750Y-30250D03*
G54D18*
X42750Y-31250D03*
G54D19*
X48000Y-30500D03*
X42750Y-41000D03*
X37500Y-30500D03*
G54D20*
X37352Y-39000D03*
G54D21*
X40647Y-39000D03*
G54D22*
X46500Y-30147D03*
G54D11*
X46500Y-26852D03*
G54D22*
X39000Y-30147D03*
G54D11*
X39000Y-26852D03*
G54D22*
X43500Y-34352D03*
G54D11*
X43500Y-37647D03*
G54D20*
X44852Y-39000D03*
G54D21*
X48147Y-39000D03*
G54D10*
G36*
X52200Y-45200D02*
X51734Y-45200D01*
X51734Y-43392D01*
X51651Y-43191D01*
X51545Y-43085D01*
X51545Y-36558D01*
X51545Y-36236D01*
X51503Y-36027D01*
X51385Y-35851D01*
X51208Y-35732D01*
X51045Y-35700D01*
X51045Y-35441D01*
X51003Y-35232D01*
X50885Y-35056D01*
X50708Y-34937D01*
X50500Y-34896D01*
X50291Y-34937D01*
X50114Y-35056D01*
X49996Y-35232D01*
X49955Y-35441D01*
X49955Y-35705D01*
X49949Y-35705D01*
X49949Y-35770D01*
X49865Y-35721D01*
X49837Y-35727D01*
X49649Y-35829D01*
X49515Y-35995D01*
X49455Y-36200D01*
X49455Y-36347D01*
X49950Y-36347D01*
X49950Y-36339D01*
X50050Y-36339D01*
X50050Y-36347D01*
X50057Y-36347D01*
X50057Y-36447D01*
X50050Y-36447D01*
X50050Y-37024D01*
X50134Y-37073D01*
X50162Y-37067D01*
X50350Y-36965D01*
X50484Y-36799D01*
X50495Y-36762D01*
X50496Y-36767D01*
X50614Y-36943D01*
X50791Y-37062D01*
X51000Y-37103D01*
X51208Y-37062D01*
X51385Y-36943D01*
X51503Y-36767D01*
X51545Y-36558D01*
X51545Y-43085D01*
X51498Y-43038D01*
X51297Y-42955D01*
X51081Y-42954D01*
X51045Y-42969D01*
X51045Y-42899D01*
X50962Y-42699D01*
X50809Y-42546D01*
X50608Y-42462D01*
X50392Y-42462D01*
X50191Y-42545D01*
X50038Y-42698D01*
X49955Y-42898D01*
X49955Y-42969D01*
X49950Y-42967D01*
X49950Y-37024D01*
X49950Y-36447D01*
X49455Y-36447D01*
X49455Y-36595D01*
X49515Y-36799D01*
X49649Y-36965D01*
X49837Y-37067D01*
X49865Y-37073D01*
X49950Y-37024D01*
X49950Y-42967D01*
X49919Y-42955D01*
X49703Y-42954D01*
X49502Y-43037D01*
X49349Y-43190D01*
X49266Y-43391D01*
X49265Y-43607D01*
X49348Y-43808D01*
X49501Y-43961D01*
X49702Y-44044D01*
X49918Y-44045D01*
X49954Y-44030D01*
X49954Y-44100D01*
X50037Y-44300D01*
X50190Y-44453D01*
X50391Y-44537D01*
X50607Y-44537D01*
X50808Y-44454D01*
X50961Y-44301D01*
X51044Y-44101D01*
X51044Y-44030D01*
X51080Y-44044D01*
X51296Y-44045D01*
X51497Y-43962D01*
X51650Y-43809D01*
X51733Y-43608D01*
X51734Y-43392D01*
X51734Y-45200D01*
X49055Y-45200D01*
X49055Y-36500D01*
X49014Y-36291D01*
X48896Y-36114D01*
X48724Y-36000D01*
X48896Y-35885D01*
X49014Y-35708D01*
X49055Y-35500D01*
X49014Y-35291D01*
X48896Y-35114D01*
X48719Y-34996D01*
X48706Y-34993D01*
X48826Y-34936D01*
X48968Y-34778D01*
X49028Y-34634D01*
X49028Y-34365D01*
X48968Y-34221D01*
X48880Y-34123D01*
X48880Y-30325D01*
X48746Y-30002D01*
X48499Y-29754D01*
X48175Y-29620D01*
X47825Y-29619D01*
X47502Y-29753D01*
X47254Y-30000D01*
X47120Y-30324D01*
X47119Y-30674D01*
X47253Y-30997D01*
X47500Y-31245D01*
X47824Y-31379D01*
X48174Y-31380D01*
X48497Y-31246D01*
X48745Y-30999D01*
X48879Y-30675D01*
X48880Y-30325D01*
X48880Y-34123D01*
X48826Y-34063D01*
X48634Y-33971D01*
X48550Y-34019D01*
X48550Y-34450D01*
X48979Y-34450D01*
X49028Y-34365D01*
X49028Y-34634D01*
X48979Y-34550D01*
X48550Y-34550D01*
X48550Y-34557D01*
X48450Y-34557D01*
X48450Y-34550D01*
X48450Y-34450D01*
X48450Y-34019D01*
X48365Y-33971D01*
X48173Y-34063D01*
X48031Y-34221D01*
X47971Y-34365D01*
X48020Y-34450D01*
X48450Y-34450D01*
X48450Y-34550D01*
X48020Y-34550D01*
X47971Y-34634D01*
X48031Y-34778D01*
X48173Y-34936D01*
X48293Y-34993D01*
X48280Y-34996D01*
X48103Y-35114D01*
X47985Y-35291D01*
X47944Y-35500D01*
X47985Y-35708D01*
X48103Y-35885D01*
X48275Y-36000D01*
X48103Y-36114D01*
X47985Y-36291D01*
X47944Y-36500D01*
X47985Y-36708D01*
X48103Y-36885D01*
X48280Y-37003D01*
X48293Y-37006D01*
X48173Y-37063D01*
X48031Y-37221D01*
X47971Y-37365D01*
X48020Y-37450D01*
X48450Y-37450D01*
X48450Y-37442D01*
X48550Y-37442D01*
X48550Y-37450D01*
X48979Y-37450D01*
X49028Y-37365D01*
X48968Y-37221D01*
X48826Y-37063D01*
X48706Y-37006D01*
X48719Y-37003D01*
X48896Y-36885D01*
X49014Y-36708D01*
X49055Y-36500D01*
X49055Y-45200D01*
X49028Y-45200D01*
X49028Y-37634D01*
X48979Y-37550D01*
X48550Y-37550D01*
X48550Y-37980D01*
X48634Y-38028D01*
X48826Y-37936D01*
X48968Y-37778D01*
X49028Y-37634D01*
X49028Y-45200D01*
X48853Y-45200D01*
X48853Y-39000D01*
X48812Y-38791D01*
X48693Y-38614D01*
X48517Y-38496D01*
X48450Y-38483D01*
X48450Y-37980D01*
X48450Y-37550D01*
X48020Y-37550D01*
X47971Y-37634D01*
X48031Y-37778D01*
X48173Y-37936D01*
X48365Y-38028D01*
X48450Y-37980D01*
X48450Y-38483D01*
X48308Y-38455D01*
X47986Y-38455D01*
X47777Y-38496D01*
X47601Y-38614D01*
X47482Y-38791D01*
X47441Y-39000D01*
X47482Y-39208D01*
X47601Y-39385D01*
X47777Y-39503D01*
X47986Y-39545D01*
X48308Y-39545D01*
X48517Y-39503D01*
X48693Y-39385D01*
X48812Y-39208D01*
X48853Y-39000D01*
X48853Y-45200D01*
X48095Y-45200D01*
X48095Y-43882D01*
X48004Y-43663D01*
X47837Y-43495D01*
X47618Y-43405D01*
X47382Y-43404D01*
X47163Y-43495D01*
X47045Y-43613D01*
X47045Y-30540D01*
X47045Y-29655D01*
X47007Y-29563D01*
X46936Y-29493D01*
X46844Y-29455D01*
X46745Y-29454D01*
X46155Y-29454D01*
X46063Y-29492D01*
X45993Y-29563D01*
X45955Y-29655D01*
X45954Y-29754D01*
X45954Y-30639D01*
X45992Y-30731D01*
X46063Y-30801D01*
X46155Y-30839D01*
X46254Y-30840D01*
X46844Y-30840D01*
X46936Y-30802D01*
X47006Y-30731D01*
X47044Y-30639D01*
X47045Y-30540D01*
X47045Y-43613D01*
X46995Y-43662D01*
X46905Y-43881D01*
X46904Y-44117D01*
X46995Y-44336D01*
X47162Y-44504D01*
X47381Y-44594D01*
X47617Y-44595D01*
X47836Y-44504D01*
X48004Y-44337D01*
X48094Y-44118D01*
X48095Y-43882D01*
X48095Y-45200D01*
X46095Y-45200D01*
X46095Y-44295D01*
X46095Y-43605D01*
X46095Y-41795D01*
X46095Y-41105D01*
X46057Y-41013D01*
X45986Y-40943D01*
X45929Y-40919D01*
X46049Y-40739D01*
X46095Y-40511D01*
X46095Y-40488D01*
X46049Y-40260D01*
X45920Y-40067D01*
X45727Y-39938D01*
X45545Y-39902D01*
X45545Y-39245D01*
X45545Y-38655D01*
X45507Y-38563D01*
X45436Y-38493D01*
X45345Y-38455D01*
X45345Y-27795D01*
X45345Y-27204D01*
X45344Y-27105D01*
X45306Y-27013D01*
X45236Y-26942D01*
X45144Y-26904D01*
X44862Y-26905D01*
X44800Y-26967D01*
X44800Y-27450D01*
X45282Y-27450D01*
X45345Y-27387D01*
X45345Y-27204D01*
X45345Y-27795D01*
X45345Y-27612D01*
X45282Y-27550D01*
X44800Y-27550D01*
X44800Y-28032D01*
X44862Y-28095D01*
X45144Y-28095D01*
X45236Y-28057D01*
X45306Y-27986D01*
X45344Y-27894D01*
X45345Y-27795D01*
X45345Y-38455D01*
X45344Y-38455D01*
X45245Y-38454D01*
X45055Y-38454D01*
X45055Y-37500D01*
X45014Y-37291D01*
X44896Y-37114D01*
X44724Y-37000D01*
X44896Y-36885D01*
X45014Y-36708D01*
X45055Y-36500D01*
X45014Y-36291D01*
X44896Y-36114D01*
X44724Y-36000D01*
X44896Y-35885D01*
X45014Y-35708D01*
X45055Y-35500D01*
X45014Y-35291D01*
X44896Y-35114D01*
X44724Y-34999D01*
X44896Y-34885D01*
X45014Y-34708D01*
X45055Y-34500D01*
X45014Y-34291D01*
X44896Y-34114D01*
X44719Y-33996D01*
X44700Y-33992D01*
X44700Y-28032D01*
X44700Y-27550D01*
X44700Y-27450D01*
X44700Y-26967D01*
X44637Y-26905D01*
X44355Y-26904D01*
X44263Y-26942D01*
X44193Y-27013D01*
X44155Y-27105D01*
X44154Y-27204D01*
X44155Y-27387D01*
X44217Y-27450D01*
X44700Y-27450D01*
X44700Y-27550D01*
X44217Y-27550D01*
X44155Y-27612D01*
X44154Y-27795D01*
X44155Y-27894D01*
X44193Y-27986D01*
X44263Y-28057D01*
X44355Y-28095D01*
X44637Y-28095D01*
X44700Y-28032D01*
X44700Y-33992D01*
X44510Y-33955D01*
X44489Y-33955D01*
X44280Y-33996D01*
X44103Y-34114D01*
X44045Y-34202D01*
X44045Y-33860D01*
X44007Y-33768D01*
X43936Y-33698D01*
X43844Y-33660D01*
X43745Y-33659D01*
X43345Y-33659D01*
X43345Y-27382D01*
X43254Y-27163D01*
X43087Y-26995D01*
X42868Y-26905D01*
X42632Y-26904D01*
X42413Y-26995D01*
X42245Y-27162D01*
X42155Y-27381D01*
X42154Y-27617D01*
X42245Y-27836D01*
X42412Y-28004D01*
X42631Y-28094D01*
X42867Y-28095D01*
X43086Y-28004D01*
X43254Y-27837D01*
X43344Y-27618D01*
X43345Y-27382D01*
X43345Y-33659D01*
X43345Y-33659D01*
X43345Y-30545D01*
X43345Y-29855D01*
X43307Y-29763D01*
X43236Y-29693D01*
X43144Y-29655D01*
X43045Y-29654D01*
X42355Y-29654D01*
X42263Y-29692D01*
X42193Y-29763D01*
X42155Y-29855D01*
X42154Y-29954D01*
X42154Y-30644D01*
X42192Y-30736D01*
X42263Y-30806D01*
X42320Y-30830D01*
X42200Y-31010D01*
X42155Y-31238D01*
X42155Y-31261D01*
X42200Y-31489D01*
X42329Y-31682D01*
X42522Y-31811D01*
X42750Y-31856D01*
X42977Y-31811D01*
X43170Y-31682D01*
X43299Y-31489D01*
X43345Y-31261D01*
X43345Y-31238D01*
X43299Y-31010D01*
X43179Y-30830D01*
X43236Y-30807D01*
X43306Y-30736D01*
X43344Y-30644D01*
X43345Y-30545D01*
X43345Y-33659D01*
X43155Y-33659D01*
X43063Y-33697D01*
X42993Y-33768D01*
X42955Y-33860D01*
X42954Y-33959D01*
X42954Y-34844D01*
X42992Y-34936D01*
X43063Y-35006D01*
X43155Y-35044D01*
X43254Y-35045D01*
X43844Y-35045D01*
X43936Y-35007D01*
X44006Y-34936D01*
X44044Y-34844D01*
X44044Y-34797D01*
X44103Y-34885D01*
X44275Y-35000D01*
X44103Y-35114D01*
X43985Y-35291D01*
X43944Y-35500D01*
X43985Y-35708D01*
X44103Y-35885D01*
X44275Y-36000D01*
X44103Y-36114D01*
X43985Y-36291D01*
X43944Y-36500D01*
X43985Y-36708D01*
X44103Y-36885D01*
X44275Y-37000D01*
X44103Y-37114D01*
X43999Y-37271D01*
X43885Y-37101D01*
X43708Y-36982D01*
X43500Y-36941D01*
X43291Y-36982D01*
X43114Y-37101D01*
X42996Y-37277D01*
X42955Y-37486D01*
X42955Y-37808D01*
X42996Y-38017D01*
X43114Y-38193D01*
X43291Y-38312D01*
X43500Y-38353D01*
X43708Y-38312D01*
X43885Y-38193D01*
X44003Y-38017D01*
X44045Y-37808D01*
X44045Y-37797D01*
X44103Y-37885D01*
X44280Y-38003D01*
X44489Y-38045D01*
X44510Y-38045D01*
X44719Y-38003D01*
X44896Y-37885D01*
X45014Y-37708D01*
X45055Y-37500D01*
X45055Y-38454D01*
X44360Y-38454D01*
X44268Y-38492D01*
X44198Y-38563D01*
X44160Y-38655D01*
X44159Y-38754D01*
X44159Y-39344D01*
X44197Y-39436D01*
X44268Y-39506D01*
X44360Y-39544D01*
X44459Y-39545D01*
X45344Y-39545D01*
X45436Y-39507D01*
X45506Y-39436D01*
X45544Y-39344D01*
X45545Y-39245D01*
X45545Y-39902D01*
X45500Y-39893D01*
X45272Y-39938D01*
X45079Y-40067D01*
X44950Y-40260D01*
X44905Y-40488D01*
X44905Y-40511D01*
X44950Y-40739D01*
X45070Y-40919D01*
X45013Y-40942D01*
X44943Y-41013D01*
X44905Y-41105D01*
X44904Y-41204D01*
X44904Y-41894D01*
X44942Y-41986D01*
X45013Y-42056D01*
X45105Y-42094D01*
X45204Y-42095D01*
X45894Y-42095D01*
X45986Y-42057D01*
X46056Y-41986D01*
X46094Y-41894D01*
X46095Y-41795D01*
X46095Y-43605D01*
X46057Y-43513D01*
X45986Y-43443D01*
X45894Y-43405D01*
X45795Y-43404D01*
X45105Y-43404D01*
X45013Y-43442D01*
X44943Y-43513D01*
X44905Y-43605D01*
X44904Y-43704D01*
X44904Y-44394D01*
X44942Y-44486D01*
X45013Y-44556D01*
X45105Y-44594D01*
X45204Y-44595D01*
X45894Y-44595D01*
X45986Y-44557D01*
X46056Y-44486D01*
X46094Y-44394D01*
X46095Y-44295D01*
X46095Y-45200D01*
X43630Y-45200D01*
X43630Y-40825D01*
X43496Y-40502D01*
X43249Y-40254D01*
X42925Y-40120D01*
X42800Y-40120D01*
X42800Y-35391D01*
X42716Y-35188D01*
X42561Y-35034D01*
X42359Y-34950D01*
X42141Y-34949D01*
X41938Y-35033D01*
X41784Y-35188D01*
X41700Y-35390D01*
X41699Y-35608D01*
X41783Y-35811D01*
X41922Y-35949D01*
X41900Y-35949D01*
X41808Y-35987D01*
X41738Y-36058D01*
X41700Y-36150D01*
X41699Y-36249D01*
X41699Y-36849D01*
X41737Y-36941D01*
X41808Y-37011D01*
X41900Y-37049D01*
X41999Y-37050D01*
X42599Y-37050D01*
X42691Y-37012D01*
X42761Y-36941D01*
X42799Y-36849D01*
X42800Y-36750D01*
X42800Y-36150D01*
X42762Y-36058D01*
X42691Y-35988D01*
X42599Y-35950D01*
X42577Y-35950D01*
X42715Y-35811D01*
X42799Y-35609D01*
X42800Y-35391D01*
X42800Y-40120D01*
X42575Y-40119D01*
X42252Y-40253D01*
X42004Y-40500D01*
X41870Y-40824D01*
X41869Y-41174D01*
X42003Y-41497D01*
X42250Y-41745D01*
X42574Y-41879D01*
X42924Y-41880D01*
X43247Y-41746D01*
X43495Y-41499D01*
X43629Y-41175D01*
X43630Y-40825D01*
X43630Y-45200D01*
X41555Y-45200D01*
X41555Y-36500D01*
X41514Y-36291D01*
X41396Y-36114D01*
X41224Y-36000D01*
X41396Y-35885D01*
X41514Y-35708D01*
X41555Y-35500D01*
X41514Y-35291D01*
X41396Y-35114D01*
X41224Y-34999D01*
X41396Y-34885D01*
X41514Y-34708D01*
X41555Y-34500D01*
X41514Y-34291D01*
X41396Y-34114D01*
X41345Y-34080D01*
X41345Y-27382D01*
X41254Y-27163D01*
X41087Y-26995D01*
X40868Y-26905D01*
X40632Y-26904D01*
X40413Y-26995D01*
X40245Y-27162D01*
X40155Y-27381D01*
X40154Y-27617D01*
X40245Y-27836D01*
X40412Y-28004D01*
X40631Y-28094D01*
X40867Y-28095D01*
X41086Y-28004D01*
X41254Y-27837D01*
X41344Y-27618D01*
X41345Y-27382D01*
X41345Y-34080D01*
X41345Y-34080D01*
X41345Y-30545D01*
X41345Y-29855D01*
X41307Y-29763D01*
X41236Y-29693D01*
X41144Y-29655D01*
X41045Y-29654D01*
X40355Y-29654D01*
X40263Y-29692D01*
X40193Y-29763D01*
X40155Y-29855D01*
X40154Y-29954D01*
X40154Y-30644D01*
X40192Y-30736D01*
X40263Y-30806D01*
X40320Y-30830D01*
X40200Y-31010D01*
X40155Y-31238D01*
X40155Y-31261D01*
X40200Y-31489D01*
X40329Y-31682D01*
X40522Y-31811D01*
X40750Y-31856D01*
X40977Y-31811D01*
X41170Y-31682D01*
X41299Y-31489D01*
X41345Y-31261D01*
X41345Y-31238D01*
X41299Y-31010D01*
X41179Y-30830D01*
X41236Y-30807D01*
X41306Y-30736D01*
X41344Y-30644D01*
X41345Y-30545D01*
X41345Y-34080D01*
X41219Y-33996D01*
X41010Y-33955D01*
X40989Y-33955D01*
X40780Y-33996D01*
X40603Y-34114D01*
X40485Y-34291D01*
X40444Y-34500D01*
X40485Y-34708D01*
X40603Y-34885D01*
X40775Y-35000D01*
X40603Y-35114D01*
X40485Y-35291D01*
X40444Y-35500D01*
X40485Y-35708D01*
X40603Y-35885D01*
X40775Y-36000D01*
X40603Y-36114D01*
X40485Y-36291D01*
X40444Y-36500D01*
X40485Y-36708D01*
X40603Y-36885D01*
X40780Y-37003D01*
X40793Y-37006D01*
X40673Y-37063D01*
X40531Y-37221D01*
X40471Y-37365D01*
X40520Y-37450D01*
X40950Y-37450D01*
X40950Y-37442D01*
X41050Y-37442D01*
X41050Y-37450D01*
X41479Y-37450D01*
X41528Y-37365D01*
X41468Y-37221D01*
X41326Y-37063D01*
X41206Y-37006D01*
X41219Y-37003D01*
X41396Y-36885D01*
X41514Y-36708D01*
X41555Y-36500D01*
X41555Y-45200D01*
X41528Y-45200D01*
X41528Y-37634D01*
X41479Y-37550D01*
X41050Y-37550D01*
X41050Y-37980D01*
X41134Y-38028D01*
X41326Y-37936D01*
X41468Y-37778D01*
X41528Y-37634D01*
X41528Y-45200D01*
X41353Y-45200D01*
X41353Y-39000D01*
X41312Y-38791D01*
X41193Y-38614D01*
X41017Y-38496D01*
X40950Y-38483D01*
X40950Y-37980D01*
X40950Y-37550D01*
X40520Y-37550D01*
X40471Y-37634D01*
X40531Y-37778D01*
X40673Y-37936D01*
X40865Y-38028D01*
X40950Y-37980D01*
X40950Y-38483D01*
X40808Y-38455D01*
X40486Y-38455D01*
X40277Y-38496D01*
X40101Y-38614D01*
X39982Y-38791D01*
X39941Y-39000D01*
X39982Y-39208D01*
X40101Y-39385D01*
X40277Y-39503D01*
X40486Y-39545D01*
X40808Y-39545D01*
X41017Y-39503D01*
X41193Y-39385D01*
X41312Y-39208D01*
X41353Y-39000D01*
X41353Y-45200D01*
X40595Y-45200D01*
X40595Y-43882D01*
X40504Y-43663D01*
X40337Y-43495D01*
X40118Y-43405D01*
X39882Y-43404D01*
X39663Y-43495D01*
X39545Y-43613D01*
X39545Y-30540D01*
X39545Y-29655D01*
X39507Y-29563D01*
X39436Y-29493D01*
X39344Y-29455D01*
X39245Y-29454D01*
X38655Y-29454D01*
X38563Y-29492D01*
X38493Y-29563D01*
X38455Y-29655D01*
X38454Y-29754D01*
X38454Y-30639D01*
X38492Y-30731D01*
X38563Y-30801D01*
X38655Y-30839D01*
X38754Y-30840D01*
X39344Y-30840D01*
X39436Y-30802D01*
X39506Y-30731D01*
X39544Y-30639D01*
X39545Y-30540D01*
X39545Y-43613D01*
X39495Y-43662D01*
X39405Y-43881D01*
X39404Y-44117D01*
X39495Y-44336D01*
X39662Y-44504D01*
X39881Y-44594D01*
X40117Y-44595D01*
X40336Y-44504D01*
X40504Y-44337D01*
X40594Y-44118D01*
X40595Y-43882D01*
X40595Y-45200D01*
X38595Y-45200D01*
X38595Y-44295D01*
X38595Y-43605D01*
X38595Y-40795D01*
X38595Y-40105D01*
X38557Y-40013D01*
X38486Y-39943D01*
X38394Y-39905D01*
X38380Y-39905D01*
X38380Y-30325D01*
X38246Y-30002D01*
X37999Y-29754D01*
X37675Y-29620D01*
X37325Y-29619D01*
X37002Y-29753D01*
X36754Y-30000D01*
X36620Y-30324D01*
X36619Y-30674D01*
X36753Y-30997D01*
X37000Y-31245D01*
X37324Y-31379D01*
X37674Y-31380D01*
X37997Y-31246D01*
X38245Y-30999D01*
X38379Y-30675D01*
X38380Y-30325D01*
X38380Y-39905D01*
X38295Y-39904D01*
X38045Y-39904D01*
X38045Y-39245D01*
X38045Y-38655D01*
X38007Y-38563D01*
X37936Y-38493D01*
X37844Y-38455D01*
X37745Y-38454D01*
X37555Y-38454D01*
X37555Y-37500D01*
X37514Y-37291D01*
X37396Y-37114D01*
X37224Y-37000D01*
X37396Y-36885D01*
X37514Y-36708D01*
X37555Y-36500D01*
X37514Y-36291D01*
X37396Y-36114D01*
X37224Y-36000D01*
X37396Y-35885D01*
X37514Y-35708D01*
X37555Y-35500D01*
X37514Y-35291D01*
X37396Y-35114D01*
X37219Y-34996D01*
X37206Y-34993D01*
X37326Y-34936D01*
X37468Y-34778D01*
X37528Y-34634D01*
X37528Y-34365D01*
X37468Y-34221D01*
X37326Y-34063D01*
X37134Y-33971D01*
X37050Y-34019D01*
X37050Y-34450D01*
X37479Y-34450D01*
X37528Y-34365D01*
X37528Y-34634D01*
X37479Y-34550D01*
X37050Y-34550D01*
X37050Y-34557D01*
X36950Y-34557D01*
X36950Y-34550D01*
X36950Y-34450D01*
X36950Y-34019D01*
X36865Y-33971D01*
X36673Y-34063D01*
X36531Y-34221D01*
X36471Y-34365D01*
X36520Y-34450D01*
X36950Y-34450D01*
X36950Y-34550D01*
X36520Y-34550D01*
X36471Y-34634D01*
X36531Y-34778D01*
X36673Y-34936D01*
X36793Y-34993D01*
X36780Y-34996D01*
X36603Y-35114D01*
X36485Y-35291D01*
X36444Y-35500D01*
X36485Y-35708D01*
X36603Y-35885D01*
X36775Y-36000D01*
X36603Y-36114D01*
X36485Y-36291D01*
X36444Y-36500D01*
X36485Y-36708D01*
X36603Y-36885D01*
X36775Y-37000D01*
X36603Y-37114D01*
X36485Y-37291D01*
X36444Y-37500D01*
X36485Y-37708D01*
X36603Y-37885D01*
X36780Y-38003D01*
X36989Y-38045D01*
X37010Y-38045D01*
X37219Y-38003D01*
X37396Y-37885D01*
X37514Y-37708D01*
X37555Y-37500D01*
X37555Y-38454D01*
X36860Y-38454D01*
X36768Y-38492D01*
X36698Y-38563D01*
X36660Y-38655D01*
X36659Y-38754D01*
X36659Y-39344D01*
X36697Y-39436D01*
X36768Y-39506D01*
X36860Y-39544D01*
X36959Y-39545D01*
X37844Y-39545D01*
X37936Y-39507D01*
X38006Y-39436D01*
X38044Y-39344D01*
X38045Y-39245D01*
X38045Y-39904D01*
X37605Y-39904D01*
X37513Y-39942D01*
X37443Y-40013D01*
X37405Y-40105D01*
X37404Y-40204D01*
X37404Y-40894D01*
X37442Y-40986D01*
X37513Y-41056D01*
X37570Y-41080D01*
X37450Y-41260D01*
X37405Y-41488D01*
X37405Y-41511D01*
X37450Y-41739D01*
X37579Y-41932D01*
X37772Y-42061D01*
X38000Y-42106D01*
X38227Y-42061D01*
X38420Y-41932D01*
X38549Y-41739D01*
X38595Y-41511D01*
X38595Y-41488D01*
X38549Y-41260D01*
X38429Y-41080D01*
X38486Y-41057D01*
X38556Y-40986D01*
X38594Y-40894D01*
X38595Y-40795D01*
X38595Y-43605D01*
X38557Y-43513D01*
X38486Y-43443D01*
X38394Y-43405D01*
X38295Y-43404D01*
X37605Y-43404D01*
X37513Y-43442D01*
X37443Y-43513D01*
X37405Y-43605D01*
X37404Y-43704D01*
X37404Y-44394D01*
X37442Y-44486D01*
X37513Y-44556D01*
X37605Y-44594D01*
X37704Y-44595D01*
X38394Y-44595D01*
X38486Y-44557D01*
X38556Y-44486D01*
X38594Y-44394D01*
X38595Y-44295D01*
X38595Y-45200D01*
X36234Y-45200D01*
X36234Y-43392D01*
X36151Y-43191D01*
X36045Y-43085D01*
X36045Y-36558D01*
X36045Y-36236D01*
X36003Y-36027D01*
X35885Y-35851D01*
X35708Y-35732D01*
X35545Y-35700D01*
X35545Y-35441D01*
X35503Y-35232D01*
X35385Y-35056D01*
X35208Y-34937D01*
X35000Y-34896D01*
X34791Y-34937D01*
X34614Y-35056D01*
X34496Y-35232D01*
X34455Y-35441D01*
X34455Y-35705D01*
X34449Y-35705D01*
X34449Y-35770D01*
X34365Y-35721D01*
X34337Y-35727D01*
X34149Y-35829D01*
X34015Y-35995D01*
X33955Y-36200D01*
X33955Y-36347D01*
X34450Y-36347D01*
X34450Y-36339D01*
X34550Y-36339D01*
X34550Y-36347D01*
X34557Y-36347D01*
X34557Y-36447D01*
X34550Y-36447D01*
X34550Y-37024D01*
X34634Y-37073D01*
X34662Y-37067D01*
X34850Y-36965D01*
X34984Y-36799D01*
X34995Y-36762D01*
X34996Y-36767D01*
X35114Y-36943D01*
X35291Y-37062D01*
X35500Y-37103D01*
X35708Y-37062D01*
X35885Y-36943D01*
X36003Y-36767D01*
X36045Y-36558D01*
X36045Y-43085D01*
X35998Y-43038D01*
X35797Y-42955D01*
X35581Y-42954D01*
X35545Y-42969D01*
X35545Y-42899D01*
X35462Y-42699D01*
X35309Y-42546D01*
X35108Y-42462D01*
X34892Y-42462D01*
X34691Y-42545D01*
X34538Y-42698D01*
X34455Y-42898D01*
X34455Y-42969D01*
X34450Y-42967D01*
X34450Y-37024D01*
X34450Y-36447D01*
X33955Y-36447D01*
X33955Y-36595D01*
X34015Y-36799D01*
X34149Y-36965D01*
X34337Y-37067D01*
X34365Y-37073D01*
X34450Y-37024D01*
X34450Y-42967D01*
X34419Y-42955D01*
X34203Y-42954D01*
X34002Y-43037D01*
X33849Y-43190D01*
X33766Y-43391D01*
X33765Y-43607D01*
X33848Y-43808D01*
X34001Y-43961D01*
X34202Y-44044D01*
X34418Y-44045D01*
X34454Y-44030D01*
X34454Y-44100D01*
X34537Y-44300D01*
X34690Y-44453D01*
X34891Y-44537D01*
X35107Y-44537D01*
X35308Y-44454D01*
X35461Y-44301D01*
X35544Y-44101D01*
X35544Y-44030D01*
X35580Y-44044D01*
X35796Y-44045D01*
X35997Y-43962D01*
X36150Y-43809D01*
X36233Y-43608D01*
X36234Y-43392D01*
X36234Y-45200D01*
X33300Y-45200D01*
X33300Y-26300D01*
X38623Y-26300D01*
X38614Y-26306D01*
X38496Y-26482D01*
X38455Y-26691D01*
X38455Y-27013D01*
X38496Y-27222D01*
X38614Y-27398D01*
X38791Y-27517D01*
X39000Y-27558D01*
X39208Y-27517D01*
X39385Y-27398D01*
X39503Y-27222D01*
X39545Y-27013D01*
X39545Y-26691D01*
X39503Y-26482D01*
X39385Y-26306D01*
X39376Y-26300D01*
X46123Y-26300D01*
X46114Y-26306D01*
X45996Y-26482D01*
X45955Y-26691D01*
X45955Y-27013D01*
X45996Y-27222D01*
X46114Y-27398D01*
X46291Y-27517D01*
X46500Y-27558D01*
X46708Y-27517D01*
X46885Y-27398D01*
X47003Y-27222D01*
X47045Y-27013D01*
X47045Y-26691D01*
X47003Y-26482D01*
X46885Y-26306D01*
X46876Y-26300D01*
X52200Y-26300D01*
X52200Y-45200D01*
X52200Y-45200D01*
G37*
G54D23*
X52200Y-45200D02*
X51734Y-45200D01*
X51734Y-43392D01*
X51651Y-43191D01*
X51545Y-43085D01*
X51545Y-36558D01*
X51545Y-36236D01*
X51503Y-36027D01*
X51385Y-35851D01*
X51208Y-35732D01*
X51045Y-35700D01*
X51045Y-35441D01*
X51003Y-35232D01*
X50885Y-35056D01*
X50708Y-34937D01*
X50500Y-34896D01*
X50291Y-34937D01*
X50114Y-35056D01*
X49996Y-35232D01*
X49955Y-35441D01*
X49955Y-35705D01*
X49949Y-35705D01*
X49949Y-35770D01*
X49865Y-35721D01*
X49837Y-35727D01*
X49649Y-35829D01*
X49515Y-35995D01*
X49455Y-36200D01*
X49455Y-36347D01*
X49950Y-36347D01*
X49950Y-36339D01*
X50050Y-36339D01*
X50050Y-36347D01*
X50057Y-36347D01*
X50057Y-36447D01*
X50050Y-36447D01*
X50050Y-37024D01*
X50134Y-37073D01*
X50162Y-37067D01*
X50350Y-36965D01*
X50484Y-36799D01*
X50495Y-36762D01*
X50496Y-36767D01*
X50614Y-36943D01*
X50791Y-37062D01*
X51000Y-37103D01*
X51208Y-37062D01*
X51385Y-36943D01*
X51503Y-36767D01*
X51545Y-36558D01*
X51545Y-43085D01*
X51498Y-43038D01*
X51297Y-42955D01*
X51081Y-42954D01*
X51045Y-42969D01*
X51045Y-42899D01*
X50962Y-42699D01*
X50809Y-42546D01*
X50608Y-42462D01*
X50392Y-42462D01*
X50191Y-42545D01*
X50038Y-42698D01*
X49955Y-42898D01*
X49955Y-42969D01*
X49950Y-42967D01*
X49950Y-37024D01*
X49950Y-36447D01*
X49455Y-36447D01*
X49455Y-36595D01*
X49515Y-36799D01*
X49649Y-36965D01*
X49837Y-37067D01*
X49865Y-37073D01*
X49950Y-37024D01*
X49950Y-42967D01*
X49919Y-42955D01*
X49703Y-42954D01*
X49502Y-43037D01*
X49349Y-43190D01*
X49266Y-43391D01*
X49265Y-43607D01*
X49348Y-43808D01*
X49501Y-43961D01*
X49702Y-44044D01*
X49918Y-44045D01*
X49954Y-44030D01*
X49954Y-44100D01*
X50037Y-44300D01*
X50190Y-44453D01*
X50391Y-44537D01*
X50607Y-44537D01*
X50808Y-44454D01*
X50961Y-44301D01*
X51044Y-44101D01*
X51044Y-44030D01*
X51080Y-44044D01*
X51296Y-44045D01*
X51497Y-43962D01*
X51650Y-43809D01*
X51733Y-43608D01*
X51734Y-43392D01*
X51734Y-45200D01*
X49055Y-45200D01*
X49055Y-36500D01*
X49014Y-36291D01*
X48896Y-36114D01*
X48724Y-36000D01*
X48896Y-35885D01*
X49014Y-35708D01*
X49055Y-35500D01*
X49014Y-35291D01*
X48896Y-35114D01*
X48719Y-34996D01*
X48706Y-34993D01*
X48826Y-34936D01*
X48968Y-34778D01*
X49028Y-34634D01*
X49028Y-34365D01*
X48968Y-34221D01*
X48880Y-34123D01*
X48880Y-30325D01*
X48746Y-30002D01*
X48499Y-29754D01*
X48175Y-29620D01*
X47825Y-29619D01*
X47502Y-29753D01*
X47254Y-30000D01*
X47120Y-30324D01*
X47119Y-30674D01*
X47253Y-30997D01*
X47500Y-31245D01*
X47824Y-31379D01*
X48174Y-31380D01*
X48497Y-31246D01*
X48745Y-30999D01*
X48879Y-30675D01*
X48880Y-30325D01*
X48880Y-34123D01*
X48826Y-34063D01*
X48634Y-33971D01*
X48550Y-34019D01*
X48550Y-34450D01*
X48979Y-34450D01*
X49028Y-34365D01*
X49028Y-34634D01*
X48979Y-34550D01*
X48550Y-34550D01*
X48550Y-34557D01*
X48450Y-34557D01*
X48450Y-34550D01*
X48450Y-34450D01*
X48450Y-34019D01*
X48365Y-33971D01*
X48173Y-34063D01*
X48031Y-34221D01*
X47971Y-34365D01*
X48020Y-34450D01*
X48450Y-34450D01*
X48450Y-34550D01*
X48020Y-34550D01*
X47971Y-34634D01*
X48031Y-34778D01*
X48173Y-34936D01*
X48293Y-34993D01*
X48280Y-34996D01*
X48103Y-35114D01*
X47985Y-35291D01*
X47944Y-35500D01*
X47985Y-35708D01*
X48103Y-35885D01*
X48275Y-36000D01*
X48103Y-36114D01*
X47985Y-36291D01*
X47944Y-36500D01*
X47985Y-36708D01*
X48103Y-36885D01*
X48280Y-37003D01*
X48293Y-37006D01*
X48173Y-37063D01*
X48031Y-37221D01*
X47971Y-37365D01*
X48020Y-37450D01*
X48450Y-37450D01*
X48450Y-37442D01*
X48550Y-37442D01*
X48550Y-37450D01*
X48979Y-37450D01*
X49028Y-37365D01*
X48968Y-37221D01*
X48826Y-37063D01*
X48706Y-37006D01*
X48719Y-37003D01*
X48896Y-36885D01*
X49014Y-36708D01*
X49055Y-36500D01*
X49055Y-45200D01*
X49028Y-45200D01*
X49028Y-37634D01*
X48979Y-37550D01*
X48550Y-37550D01*
X48550Y-37980D01*
X48634Y-38028D01*
X48826Y-37936D01*
X48968Y-37778D01*
X49028Y-37634D01*
X49028Y-45200D01*
X48853Y-45200D01*
X48853Y-39000D01*
X48812Y-38791D01*
X48693Y-38614D01*
X48517Y-38496D01*
X48450Y-38483D01*
X48450Y-37980D01*
X48450Y-37550D01*
X48020Y-37550D01*
X47971Y-37634D01*
X48031Y-37778D01*
X48173Y-37936D01*
X48365Y-38028D01*
X48450Y-37980D01*
X48450Y-38483D01*
X48308Y-38455D01*
X47986Y-38455D01*
X47777Y-38496D01*
X47601Y-38614D01*
X47482Y-38791D01*
X47441Y-39000D01*
X47482Y-39208D01*
X47601Y-39385D01*
X47777Y-39503D01*
X47986Y-39545D01*
X48308Y-39545D01*
X48517Y-39503D01*
X48693Y-39385D01*
X48812Y-39208D01*
X48853Y-39000D01*
X48853Y-45200D01*
X48095Y-45200D01*
X48095Y-43882D01*
X48004Y-43663D01*
X47837Y-43495D01*
X47618Y-43405D01*
X47382Y-43404D01*
X47163Y-43495D01*
X47045Y-43613D01*
X47045Y-30540D01*
X47045Y-29655D01*
X47007Y-29563D01*
X46936Y-29493D01*
X46844Y-29455D01*
X46745Y-29454D01*
X46155Y-29454D01*
X46063Y-29492D01*
X45993Y-29563D01*
X45955Y-29655D01*
X45954Y-29754D01*
X45954Y-30639D01*
X45992Y-30731D01*
X46063Y-30801D01*
X46155Y-30839D01*
X46254Y-30840D01*
X46844Y-30840D01*
X46936Y-30802D01*
X47006Y-30731D01*
X47044Y-30639D01*
X47045Y-30540D01*
X47045Y-43613D01*
X46995Y-43662D01*
X46905Y-43881D01*
X46904Y-44117D01*
X46995Y-44336D01*
X47162Y-44504D01*
X47381Y-44594D01*
X47617Y-44595D01*
X47836Y-44504D01*
X48004Y-44337D01*
X48094Y-44118D01*
X48095Y-43882D01*
X48095Y-45200D01*
X46095Y-45200D01*
X46095Y-44295D01*
X46095Y-43605D01*
X46095Y-41795D01*
X46095Y-41105D01*
X46057Y-41013D01*
X45986Y-40943D01*
X45929Y-40919D01*
X46049Y-40739D01*
X46095Y-40511D01*
X46095Y-40488D01*
X46049Y-40260D01*
X45920Y-40067D01*
X45727Y-39938D01*
X45545Y-39902D01*
X45545Y-39245D01*
X45545Y-38655D01*
X45507Y-38563D01*
X45436Y-38493D01*
X45345Y-38455D01*
X45345Y-27795D01*
X45345Y-27204D01*
X45344Y-27105D01*
X45306Y-27013D01*
X45236Y-26942D01*
X45144Y-26904D01*
X44862Y-26905D01*
X44800Y-26967D01*
X44800Y-27450D01*
X45282Y-27450D01*
X45345Y-27387D01*
X45345Y-27204D01*
X45345Y-27795D01*
X45345Y-27612D01*
X45282Y-27550D01*
X44800Y-27550D01*
X44800Y-28032D01*
X44862Y-28095D01*
X45144Y-28095D01*
X45236Y-28057D01*
X45306Y-27986D01*
X45344Y-27894D01*
X45345Y-27795D01*
X45345Y-38455D01*
X45344Y-38455D01*
X45245Y-38454D01*
X45055Y-38454D01*
X45055Y-37500D01*
X45014Y-37291D01*
X44896Y-37114D01*
X44724Y-37000D01*
X44896Y-36885D01*
X45014Y-36708D01*
X45055Y-36500D01*
X45014Y-36291D01*
X44896Y-36114D01*
X44724Y-36000D01*
X44896Y-35885D01*
X45014Y-35708D01*
X45055Y-35500D01*
X45014Y-35291D01*
X44896Y-35114D01*
X44724Y-34999D01*
X44896Y-34885D01*
X45014Y-34708D01*
X45055Y-34500D01*
X45014Y-34291D01*
X44896Y-34114D01*
X44719Y-33996D01*
X44700Y-33992D01*
X44700Y-28032D01*
X44700Y-27550D01*
X44700Y-27450D01*
X44700Y-26967D01*
X44637Y-26905D01*
X44355Y-26904D01*
X44263Y-26942D01*
X44193Y-27013D01*
X44155Y-27105D01*
X44154Y-27204D01*
X44155Y-27387D01*
X44217Y-27450D01*
X44700Y-27450D01*
X44700Y-27550D01*
X44217Y-27550D01*
X44155Y-27612D01*
X44154Y-27795D01*
X44155Y-27894D01*
X44193Y-27986D01*
X44263Y-28057D01*
X44355Y-28095D01*
X44637Y-28095D01*
X44700Y-28032D01*
X44700Y-33992D01*
X44510Y-33955D01*
X44489Y-33955D01*
X44280Y-33996D01*
X44103Y-34114D01*
X44045Y-34202D01*
X44045Y-33860D01*
X44007Y-33768D01*
X43936Y-33698D01*
X43844Y-33660D01*
X43745Y-33659D01*
X43345Y-33659D01*
X43345Y-27382D01*
X43254Y-27163D01*
X43087Y-26995D01*
X42868Y-26905D01*
X42632Y-26904D01*
X42413Y-26995D01*
X42245Y-27162D01*
X42155Y-27381D01*
X42154Y-27617D01*
X42245Y-27836D01*
X42412Y-28004D01*
X42631Y-28094D01*
X42867Y-28095D01*
X43086Y-28004D01*
X43254Y-27837D01*
X43344Y-27618D01*
X43345Y-27382D01*
X43345Y-33659D01*
X43345Y-33659D01*
X43345Y-30545D01*
X43345Y-29855D01*
X43307Y-29763D01*
X43236Y-29693D01*
X43144Y-29655D01*
X43045Y-29654D01*
X42355Y-29654D01*
X42263Y-29692D01*
X42193Y-29763D01*
X42155Y-29855D01*
X42154Y-29954D01*
X42154Y-30644D01*
X42192Y-30736D01*
X42263Y-30806D01*
X42320Y-30830D01*
X42200Y-31010D01*
X42155Y-31238D01*
X42155Y-31261D01*
X42200Y-31489D01*
X42329Y-31682D01*
X42522Y-31811D01*
X42750Y-31856D01*
X42977Y-31811D01*
X43170Y-31682D01*
X43299Y-31489D01*
X43345Y-31261D01*
X43345Y-31238D01*
X43299Y-31010D01*
X43179Y-30830D01*
X43236Y-30807D01*
X43306Y-30736D01*
X43344Y-30644D01*
X43345Y-30545D01*
X43345Y-33659D01*
X43155Y-33659D01*
X43063Y-33697D01*
X42993Y-33768D01*
X42955Y-33860D01*
X42954Y-33959D01*
X42954Y-34844D01*
X42992Y-34936D01*
X43063Y-35006D01*
X43155Y-35044D01*
X43254Y-35045D01*
X43844Y-35045D01*
X43936Y-35007D01*
X44006Y-34936D01*
X44044Y-34844D01*
X44044Y-34797D01*
X44103Y-34885D01*
X44275Y-35000D01*
X44103Y-35114D01*
X43985Y-35291D01*
X43944Y-35500D01*
X43985Y-35708D01*
X44103Y-35885D01*
X44275Y-36000D01*
X44103Y-36114D01*
X43985Y-36291D01*
X43944Y-36500D01*
X43985Y-36708D01*
X44103Y-36885D01*
X44275Y-37000D01*
X44103Y-37114D01*
X43999Y-37271D01*
X43885Y-37101D01*
X43708Y-36982D01*
X43500Y-36941D01*
X43291Y-36982D01*
X43114Y-37101D01*
X42996Y-37277D01*
X42955Y-37486D01*
X42955Y-37808D01*
X42996Y-38017D01*
X43114Y-38193D01*
X43291Y-38312D01*
X43500Y-38353D01*
X43708Y-38312D01*
X43885Y-38193D01*
X44003Y-38017D01*
X44045Y-37808D01*
X44045Y-37797D01*
X44103Y-37885D01*
X44280Y-38003D01*
X44489Y-38045D01*
X44510Y-38045D01*
X44719Y-38003D01*
X44896Y-37885D01*
X45014Y-37708D01*
X45055Y-37500D01*
X45055Y-38454D01*
X44360Y-38454D01*
X44268Y-38492D01*
X44198Y-38563D01*
X44160Y-38655D01*
X44159Y-38754D01*
X44159Y-39344D01*
X44197Y-39436D01*
X44268Y-39506D01*
X44360Y-39544D01*
X44459Y-39545D01*
X45344Y-39545D01*
X45436Y-39507D01*
X45506Y-39436D01*
X45544Y-39344D01*
X45545Y-39245D01*
X45545Y-39902D01*
X45500Y-39893D01*
X45272Y-39938D01*
X45079Y-40067D01*
X44950Y-40260D01*
X44905Y-40488D01*
X44905Y-40511D01*
X44950Y-40739D01*
X45070Y-40919D01*
X45013Y-40942D01*
X44943Y-41013D01*
X44905Y-41105D01*
X44904Y-41204D01*
X44904Y-41894D01*
X44942Y-41986D01*
X45013Y-42056D01*
X45105Y-42094D01*
X45204Y-42095D01*
X45894Y-42095D01*
X45986Y-42057D01*
X46056Y-41986D01*
X46094Y-41894D01*
X46095Y-41795D01*
X46095Y-43605D01*
X46057Y-43513D01*
X45986Y-43443D01*
X45894Y-43405D01*
X45795Y-43404D01*
X45105Y-43404D01*
X45013Y-43442D01*
X44943Y-43513D01*
X44905Y-43605D01*
X44904Y-43704D01*
X44904Y-44394D01*
X44942Y-44486D01*
X45013Y-44556D01*
X45105Y-44594D01*
X45204Y-44595D01*
X45894Y-44595D01*
X45986Y-44557D01*
X46056Y-44486D01*
X46094Y-44394D01*
X46095Y-44295D01*
X46095Y-45200D01*
X43630Y-45200D01*
X43630Y-40825D01*
X43496Y-40502D01*
X43249Y-40254D01*
X42925Y-40120D01*
X42800Y-40120D01*
X42800Y-35391D01*
X42716Y-35188D01*
X42561Y-35034D01*
X42359Y-34950D01*
X42141Y-34949D01*
X41938Y-35033D01*
X41784Y-35188D01*
X41700Y-35390D01*
X41699Y-35608D01*
X41783Y-35811D01*
X41922Y-35949D01*
X41900Y-35949D01*
X41808Y-35987D01*
X41738Y-36058D01*
X41700Y-36150D01*
X41699Y-36249D01*
X41699Y-36849D01*
X41737Y-36941D01*
X41808Y-37011D01*
X41900Y-37049D01*
X41999Y-37050D01*
X42599Y-37050D01*
X42691Y-37012D01*
X42761Y-36941D01*
X42799Y-36849D01*
X42800Y-36750D01*
X42800Y-36150D01*
X42762Y-36058D01*
X42691Y-35988D01*
X42599Y-35950D01*
X42577Y-35950D01*
X42715Y-35811D01*
X42799Y-35609D01*
X42800Y-35391D01*
X42800Y-40120D01*
X42575Y-40119D01*
X42252Y-40253D01*
X42004Y-40500D01*
X41870Y-40824D01*
X41869Y-41174D01*
X42003Y-41497D01*
X42250Y-41745D01*
X42574Y-41879D01*
X42924Y-41880D01*
X43247Y-41746D01*
X43495Y-41499D01*
X43629Y-41175D01*
X43630Y-40825D01*
X43630Y-45200D01*
X41555Y-45200D01*
X41555Y-36500D01*
X41514Y-36291D01*
X41396Y-36114D01*
X41224Y-36000D01*
X41396Y-35885D01*
X41514Y-35708D01*
X41555Y-35500D01*
X41514Y-35291D01*
X41396Y-35114D01*
X41224Y-34999D01*
X41396Y-34885D01*
X41514Y-34708D01*
X41555Y-34500D01*
X41514Y-34291D01*
X41396Y-34114D01*
X41345Y-34080D01*
X41345Y-27382D01*
X41254Y-27163D01*
X41087Y-26995D01*
X40868Y-26905D01*
X40632Y-26904D01*
X40413Y-26995D01*
X40245Y-27162D01*
X40155Y-27381D01*
X40154Y-27617D01*
X40245Y-27836D01*
X40412Y-28004D01*
X40631Y-28094D01*
X40867Y-28095D01*
X41086Y-28004D01*
X41254Y-27837D01*
X41344Y-27618D01*
X41345Y-27382D01*
X41345Y-34080D01*
X41345Y-34080D01*
X41345Y-30545D01*
X41345Y-29855D01*
X41307Y-29763D01*
X41236Y-29693D01*
X41144Y-29655D01*
X41045Y-29654D01*
X40355Y-29654D01*
X40263Y-29692D01*
X40193Y-29763D01*
X40155Y-29855D01*
X40154Y-29954D01*
X40154Y-30644D01*
X40192Y-30736D01*
X40263Y-30806D01*
X40320Y-30830D01*
X40200Y-31010D01*
X40155Y-31238D01*
X40155Y-31261D01*
X40200Y-31489D01*
X40329Y-31682D01*
X40522Y-31811D01*
X40750Y-31856D01*
X40977Y-31811D01*
X41170Y-31682D01*
X41299Y-31489D01*
X41345Y-31261D01*
X41345Y-31238D01*
X41299Y-31010D01*
X41179Y-30830D01*
X41236Y-30807D01*
X41306Y-30736D01*
X41344Y-30644D01*
X41345Y-30545D01*
X41345Y-34080D01*
X41219Y-33996D01*
X41010Y-33955D01*
X40989Y-33955D01*
X40780Y-33996D01*
X40603Y-34114D01*
X40485Y-34291D01*
X40444Y-34500D01*
X40485Y-34708D01*
X40603Y-34885D01*
X40775Y-35000D01*
X40603Y-35114D01*
X40485Y-35291D01*
X40444Y-35500D01*
X40485Y-35708D01*
X40603Y-35885D01*
X40775Y-36000D01*
X40603Y-36114D01*
X40485Y-36291D01*
X40444Y-36500D01*
X40485Y-36708D01*
X40603Y-36885D01*
X40780Y-37003D01*
X40793Y-37006D01*
X40673Y-37063D01*
X40531Y-37221D01*
X40471Y-37365D01*
X40520Y-37450D01*
X40950Y-37450D01*
X40950Y-37442D01*
X41050Y-37442D01*
X41050Y-37450D01*
X41479Y-37450D01*
X41528Y-37365D01*
X41468Y-37221D01*
X41326Y-37063D01*
X41206Y-37006D01*
X41219Y-37003D01*
X41396Y-36885D01*
X41514Y-36708D01*
X41555Y-36500D01*
X41555Y-45200D01*
X41528Y-45200D01*
X41528Y-37634D01*
X41479Y-37550D01*
X41050Y-37550D01*
X41050Y-37980D01*
X41134Y-38028D01*
X41326Y-37936D01*
X41468Y-37778D01*
X41528Y-37634D01*
X41528Y-45200D01*
X41353Y-45200D01*
X41353Y-39000D01*
X41312Y-38791D01*
X41193Y-38614D01*
X41017Y-38496D01*
X40950Y-38483D01*
X40950Y-37980D01*
X40950Y-37550D01*
X40520Y-37550D01*
X40471Y-37634D01*
X40531Y-37778D01*
X40673Y-37936D01*
X40865Y-38028D01*
X40950Y-37980D01*
X40950Y-38483D01*
X40808Y-38455D01*
X40486Y-38455D01*
X40277Y-38496D01*
X40101Y-38614D01*
X39982Y-38791D01*
X39941Y-39000D01*
X39982Y-39208D01*
X40101Y-39385D01*
X40277Y-39503D01*
X40486Y-39545D01*
X40808Y-39545D01*
X41017Y-39503D01*
X41193Y-39385D01*
X41312Y-39208D01*
X41353Y-39000D01*
X41353Y-45200D01*
X40595Y-45200D01*
X40595Y-43882D01*
X40504Y-43663D01*
X40337Y-43495D01*
X40118Y-43405D01*
X39882Y-43404D01*
X39663Y-43495D01*
X39545Y-43613D01*
X39545Y-30540D01*
X39545Y-29655D01*
X39507Y-29563D01*
X39436Y-29493D01*
X39344Y-29455D01*
X39245Y-29454D01*
X38655Y-29454D01*
X38563Y-29492D01*
X38493Y-29563D01*
X38455Y-29655D01*
X38454Y-29754D01*
X38454Y-30639D01*
X38492Y-30731D01*
X38563Y-30801D01*
X38655Y-30839D01*
X38754Y-30840D01*
X39344Y-30840D01*
X39436Y-30802D01*
X39506Y-30731D01*
X39544Y-30639D01*
X39545Y-30540D01*
X39545Y-43613D01*
X39495Y-43662D01*
X39405Y-43881D01*
X39404Y-44117D01*
X39495Y-44336D01*
X39662Y-44504D01*
X39881Y-44594D01*
X40117Y-44595D01*
X40336Y-44504D01*
X40504Y-44337D01*
X40594Y-44118D01*
X40595Y-43882D01*
X40595Y-45200D01*
X38595Y-45200D01*
X38595Y-44295D01*
X38595Y-43605D01*
X38595Y-40795D01*
X38595Y-40105D01*
X38557Y-40013D01*
X38486Y-39943D01*
X38394Y-39905D01*
X38380Y-39905D01*
X38380Y-30325D01*
X38246Y-30002D01*
X37999Y-29754D01*
X37675Y-29620D01*
X37325Y-29619D01*
X37002Y-29753D01*
X36754Y-30000D01*
X36620Y-30324D01*
X36619Y-30674D01*
X36753Y-30997D01*
X37000Y-31245D01*
X37324Y-31379D01*
X37674Y-31380D01*
X37997Y-31246D01*
X38245Y-30999D01*
X38379Y-30675D01*
X38380Y-30325D01*
X38380Y-39905D01*
X38295Y-39904D01*
X38045Y-39904D01*
X38045Y-39245D01*
X38045Y-38655D01*
X38007Y-38563D01*
X37936Y-38493D01*
X37844Y-38455D01*
X37745Y-38454D01*
X37555Y-38454D01*
X37555Y-37500D01*
X37514Y-37291D01*
X37396Y-37114D01*
X37224Y-37000D01*
X37396Y-36885D01*
X37514Y-36708D01*
X37555Y-36500D01*
X37514Y-36291D01*
X37396Y-36114D01*
X37224Y-36000D01*
X37396Y-35885D01*
X37514Y-35708D01*
X37555Y-35500D01*
X37514Y-35291D01*
X37396Y-35114D01*
X37219Y-34996D01*
X37206Y-34993D01*
X37326Y-34936D01*
X37468Y-34778D01*
X37528Y-34634D01*
X37528Y-34365D01*
X37468Y-34221D01*
X37326Y-34063D01*
X37134Y-33971D01*
X37050Y-34019D01*
X37050Y-34450D01*
X37479Y-34450D01*
X37528Y-34365D01*
X37528Y-34634D01*
X37479Y-34550D01*
X37050Y-34550D01*
X37050Y-34557D01*
X36950Y-34557D01*
X36950Y-34550D01*
X36950Y-34450D01*
X36950Y-34019D01*
X36865Y-33971D01*
X36673Y-34063D01*
X36531Y-34221D01*
X36471Y-34365D01*
X36520Y-34450D01*
X36950Y-34450D01*
X36950Y-34550D01*
X36520Y-34550D01*
X36471Y-34634D01*
X36531Y-34778D01*
X36673Y-34936D01*
X36793Y-34993D01*
X36780Y-34996D01*
X36603Y-35114D01*
X36485Y-35291D01*
X36444Y-35500D01*
X36485Y-35708D01*
X36603Y-35885D01*
X36775Y-36000D01*
X36603Y-36114D01*
X36485Y-36291D01*
X36444Y-36500D01*
X36485Y-36708D01*
X36603Y-36885D01*
X36775Y-37000D01*
X36603Y-37114D01*
X36485Y-37291D01*
X36444Y-37500D01*
X36485Y-37708D01*
X36603Y-37885D01*
X36780Y-38003D01*
X36989Y-38045D01*
X37010Y-38045D01*
X37219Y-38003D01*
X37396Y-37885D01*
X37514Y-37708D01*
X37555Y-37500D01*
X37555Y-38454D01*
X36860Y-38454D01*
X36768Y-38492D01*
X36698Y-38563D01*
X36660Y-38655D01*
X36659Y-38754D01*
X36659Y-39344D01*
X36697Y-39436D01*
X36768Y-39506D01*
X36860Y-39544D01*
X36959Y-39545D01*
X37844Y-39545D01*
X37936Y-39507D01*
X38006Y-39436D01*
X38044Y-39344D01*
X38045Y-39245D01*
X38045Y-39904D01*
X37605Y-39904D01*
X37513Y-39942D01*
X37443Y-40013D01*
X37405Y-40105D01*
X37404Y-40204D01*
X37404Y-40894D01*
X37442Y-40986D01*
X37513Y-41056D01*
X37570Y-41080D01*
X37450Y-41260D01*
X37405Y-41488D01*
X37405Y-41511D01*
X37450Y-41739D01*
X37579Y-41932D01*
X37772Y-42061D01*
X38000Y-42106D01*
X38227Y-42061D01*
X38420Y-41932D01*
X38549Y-41739D01*
X38595Y-41511D01*
X38595Y-41488D01*
X38549Y-41260D01*
X38429Y-41080D01*
X38486Y-41057D01*
X38556Y-40986D01*
X38594Y-40894D01*
X38595Y-40795D01*
X38595Y-43605D01*
X38557Y-43513D01*
X38486Y-43443D01*
X38394Y-43405D01*
X38295Y-43404D01*
X37605Y-43404D01*
X37513Y-43442D01*
X37443Y-43513D01*
X37405Y-43605D01*
X37404Y-43704D01*
X37404Y-44394D01*
X37442Y-44486D01*
X37513Y-44556D01*
X37605Y-44594D01*
X37704Y-44595D01*
X38394Y-44595D01*
X38486Y-44557D01*
X38556Y-44486D01*
X38594Y-44394D01*
X38595Y-44295D01*
X38595Y-45200D01*
X36234Y-45200D01*
X36234Y-43392D01*
X36151Y-43191D01*
X36045Y-43085D01*
X36045Y-36558D01*
X36045Y-36236D01*
X36003Y-36027D01*
X35885Y-35851D01*
X35708Y-35732D01*
X35545Y-35700D01*
X35545Y-35441D01*
X35503Y-35232D01*
X35385Y-35056D01*
X35208Y-34937D01*
X35000Y-34896D01*
X34791Y-34937D01*
X34614Y-35056D01*
X34496Y-35232D01*
X34455Y-35441D01*
X34455Y-35705D01*
X34449Y-35705D01*
X34449Y-35770D01*
X34365Y-35721D01*
X34337Y-35727D01*
X34149Y-35829D01*
X34015Y-35995D01*
X33955Y-36200D01*
X33955Y-36347D01*
X34450Y-36347D01*
X34450Y-36339D01*
X34550Y-36339D01*
X34550Y-36347D01*
X34557Y-36347D01*
X34557Y-36447D01*
X34550Y-36447D01*
X34550Y-37024D01*
X34634Y-37073D01*
X34662Y-37067D01*
X34850Y-36965D01*
X34984Y-36799D01*
X34995Y-36762D01*
X34996Y-36767D01*
X35114Y-36943D01*
X35291Y-37062D01*
X35500Y-37103D01*
X35708Y-37062D01*
X35885Y-36943D01*
X36003Y-36767D01*
X36045Y-36558D01*
X36045Y-43085D01*
X35998Y-43038D01*
X35797Y-42955D01*
X35581Y-42954D01*
X35545Y-42969D01*
X35545Y-42899D01*
X35462Y-42699D01*
X35309Y-42546D01*
X35108Y-42462D01*
X34892Y-42462D01*
X34691Y-42545D01*
X34538Y-42698D01*
X34455Y-42898D01*
X34455Y-42969D01*
X34450Y-42967D01*
X34450Y-37024D01*
X34450Y-36447D01*
X33955Y-36447D01*
X33955Y-36595D01*
X34015Y-36799D01*
X34149Y-36965D01*
X34337Y-37067D01*
X34365Y-37073D01*
X34450Y-37024D01*
X34450Y-42967D01*
X34419Y-42955D01*
X34203Y-42954D01*
X34002Y-43037D01*
X33849Y-43190D01*
X33766Y-43391D01*
X33765Y-43607D01*
X33848Y-43808D01*
X34001Y-43961D01*
X34202Y-44044D01*
X34418Y-44045D01*
X34454Y-44030D01*
X34454Y-44100D01*
X34537Y-44300D01*
X34690Y-44453D01*
X34891Y-44537D01*
X35107Y-44537D01*
X35308Y-44454D01*
X35461Y-44301D01*
X35544Y-44101D01*
X35544Y-44030D01*
X35580Y-44044D01*
X35796Y-44045D01*
X35997Y-43962D01*
X36150Y-43809D01*
X36233Y-43608D01*
X36234Y-43392D01*
X36234Y-45200D01*
X33300Y-45200D01*
X33300Y-26300D01*
X38623Y-26300D01*
X38614Y-26306D01*
X38496Y-26482D01*
X38455Y-26691D01*
X38455Y-27013D01*
X38496Y-27222D01*
X38614Y-27398D01*
X38791Y-27517D01*
X39000Y-27558D01*
X39208Y-27517D01*
X39385Y-27398D01*
X39503Y-27222D01*
X39545Y-27013D01*
X39545Y-26691D01*
X39503Y-26482D01*
X39385Y-26306D01*
X39376Y-26300D01*
X46123Y-26300D01*
X46114Y-26306D01*
X45996Y-26482D01*
X45955Y-26691D01*
X45955Y-27013D01*
X45996Y-27222D01*
X46114Y-27398D01*
X46291Y-27517D01*
X46500Y-27558D01*
X46708Y-27517D01*
X46885Y-27398D01*
X47003Y-27222D01*
X47045Y-27013D01*
X47045Y-26691D01*
X47003Y-26482D01*
X46885Y-26306D01*
X46876Y-26300D01*
X52200Y-26300D01*
X52200Y-45200D01*
M02*
