G04 (created by PCBNEW (2013-07-07 BZR 4022)-stable) date 3/23/2015 11:32:45 PM*
%MOIN*%
G04 Gerber Fmt 3.4, Leading zero omitted, Abs format*
%FSLAX34Y34*%
G01*
G70*
G90*
G04 APERTURE LIST*
%ADD10C,0.00590551*%
%ADD11O,0.0885X0.059*%
%ADD12R,0.069X0.069*%
%ADD13C,0.069*%
%ADD14O,0.059X0.059*%
%ADD15R,0.06X0.06*%
%ADD16C,0.06*%
%ADD17C,0.059*%
%ADD18O,0.069X0.069*%
%ADD19C,0.125984*%
%ADD20C,0.23622*%
%ADD21R,0.059X0.059*%
G04 APERTURE END LIST*
G54D10*
G54D11*
X46397Y-37250D03*
X45602Y-36750D03*
X46397Y-36250D03*
X48147Y-35000D03*
X47352Y-34500D03*
X48147Y-34000D03*
X50647Y-35000D03*
X49852Y-34500D03*
X50647Y-34000D03*
X35897Y-37500D03*
X35102Y-37000D03*
X35897Y-36500D03*
X37647Y-35250D03*
X36852Y-34750D03*
X37647Y-34250D03*
X40147Y-35250D03*
X39352Y-34750D03*
X40147Y-34250D03*
G54D12*
X44750Y-27500D03*
G54D13*
X42750Y-27500D03*
X40750Y-27500D03*
G54D12*
X38000Y-44000D03*
G54D13*
X40000Y-44000D03*
G54D12*
X45500Y-44000D03*
G54D13*
X47500Y-44000D03*
G54D14*
X43250Y-32000D03*
X42250Y-32000D03*
X38750Y-37500D03*
X38750Y-36500D03*
X35500Y-34250D03*
X35500Y-35250D03*
X37500Y-36750D03*
X37500Y-37750D03*
X40000Y-36750D03*
X40000Y-37750D03*
X49250Y-37250D03*
X49250Y-36250D03*
X40000Y-32000D03*
X41000Y-32000D03*
X46000Y-34000D03*
X46000Y-35000D03*
X47000Y-41000D03*
X48000Y-41000D03*
X48000Y-36500D03*
X48000Y-37500D03*
X39500Y-41000D03*
X40500Y-41000D03*
X50500Y-36500D03*
X50500Y-37500D03*
G54D15*
X42750Y-35750D03*
G54D16*
X42750Y-34750D03*
G54D17*
X35000Y-40992D03*
X34311Y-40500D03*
X35688Y-40500D03*
X35000Y-40007D03*
X50500Y-40992D03*
X49811Y-40500D03*
X51188Y-40500D03*
X50500Y-40007D03*
G54D12*
X42250Y-30500D03*
G54D18*
X43250Y-30500D03*
G54D12*
X41000Y-30500D03*
G54D18*
X40000Y-30500D03*
G54D12*
X45000Y-41000D03*
G54D18*
X46000Y-41000D03*
G54D12*
X37500Y-41000D03*
G54D18*
X38500Y-41000D03*
G54D19*
X48000Y-30500D03*
X42750Y-41000D03*
X37500Y-30500D03*
G54D20*
X34250Y-27250D03*
X51250Y-27250D03*
X34250Y-44250D03*
X51250Y-44250D03*
G54D21*
X39000Y-29500D03*
G54D14*
X39000Y-26500D03*
G54D21*
X46500Y-29500D03*
G54D14*
X46500Y-26500D03*
G54D21*
X40500Y-39000D03*
G54D14*
X37500Y-39000D03*
G54D21*
X42750Y-36750D03*
G54D14*
X42750Y-39750D03*
G54D21*
X45000Y-39000D03*
G54D14*
X48000Y-39000D03*
M02*
