G04 (created by PCBNEW (2013-07-07 BZR 4022)-stable) date 3/20/2015 7:52:39 PM*
%MOIN*%
G04 Gerber Fmt 3.4, Leading zero omitted, Abs format*
%FSLAX34Y34*%
G01*
G70*
G90*
G04 APERTURE LIST*
%ADD10C,0.00590551*%
%ADD11O,0.059X0.0885*%
%ADD12R,0.069X0.069*%
%ADD13C,0.069*%
%ADD14O,0.059X0.059*%
%ADD15R,0.06X0.06*%
%ADD16C,0.06*%
%ADD17C,0.059*%
%ADD18O,0.069X0.069*%
%ADD19C,0.125984*%
%ADD20R,0.0885X0.059*%
%ADD21O,0.0885X0.059*%
%ADD22R,0.059X0.0885*%
%ADD23C,0.04*%
%ADD24C,0.02*%
%ADD25C,0.01*%
G04 APERTURE END LIST*
G54D10*
G54D11*
X50000Y-36397D03*
X50500Y-35602D03*
X51000Y-36397D03*
X34500Y-36397D03*
X35000Y-35602D03*
X35500Y-36397D03*
G54D12*
X44750Y-27500D03*
G54D13*
X42750Y-27500D03*
X40750Y-27500D03*
G54D12*
X38000Y-44000D03*
G54D13*
X40000Y-44000D03*
G54D12*
X45500Y-44000D03*
G54D13*
X47500Y-44000D03*
G54D14*
X48500Y-35500D03*
X44500Y-35500D03*
X44500Y-34500D03*
X48500Y-34500D03*
X41000Y-34500D03*
X37000Y-34500D03*
X44500Y-37500D03*
X48500Y-37500D03*
X37000Y-37500D03*
X41000Y-37500D03*
X44500Y-36500D03*
X48500Y-36500D03*
X37000Y-35500D03*
X41000Y-35500D03*
X41000Y-36500D03*
X37000Y-36500D03*
G54D15*
X42250Y-36500D03*
G54D16*
X42250Y-35500D03*
G54D17*
X50500Y-43007D03*
X51188Y-43500D03*
X49811Y-43500D03*
X50500Y-43992D03*
X35000Y-43007D03*
X35688Y-43500D03*
X34311Y-43500D03*
X35000Y-43992D03*
G54D12*
X38000Y-40500D03*
G54D18*
X38000Y-41500D03*
G54D12*
X45500Y-41500D03*
G54D18*
X45500Y-40500D03*
G54D12*
X40750Y-30250D03*
G54D18*
X40750Y-31250D03*
G54D12*
X42750Y-30250D03*
G54D18*
X42750Y-31250D03*
G54D19*
X48000Y-30500D03*
X42750Y-41000D03*
X37500Y-30500D03*
G54D20*
X37352Y-39000D03*
G54D21*
X40647Y-39000D03*
G54D22*
X46500Y-30147D03*
G54D11*
X46500Y-26852D03*
G54D22*
X39000Y-30147D03*
G54D11*
X39000Y-26852D03*
G54D22*
X43500Y-34352D03*
G54D11*
X43500Y-37647D03*
G54D20*
X44852Y-39000D03*
G54D21*
X48147Y-39000D03*
G54D23*
X44500Y-35500D02*
X44250Y-35500D01*
X43500Y-36500D02*
X43500Y-37500D01*
X43750Y-36250D02*
X43500Y-36500D01*
X43750Y-36000D02*
X43750Y-36250D01*
X44250Y-35500D02*
X43750Y-36000D01*
X45500Y-41500D02*
X45500Y-44000D01*
X45500Y-41500D02*
X45000Y-41500D01*
X44500Y-39500D02*
X45000Y-39000D01*
X44500Y-41000D02*
X44500Y-39500D01*
X45000Y-41500D02*
X44500Y-41000D01*
X43500Y-37500D02*
X43500Y-38250D01*
X43500Y-38250D02*
X44250Y-39000D01*
X44250Y-39000D02*
X45000Y-39000D01*
X44500Y-35500D02*
X45000Y-35500D01*
X45000Y-35500D02*
X46500Y-34000D01*
X46500Y-34000D02*
X46500Y-30000D01*
X42750Y-27500D02*
X43750Y-26500D01*
X46000Y-26500D02*
X46500Y-27000D01*
X45250Y-26500D02*
X46000Y-26500D01*
X43750Y-26500D02*
X45250Y-26500D01*
G54D24*
X42750Y-27500D02*
X42750Y-30250D01*
G54D23*
X38000Y-40500D02*
X38500Y-40500D01*
X39000Y-43000D02*
X38000Y-44000D01*
X39000Y-42000D02*
X39000Y-43000D01*
X39000Y-41000D02*
X39000Y-42000D01*
X38500Y-40500D02*
X39000Y-41000D01*
X40500Y-35500D02*
X37500Y-38500D01*
X37500Y-38500D02*
X37500Y-39000D01*
X41000Y-35500D02*
X40500Y-35500D01*
X40500Y-35500D02*
X39000Y-34000D01*
X39000Y-34000D02*
X39000Y-30000D01*
X41000Y-35500D02*
X42250Y-35500D01*
X38000Y-40500D02*
X38000Y-39500D01*
X38000Y-39500D02*
X37500Y-39000D01*
G54D24*
X40750Y-27500D02*
X40750Y-30250D01*
G54D23*
X40750Y-27500D02*
X40250Y-27000D01*
X40250Y-27000D02*
X39000Y-27000D01*
X43500Y-34500D02*
X43500Y-35250D01*
X42500Y-36500D02*
X42250Y-36500D01*
X43000Y-36000D02*
X42500Y-36500D01*
X43000Y-35750D02*
X43000Y-36000D01*
X43500Y-35250D02*
X43000Y-35750D01*
G54D24*
X50500Y-43007D02*
X51000Y-42507D01*
X51000Y-42507D02*
X51000Y-36250D01*
G54D23*
X49811Y-43500D02*
X50303Y-43007D01*
X50303Y-43007D02*
X50500Y-43007D01*
G54D24*
X48500Y-36500D02*
X48750Y-36500D01*
X48750Y-36500D02*
X49500Y-37250D01*
X49500Y-37250D02*
X50500Y-37250D01*
X50500Y-37250D02*
X51000Y-36750D01*
X51000Y-36750D02*
X51000Y-36250D01*
X40750Y-31250D02*
X41000Y-31500D01*
X41000Y-31500D02*
X41000Y-34500D01*
X42750Y-31250D02*
X44500Y-33000D01*
X44500Y-33000D02*
X44500Y-34500D01*
X44500Y-37500D02*
X45250Y-37500D01*
X45250Y-37500D02*
X45750Y-38000D01*
X45750Y-38000D02*
X45750Y-40250D01*
X45750Y-40250D02*
X45500Y-40500D01*
G54D23*
X40000Y-44000D02*
X39000Y-45000D01*
X37188Y-45000D02*
X35688Y-43500D01*
X39000Y-45000D02*
X37188Y-45000D01*
G54D24*
X41000Y-36500D02*
X40500Y-36500D01*
X40500Y-36500D02*
X40250Y-36750D01*
X40250Y-36750D02*
X40250Y-38750D01*
X40250Y-38750D02*
X40500Y-39000D01*
X40000Y-44000D02*
X40500Y-43500D01*
X40500Y-43500D02*
X40500Y-39000D01*
G54D23*
X35000Y-43992D02*
X35196Y-43992D01*
X35196Y-43992D02*
X35688Y-43500D01*
G54D24*
X48500Y-35500D02*
X50250Y-35500D01*
X50250Y-35500D02*
X50500Y-35750D01*
X35000Y-43007D02*
X35500Y-42507D01*
X35500Y-42507D02*
X35500Y-36250D01*
X35500Y-36250D02*
X35750Y-36500D01*
X35750Y-36500D02*
X37000Y-36500D01*
G54D23*
X34311Y-43500D02*
X34507Y-43500D01*
X34507Y-43500D02*
X35000Y-43007D01*
G54D24*
X44500Y-36500D02*
X45000Y-36500D01*
X45000Y-36500D02*
X45500Y-36500D01*
X45500Y-36500D02*
X48000Y-39000D01*
X47500Y-44000D02*
X48000Y-43500D01*
X48000Y-43500D02*
X48000Y-39000D01*
G54D23*
X50500Y-43992D02*
X50696Y-43992D01*
X50696Y-43992D02*
X51188Y-43500D01*
X47500Y-44000D02*
X48000Y-44500D01*
X48000Y-44500D02*
X49750Y-44500D01*
X49750Y-44500D02*
X50000Y-44500D01*
X50000Y-44500D02*
X50500Y-44000D01*
X50500Y-44000D02*
X50500Y-43992D01*
G54D24*
X37000Y-35500D02*
X35500Y-35500D01*
X35500Y-35500D02*
X35250Y-35500D01*
X35250Y-35500D02*
X35000Y-35750D01*
X37000Y-37500D02*
X36250Y-38250D01*
X36250Y-38250D02*
X36250Y-39500D01*
X36250Y-39500D02*
X36250Y-40500D01*
X36250Y-40500D02*
X37250Y-41500D01*
X37250Y-41500D02*
X38000Y-41500D01*
G54D10*
G36*
X36775Y-36000D02*
X36603Y-36114D01*
X36580Y-36150D01*
X36027Y-36150D01*
X36003Y-36027D01*
X35885Y-35851D01*
X35883Y-35850D01*
X36580Y-35850D01*
X36603Y-35885D01*
X36775Y-36000D01*
X36775Y-36000D01*
G37*
G54D25*
X36775Y-36000D02*
X36603Y-36114D01*
X36580Y-36150D01*
X36027Y-36150D01*
X36003Y-36027D01*
X35885Y-35851D01*
X35883Y-35850D01*
X36580Y-35850D01*
X36603Y-35885D01*
X36775Y-36000D01*
G54D10*
G36*
X38550Y-41262D02*
X38549Y-41260D01*
X38429Y-41080D01*
X38439Y-41076D01*
X38550Y-41186D01*
X38550Y-41262D01*
X38550Y-41262D01*
G37*
G54D25*
X38550Y-41262D02*
X38549Y-41260D01*
X38429Y-41080D01*
X38439Y-41076D01*
X38550Y-41186D01*
X38550Y-41262D01*
G54D10*
G36*
X38550Y-42813D02*
X37958Y-43404D01*
X37605Y-43404D01*
X37513Y-43442D01*
X37443Y-43513D01*
X37405Y-43605D01*
X37404Y-43704D01*
X37404Y-44394D01*
X37442Y-44486D01*
X37506Y-44550D01*
X37375Y-44550D01*
X36234Y-43408D01*
X36234Y-43392D01*
X36151Y-43191D01*
X35998Y-43038D01*
X35797Y-42955D01*
X35581Y-42954D01*
X35545Y-42969D01*
X35545Y-42957D01*
X35747Y-42755D01*
X35823Y-42641D01*
X35823Y-42641D01*
X35850Y-42507D01*
X35850Y-36967D01*
X35885Y-36943D01*
X35948Y-36850D01*
X36580Y-36850D01*
X36603Y-36885D01*
X36775Y-37000D01*
X36603Y-37114D01*
X36485Y-37291D01*
X36444Y-37500D01*
X36454Y-37550D01*
X36002Y-38002D01*
X35926Y-38116D01*
X35900Y-38250D01*
X35900Y-39500D01*
X35900Y-40500D01*
X35926Y-40633D01*
X36002Y-40747D01*
X37002Y-41747D01*
X37116Y-41823D01*
X37250Y-41850D01*
X37524Y-41850D01*
X37579Y-41932D01*
X37772Y-42061D01*
X38000Y-42106D01*
X38227Y-42061D01*
X38420Y-41932D01*
X38549Y-41739D01*
X38550Y-41737D01*
X38550Y-42000D01*
X38550Y-42813D01*
X38550Y-42813D01*
G37*
G54D25*
X38550Y-42813D02*
X37958Y-43404D01*
X37605Y-43404D01*
X37513Y-43442D01*
X37443Y-43513D01*
X37405Y-43605D01*
X37404Y-43704D01*
X37404Y-44394D01*
X37442Y-44486D01*
X37506Y-44550D01*
X37375Y-44550D01*
X36234Y-43408D01*
X36234Y-43392D01*
X36151Y-43191D01*
X35998Y-43038D01*
X35797Y-42955D01*
X35581Y-42954D01*
X35545Y-42969D01*
X35545Y-42957D01*
X35747Y-42755D01*
X35823Y-42641D01*
X35823Y-42641D01*
X35850Y-42507D01*
X35850Y-36967D01*
X35885Y-36943D01*
X35948Y-36850D01*
X36580Y-36850D01*
X36603Y-36885D01*
X36775Y-37000D01*
X36603Y-37114D01*
X36485Y-37291D01*
X36444Y-37500D01*
X36454Y-37550D01*
X36002Y-38002D01*
X35926Y-38116D01*
X35900Y-38250D01*
X35900Y-39500D01*
X35900Y-40500D01*
X35926Y-40633D01*
X36002Y-40747D01*
X37002Y-41747D01*
X37116Y-41823D01*
X37250Y-41850D01*
X37524Y-41850D01*
X37579Y-41932D01*
X37772Y-42061D01*
X38000Y-42106D01*
X38227Y-42061D01*
X38420Y-41932D01*
X38549Y-41739D01*
X38550Y-41737D01*
X38550Y-42000D01*
X38550Y-42813D01*
G54D10*
G36*
X40150Y-43355D02*
X40099Y-43405D01*
X39882Y-43404D01*
X39663Y-43495D01*
X39495Y-43662D01*
X39405Y-43881D01*
X39405Y-43958D01*
X38813Y-44550D01*
X38493Y-44550D01*
X38556Y-44486D01*
X38594Y-44394D01*
X38595Y-44295D01*
X38595Y-44041D01*
X39318Y-43318D01*
X39415Y-43172D01*
X39450Y-43000D01*
X39450Y-42000D01*
X39450Y-41000D01*
X39415Y-40827D01*
X39318Y-40681D01*
X38818Y-40181D01*
X38672Y-40084D01*
X38578Y-40065D01*
X38557Y-40013D01*
X38486Y-39943D01*
X38450Y-39927D01*
X38450Y-39500D01*
X38415Y-39327D01*
X38318Y-39181D01*
X38045Y-38908D01*
X38045Y-38655D01*
X38026Y-38610D01*
X39903Y-36733D01*
X39900Y-36750D01*
X39900Y-38750D01*
X39926Y-38883D01*
X39955Y-38927D01*
X39941Y-39000D01*
X39982Y-39208D01*
X40101Y-39385D01*
X40150Y-39418D01*
X40150Y-43355D01*
X40150Y-43355D01*
G37*
G54D25*
X40150Y-43355D02*
X40099Y-43405D01*
X39882Y-43404D01*
X39663Y-43495D01*
X39495Y-43662D01*
X39405Y-43881D01*
X39405Y-43958D01*
X38813Y-44550D01*
X38493Y-44550D01*
X38556Y-44486D01*
X38594Y-44394D01*
X38595Y-44295D01*
X38595Y-44041D01*
X39318Y-43318D01*
X39415Y-43172D01*
X39450Y-43000D01*
X39450Y-42000D01*
X39450Y-41000D01*
X39415Y-40827D01*
X39318Y-40681D01*
X38818Y-40181D01*
X38672Y-40084D01*
X38578Y-40065D01*
X38557Y-40013D01*
X38486Y-39943D01*
X38450Y-39927D01*
X38450Y-39500D01*
X38415Y-39327D01*
X38318Y-39181D01*
X38045Y-38908D01*
X38045Y-38655D01*
X38026Y-38610D01*
X39903Y-36733D01*
X39900Y-36750D01*
X39900Y-38750D01*
X39926Y-38883D01*
X39955Y-38927D01*
X39941Y-39000D01*
X39982Y-39208D01*
X40101Y-39385D01*
X40150Y-39418D01*
X40150Y-43355D01*
G54D10*
G36*
X40775Y-35000D02*
X40700Y-35050D01*
X40686Y-35050D01*
X39450Y-33813D01*
X39450Y-30788D01*
X39506Y-30731D01*
X39544Y-30639D01*
X39545Y-30540D01*
X39545Y-29655D01*
X39507Y-29563D01*
X39436Y-29493D01*
X39344Y-29455D01*
X39245Y-29454D01*
X38655Y-29454D01*
X38563Y-29492D01*
X38493Y-29563D01*
X38455Y-29655D01*
X38454Y-29754D01*
X38454Y-30639D01*
X38492Y-30731D01*
X38550Y-30788D01*
X38550Y-34000D01*
X38584Y-34172D01*
X38681Y-34318D01*
X39863Y-35500D01*
X38382Y-36980D01*
X38382Y-30660D01*
X38379Y-30493D01*
X38380Y-30325D01*
X38377Y-30318D01*
X38376Y-30310D01*
X38254Y-30013D01*
X38250Y-30012D01*
X38246Y-30002D01*
X37999Y-29754D01*
X37988Y-29749D01*
X37986Y-29745D01*
X37830Y-29684D01*
X37675Y-29620D01*
X37667Y-29620D01*
X37660Y-29617D01*
X37493Y-29620D01*
X37325Y-29619D01*
X37318Y-29622D01*
X37310Y-29623D01*
X37013Y-29745D01*
X37012Y-29749D01*
X37002Y-29753D01*
X36754Y-30000D01*
X36749Y-30011D01*
X36745Y-30013D01*
X36684Y-30169D01*
X36620Y-30324D01*
X36620Y-30332D01*
X36617Y-30339D01*
X36620Y-30506D01*
X36619Y-30674D01*
X36622Y-30681D01*
X36623Y-30689D01*
X36745Y-30986D01*
X36749Y-30987D01*
X36753Y-30997D01*
X37000Y-31245D01*
X37011Y-31250D01*
X37013Y-31254D01*
X37169Y-31315D01*
X37324Y-31379D01*
X37332Y-31379D01*
X37339Y-31382D01*
X37506Y-31379D01*
X37674Y-31380D01*
X37681Y-31377D01*
X37689Y-31376D01*
X37986Y-31254D01*
X37987Y-31250D01*
X37997Y-31246D01*
X38245Y-30999D01*
X38250Y-30988D01*
X38254Y-30986D01*
X38315Y-30830D01*
X38379Y-30675D01*
X38379Y-30667D01*
X38382Y-30660D01*
X38382Y-36980D01*
X37181Y-38181D01*
X37084Y-38327D01*
X37058Y-38454D01*
X36860Y-38454D01*
X36768Y-38492D01*
X36698Y-38563D01*
X36660Y-38655D01*
X36659Y-38754D01*
X36659Y-39344D01*
X36697Y-39436D01*
X36768Y-39506D01*
X36860Y-39544D01*
X36959Y-39545D01*
X37408Y-39545D01*
X37550Y-39686D01*
X37550Y-39927D01*
X37513Y-39942D01*
X37443Y-40013D01*
X37405Y-40105D01*
X37404Y-40204D01*
X37404Y-40894D01*
X37442Y-40986D01*
X37513Y-41056D01*
X37570Y-41080D01*
X37524Y-41150D01*
X37394Y-41150D01*
X36600Y-40355D01*
X36600Y-39500D01*
X36600Y-38394D01*
X36956Y-38038D01*
X36989Y-38045D01*
X37010Y-38045D01*
X37219Y-38003D01*
X37396Y-37885D01*
X37514Y-37708D01*
X37555Y-37500D01*
X37514Y-37291D01*
X37396Y-37114D01*
X37224Y-37000D01*
X37396Y-36885D01*
X37514Y-36708D01*
X37555Y-36500D01*
X37514Y-36291D01*
X37396Y-36114D01*
X37224Y-36000D01*
X37396Y-35885D01*
X37514Y-35708D01*
X37555Y-35500D01*
X37514Y-35291D01*
X37396Y-35114D01*
X37224Y-34999D01*
X37396Y-34885D01*
X37514Y-34708D01*
X37555Y-34500D01*
X37514Y-34291D01*
X37396Y-34114D01*
X37219Y-33996D01*
X37010Y-33955D01*
X36989Y-33955D01*
X36780Y-33996D01*
X36603Y-34114D01*
X36485Y-34291D01*
X36444Y-34500D01*
X36485Y-34708D01*
X36603Y-34885D01*
X36775Y-35000D01*
X36603Y-35114D01*
X36580Y-35150D01*
X35500Y-35150D01*
X35448Y-35150D01*
X35385Y-35056D01*
X35208Y-34937D01*
X35000Y-34896D01*
X34791Y-34937D01*
X34614Y-35056D01*
X34496Y-35232D01*
X34455Y-35441D01*
X34455Y-35700D01*
X34291Y-35732D01*
X34114Y-35851D01*
X33996Y-36027D01*
X33955Y-36236D01*
X33955Y-36558D01*
X33996Y-36767D01*
X34114Y-36943D01*
X34291Y-37062D01*
X34500Y-37103D01*
X34708Y-37062D01*
X34885Y-36943D01*
X34999Y-36772D01*
X35114Y-36943D01*
X35150Y-36967D01*
X35150Y-42362D01*
X35049Y-42462D01*
X34892Y-42462D01*
X34691Y-42545D01*
X34538Y-42698D01*
X34455Y-42898D01*
X34455Y-42916D01*
X34416Y-42955D01*
X34203Y-42954D01*
X34002Y-43037D01*
X33849Y-43190D01*
X33766Y-43391D01*
X33765Y-43607D01*
X33848Y-43808D01*
X34001Y-43961D01*
X34202Y-44044D01*
X34418Y-44045D01*
X34454Y-44030D01*
X34454Y-44100D01*
X34537Y-44300D01*
X34690Y-44453D01*
X34891Y-44537D01*
X35107Y-44537D01*
X35308Y-44454D01*
X35351Y-44411D01*
X35369Y-44407D01*
X35515Y-44310D01*
X35688Y-44136D01*
X36752Y-45200D01*
X33300Y-45200D01*
X33300Y-26300D01*
X38623Y-26300D01*
X38614Y-26306D01*
X38496Y-26482D01*
X38455Y-26691D01*
X38455Y-27013D01*
X38496Y-27222D01*
X38614Y-27398D01*
X38791Y-27517D01*
X39000Y-27558D01*
X39208Y-27517D01*
X39308Y-27450D01*
X40063Y-27450D01*
X40154Y-27541D01*
X40154Y-27617D01*
X40245Y-27836D01*
X40400Y-27991D01*
X40400Y-29654D01*
X40355Y-29654D01*
X40263Y-29692D01*
X40193Y-29763D01*
X40155Y-29855D01*
X40154Y-29954D01*
X40154Y-30644D01*
X40192Y-30736D01*
X40263Y-30806D01*
X40320Y-30830D01*
X40200Y-31010D01*
X40155Y-31238D01*
X40155Y-31261D01*
X40200Y-31489D01*
X40329Y-31682D01*
X40522Y-31811D01*
X40650Y-31836D01*
X40650Y-34083D01*
X40603Y-34114D01*
X40485Y-34291D01*
X40444Y-34500D01*
X40485Y-34708D01*
X40603Y-34885D01*
X40775Y-35000D01*
X40775Y-35000D01*
G37*
G54D25*
X40775Y-35000D02*
X40700Y-35050D01*
X40686Y-35050D01*
X39450Y-33813D01*
X39450Y-30788D01*
X39506Y-30731D01*
X39544Y-30639D01*
X39545Y-30540D01*
X39545Y-29655D01*
X39507Y-29563D01*
X39436Y-29493D01*
X39344Y-29455D01*
X39245Y-29454D01*
X38655Y-29454D01*
X38563Y-29492D01*
X38493Y-29563D01*
X38455Y-29655D01*
X38454Y-29754D01*
X38454Y-30639D01*
X38492Y-30731D01*
X38550Y-30788D01*
X38550Y-34000D01*
X38584Y-34172D01*
X38681Y-34318D01*
X39863Y-35500D01*
X38382Y-36980D01*
X38382Y-30660D01*
X38379Y-30493D01*
X38380Y-30325D01*
X38377Y-30318D01*
X38376Y-30310D01*
X38254Y-30013D01*
X38250Y-30012D01*
X38246Y-30002D01*
X37999Y-29754D01*
X37988Y-29749D01*
X37986Y-29745D01*
X37830Y-29684D01*
X37675Y-29620D01*
X37667Y-29620D01*
X37660Y-29617D01*
X37493Y-29620D01*
X37325Y-29619D01*
X37318Y-29622D01*
X37310Y-29623D01*
X37013Y-29745D01*
X37012Y-29749D01*
X37002Y-29753D01*
X36754Y-30000D01*
X36749Y-30011D01*
X36745Y-30013D01*
X36684Y-30169D01*
X36620Y-30324D01*
X36620Y-30332D01*
X36617Y-30339D01*
X36620Y-30506D01*
X36619Y-30674D01*
X36622Y-30681D01*
X36623Y-30689D01*
X36745Y-30986D01*
X36749Y-30987D01*
X36753Y-30997D01*
X37000Y-31245D01*
X37011Y-31250D01*
X37013Y-31254D01*
X37169Y-31315D01*
X37324Y-31379D01*
X37332Y-31379D01*
X37339Y-31382D01*
X37506Y-31379D01*
X37674Y-31380D01*
X37681Y-31377D01*
X37689Y-31376D01*
X37986Y-31254D01*
X37987Y-31250D01*
X37997Y-31246D01*
X38245Y-30999D01*
X38250Y-30988D01*
X38254Y-30986D01*
X38315Y-30830D01*
X38379Y-30675D01*
X38379Y-30667D01*
X38382Y-30660D01*
X38382Y-36980D01*
X37181Y-38181D01*
X37084Y-38327D01*
X37058Y-38454D01*
X36860Y-38454D01*
X36768Y-38492D01*
X36698Y-38563D01*
X36660Y-38655D01*
X36659Y-38754D01*
X36659Y-39344D01*
X36697Y-39436D01*
X36768Y-39506D01*
X36860Y-39544D01*
X36959Y-39545D01*
X37408Y-39545D01*
X37550Y-39686D01*
X37550Y-39927D01*
X37513Y-39942D01*
X37443Y-40013D01*
X37405Y-40105D01*
X37404Y-40204D01*
X37404Y-40894D01*
X37442Y-40986D01*
X37513Y-41056D01*
X37570Y-41080D01*
X37524Y-41150D01*
X37394Y-41150D01*
X36600Y-40355D01*
X36600Y-39500D01*
X36600Y-38394D01*
X36956Y-38038D01*
X36989Y-38045D01*
X37010Y-38045D01*
X37219Y-38003D01*
X37396Y-37885D01*
X37514Y-37708D01*
X37555Y-37500D01*
X37514Y-37291D01*
X37396Y-37114D01*
X37224Y-37000D01*
X37396Y-36885D01*
X37514Y-36708D01*
X37555Y-36500D01*
X37514Y-36291D01*
X37396Y-36114D01*
X37224Y-36000D01*
X37396Y-35885D01*
X37514Y-35708D01*
X37555Y-35500D01*
X37514Y-35291D01*
X37396Y-35114D01*
X37224Y-34999D01*
X37396Y-34885D01*
X37514Y-34708D01*
X37555Y-34500D01*
X37514Y-34291D01*
X37396Y-34114D01*
X37219Y-33996D01*
X37010Y-33955D01*
X36989Y-33955D01*
X36780Y-33996D01*
X36603Y-34114D01*
X36485Y-34291D01*
X36444Y-34500D01*
X36485Y-34708D01*
X36603Y-34885D01*
X36775Y-35000D01*
X36603Y-35114D01*
X36580Y-35150D01*
X35500Y-35150D01*
X35448Y-35150D01*
X35385Y-35056D01*
X35208Y-34937D01*
X35000Y-34896D01*
X34791Y-34937D01*
X34614Y-35056D01*
X34496Y-35232D01*
X34455Y-35441D01*
X34455Y-35700D01*
X34291Y-35732D01*
X34114Y-35851D01*
X33996Y-36027D01*
X33955Y-36236D01*
X33955Y-36558D01*
X33996Y-36767D01*
X34114Y-36943D01*
X34291Y-37062D01*
X34500Y-37103D01*
X34708Y-37062D01*
X34885Y-36943D01*
X34999Y-36772D01*
X35114Y-36943D01*
X35150Y-36967D01*
X35150Y-42362D01*
X35049Y-42462D01*
X34892Y-42462D01*
X34691Y-42545D01*
X34538Y-42698D01*
X34455Y-42898D01*
X34455Y-42916D01*
X34416Y-42955D01*
X34203Y-42954D01*
X34002Y-43037D01*
X33849Y-43190D01*
X33766Y-43391D01*
X33765Y-43607D01*
X33848Y-43808D01*
X34001Y-43961D01*
X34202Y-44044D01*
X34418Y-44045D01*
X34454Y-44030D01*
X34454Y-44100D01*
X34537Y-44300D01*
X34690Y-44453D01*
X34891Y-44537D01*
X35107Y-44537D01*
X35308Y-44454D01*
X35351Y-44411D01*
X35369Y-44407D01*
X35515Y-44310D01*
X35688Y-44136D01*
X36752Y-45200D01*
X33300Y-45200D01*
X33300Y-26300D01*
X38623Y-26300D01*
X38614Y-26306D01*
X38496Y-26482D01*
X38455Y-26691D01*
X38455Y-27013D01*
X38496Y-27222D01*
X38614Y-27398D01*
X38791Y-27517D01*
X39000Y-27558D01*
X39208Y-27517D01*
X39308Y-27450D01*
X40063Y-27450D01*
X40154Y-27541D01*
X40154Y-27617D01*
X40245Y-27836D01*
X40400Y-27991D01*
X40400Y-29654D01*
X40355Y-29654D01*
X40263Y-29692D01*
X40193Y-29763D01*
X40155Y-29855D01*
X40154Y-29954D01*
X40154Y-30644D01*
X40192Y-30736D01*
X40263Y-30806D01*
X40320Y-30830D01*
X40200Y-31010D01*
X40155Y-31238D01*
X40155Y-31261D01*
X40200Y-31489D01*
X40329Y-31682D01*
X40522Y-31811D01*
X40650Y-31836D01*
X40650Y-34083D01*
X40603Y-34114D01*
X40485Y-34291D01*
X40444Y-34500D01*
X40485Y-34708D01*
X40603Y-34885D01*
X40775Y-35000D01*
G54D10*
G36*
X40775Y-36000D02*
X40603Y-36114D01*
X40580Y-36150D01*
X40500Y-36150D01*
X40483Y-36153D01*
X40686Y-35950D01*
X40700Y-35950D01*
X40775Y-36000D01*
X40775Y-36000D01*
G37*
G54D25*
X40775Y-36000D02*
X40603Y-36114D01*
X40580Y-36150D01*
X40500Y-36150D01*
X40483Y-36153D01*
X40686Y-35950D01*
X40700Y-35950D01*
X40775Y-36000D01*
G54D10*
G36*
X40775Y-37000D02*
X40603Y-37114D01*
X40600Y-37120D01*
X40600Y-36894D01*
X40607Y-36887D01*
X40775Y-37000D01*
X40775Y-37000D01*
G37*
G54D25*
X40775Y-37000D02*
X40603Y-37114D01*
X40600Y-37120D01*
X40600Y-36894D01*
X40607Y-36887D01*
X40775Y-37000D01*
G54D10*
G36*
X44150Y-34083D02*
X44103Y-34114D01*
X44045Y-34202D01*
X44045Y-33860D01*
X44007Y-33768D01*
X43936Y-33698D01*
X43844Y-33660D01*
X43745Y-33659D01*
X43155Y-33659D01*
X43063Y-33697D01*
X42993Y-33768D01*
X42955Y-33860D01*
X42954Y-33959D01*
X42954Y-34844D01*
X42992Y-34936D01*
X43050Y-34993D01*
X43050Y-35063D01*
X42777Y-35336D01*
X42716Y-35188D01*
X42561Y-35034D01*
X42359Y-34950D01*
X42141Y-34949D01*
X41938Y-35033D01*
X41922Y-35050D01*
X41299Y-35050D01*
X41224Y-34999D01*
X41396Y-34885D01*
X41514Y-34708D01*
X41555Y-34500D01*
X41514Y-34291D01*
X41396Y-34114D01*
X41350Y-34083D01*
X41350Y-31500D01*
X41323Y-31368D01*
X41345Y-31261D01*
X41345Y-31238D01*
X41299Y-31010D01*
X41179Y-30830D01*
X41236Y-30807D01*
X41306Y-30736D01*
X41344Y-30644D01*
X41345Y-30545D01*
X41345Y-29855D01*
X41307Y-29763D01*
X41236Y-29693D01*
X41144Y-29655D01*
X41100Y-29655D01*
X41100Y-27991D01*
X41254Y-27837D01*
X41344Y-27618D01*
X41345Y-27382D01*
X41254Y-27163D01*
X41087Y-26995D01*
X40868Y-26905D01*
X40791Y-26905D01*
X40568Y-26681D01*
X40422Y-26584D01*
X40250Y-26550D01*
X39516Y-26550D01*
X39503Y-26482D01*
X39385Y-26306D01*
X39376Y-26300D01*
X43313Y-26300D01*
X42708Y-26904D01*
X42632Y-26904D01*
X42413Y-26995D01*
X42245Y-27162D01*
X42155Y-27381D01*
X42154Y-27617D01*
X42245Y-27836D01*
X42400Y-27991D01*
X42400Y-29654D01*
X42355Y-29654D01*
X42263Y-29692D01*
X42193Y-29763D01*
X42155Y-29855D01*
X42154Y-29954D01*
X42154Y-30644D01*
X42192Y-30736D01*
X42263Y-30806D01*
X42320Y-30830D01*
X42200Y-31010D01*
X42155Y-31238D01*
X42155Y-31261D01*
X42200Y-31489D01*
X42329Y-31682D01*
X42522Y-31811D01*
X42750Y-31856D01*
X42843Y-31838D01*
X44150Y-33144D01*
X44150Y-34083D01*
X44150Y-34083D01*
G37*
G54D25*
X44150Y-34083D02*
X44103Y-34114D01*
X44045Y-34202D01*
X44045Y-33860D01*
X44007Y-33768D01*
X43936Y-33698D01*
X43844Y-33660D01*
X43745Y-33659D01*
X43155Y-33659D01*
X43063Y-33697D01*
X42993Y-33768D01*
X42955Y-33860D01*
X42954Y-33959D01*
X42954Y-34844D01*
X42992Y-34936D01*
X43050Y-34993D01*
X43050Y-35063D01*
X42777Y-35336D01*
X42716Y-35188D01*
X42561Y-35034D01*
X42359Y-34950D01*
X42141Y-34949D01*
X41938Y-35033D01*
X41922Y-35050D01*
X41299Y-35050D01*
X41224Y-34999D01*
X41396Y-34885D01*
X41514Y-34708D01*
X41555Y-34500D01*
X41514Y-34291D01*
X41396Y-34114D01*
X41350Y-34083D01*
X41350Y-31500D01*
X41323Y-31368D01*
X41345Y-31261D01*
X41345Y-31238D01*
X41299Y-31010D01*
X41179Y-30830D01*
X41236Y-30807D01*
X41306Y-30736D01*
X41344Y-30644D01*
X41345Y-30545D01*
X41345Y-29855D01*
X41307Y-29763D01*
X41236Y-29693D01*
X41144Y-29655D01*
X41100Y-29655D01*
X41100Y-27991D01*
X41254Y-27837D01*
X41344Y-27618D01*
X41345Y-27382D01*
X41254Y-27163D01*
X41087Y-26995D01*
X40868Y-26905D01*
X40791Y-26905D01*
X40568Y-26681D01*
X40422Y-26584D01*
X40250Y-26550D01*
X39516Y-26550D01*
X39503Y-26482D01*
X39385Y-26306D01*
X39376Y-26300D01*
X43313Y-26300D01*
X42708Y-26904D01*
X42632Y-26904D01*
X42413Y-26995D01*
X42245Y-27162D01*
X42155Y-27381D01*
X42154Y-27617D01*
X42245Y-27836D01*
X42400Y-27991D01*
X42400Y-29654D01*
X42355Y-29654D01*
X42263Y-29692D01*
X42193Y-29763D01*
X42155Y-29855D01*
X42154Y-29954D01*
X42154Y-30644D01*
X42192Y-30736D01*
X42263Y-30806D01*
X42320Y-30830D01*
X42200Y-31010D01*
X42155Y-31238D01*
X42155Y-31261D01*
X42200Y-31489D01*
X42329Y-31682D01*
X42522Y-31811D01*
X42750Y-31856D01*
X42843Y-31838D01*
X44150Y-33144D01*
X44150Y-34083D01*
G54D10*
G36*
X44275Y-35000D02*
X44179Y-35063D01*
X44077Y-35084D01*
X43950Y-35169D01*
X43950Y-34993D01*
X44006Y-34936D01*
X44044Y-34844D01*
X44044Y-34797D01*
X44103Y-34885D01*
X44275Y-35000D01*
X44275Y-35000D01*
G37*
G54D25*
X44275Y-35000D02*
X44179Y-35063D01*
X44077Y-35084D01*
X43950Y-35169D01*
X43950Y-34993D01*
X44006Y-34936D01*
X44044Y-34844D01*
X44044Y-34797D01*
X44103Y-34885D01*
X44275Y-35000D01*
G54D10*
G36*
X44275Y-37000D02*
X44103Y-37114D01*
X43999Y-37271D01*
X43950Y-37197D01*
X43950Y-36686D01*
X43976Y-36660D01*
X43985Y-36708D01*
X44103Y-36885D01*
X44275Y-37000D01*
X44275Y-37000D01*
G37*
G54D25*
X44275Y-37000D02*
X44103Y-37114D01*
X43999Y-37271D01*
X43950Y-37197D01*
X43950Y-36686D01*
X43976Y-36660D01*
X43985Y-36708D01*
X44103Y-36885D01*
X44275Y-37000D01*
G54D10*
G36*
X45070Y-40919D02*
X45060Y-40923D01*
X44950Y-40813D01*
X44950Y-40737D01*
X44950Y-40739D01*
X45070Y-40919D01*
X45070Y-40919D01*
G37*
G54D25*
X45070Y-40919D02*
X45060Y-40923D01*
X44950Y-40813D01*
X44950Y-40737D01*
X44950Y-40739D01*
X45070Y-40919D01*
G54D10*
G36*
X45400Y-38477D02*
X45344Y-38455D01*
X45245Y-38454D01*
X44360Y-38454D01*
X44346Y-38460D01*
X43963Y-38077D01*
X44003Y-38017D01*
X44045Y-37808D01*
X44045Y-37797D01*
X44103Y-37885D01*
X44280Y-38003D01*
X44489Y-38045D01*
X44510Y-38045D01*
X44719Y-38003D01*
X44896Y-37885D01*
X44919Y-37850D01*
X45105Y-37850D01*
X45400Y-38144D01*
X45400Y-38477D01*
X45400Y-38477D01*
G37*
G54D25*
X45400Y-38477D02*
X45344Y-38455D01*
X45245Y-38454D01*
X44360Y-38454D01*
X44346Y-38460D01*
X43963Y-38077D01*
X44003Y-38017D01*
X44045Y-37808D01*
X44045Y-37797D01*
X44103Y-37885D01*
X44280Y-38003D01*
X44489Y-38045D01*
X44510Y-38045D01*
X44719Y-38003D01*
X44896Y-37885D01*
X44919Y-37850D01*
X45105Y-37850D01*
X45400Y-38144D01*
X45400Y-38477D01*
G54D10*
G36*
X45400Y-39913D02*
X45272Y-39938D01*
X45079Y-40067D01*
X44950Y-40260D01*
X44950Y-40262D01*
X44950Y-39686D01*
X45091Y-39545D01*
X45344Y-39545D01*
X45400Y-39522D01*
X45400Y-39913D01*
X45400Y-39913D01*
G37*
G54D25*
X45400Y-39913D02*
X45272Y-39938D01*
X45079Y-40067D01*
X44950Y-40260D01*
X44950Y-40262D01*
X44950Y-39686D01*
X45091Y-39545D01*
X45344Y-39545D01*
X45400Y-39522D01*
X45400Y-39913D01*
G54D10*
G36*
X48816Y-37061D02*
X48724Y-37000D01*
X48742Y-36987D01*
X48816Y-37061D01*
X48816Y-37061D01*
G37*
G54D25*
X48816Y-37061D02*
X48724Y-37000D01*
X48742Y-36987D01*
X48816Y-37061D01*
G54D10*
G36*
X49616Y-35850D02*
X49614Y-35851D01*
X49496Y-36027D01*
X49455Y-36236D01*
X49455Y-36558D01*
X49492Y-36747D01*
X48997Y-36252D01*
X48980Y-36241D01*
X48896Y-36114D01*
X48724Y-36000D01*
X48896Y-35885D01*
X48919Y-35850D01*
X49616Y-35850D01*
X49616Y-35850D01*
G37*
G54D25*
X49616Y-35850D02*
X49614Y-35851D01*
X49496Y-36027D01*
X49455Y-36236D01*
X49455Y-36558D01*
X49492Y-36747D01*
X48997Y-36252D01*
X48980Y-36241D01*
X48896Y-36114D01*
X48724Y-36000D01*
X48896Y-35885D01*
X48919Y-35850D01*
X49616Y-35850D01*
G54D10*
G36*
X52200Y-45200D02*
X43632Y-45200D01*
X43632Y-41160D01*
X43629Y-40993D01*
X43630Y-40825D01*
X43627Y-40818D01*
X43626Y-40810D01*
X43504Y-40513D01*
X43500Y-40512D01*
X43496Y-40502D01*
X43249Y-40254D01*
X43238Y-40249D01*
X43236Y-40245D01*
X43080Y-40184D01*
X42925Y-40120D01*
X42917Y-40120D01*
X42910Y-40117D01*
X42743Y-40120D01*
X42575Y-40119D01*
X42568Y-40122D01*
X42560Y-40123D01*
X42263Y-40245D01*
X42262Y-40249D01*
X42252Y-40253D01*
X42004Y-40500D01*
X41999Y-40511D01*
X41995Y-40513D01*
X41934Y-40669D01*
X41870Y-40824D01*
X41870Y-40832D01*
X41867Y-40839D01*
X41870Y-41006D01*
X41869Y-41174D01*
X41872Y-41181D01*
X41873Y-41189D01*
X41995Y-41486D01*
X41999Y-41487D01*
X42003Y-41497D01*
X42250Y-41745D01*
X42261Y-41750D01*
X42263Y-41754D01*
X42419Y-41815D01*
X42574Y-41879D01*
X42582Y-41879D01*
X42589Y-41882D01*
X42756Y-41879D01*
X42924Y-41880D01*
X42931Y-41877D01*
X42939Y-41876D01*
X43236Y-41754D01*
X43237Y-41750D01*
X43247Y-41746D01*
X43495Y-41499D01*
X43500Y-41488D01*
X43504Y-41486D01*
X43565Y-41330D01*
X43629Y-41175D01*
X43629Y-41167D01*
X43632Y-41160D01*
X43632Y-45200D01*
X39436Y-45200D01*
X40041Y-44595D01*
X40117Y-44595D01*
X40336Y-44504D01*
X40504Y-44337D01*
X40594Y-44118D01*
X40595Y-43899D01*
X40747Y-43747D01*
X40823Y-43633D01*
X40823Y-43633D01*
X40850Y-43500D01*
X40850Y-39536D01*
X41017Y-39503D01*
X41193Y-39385D01*
X41312Y-39208D01*
X41353Y-39000D01*
X41312Y-38791D01*
X41193Y-38614D01*
X41017Y-38496D01*
X40808Y-38455D01*
X40600Y-38455D01*
X40600Y-37879D01*
X40603Y-37885D01*
X40780Y-38003D01*
X40989Y-38045D01*
X41010Y-38045D01*
X41219Y-38003D01*
X41396Y-37885D01*
X41514Y-37708D01*
X41555Y-37500D01*
X41514Y-37291D01*
X41396Y-37114D01*
X41224Y-37000D01*
X41396Y-36885D01*
X41514Y-36708D01*
X41555Y-36500D01*
X41514Y-36291D01*
X41396Y-36114D01*
X41224Y-36000D01*
X41299Y-35950D01*
X41900Y-35950D01*
X41808Y-35987D01*
X41738Y-36058D01*
X41700Y-36150D01*
X41699Y-36249D01*
X41699Y-36849D01*
X41737Y-36941D01*
X41808Y-37011D01*
X41900Y-37049D01*
X41999Y-37050D01*
X42599Y-37050D01*
X42691Y-37012D01*
X42761Y-36941D01*
X42799Y-36849D01*
X42799Y-36830D01*
X42818Y-36818D01*
X43050Y-36586D01*
X43050Y-37197D01*
X42996Y-37277D01*
X42955Y-37486D01*
X42955Y-37808D01*
X42996Y-38017D01*
X43050Y-38097D01*
X43050Y-38250D01*
X43084Y-38422D01*
X43181Y-38568D01*
X43931Y-39318D01*
X43931Y-39318D01*
X44068Y-39409D01*
X44050Y-39500D01*
X44050Y-41000D01*
X44084Y-41172D01*
X44181Y-41318D01*
X44681Y-41818D01*
X44827Y-41915D01*
X44921Y-41934D01*
X44942Y-41986D01*
X45013Y-42056D01*
X45050Y-42072D01*
X45050Y-43427D01*
X45013Y-43442D01*
X44943Y-43513D01*
X44905Y-43605D01*
X44904Y-43704D01*
X44904Y-44394D01*
X44942Y-44486D01*
X45013Y-44556D01*
X45105Y-44594D01*
X45204Y-44595D01*
X45894Y-44595D01*
X45986Y-44557D01*
X46056Y-44486D01*
X46094Y-44394D01*
X46095Y-44295D01*
X46095Y-43605D01*
X46057Y-43513D01*
X45986Y-43443D01*
X45950Y-43427D01*
X45950Y-42072D01*
X45986Y-42057D01*
X46056Y-41986D01*
X46094Y-41894D01*
X46095Y-41795D01*
X46095Y-41105D01*
X46057Y-41013D01*
X45986Y-40943D01*
X45929Y-40919D01*
X46049Y-40739D01*
X46095Y-40511D01*
X46095Y-40488D01*
X46073Y-40381D01*
X46100Y-40250D01*
X46100Y-38000D01*
X46073Y-37866D01*
X46073Y-37866D01*
X45997Y-37752D01*
X45497Y-37252D01*
X45383Y-37176D01*
X45250Y-37150D01*
X44919Y-37150D01*
X44896Y-37114D01*
X44724Y-37000D01*
X44896Y-36885D01*
X44919Y-36850D01*
X45000Y-36850D01*
X45355Y-36850D01*
X47451Y-38946D01*
X47441Y-39000D01*
X47482Y-39208D01*
X47601Y-39385D01*
X47650Y-39418D01*
X47650Y-43355D01*
X47599Y-43405D01*
X47382Y-43404D01*
X47163Y-43495D01*
X46995Y-43662D01*
X46905Y-43881D01*
X46904Y-44117D01*
X46995Y-44336D01*
X47162Y-44504D01*
X47381Y-44594D01*
X47458Y-44594D01*
X47681Y-44818D01*
X47827Y-44915D01*
X48000Y-44950D01*
X49750Y-44950D01*
X50000Y-44950D01*
X50172Y-44915D01*
X50318Y-44818D01*
X50599Y-44537D01*
X50607Y-44537D01*
X50808Y-44454D01*
X50851Y-44411D01*
X50869Y-44407D01*
X51015Y-44310D01*
X51280Y-44045D01*
X51296Y-44045D01*
X51497Y-43962D01*
X51650Y-43809D01*
X51733Y-43608D01*
X51734Y-43392D01*
X51651Y-43191D01*
X51498Y-43038D01*
X51297Y-42955D01*
X51081Y-42954D01*
X51045Y-42969D01*
X51045Y-42957D01*
X51247Y-42755D01*
X51323Y-42641D01*
X51323Y-42641D01*
X51350Y-42507D01*
X51350Y-36967D01*
X51385Y-36943D01*
X51503Y-36767D01*
X51545Y-36558D01*
X51545Y-36236D01*
X51503Y-36027D01*
X51385Y-35851D01*
X51208Y-35732D01*
X51045Y-35700D01*
X51045Y-35441D01*
X51003Y-35232D01*
X50885Y-35056D01*
X50708Y-34937D01*
X50500Y-34896D01*
X50291Y-34937D01*
X50114Y-35056D01*
X50051Y-35150D01*
X48919Y-35150D01*
X48896Y-35114D01*
X48724Y-34999D01*
X48896Y-34885D01*
X49014Y-34708D01*
X49055Y-34500D01*
X49014Y-34291D01*
X48896Y-34114D01*
X48882Y-34105D01*
X48882Y-30660D01*
X48879Y-30493D01*
X48880Y-30325D01*
X48877Y-30318D01*
X48876Y-30310D01*
X48754Y-30013D01*
X48750Y-30012D01*
X48746Y-30002D01*
X48499Y-29754D01*
X48488Y-29749D01*
X48486Y-29745D01*
X48330Y-29684D01*
X48175Y-29620D01*
X48167Y-29620D01*
X48160Y-29617D01*
X47993Y-29620D01*
X47825Y-29619D01*
X47818Y-29622D01*
X47810Y-29623D01*
X47513Y-29745D01*
X47512Y-29749D01*
X47502Y-29753D01*
X47254Y-30000D01*
X47249Y-30011D01*
X47245Y-30013D01*
X47184Y-30169D01*
X47120Y-30324D01*
X47120Y-30332D01*
X47117Y-30339D01*
X47120Y-30506D01*
X47119Y-30674D01*
X47122Y-30681D01*
X47123Y-30689D01*
X47245Y-30986D01*
X47249Y-30987D01*
X47253Y-30997D01*
X47500Y-31245D01*
X47511Y-31250D01*
X47513Y-31254D01*
X47669Y-31315D01*
X47824Y-31379D01*
X47832Y-31379D01*
X47839Y-31382D01*
X48006Y-31379D01*
X48174Y-31380D01*
X48181Y-31377D01*
X48189Y-31376D01*
X48486Y-31254D01*
X48487Y-31250D01*
X48497Y-31246D01*
X48745Y-30999D01*
X48750Y-30988D01*
X48754Y-30986D01*
X48815Y-30830D01*
X48879Y-30675D01*
X48879Y-30667D01*
X48882Y-30660D01*
X48882Y-34105D01*
X48719Y-33996D01*
X48510Y-33955D01*
X48489Y-33955D01*
X48280Y-33996D01*
X48103Y-34114D01*
X47985Y-34291D01*
X47944Y-34500D01*
X47985Y-34708D01*
X48103Y-34885D01*
X48275Y-35000D01*
X48103Y-35114D01*
X47985Y-35291D01*
X47944Y-35500D01*
X47985Y-35708D01*
X48103Y-35885D01*
X48275Y-36000D01*
X48103Y-36114D01*
X47985Y-36291D01*
X47944Y-36500D01*
X47985Y-36708D01*
X48103Y-36885D01*
X48275Y-37000D01*
X48103Y-37114D01*
X47985Y-37291D01*
X47944Y-37500D01*
X47985Y-37708D01*
X48103Y-37885D01*
X48280Y-38003D01*
X48489Y-38045D01*
X48510Y-38045D01*
X48719Y-38003D01*
X48896Y-37885D01*
X49014Y-37708D01*
X49055Y-37500D01*
X49014Y-37291D01*
X48949Y-37194D01*
X49252Y-37497D01*
X49252Y-37497D01*
X49366Y-37573D01*
X49499Y-37600D01*
X49499Y-37599D01*
X49500Y-37600D01*
X50500Y-37600D01*
X50633Y-37573D01*
X50633Y-37573D01*
X50650Y-37562D01*
X50650Y-42362D01*
X50549Y-42462D01*
X50392Y-42462D01*
X50191Y-42545D01*
X50148Y-42588D01*
X50130Y-42592D01*
X49984Y-42689D01*
X49984Y-42689D01*
X49984Y-42689D01*
X49719Y-42954D01*
X49703Y-42954D01*
X49502Y-43037D01*
X49349Y-43190D01*
X49266Y-43391D01*
X49265Y-43607D01*
X49348Y-43808D01*
X49501Y-43961D01*
X49702Y-44044D01*
X49818Y-44045D01*
X49813Y-44050D01*
X49750Y-44050D01*
X48186Y-44050D01*
X48095Y-43958D01*
X48095Y-43899D01*
X48247Y-43747D01*
X48323Y-43633D01*
X48323Y-43633D01*
X48350Y-43500D01*
X48350Y-39536D01*
X48517Y-39503D01*
X48693Y-39385D01*
X48812Y-39208D01*
X48853Y-39000D01*
X48812Y-38791D01*
X48693Y-38614D01*
X48517Y-38496D01*
X48308Y-38455D01*
X47986Y-38455D01*
X47956Y-38461D01*
X45747Y-36252D01*
X45633Y-36176D01*
X45500Y-36150D01*
X45000Y-36150D01*
X44919Y-36150D01*
X44896Y-36114D01*
X44724Y-36000D01*
X44799Y-35950D01*
X45000Y-35950D01*
X45172Y-35915D01*
X45318Y-35818D01*
X46818Y-34318D01*
X46818Y-34318D01*
X46883Y-34220D01*
X46915Y-34172D01*
X46915Y-34172D01*
X46949Y-34000D01*
X46950Y-34000D01*
X46950Y-30788D01*
X47006Y-30731D01*
X47044Y-30639D01*
X47045Y-30540D01*
X47045Y-29655D01*
X47007Y-29563D01*
X46936Y-29493D01*
X46844Y-29455D01*
X46745Y-29454D01*
X46155Y-29454D01*
X46063Y-29492D01*
X45993Y-29563D01*
X45955Y-29655D01*
X45954Y-29754D01*
X45954Y-30639D01*
X45992Y-30731D01*
X46050Y-30788D01*
X46050Y-33813D01*
X44813Y-35050D01*
X44799Y-35050D01*
X44724Y-34999D01*
X44896Y-34885D01*
X45014Y-34708D01*
X45055Y-34500D01*
X45014Y-34291D01*
X44896Y-34114D01*
X44850Y-34083D01*
X44850Y-33000D01*
X44823Y-32866D01*
X44747Y-32752D01*
X43330Y-31335D01*
X43345Y-31261D01*
X43345Y-31238D01*
X43299Y-31010D01*
X43179Y-30830D01*
X43236Y-30807D01*
X43306Y-30736D01*
X43344Y-30644D01*
X43345Y-30545D01*
X43345Y-29855D01*
X43307Y-29763D01*
X43236Y-29693D01*
X43144Y-29655D01*
X43100Y-29655D01*
X43100Y-27991D01*
X43254Y-27837D01*
X43344Y-27618D01*
X43344Y-27541D01*
X43936Y-26950D01*
X44256Y-26950D01*
X44193Y-27013D01*
X44155Y-27105D01*
X44154Y-27204D01*
X44154Y-27894D01*
X44192Y-27986D01*
X44263Y-28056D01*
X44355Y-28094D01*
X44454Y-28095D01*
X45144Y-28095D01*
X45236Y-28057D01*
X45306Y-27986D01*
X45344Y-27894D01*
X45345Y-27795D01*
X45345Y-27105D01*
X45307Y-27013D01*
X45243Y-26950D01*
X45250Y-26950D01*
X45813Y-26950D01*
X45974Y-27110D01*
X45996Y-27222D01*
X46114Y-27398D01*
X46291Y-27517D01*
X46500Y-27558D01*
X46708Y-27517D01*
X46885Y-27398D01*
X47003Y-27222D01*
X47045Y-27013D01*
X47045Y-26691D01*
X47003Y-26482D01*
X46885Y-26306D01*
X46876Y-26300D01*
X52200Y-26300D01*
X52200Y-45200D01*
X52200Y-45200D01*
G37*
G54D25*
X52200Y-45200D02*
X43632Y-45200D01*
X43632Y-41160D01*
X43629Y-40993D01*
X43630Y-40825D01*
X43627Y-40818D01*
X43626Y-40810D01*
X43504Y-40513D01*
X43500Y-40512D01*
X43496Y-40502D01*
X43249Y-40254D01*
X43238Y-40249D01*
X43236Y-40245D01*
X43080Y-40184D01*
X42925Y-40120D01*
X42917Y-40120D01*
X42910Y-40117D01*
X42743Y-40120D01*
X42575Y-40119D01*
X42568Y-40122D01*
X42560Y-40123D01*
X42263Y-40245D01*
X42262Y-40249D01*
X42252Y-40253D01*
X42004Y-40500D01*
X41999Y-40511D01*
X41995Y-40513D01*
X41934Y-40669D01*
X41870Y-40824D01*
X41870Y-40832D01*
X41867Y-40839D01*
X41870Y-41006D01*
X41869Y-41174D01*
X41872Y-41181D01*
X41873Y-41189D01*
X41995Y-41486D01*
X41999Y-41487D01*
X42003Y-41497D01*
X42250Y-41745D01*
X42261Y-41750D01*
X42263Y-41754D01*
X42419Y-41815D01*
X42574Y-41879D01*
X42582Y-41879D01*
X42589Y-41882D01*
X42756Y-41879D01*
X42924Y-41880D01*
X42931Y-41877D01*
X42939Y-41876D01*
X43236Y-41754D01*
X43237Y-41750D01*
X43247Y-41746D01*
X43495Y-41499D01*
X43500Y-41488D01*
X43504Y-41486D01*
X43565Y-41330D01*
X43629Y-41175D01*
X43629Y-41167D01*
X43632Y-41160D01*
X43632Y-45200D01*
X39436Y-45200D01*
X40041Y-44595D01*
X40117Y-44595D01*
X40336Y-44504D01*
X40504Y-44337D01*
X40594Y-44118D01*
X40595Y-43899D01*
X40747Y-43747D01*
X40823Y-43633D01*
X40823Y-43633D01*
X40850Y-43500D01*
X40850Y-39536D01*
X41017Y-39503D01*
X41193Y-39385D01*
X41312Y-39208D01*
X41353Y-39000D01*
X41312Y-38791D01*
X41193Y-38614D01*
X41017Y-38496D01*
X40808Y-38455D01*
X40600Y-38455D01*
X40600Y-37879D01*
X40603Y-37885D01*
X40780Y-38003D01*
X40989Y-38045D01*
X41010Y-38045D01*
X41219Y-38003D01*
X41396Y-37885D01*
X41514Y-37708D01*
X41555Y-37500D01*
X41514Y-37291D01*
X41396Y-37114D01*
X41224Y-37000D01*
X41396Y-36885D01*
X41514Y-36708D01*
X41555Y-36500D01*
X41514Y-36291D01*
X41396Y-36114D01*
X41224Y-36000D01*
X41299Y-35950D01*
X41900Y-35950D01*
X41808Y-35987D01*
X41738Y-36058D01*
X41700Y-36150D01*
X41699Y-36249D01*
X41699Y-36849D01*
X41737Y-36941D01*
X41808Y-37011D01*
X41900Y-37049D01*
X41999Y-37050D01*
X42599Y-37050D01*
X42691Y-37012D01*
X42761Y-36941D01*
X42799Y-36849D01*
X42799Y-36830D01*
X42818Y-36818D01*
X43050Y-36586D01*
X43050Y-37197D01*
X42996Y-37277D01*
X42955Y-37486D01*
X42955Y-37808D01*
X42996Y-38017D01*
X43050Y-38097D01*
X43050Y-38250D01*
X43084Y-38422D01*
X43181Y-38568D01*
X43931Y-39318D01*
X43931Y-39318D01*
X44068Y-39409D01*
X44050Y-39500D01*
X44050Y-41000D01*
X44084Y-41172D01*
X44181Y-41318D01*
X44681Y-41818D01*
X44827Y-41915D01*
X44921Y-41934D01*
X44942Y-41986D01*
X45013Y-42056D01*
X45050Y-42072D01*
X45050Y-43427D01*
X45013Y-43442D01*
X44943Y-43513D01*
X44905Y-43605D01*
X44904Y-43704D01*
X44904Y-44394D01*
X44942Y-44486D01*
X45013Y-44556D01*
X45105Y-44594D01*
X45204Y-44595D01*
X45894Y-44595D01*
X45986Y-44557D01*
X46056Y-44486D01*
X46094Y-44394D01*
X46095Y-44295D01*
X46095Y-43605D01*
X46057Y-43513D01*
X45986Y-43443D01*
X45950Y-43427D01*
X45950Y-42072D01*
X45986Y-42057D01*
X46056Y-41986D01*
X46094Y-41894D01*
X46095Y-41795D01*
X46095Y-41105D01*
X46057Y-41013D01*
X45986Y-40943D01*
X45929Y-40919D01*
X46049Y-40739D01*
X46095Y-40511D01*
X46095Y-40488D01*
X46073Y-40381D01*
X46100Y-40250D01*
X46100Y-38000D01*
X46073Y-37866D01*
X46073Y-37866D01*
X45997Y-37752D01*
X45497Y-37252D01*
X45383Y-37176D01*
X45250Y-37150D01*
X44919Y-37150D01*
X44896Y-37114D01*
X44724Y-37000D01*
X44896Y-36885D01*
X44919Y-36850D01*
X45000Y-36850D01*
X45355Y-36850D01*
X47451Y-38946D01*
X47441Y-39000D01*
X47482Y-39208D01*
X47601Y-39385D01*
X47650Y-39418D01*
X47650Y-43355D01*
X47599Y-43405D01*
X47382Y-43404D01*
X47163Y-43495D01*
X46995Y-43662D01*
X46905Y-43881D01*
X46904Y-44117D01*
X46995Y-44336D01*
X47162Y-44504D01*
X47381Y-44594D01*
X47458Y-44594D01*
X47681Y-44818D01*
X47827Y-44915D01*
X48000Y-44950D01*
X49750Y-44950D01*
X50000Y-44950D01*
X50172Y-44915D01*
X50318Y-44818D01*
X50599Y-44537D01*
X50607Y-44537D01*
X50808Y-44454D01*
X50851Y-44411D01*
X50869Y-44407D01*
X51015Y-44310D01*
X51280Y-44045D01*
X51296Y-44045D01*
X51497Y-43962D01*
X51650Y-43809D01*
X51733Y-43608D01*
X51734Y-43392D01*
X51651Y-43191D01*
X51498Y-43038D01*
X51297Y-42955D01*
X51081Y-42954D01*
X51045Y-42969D01*
X51045Y-42957D01*
X51247Y-42755D01*
X51323Y-42641D01*
X51323Y-42641D01*
X51350Y-42507D01*
X51350Y-36967D01*
X51385Y-36943D01*
X51503Y-36767D01*
X51545Y-36558D01*
X51545Y-36236D01*
X51503Y-36027D01*
X51385Y-35851D01*
X51208Y-35732D01*
X51045Y-35700D01*
X51045Y-35441D01*
X51003Y-35232D01*
X50885Y-35056D01*
X50708Y-34937D01*
X50500Y-34896D01*
X50291Y-34937D01*
X50114Y-35056D01*
X50051Y-35150D01*
X48919Y-35150D01*
X48896Y-35114D01*
X48724Y-34999D01*
X48896Y-34885D01*
X49014Y-34708D01*
X49055Y-34500D01*
X49014Y-34291D01*
X48896Y-34114D01*
X48882Y-34105D01*
X48882Y-30660D01*
X48879Y-30493D01*
X48880Y-30325D01*
X48877Y-30318D01*
X48876Y-30310D01*
X48754Y-30013D01*
X48750Y-30012D01*
X48746Y-30002D01*
X48499Y-29754D01*
X48488Y-29749D01*
X48486Y-29745D01*
X48330Y-29684D01*
X48175Y-29620D01*
X48167Y-29620D01*
X48160Y-29617D01*
X47993Y-29620D01*
X47825Y-29619D01*
X47818Y-29622D01*
X47810Y-29623D01*
X47513Y-29745D01*
X47512Y-29749D01*
X47502Y-29753D01*
X47254Y-30000D01*
X47249Y-30011D01*
X47245Y-30013D01*
X47184Y-30169D01*
X47120Y-30324D01*
X47120Y-30332D01*
X47117Y-30339D01*
X47120Y-30506D01*
X47119Y-30674D01*
X47122Y-30681D01*
X47123Y-30689D01*
X47245Y-30986D01*
X47249Y-30987D01*
X47253Y-30997D01*
X47500Y-31245D01*
X47511Y-31250D01*
X47513Y-31254D01*
X47669Y-31315D01*
X47824Y-31379D01*
X47832Y-31379D01*
X47839Y-31382D01*
X48006Y-31379D01*
X48174Y-31380D01*
X48181Y-31377D01*
X48189Y-31376D01*
X48486Y-31254D01*
X48487Y-31250D01*
X48497Y-31246D01*
X48745Y-30999D01*
X48750Y-30988D01*
X48754Y-30986D01*
X48815Y-30830D01*
X48879Y-30675D01*
X48879Y-30667D01*
X48882Y-30660D01*
X48882Y-34105D01*
X48719Y-33996D01*
X48510Y-33955D01*
X48489Y-33955D01*
X48280Y-33996D01*
X48103Y-34114D01*
X47985Y-34291D01*
X47944Y-34500D01*
X47985Y-34708D01*
X48103Y-34885D01*
X48275Y-35000D01*
X48103Y-35114D01*
X47985Y-35291D01*
X47944Y-35500D01*
X47985Y-35708D01*
X48103Y-35885D01*
X48275Y-36000D01*
X48103Y-36114D01*
X47985Y-36291D01*
X47944Y-36500D01*
X47985Y-36708D01*
X48103Y-36885D01*
X48275Y-37000D01*
X48103Y-37114D01*
X47985Y-37291D01*
X47944Y-37500D01*
X47985Y-37708D01*
X48103Y-37885D01*
X48280Y-38003D01*
X48489Y-38045D01*
X48510Y-38045D01*
X48719Y-38003D01*
X48896Y-37885D01*
X49014Y-37708D01*
X49055Y-37500D01*
X49014Y-37291D01*
X48949Y-37194D01*
X49252Y-37497D01*
X49252Y-37497D01*
X49366Y-37573D01*
X49499Y-37600D01*
X49499Y-37599D01*
X49500Y-37600D01*
X50500Y-37600D01*
X50633Y-37573D01*
X50633Y-37573D01*
X50650Y-37562D01*
X50650Y-42362D01*
X50549Y-42462D01*
X50392Y-42462D01*
X50191Y-42545D01*
X50148Y-42588D01*
X50130Y-42592D01*
X49984Y-42689D01*
X49984Y-42689D01*
X49984Y-42689D01*
X49719Y-42954D01*
X49703Y-42954D01*
X49502Y-43037D01*
X49349Y-43190D01*
X49266Y-43391D01*
X49265Y-43607D01*
X49348Y-43808D01*
X49501Y-43961D01*
X49702Y-44044D01*
X49818Y-44045D01*
X49813Y-44050D01*
X49750Y-44050D01*
X48186Y-44050D01*
X48095Y-43958D01*
X48095Y-43899D01*
X48247Y-43747D01*
X48323Y-43633D01*
X48323Y-43633D01*
X48350Y-43500D01*
X48350Y-39536D01*
X48517Y-39503D01*
X48693Y-39385D01*
X48812Y-39208D01*
X48853Y-39000D01*
X48812Y-38791D01*
X48693Y-38614D01*
X48517Y-38496D01*
X48308Y-38455D01*
X47986Y-38455D01*
X47956Y-38461D01*
X45747Y-36252D01*
X45633Y-36176D01*
X45500Y-36150D01*
X45000Y-36150D01*
X44919Y-36150D01*
X44896Y-36114D01*
X44724Y-36000D01*
X44799Y-35950D01*
X45000Y-35950D01*
X45172Y-35915D01*
X45318Y-35818D01*
X46818Y-34318D01*
X46818Y-34318D01*
X46883Y-34220D01*
X46915Y-34172D01*
X46915Y-34172D01*
X46949Y-34000D01*
X46950Y-34000D01*
X46950Y-30788D01*
X47006Y-30731D01*
X47044Y-30639D01*
X47045Y-30540D01*
X47045Y-29655D01*
X47007Y-29563D01*
X46936Y-29493D01*
X46844Y-29455D01*
X46745Y-29454D01*
X46155Y-29454D01*
X46063Y-29492D01*
X45993Y-29563D01*
X45955Y-29655D01*
X45954Y-29754D01*
X45954Y-30639D01*
X45992Y-30731D01*
X46050Y-30788D01*
X46050Y-33813D01*
X44813Y-35050D01*
X44799Y-35050D01*
X44724Y-34999D01*
X44896Y-34885D01*
X45014Y-34708D01*
X45055Y-34500D01*
X45014Y-34291D01*
X44896Y-34114D01*
X44850Y-34083D01*
X44850Y-33000D01*
X44823Y-32866D01*
X44747Y-32752D01*
X43330Y-31335D01*
X43345Y-31261D01*
X43345Y-31238D01*
X43299Y-31010D01*
X43179Y-30830D01*
X43236Y-30807D01*
X43306Y-30736D01*
X43344Y-30644D01*
X43345Y-30545D01*
X43345Y-29855D01*
X43307Y-29763D01*
X43236Y-29693D01*
X43144Y-29655D01*
X43100Y-29655D01*
X43100Y-27991D01*
X43254Y-27837D01*
X43344Y-27618D01*
X43344Y-27541D01*
X43936Y-26950D01*
X44256Y-26950D01*
X44193Y-27013D01*
X44155Y-27105D01*
X44154Y-27204D01*
X44154Y-27894D01*
X44192Y-27986D01*
X44263Y-28056D01*
X44355Y-28094D01*
X44454Y-28095D01*
X45144Y-28095D01*
X45236Y-28057D01*
X45306Y-27986D01*
X45344Y-27894D01*
X45345Y-27795D01*
X45345Y-27105D01*
X45307Y-27013D01*
X45243Y-26950D01*
X45250Y-26950D01*
X45813Y-26950D01*
X45974Y-27110D01*
X45996Y-27222D01*
X46114Y-27398D01*
X46291Y-27517D01*
X46500Y-27558D01*
X46708Y-27517D01*
X46885Y-27398D01*
X47003Y-27222D01*
X47045Y-27013D01*
X47045Y-26691D01*
X47003Y-26482D01*
X46885Y-26306D01*
X46876Y-26300D01*
X52200Y-26300D01*
X52200Y-45200D01*
M02*
