M48
;DRILL file {Pcbnew (2013-07-07 BZR 4022)-stable} date 3/21/2015 3:58:07 AM
;FORMAT={-:-/ absolute / inch / decimal}
FMAT,2
INCH,TZ
T1C0.032
T2C0.040
T3C0.126
%
G90
G05
M72
T1
X3.4Y-2.7
X3.4311Y-4.35
X3.45Y-3.625
X3.5Y-3.05
X3.5Y-3.45
X3.5Y-3.575
X3.5Y-4.3008
X3.5Y-4.3992
X3.55Y-3.625
X3.5689Y-4.35
X3.7Y-3.4
X3.7Y-3.5
X3.7Y-3.65
X3.7Y-3.75
X3.7Y-3.85
X3.75Y-3.95
X3.8Y-2.7
X3.9Y-2.7
X3.9Y-3.
X4.05Y-3.95
X4.1Y-3.4
X4.1Y-3.5
X4.1Y-3.65
X4.1Y-3.75
X4.1Y-3.85
X4.275Y-3.6
X4.275Y-3.9
X4.45Y-3.4
X4.45Y-3.5
X4.45Y-3.65
X4.45Y-3.75
X4.45Y-3.85
X4.5Y-3.95
X4.65Y-2.7
X4.65Y-3.
X4.75Y-2.7
X4.8Y-3.95
X4.85Y-3.4
X4.85Y-3.5
X4.85Y-3.65
X4.85Y-3.75
X4.85Y-3.85
X4.9811Y-4.35
X5.Y-3.625
X5.05Y-3.05
X5.05Y-3.45
X5.05Y-3.575
X5.05Y-4.3008
X5.05Y-4.3992
X5.1Y-3.625
X5.1189Y-4.35
X5.15Y-2.7
T2
X3.8Y-4.05
X3.8Y-4.15
X3.8Y-4.4
X4.Y-4.4
X4.075Y-2.75
X4.075Y-3.025
X4.075Y-3.125
X4.275Y-2.75
X4.275Y-3.025
X4.275Y-3.125
X4.275Y-3.4
X4.275Y-3.5
X4.475Y-2.75
X4.55Y-4.05
X4.55Y-4.15
X4.55Y-4.4
X4.75Y-4.4
T3
X3.75Y-3.05
X4.275Y-4.1
X4.8Y-3.05
T0
M30
