G04 (created by PCBNEW (2013-07-07 BZR 4022)-stable) date 3/21/2015 3:58:04 AM*
%MOIN*%
G04 Gerber Fmt 3.4, Leading zero omitted, Abs format*
%FSLAX34Y34*%
G01*
G70*
G90*
G04 APERTURE LIST*
%ADD10C,0.00590551*%
%ADD11C,0.008*%
%ADD12C,0.0001*%
G04 APERTURE END LIST*
G54D10*
G54D11*
X48869Y-32645D02*
X48869Y-32969D01*
X48888Y-33007D01*
X48907Y-33026D01*
X48945Y-33045D01*
X49002Y-33045D01*
X49040Y-33026D01*
X48869Y-32892D02*
X48907Y-32911D01*
X48983Y-32911D01*
X49021Y-32892D01*
X49040Y-32873D01*
X49059Y-32835D01*
X49059Y-32721D01*
X49040Y-32683D01*
X49021Y-32664D01*
X48983Y-32645D01*
X48907Y-32645D01*
X48869Y-32664D01*
X48678Y-32911D02*
X48678Y-32645D01*
X48678Y-32511D02*
X48697Y-32530D01*
X48678Y-32550D01*
X48659Y-32530D01*
X48678Y-32511D01*
X48678Y-32550D01*
X48545Y-32645D02*
X48392Y-32645D01*
X48488Y-32511D02*
X48488Y-32854D01*
X48469Y-32892D01*
X48430Y-32911D01*
X48392Y-32911D01*
X48259Y-32911D02*
X48259Y-32511D01*
X48088Y-32911D02*
X48088Y-32702D01*
X48107Y-32664D01*
X48145Y-32645D01*
X48202Y-32645D01*
X48240Y-32664D01*
X48259Y-32683D01*
X47726Y-32645D02*
X47726Y-32911D01*
X47897Y-32645D02*
X47897Y-32854D01*
X47878Y-32892D01*
X47840Y-32911D01*
X47783Y-32911D01*
X47745Y-32892D01*
X47726Y-32873D01*
X47535Y-32911D02*
X47535Y-32511D01*
X47535Y-32664D02*
X47497Y-32645D01*
X47421Y-32645D01*
X47383Y-32664D01*
X47364Y-32683D01*
X47345Y-32721D01*
X47345Y-32835D01*
X47364Y-32873D01*
X47383Y-32892D01*
X47421Y-32911D01*
X47497Y-32911D01*
X47535Y-32892D01*
X47173Y-32873D02*
X47154Y-32892D01*
X47173Y-32911D01*
X47192Y-32892D01*
X47173Y-32873D01*
X47173Y-32911D01*
X46811Y-32892D02*
X46849Y-32911D01*
X46926Y-32911D01*
X46964Y-32892D01*
X46983Y-32873D01*
X47002Y-32835D01*
X47002Y-32721D01*
X46983Y-32683D01*
X46964Y-32664D01*
X46926Y-32645D01*
X46849Y-32645D01*
X46811Y-32664D01*
X46583Y-32911D02*
X46621Y-32892D01*
X46640Y-32873D01*
X46659Y-32835D01*
X46659Y-32721D01*
X46640Y-32683D01*
X46621Y-32664D01*
X46583Y-32645D01*
X46526Y-32645D01*
X46488Y-32664D01*
X46469Y-32683D01*
X46449Y-32721D01*
X46449Y-32835D01*
X46469Y-32873D01*
X46488Y-32892D01*
X46526Y-32911D01*
X46583Y-32911D01*
X46278Y-32911D02*
X46278Y-32645D01*
X46278Y-32683D02*
X46259Y-32664D01*
X46221Y-32645D01*
X46164Y-32645D01*
X46126Y-32664D01*
X46107Y-32702D01*
X46107Y-32911D01*
X46107Y-32702D02*
X46088Y-32664D01*
X46049Y-32645D01*
X45992Y-32645D01*
X45954Y-32664D01*
X45935Y-32702D01*
X45935Y-32911D01*
X45459Y-32492D02*
X45802Y-33007D01*
X45326Y-32645D02*
X45326Y-33045D01*
X45326Y-32664D02*
X45288Y-32645D01*
X45211Y-32645D01*
X45173Y-32664D01*
X45154Y-32683D01*
X45135Y-32721D01*
X45135Y-32835D01*
X45154Y-32873D01*
X45173Y-32892D01*
X45211Y-32911D01*
X45288Y-32911D01*
X45326Y-32892D01*
X44811Y-32892D02*
X44849Y-32911D01*
X44926Y-32911D01*
X44964Y-32892D01*
X44983Y-32854D01*
X44983Y-32702D01*
X44964Y-32664D01*
X44926Y-32645D01*
X44849Y-32645D01*
X44811Y-32664D01*
X44792Y-32702D01*
X44792Y-32740D01*
X44983Y-32778D01*
X44621Y-32645D02*
X44621Y-33045D01*
X44621Y-32664D02*
X44583Y-32645D01*
X44507Y-32645D01*
X44469Y-32664D01*
X44449Y-32683D01*
X44430Y-32721D01*
X44430Y-32835D01*
X44449Y-32873D01*
X44469Y-32892D01*
X44507Y-32911D01*
X44583Y-32911D01*
X44621Y-32892D01*
X44088Y-32911D02*
X44088Y-32702D01*
X44107Y-32664D01*
X44145Y-32645D01*
X44221Y-32645D01*
X44259Y-32664D01*
X44088Y-32892D02*
X44126Y-32911D01*
X44221Y-32911D01*
X44259Y-32892D01*
X44278Y-32854D01*
X44278Y-32816D01*
X44259Y-32778D01*
X44221Y-32759D01*
X44126Y-32759D01*
X44088Y-32740D01*
X43916Y-32892D02*
X43878Y-32911D01*
X43802Y-32911D01*
X43764Y-32892D01*
X43745Y-32854D01*
X43745Y-32835D01*
X43764Y-32797D01*
X43802Y-32778D01*
X43859Y-32778D01*
X43897Y-32759D01*
X43916Y-32721D01*
X43916Y-32702D01*
X43897Y-32664D01*
X43859Y-32645D01*
X43802Y-32645D01*
X43764Y-32664D01*
X43516Y-32911D02*
X43554Y-32892D01*
X43573Y-32854D01*
X43573Y-32511D01*
X43192Y-32911D02*
X43192Y-32702D01*
X43211Y-32664D01*
X43249Y-32645D01*
X43326Y-32645D01*
X43364Y-32664D01*
X43192Y-32892D02*
X43230Y-32911D01*
X43326Y-32911D01*
X43364Y-32892D01*
X43383Y-32854D01*
X43383Y-32816D01*
X43364Y-32778D01*
X43326Y-32759D01*
X43230Y-32759D01*
X43192Y-32740D01*
X43002Y-32911D02*
X43002Y-32511D01*
X43002Y-32664D02*
X42964Y-32645D01*
X42888Y-32645D01*
X42849Y-32664D01*
X42830Y-32683D01*
X42811Y-32721D01*
X42811Y-32835D01*
X42830Y-32873D01*
X42849Y-32892D01*
X42888Y-32911D01*
X42964Y-32911D01*
X43002Y-32892D01*
X42659Y-32892D02*
X42621Y-32911D01*
X42545Y-32911D01*
X42507Y-32892D01*
X42488Y-32854D01*
X42488Y-32835D01*
X42507Y-32797D01*
X42545Y-32778D01*
X42602Y-32778D01*
X42640Y-32759D01*
X42659Y-32721D01*
X42659Y-32702D01*
X42640Y-32664D01*
X42602Y-32645D01*
X42545Y-32645D01*
X42507Y-32664D01*
X42030Y-32492D02*
X42373Y-33007D01*
X41897Y-32911D02*
X41897Y-32511D01*
X41897Y-32702D02*
X41669Y-32702D01*
X41669Y-32911D02*
X41669Y-32511D01*
X41326Y-32892D02*
X41364Y-32911D01*
X41440Y-32911D01*
X41478Y-32892D01*
X41497Y-32854D01*
X41497Y-32702D01*
X41478Y-32664D01*
X41440Y-32645D01*
X41364Y-32645D01*
X41326Y-32664D01*
X41307Y-32702D01*
X41307Y-32740D01*
X41497Y-32778D01*
X40964Y-32911D02*
X40964Y-32702D01*
X40983Y-32664D01*
X41021Y-32645D01*
X41097Y-32645D01*
X41135Y-32664D01*
X40964Y-32892D02*
X41002Y-32911D01*
X41097Y-32911D01*
X41135Y-32892D01*
X41154Y-32854D01*
X41154Y-32816D01*
X41135Y-32778D01*
X41097Y-32759D01*
X41002Y-32759D01*
X40964Y-32740D01*
X40602Y-32911D02*
X40602Y-32511D01*
X40602Y-32892D02*
X40640Y-32911D01*
X40716Y-32911D01*
X40754Y-32892D01*
X40773Y-32873D01*
X40792Y-32835D01*
X40792Y-32721D01*
X40773Y-32683D01*
X40754Y-32664D01*
X40716Y-32645D01*
X40640Y-32645D01*
X40602Y-32664D01*
X40354Y-32911D02*
X40392Y-32892D01*
X40411Y-32854D01*
X40411Y-32511D01*
X40202Y-32911D02*
X40202Y-32645D01*
X40202Y-32511D02*
X40221Y-32530D01*
X40202Y-32550D01*
X40183Y-32530D01*
X40202Y-32511D01*
X40202Y-32550D01*
X39840Y-32645D02*
X39840Y-32969D01*
X39859Y-33007D01*
X39878Y-33026D01*
X39916Y-33045D01*
X39973Y-33045D01*
X40011Y-33026D01*
X39840Y-32892D02*
X39878Y-32911D01*
X39954Y-32911D01*
X39992Y-32892D01*
X40011Y-32873D01*
X40030Y-32835D01*
X40030Y-32721D01*
X40011Y-32683D01*
X39992Y-32664D01*
X39954Y-32645D01*
X39878Y-32645D01*
X39840Y-32664D01*
X39649Y-32911D02*
X39649Y-32511D01*
X39478Y-32911D02*
X39478Y-32702D01*
X39497Y-32664D01*
X39535Y-32645D01*
X39592Y-32645D01*
X39630Y-32664D01*
X39649Y-32683D01*
X39345Y-32645D02*
X39192Y-32645D01*
X39288Y-32511D02*
X39288Y-32854D01*
X39269Y-32892D01*
X39230Y-32911D01*
X39192Y-32911D01*
X38830Y-32911D02*
X38964Y-32721D01*
X39059Y-32911D02*
X39059Y-32511D01*
X38907Y-32511D01*
X38869Y-32530D01*
X38850Y-32550D01*
X38830Y-32588D01*
X38830Y-32645D01*
X38850Y-32683D01*
X38869Y-32702D01*
X38907Y-32721D01*
X39059Y-32721D01*
X38507Y-32892D02*
X38545Y-32911D01*
X38621Y-32911D01*
X38659Y-32892D01*
X38678Y-32854D01*
X38678Y-32702D01*
X38659Y-32664D01*
X38621Y-32645D01*
X38545Y-32645D01*
X38507Y-32664D01*
X38488Y-32702D01*
X38488Y-32740D01*
X38678Y-32778D01*
X38259Y-32911D02*
X38297Y-32892D01*
X38316Y-32854D01*
X38316Y-32511D01*
X37935Y-32911D02*
X37935Y-32702D01*
X37954Y-32664D01*
X37992Y-32645D01*
X38069Y-32645D01*
X38107Y-32664D01*
X37935Y-32892D02*
X37973Y-32911D01*
X38069Y-32911D01*
X38107Y-32892D01*
X38126Y-32854D01*
X38126Y-32816D01*
X38107Y-32778D01*
X38069Y-32759D01*
X37973Y-32759D01*
X37935Y-32740D01*
X37783Y-32645D02*
X37688Y-32911D01*
X37592Y-32645D02*
X37688Y-32911D01*
X37726Y-33007D01*
X37745Y-33026D01*
X37783Y-33045D01*
X37211Y-32873D02*
X37230Y-32892D01*
X37288Y-32911D01*
X37326Y-32911D01*
X37383Y-32892D01*
X37421Y-32854D01*
X37440Y-32816D01*
X37459Y-32740D01*
X37459Y-32683D01*
X37440Y-32607D01*
X37421Y-32569D01*
X37383Y-32530D01*
X37326Y-32511D01*
X37288Y-32511D01*
X37230Y-32530D01*
X37211Y-32550D01*
X36983Y-32911D02*
X37021Y-32892D01*
X37040Y-32873D01*
X37059Y-32835D01*
X37059Y-32721D01*
X37040Y-32683D01*
X37021Y-32664D01*
X36983Y-32645D01*
X36926Y-32645D01*
X36888Y-32664D01*
X36869Y-32683D01*
X36850Y-32721D01*
X36850Y-32835D01*
X36869Y-32873D01*
X36888Y-32892D01*
X36926Y-32911D01*
X36983Y-32911D01*
X36678Y-32645D02*
X36678Y-32911D01*
X36678Y-32683D02*
X36659Y-32664D01*
X36621Y-32645D01*
X36564Y-32645D01*
X36526Y-32664D01*
X36507Y-32702D01*
X36507Y-32911D01*
X36373Y-32645D02*
X36221Y-32645D01*
X36316Y-32511D02*
X36316Y-32854D01*
X36297Y-32892D01*
X36259Y-32911D01*
X36221Y-32911D01*
X36088Y-32911D02*
X36088Y-32645D01*
X36088Y-32721D02*
X36069Y-32683D01*
X36050Y-32664D01*
X36011Y-32645D01*
X35973Y-32645D01*
X35783Y-32911D02*
X35821Y-32892D01*
X35840Y-32873D01*
X35859Y-32835D01*
X35859Y-32721D01*
X35840Y-32683D01*
X35821Y-32664D01*
X35783Y-32645D01*
X35726Y-32645D01*
X35688Y-32664D01*
X35669Y-32683D01*
X35650Y-32721D01*
X35650Y-32835D01*
X35669Y-32873D01*
X35688Y-32892D01*
X35726Y-32911D01*
X35783Y-32911D01*
X35421Y-32911D02*
X35459Y-32892D01*
X35478Y-32854D01*
X35478Y-32511D01*
G54D12*
G36*
X43704Y-44914D02*
X43688Y-44906D01*
X43651Y-44883D01*
X43598Y-44848D01*
X43536Y-44807D01*
X43474Y-44764D01*
X43423Y-44730D01*
X43387Y-44707D01*
X43372Y-44699D01*
X43364Y-44701D01*
X43334Y-44716D01*
X43291Y-44738D01*
X43266Y-44751D01*
X43227Y-44768D01*
X43207Y-44772D01*
X43204Y-44766D01*
X43189Y-44736D01*
X43167Y-44684D01*
X43137Y-44616D01*
X43103Y-44536D01*
X43066Y-44450D01*
X43030Y-44362D01*
X42995Y-44278D01*
X42964Y-44203D01*
X42939Y-44142D01*
X42923Y-44099D01*
X42917Y-44081D01*
X42919Y-44077D01*
X42939Y-44058D01*
X42973Y-44032D01*
X43048Y-43971D01*
X43121Y-43879D01*
X43166Y-43775D01*
X43181Y-43659D01*
X43168Y-43552D01*
X43126Y-43449D01*
X43054Y-43356D01*
X42967Y-43287D01*
X42865Y-43243D01*
X42750Y-43229D01*
X42640Y-43241D01*
X42535Y-43283D01*
X42442Y-43354D01*
X42403Y-43399D01*
X42349Y-43493D01*
X42318Y-43594D01*
X42315Y-43619D01*
X42319Y-43730D01*
X42352Y-43836D01*
X42410Y-43931D01*
X42491Y-44008D01*
X42502Y-44016D01*
X42539Y-44044D01*
X42564Y-44063D01*
X42584Y-44079D01*
X42443Y-44418D01*
X42421Y-44472D01*
X42382Y-44565D01*
X42348Y-44645D01*
X42321Y-44708D01*
X42302Y-44751D01*
X42294Y-44768D01*
X42293Y-44769D01*
X42281Y-44771D01*
X42255Y-44761D01*
X42208Y-44738D01*
X42176Y-44722D01*
X42140Y-44705D01*
X42124Y-44699D01*
X42110Y-44706D01*
X42076Y-44729D01*
X42025Y-44762D01*
X41965Y-44803D01*
X41907Y-44843D01*
X41854Y-44878D01*
X41815Y-44902D01*
X41796Y-44913D01*
X41793Y-44913D01*
X41777Y-44903D01*
X41746Y-44878D01*
X41700Y-44834D01*
X41635Y-44770D01*
X41625Y-44760D01*
X41571Y-44705D01*
X41527Y-44659D01*
X41498Y-44627D01*
X41488Y-44612D01*
X41488Y-44612D01*
X41497Y-44593D01*
X41522Y-44555D01*
X41557Y-44501D01*
X41600Y-44438D01*
X41712Y-44275D01*
X41650Y-44121D01*
X41631Y-44074D01*
X41607Y-44017D01*
X41590Y-43976D01*
X41580Y-43958D01*
X41564Y-43952D01*
X41521Y-43942D01*
X41460Y-43929D01*
X41388Y-43916D01*
X41318Y-43903D01*
X41255Y-43891D01*
X41210Y-43882D01*
X41190Y-43878D01*
X41185Y-43875D01*
X41181Y-43865D01*
X41178Y-43844D01*
X41177Y-43806D01*
X41176Y-43746D01*
X41176Y-43659D01*
X41176Y-43650D01*
X41177Y-43567D01*
X41178Y-43501D01*
X41180Y-43458D01*
X41183Y-43441D01*
X41183Y-43441D01*
X41203Y-43436D01*
X41247Y-43427D01*
X41310Y-43414D01*
X41385Y-43400D01*
X41389Y-43399D01*
X41464Y-43385D01*
X41526Y-43372D01*
X41570Y-43362D01*
X41588Y-43356D01*
X41592Y-43351D01*
X41607Y-43322D01*
X41629Y-43276D01*
X41653Y-43219D01*
X41678Y-43161D01*
X41699Y-43108D01*
X41713Y-43069D01*
X41717Y-43051D01*
X41717Y-43051D01*
X41706Y-43033D01*
X41680Y-42994D01*
X41644Y-42941D01*
X41600Y-42877D01*
X41597Y-42872D01*
X41554Y-42809D01*
X41519Y-42756D01*
X41496Y-42718D01*
X41488Y-42701D01*
X41488Y-42700D01*
X41502Y-42681D01*
X41534Y-42646D01*
X41580Y-42598D01*
X41635Y-42542D01*
X41653Y-42525D01*
X41714Y-42465D01*
X41756Y-42426D01*
X41783Y-42405D01*
X41796Y-42400D01*
X41796Y-42401D01*
X41815Y-42412D01*
X41855Y-42438D01*
X41909Y-42475D01*
X41973Y-42518D01*
X41977Y-42521D01*
X42040Y-42564D01*
X42092Y-42599D01*
X42130Y-42624D01*
X42146Y-42634D01*
X42149Y-42634D01*
X42174Y-42626D01*
X42219Y-42611D01*
X42274Y-42589D01*
X42332Y-42566D01*
X42385Y-42544D01*
X42425Y-42525D01*
X42444Y-42515D01*
X42444Y-42514D01*
X42451Y-42491D01*
X42462Y-42444D01*
X42475Y-42379D01*
X42490Y-42302D01*
X42492Y-42290D01*
X42506Y-42215D01*
X42518Y-42153D01*
X42527Y-42110D01*
X42532Y-42092D01*
X42542Y-42090D01*
X42579Y-42087D01*
X42635Y-42086D01*
X42703Y-42085D01*
X42774Y-42086D01*
X42843Y-42087D01*
X42903Y-42089D01*
X42945Y-42092D01*
X42963Y-42096D01*
X42964Y-42097D01*
X42970Y-42120D01*
X42980Y-42167D01*
X42994Y-42232D01*
X43009Y-42310D01*
X43011Y-42323D01*
X43025Y-42398D01*
X43038Y-42459D01*
X43047Y-42502D01*
X43052Y-42518D01*
X43058Y-42522D01*
X43089Y-42535D01*
X43139Y-42556D01*
X43202Y-42581D01*
X43346Y-42640D01*
X43522Y-42518D01*
X43539Y-42507D01*
X43602Y-42464D01*
X43655Y-42429D01*
X43691Y-42406D01*
X43706Y-42397D01*
X43707Y-42398D01*
X43725Y-42413D01*
X43760Y-42446D01*
X43808Y-42493D01*
X43863Y-42548D01*
X43904Y-42589D01*
X43953Y-42639D01*
X43984Y-42672D01*
X44001Y-42694D01*
X44007Y-42707D01*
X44005Y-42715D01*
X43994Y-42733D01*
X43968Y-42772D01*
X43932Y-42826D01*
X43889Y-42888D01*
X43853Y-42941D01*
X43815Y-43000D01*
X43790Y-43042D01*
X43781Y-43063D01*
X43783Y-43072D01*
X43796Y-43106D01*
X43817Y-43159D01*
X43843Y-43221D01*
X43905Y-43361D01*
X43997Y-43378D01*
X44052Y-43389D01*
X44130Y-43404D01*
X44204Y-43418D01*
X44320Y-43441D01*
X44324Y-43867D01*
X44306Y-43875D01*
X44289Y-43880D01*
X44246Y-43889D01*
X44185Y-43901D01*
X44112Y-43915D01*
X44051Y-43927D01*
X43988Y-43938D01*
X43944Y-43947D01*
X43924Y-43951D01*
X43919Y-43958D01*
X43903Y-43988D01*
X43881Y-44036D01*
X43857Y-44094D01*
X43832Y-44153D01*
X43810Y-44208D01*
X43794Y-44250D01*
X43789Y-44272D01*
X43797Y-44289D01*
X43821Y-44325D01*
X43855Y-44377D01*
X43897Y-44439D01*
X43940Y-44501D01*
X43975Y-44554D01*
X44000Y-44592D01*
X44010Y-44609D01*
X44005Y-44621D01*
X43981Y-44651D01*
X43934Y-44699D01*
X43865Y-44768D01*
X43853Y-44779D01*
X43798Y-44832D01*
X43751Y-44875D01*
X43719Y-44904D01*
X43704Y-44914D01*
X43704Y-44914D01*
G37*
M02*
