G04 (created by PCBNEW (2013-07-07 BZR 4022)-stable) date 3/21/2015 3:58:04 AM*
%MOIN*%
G04 Gerber Fmt 3.4, Leading zero omitted, Abs format*
%FSLAX34Y34*%
G01*
G70*
G90*
G04 APERTURE LIST*
%ADD10C,0.00590551*%
%ADD11O,0.059X0.0885*%
%ADD12R,0.069X0.069*%
%ADD13C,0.069*%
%ADD14O,0.059X0.059*%
%ADD15R,0.06X0.06*%
%ADD16C,0.06*%
%ADD17C,0.059*%
%ADD18O,0.069X0.069*%
%ADD19C,0.125984*%
%ADD20R,0.059X0.059*%
%ADD21C,0.04*%
%ADD22C,0.02*%
%ADD23C,0.01*%
G04 APERTURE END LIST*
G54D10*
G54D11*
X50000Y-36397D03*
X50500Y-35602D03*
X51000Y-36397D03*
X34500Y-36397D03*
X35000Y-35602D03*
X35500Y-36397D03*
G54D12*
X44750Y-27500D03*
G54D13*
X42750Y-27500D03*
X40750Y-27500D03*
G54D12*
X38000Y-44000D03*
G54D13*
X40000Y-44000D03*
G54D12*
X45500Y-44000D03*
G54D13*
X47500Y-44000D03*
G54D14*
X50500Y-34500D03*
X50500Y-30500D03*
X47500Y-27000D03*
X51500Y-27000D03*
X38000Y-27000D03*
X34000Y-27000D03*
X44500Y-38500D03*
X48500Y-38500D03*
X37000Y-38500D03*
X41000Y-38500D03*
X48500Y-36500D03*
X44500Y-36500D03*
X35000Y-34500D03*
X35000Y-30500D03*
X37000Y-36500D03*
X41000Y-36500D03*
G54D15*
X42750Y-35000D03*
G54D16*
X42750Y-34000D03*
G54D17*
X50500Y-43007D03*
X51188Y-43500D03*
X49811Y-43500D03*
X50500Y-43992D03*
X35000Y-43007D03*
X35688Y-43500D03*
X34311Y-43500D03*
X35000Y-43992D03*
G54D12*
X38000Y-40500D03*
G54D18*
X38000Y-41500D03*
G54D12*
X45500Y-41500D03*
G54D18*
X45500Y-40500D03*
G54D12*
X40750Y-30250D03*
G54D18*
X40750Y-31250D03*
G54D12*
X42750Y-30250D03*
G54D18*
X42750Y-31250D03*
G54D19*
X48000Y-30500D03*
X42750Y-41000D03*
X37500Y-30500D03*
G54D14*
X37000Y-37500D03*
X41000Y-37500D03*
X41000Y-35000D03*
X37000Y-35000D03*
X41000Y-34000D03*
X37000Y-34000D03*
X48500Y-37500D03*
X44500Y-37500D03*
X44500Y-35000D03*
X48500Y-35000D03*
X44500Y-34000D03*
X48500Y-34000D03*
G54D20*
X46500Y-30000D03*
G54D14*
X46500Y-27000D03*
G54D20*
X39000Y-30000D03*
G54D14*
X39000Y-27000D03*
G54D20*
X42750Y-36000D03*
G54D14*
X42750Y-39000D03*
G54D20*
X37500Y-39500D03*
G54D14*
X40500Y-39500D03*
G54D20*
X45000Y-39500D03*
G54D14*
X48000Y-39500D03*
G54D21*
X42750Y-39000D02*
X42750Y-38500D01*
X46500Y-31750D02*
X46500Y-30000D01*
X45750Y-32500D02*
X46500Y-31750D01*
X44500Y-32500D02*
X45750Y-32500D01*
X43750Y-33250D02*
X44500Y-32500D01*
X43750Y-33750D02*
X43750Y-33250D01*
X43750Y-37500D02*
X43750Y-33750D01*
X43500Y-37750D02*
X43750Y-37500D01*
X42750Y-38500D02*
X43500Y-37750D01*
X42750Y-39000D02*
X42750Y-39250D01*
X42750Y-39250D02*
X43000Y-39500D01*
X43000Y-39500D02*
X43750Y-39500D01*
X43750Y-39500D02*
X45000Y-39500D01*
X45500Y-41500D02*
X45000Y-41500D01*
X45000Y-41500D02*
X44500Y-41000D01*
X44500Y-41000D02*
X44500Y-40500D01*
X44500Y-40500D02*
X44500Y-40000D01*
X44500Y-40000D02*
X45000Y-39500D01*
G54D22*
X46500Y-30000D02*
X47500Y-29000D01*
X47500Y-29000D02*
X48500Y-29000D01*
X48500Y-29000D02*
X49500Y-30000D01*
X49500Y-30000D02*
X50000Y-30500D01*
X50000Y-30500D02*
X50500Y-30500D01*
G54D21*
X45500Y-41500D02*
X45500Y-44000D01*
X42750Y-27500D02*
X43750Y-26500D01*
X46000Y-26500D02*
X46500Y-27000D01*
X45250Y-26500D02*
X46000Y-26500D01*
X43750Y-26500D02*
X45250Y-26500D01*
G54D22*
X42750Y-27500D02*
X42750Y-30250D01*
G54D21*
X42750Y-34000D02*
X42750Y-33250D01*
X40000Y-32500D02*
X39000Y-31500D01*
X42000Y-32500D02*
X40000Y-32500D01*
X42750Y-33250D02*
X42000Y-32500D01*
X39000Y-30000D02*
X39000Y-31500D01*
X39000Y-31500D02*
X39000Y-34250D01*
X36750Y-39500D02*
X37500Y-39500D01*
X36250Y-39000D02*
X36750Y-39500D01*
X36250Y-36000D02*
X36250Y-39000D01*
X36500Y-35750D02*
X36250Y-36000D01*
X37500Y-35750D02*
X36500Y-35750D01*
X39000Y-34250D02*
X37500Y-35750D01*
X38000Y-40500D02*
X37750Y-40500D01*
X37250Y-43250D02*
X38000Y-44000D01*
X37250Y-41000D02*
X37250Y-43250D01*
X37750Y-40500D02*
X37250Y-41000D01*
X37500Y-39500D02*
X37500Y-40000D01*
X37500Y-40000D02*
X38000Y-40500D01*
G54D22*
X39000Y-30000D02*
X38000Y-29000D01*
X38000Y-29000D02*
X37000Y-29000D01*
X37000Y-29000D02*
X36000Y-30000D01*
X36000Y-30000D02*
X35500Y-30500D01*
X35500Y-30500D02*
X35000Y-30500D01*
X40750Y-27500D02*
X40750Y-30250D01*
G54D21*
X40750Y-27500D02*
X40250Y-27000D01*
X40250Y-27000D02*
X39000Y-27000D01*
G54D22*
X38000Y-41500D02*
X38500Y-41500D01*
X38000Y-38500D02*
X37000Y-38500D01*
X38750Y-39250D02*
X38000Y-38500D01*
X38750Y-41250D02*
X38750Y-39250D01*
X38500Y-41500D02*
X38750Y-41250D01*
X45500Y-40500D02*
X46000Y-40000D01*
X45500Y-38500D02*
X44500Y-38500D01*
X46000Y-39000D02*
X45500Y-38500D01*
X46000Y-39500D02*
X46000Y-39000D01*
X46000Y-40000D02*
X46000Y-39500D01*
X51000Y-36250D02*
X51000Y-36750D01*
X49000Y-35000D02*
X48500Y-35000D01*
X49250Y-35250D02*
X49000Y-35000D01*
X49250Y-37000D02*
X49250Y-35250D01*
X49500Y-37250D02*
X49250Y-37000D01*
X50500Y-37250D02*
X49500Y-37250D01*
X51000Y-36750D02*
X50500Y-37250D01*
X48500Y-34000D02*
X48500Y-35000D01*
X50500Y-43007D02*
X51000Y-42507D01*
X51000Y-42507D02*
X51000Y-36250D01*
G54D21*
X49811Y-43500D02*
X50303Y-43007D01*
X50303Y-43007D02*
X50500Y-43007D01*
G54D22*
X44500Y-36500D02*
X44500Y-35000D01*
X44500Y-34000D02*
X44500Y-35000D01*
X44500Y-37500D02*
X44500Y-36500D01*
X41000Y-36500D02*
X41000Y-35000D01*
X41000Y-34000D02*
X41000Y-35000D01*
X41000Y-37500D02*
X41000Y-36500D01*
G54D21*
X42750Y-35000D02*
X42750Y-36000D01*
G54D22*
X40500Y-39500D02*
X40000Y-39000D01*
X38500Y-37500D02*
X37000Y-37500D01*
X40000Y-39000D02*
X38500Y-37500D01*
X37000Y-36500D02*
X37000Y-37500D01*
X40000Y-44000D02*
X40000Y-40000D01*
X40000Y-40000D02*
X40500Y-39500D01*
G54D21*
X40000Y-44000D02*
X39000Y-45000D01*
X37188Y-45000D02*
X35688Y-43500D01*
X39000Y-45000D02*
X37188Y-45000D01*
X35000Y-43992D02*
X35196Y-43992D01*
X35196Y-43992D02*
X35688Y-43500D01*
G54D22*
X50500Y-34500D02*
X50500Y-35750D01*
X35500Y-36250D02*
X35500Y-36000D01*
X36500Y-35000D02*
X37000Y-35000D01*
X35500Y-36000D02*
X36500Y-35000D01*
X37000Y-34000D02*
X37000Y-35000D01*
X35000Y-43007D02*
X35500Y-42507D01*
X35500Y-42507D02*
X35500Y-36250D01*
G54D21*
X34311Y-43500D02*
X34507Y-43500D01*
X34507Y-43500D02*
X35000Y-43007D01*
G54D22*
X35000Y-34500D02*
X35000Y-35750D01*
X48000Y-39500D02*
X47500Y-39000D01*
X47750Y-37500D02*
X48500Y-37500D01*
X47500Y-37750D02*
X47750Y-37500D01*
X47500Y-38000D02*
X47500Y-37750D01*
X47500Y-38250D02*
X47500Y-38000D01*
X47500Y-39000D02*
X47500Y-38250D01*
X48500Y-37500D02*
X48500Y-36500D01*
X47500Y-44000D02*
X47500Y-40000D01*
X47500Y-40000D02*
X48000Y-39500D01*
G54D21*
X50500Y-43992D02*
X50696Y-43992D01*
X50696Y-43992D02*
X51188Y-43500D01*
X47500Y-44000D02*
X48000Y-44500D01*
X48000Y-44500D02*
X49750Y-44500D01*
X49750Y-44500D02*
X50000Y-44500D01*
X50000Y-44500D02*
X50500Y-44000D01*
X50500Y-44000D02*
X50500Y-43992D01*
G54D22*
X40750Y-31250D02*
X40250Y-31250D01*
X38000Y-28000D02*
X38000Y-27000D01*
X38500Y-28500D02*
X38000Y-28000D01*
X39500Y-28500D02*
X38500Y-28500D01*
X40000Y-29000D02*
X39500Y-28500D01*
X40000Y-31000D02*
X40000Y-29000D01*
X40250Y-31250D02*
X40000Y-31000D01*
X47500Y-27000D02*
X47500Y-28000D01*
X45250Y-31250D02*
X42750Y-31250D01*
X45500Y-31000D02*
X45250Y-31250D01*
X45500Y-29000D02*
X45500Y-31000D01*
X46000Y-28500D02*
X45500Y-29000D01*
X46500Y-28500D02*
X46000Y-28500D01*
X47000Y-28500D02*
X46500Y-28500D01*
X47500Y-28000D02*
X47000Y-28500D01*
G54D10*
G36*
X36775Y-38000D02*
X36700Y-38050D01*
X36700Y-37949D01*
X36775Y-38000D01*
X36775Y-38000D01*
G37*
G54D23*
X36775Y-38000D02*
X36700Y-38050D01*
X36700Y-37949D01*
X36775Y-38000D01*
G54D10*
G36*
X37011Y-39044D02*
X37006Y-39050D01*
X36936Y-39050D01*
X36917Y-39030D01*
X36989Y-39045D01*
X37010Y-39045D01*
X37011Y-39044D01*
X37011Y-39044D01*
G37*
G54D23*
X37011Y-39044D02*
X37006Y-39050D01*
X36936Y-39050D01*
X36917Y-39030D01*
X36989Y-39045D01*
X37010Y-39045D01*
X37011Y-39044D01*
G54D10*
G36*
X37506Y-44550D02*
X37375Y-44550D01*
X36234Y-43408D01*
X36234Y-43392D01*
X36151Y-43191D01*
X35998Y-43038D01*
X35797Y-42955D01*
X35581Y-42954D01*
X35545Y-42969D01*
X35545Y-42957D01*
X35747Y-42755D01*
X35823Y-42641D01*
X35823Y-42641D01*
X35850Y-42507D01*
X35850Y-39195D01*
X35931Y-39318D01*
X36431Y-39818D01*
X36577Y-39915D01*
X36750Y-39950D01*
X37006Y-39950D01*
X37050Y-39993D01*
X37050Y-40000D01*
X37084Y-40172D01*
X37181Y-40318D01*
X37238Y-40374D01*
X36931Y-40681D01*
X36834Y-40827D01*
X36800Y-41000D01*
X36800Y-43250D01*
X36834Y-43422D01*
X36931Y-43568D01*
X37404Y-44041D01*
X37404Y-44394D01*
X37442Y-44486D01*
X37506Y-44550D01*
X37506Y-44550D01*
G37*
G54D23*
X37506Y-44550D02*
X37375Y-44550D01*
X36234Y-43408D01*
X36234Y-43392D01*
X36151Y-43191D01*
X35998Y-43038D01*
X35797Y-42955D01*
X35581Y-42954D01*
X35545Y-42969D01*
X35545Y-42957D01*
X35747Y-42755D01*
X35823Y-42641D01*
X35823Y-42641D01*
X35850Y-42507D01*
X35850Y-39195D01*
X35931Y-39318D01*
X36431Y-39818D01*
X36577Y-39915D01*
X36750Y-39950D01*
X37006Y-39950D01*
X37050Y-39993D01*
X37050Y-40000D01*
X37084Y-40172D01*
X37181Y-40318D01*
X37238Y-40374D01*
X36931Y-40681D01*
X36834Y-40827D01*
X36800Y-41000D01*
X36800Y-43250D01*
X36834Y-43422D01*
X36931Y-43568D01*
X37404Y-44041D01*
X37404Y-44394D01*
X37442Y-44486D01*
X37506Y-44550D01*
G54D10*
G36*
X38400Y-39907D02*
X38394Y-39905D01*
X38295Y-39904D01*
X38041Y-39904D01*
X38026Y-39889D01*
X38044Y-39844D01*
X38045Y-39745D01*
X38045Y-39155D01*
X38007Y-39063D01*
X37936Y-38993D01*
X37844Y-38955D01*
X37745Y-38954D01*
X37291Y-38954D01*
X37396Y-38885D01*
X37419Y-38850D01*
X37855Y-38850D01*
X38400Y-39394D01*
X38400Y-39907D01*
X38400Y-39907D01*
G37*
G54D23*
X38400Y-39907D02*
X38394Y-39905D01*
X38295Y-39904D01*
X38041Y-39904D01*
X38026Y-39889D01*
X38044Y-39844D01*
X38045Y-39745D01*
X38045Y-39155D01*
X38007Y-39063D01*
X37936Y-38993D01*
X37844Y-38955D01*
X37745Y-38954D01*
X37291Y-38954D01*
X37396Y-38885D01*
X37419Y-38850D01*
X37855Y-38850D01*
X38400Y-39394D01*
X38400Y-39907D01*
G54D10*
G36*
X39954Y-39550D02*
X39752Y-39752D01*
X39676Y-39866D01*
X39650Y-40000D01*
X39650Y-43508D01*
X39495Y-43662D01*
X39405Y-43881D01*
X39405Y-43958D01*
X38813Y-44550D01*
X38493Y-44550D01*
X38556Y-44486D01*
X38594Y-44394D01*
X38595Y-44295D01*
X38595Y-43605D01*
X38557Y-43513D01*
X38486Y-43443D01*
X38394Y-43405D01*
X38295Y-43404D01*
X38041Y-43404D01*
X37700Y-43063D01*
X37700Y-42013D01*
X37772Y-42061D01*
X38000Y-42106D01*
X38227Y-42061D01*
X38420Y-41932D01*
X38475Y-41850D01*
X38500Y-41850D01*
X38633Y-41823D01*
X38633Y-41823D01*
X38747Y-41747D01*
X38997Y-41497D01*
X38997Y-41497D01*
X38997Y-41497D01*
X39073Y-41383D01*
X39100Y-41250D01*
X39100Y-39250D01*
X39099Y-39249D01*
X39100Y-39249D01*
X39073Y-39116D01*
X38997Y-39002D01*
X38997Y-39002D01*
X38247Y-38252D01*
X38133Y-38176D01*
X38000Y-38150D01*
X37419Y-38150D01*
X37396Y-38114D01*
X37224Y-37999D01*
X37396Y-37885D01*
X37419Y-37850D01*
X38355Y-37850D01*
X39752Y-39247D01*
X39752Y-39247D01*
X39954Y-39449D01*
X39944Y-39500D01*
X39954Y-39550D01*
X39954Y-39550D01*
G37*
G54D23*
X39954Y-39550D02*
X39752Y-39752D01*
X39676Y-39866D01*
X39650Y-40000D01*
X39650Y-43508D01*
X39495Y-43662D01*
X39405Y-43881D01*
X39405Y-43958D01*
X38813Y-44550D01*
X38493Y-44550D01*
X38556Y-44486D01*
X38594Y-44394D01*
X38595Y-44295D01*
X38595Y-43605D01*
X38557Y-43513D01*
X38486Y-43443D01*
X38394Y-43405D01*
X38295Y-43404D01*
X38041Y-43404D01*
X37700Y-43063D01*
X37700Y-42013D01*
X37772Y-42061D01*
X38000Y-42106D01*
X38227Y-42061D01*
X38420Y-41932D01*
X38475Y-41850D01*
X38500Y-41850D01*
X38633Y-41823D01*
X38633Y-41823D01*
X38747Y-41747D01*
X38997Y-41497D01*
X38997Y-41497D01*
X38997Y-41497D01*
X39073Y-41383D01*
X39100Y-41250D01*
X39100Y-39250D01*
X39099Y-39249D01*
X39100Y-39249D01*
X39073Y-39116D01*
X38997Y-39002D01*
X38997Y-39002D01*
X38247Y-38252D01*
X38133Y-38176D01*
X38000Y-38150D01*
X37419Y-38150D01*
X37396Y-38114D01*
X37224Y-37999D01*
X37396Y-37885D01*
X37419Y-37850D01*
X38355Y-37850D01*
X39752Y-39247D01*
X39752Y-39247D01*
X39954Y-39449D01*
X39944Y-39500D01*
X39954Y-39550D01*
G54D10*
G36*
X40400Y-29654D02*
X40355Y-29654D01*
X40350Y-29657D01*
X40350Y-29000D01*
X40323Y-28866D01*
X40323Y-28866D01*
X40247Y-28752D01*
X39747Y-28252D01*
X39633Y-28176D01*
X39500Y-28150D01*
X38644Y-28150D01*
X38350Y-27855D01*
X38350Y-27416D01*
X38396Y-27385D01*
X38501Y-27227D01*
X38614Y-27396D01*
X38791Y-27514D01*
X39000Y-27555D01*
X39208Y-27514D01*
X39304Y-27450D01*
X40063Y-27450D01*
X40154Y-27541D01*
X40154Y-27617D01*
X40245Y-27836D01*
X40400Y-27991D01*
X40400Y-29654D01*
X40400Y-29654D01*
G37*
G54D23*
X40400Y-29654D02*
X40355Y-29654D01*
X40350Y-29657D01*
X40350Y-29000D01*
X40323Y-28866D01*
X40323Y-28866D01*
X40247Y-28752D01*
X39747Y-28252D01*
X39633Y-28176D01*
X39500Y-28150D01*
X38644Y-28150D01*
X38350Y-27855D01*
X38350Y-27416D01*
X38396Y-27385D01*
X38501Y-27227D01*
X38614Y-27396D01*
X38791Y-27514D01*
X39000Y-27555D01*
X39208Y-27514D01*
X39304Y-27450D01*
X40063Y-27450D01*
X40154Y-27541D01*
X40154Y-27617D01*
X40245Y-27836D01*
X40400Y-27991D01*
X40400Y-29654D01*
G54D10*
G36*
X43300Y-34650D02*
X43262Y-34558D01*
X43191Y-34488D01*
X43099Y-34450D01*
X43077Y-34450D01*
X43215Y-34311D01*
X43299Y-34109D01*
X43300Y-33999D01*
X43300Y-34650D01*
X43300Y-34650D01*
G37*
G54D23*
X43300Y-34650D02*
X43262Y-34558D01*
X43191Y-34488D01*
X43099Y-34450D01*
X43077Y-34450D01*
X43215Y-34311D01*
X43299Y-34109D01*
X43300Y-33999D01*
X43300Y-34650D01*
G54D10*
G36*
X44511Y-39044D02*
X44506Y-39050D01*
X43750Y-39050D01*
X43287Y-39050D01*
X43295Y-39010D01*
X43295Y-38989D01*
X43253Y-38780D01*
X43200Y-38700D01*
X43200Y-38686D01*
X43818Y-38068D01*
X43818Y-38068D01*
X43818Y-38068D01*
X44062Y-37823D01*
X44103Y-37885D01*
X44275Y-38000D01*
X44103Y-38114D01*
X43985Y-38291D01*
X43944Y-38500D01*
X43985Y-38708D01*
X44103Y-38885D01*
X44280Y-39003D01*
X44489Y-39045D01*
X44510Y-39045D01*
X44511Y-39044D01*
X44511Y-39044D01*
G37*
G54D23*
X44511Y-39044D02*
X44506Y-39050D01*
X43750Y-39050D01*
X43287Y-39050D01*
X43295Y-39010D01*
X43295Y-38989D01*
X43253Y-38780D01*
X43200Y-38700D01*
X43200Y-38686D01*
X43818Y-38068D01*
X43818Y-38068D01*
X43818Y-38068D01*
X44062Y-37823D01*
X44103Y-37885D01*
X44275Y-38000D01*
X44103Y-38114D01*
X43985Y-38291D01*
X43944Y-38500D01*
X43985Y-38708D01*
X44103Y-38885D01*
X44280Y-39003D01*
X44489Y-39045D01*
X44510Y-39045D01*
X44511Y-39044D01*
G54D10*
G36*
X45070Y-40919D02*
X45060Y-40923D01*
X44950Y-40813D01*
X44950Y-40737D01*
X44950Y-40739D01*
X45070Y-40919D01*
X45070Y-40919D01*
G37*
G54D23*
X45070Y-40919D02*
X45060Y-40923D01*
X44950Y-40813D01*
X44950Y-40737D01*
X44950Y-40739D01*
X45070Y-40919D01*
G54D10*
G36*
X45113Y-40045D02*
X45079Y-40067D01*
X44950Y-40260D01*
X44950Y-40262D01*
X44950Y-40186D01*
X45091Y-40045D01*
X45113Y-40045D01*
X45113Y-40045D01*
G37*
G54D23*
X45113Y-40045D02*
X45079Y-40067D01*
X44950Y-40260D01*
X44950Y-40262D01*
X44950Y-40186D01*
X45091Y-40045D01*
X45113Y-40045D01*
G54D10*
G36*
X45650Y-39855D02*
X45593Y-39911D01*
X45522Y-39897D01*
X45544Y-39844D01*
X45545Y-39745D01*
X45545Y-39155D01*
X45507Y-39063D01*
X45436Y-38993D01*
X45344Y-38955D01*
X45245Y-38954D01*
X44791Y-38954D01*
X44896Y-38885D01*
X44919Y-38850D01*
X45355Y-38850D01*
X45650Y-39144D01*
X45650Y-39500D01*
X45650Y-39855D01*
X45650Y-39855D01*
G37*
G54D23*
X45650Y-39855D02*
X45593Y-39911D01*
X45522Y-39897D01*
X45544Y-39844D01*
X45545Y-39745D01*
X45545Y-39155D01*
X45507Y-39063D01*
X45436Y-38993D01*
X45344Y-38955D01*
X45245Y-38954D01*
X44791Y-38954D01*
X44896Y-38885D01*
X44919Y-38850D01*
X45355Y-38850D01*
X45650Y-39144D01*
X45650Y-39500D01*
X45650Y-39855D01*
G54D10*
G36*
X47150Y-27855D02*
X46855Y-28150D01*
X46500Y-28150D01*
X46000Y-28150D01*
X45866Y-28176D01*
X45752Y-28252D01*
X45252Y-28752D01*
X45176Y-28866D01*
X45150Y-29000D01*
X45150Y-30855D01*
X45105Y-30900D01*
X43225Y-30900D01*
X43179Y-30830D01*
X43236Y-30807D01*
X43306Y-30736D01*
X43344Y-30644D01*
X43345Y-30545D01*
X43345Y-29855D01*
X43307Y-29763D01*
X43236Y-29693D01*
X43144Y-29655D01*
X43100Y-29655D01*
X43100Y-27991D01*
X43254Y-27837D01*
X43344Y-27618D01*
X43344Y-27541D01*
X43936Y-26950D01*
X44256Y-26950D01*
X44193Y-27013D01*
X44155Y-27105D01*
X44154Y-27204D01*
X44154Y-27894D01*
X44192Y-27986D01*
X44263Y-28056D01*
X44355Y-28094D01*
X44454Y-28095D01*
X45144Y-28095D01*
X45236Y-28057D01*
X45306Y-27986D01*
X45344Y-27894D01*
X45345Y-27795D01*
X45345Y-27105D01*
X45307Y-27013D01*
X45243Y-26950D01*
X45250Y-26950D01*
X45813Y-26950D01*
X45975Y-27111D01*
X45996Y-27219D01*
X46114Y-27396D01*
X46291Y-27514D01*
X46500Y-27555D01*
X46708Y-27514D01*
X46885Y-27396D01*
X46998Y-27227D01*
X47103Y-27385D01*
X47150Y-27416D01*
X47150Y-27855D01*
X47150Y-27855D01*
G37*
G54D23*
X47150Y-27855D02*
X46855Y-28150D01*
X46500Y-28150D01*
X46000Y-28150D01*
X45866Y-28176D01*
X45752Y-28252D01*
X45252Y-28752D01*
X45176Y-28866D01*
X45150Y-29000D01*
X45150Y-30855D01*
X45105Y-30900D01*
X43225Y-30900D01*
X43179Y-30830D01*
X43236Y-30807D01*
X43306Y-30736D01*
X43344Y-30644D01*
X43345Y-30545D01*
X43345Y-29855D01*
X43307Y-29763D01*
X43236Y-29693D01*
X43144Y-29655D01*
X43100Y-29655D01*
X43100Y-27991D01*
X43254Y-27837D01*
X43344Y-27618D01*
X43344Y-27541D01*
X43936Y-26950D01*
X44256Y-26950D01*
X44193Y-27013D01*
X44155Y-27105D01*
X44154Y-27204D01*
X44154Y-27894D01*
X44192Y-27986D01*
X44263Y-28056D01*
X44355Y-28094D01*
X44454Y-28095D01*
X45144Y-28095D01*
X45236Y-28057D01*
X45306Y-27986D01*
X45344Y-27894D01*
X45345Y-27795D01*
X45345Y-27105D01*
X45307Y-27013D01*
X45243Y-26950D01*
X45250Y-26950D01*
X45813Y-26950D01*
X45975Y-27111D01*
X45996Y-27219D01*
X46114Y-27396D01*
X46291Y-27514D01*
X46500Y-27555D01*
X46708Y-27514D01*
X46885Y-27396D01*
X46998Y-27227D01*
X47103Y-27385D01*
X47150Y-27416D01*
X47150Y-27855D01*
G54D10*
G36*
X50650Y-42362D02*
X50549Y-42462D01*
X50392Y-42462D01*
X50191Y-42545D01*
X50148Y-42588D01*
X50130Y-42592D01*
X49984Y-42689D01*
X49984Y-42689D01*
X49984Y-42689D01*
X49719Y-42954D01*
X49703Y-42954D01*
X49502Y-43037D01*
X49349Y-43190D01*
X49266Y-43391D01*
X49265Y-43607D01*
X49348Y-43808D01*
X49501Y-43961D01*
X49702Y-44044D01*
X49818Y-44045D01*
X49813Y-44050D01*
X49750Y-44050D01*
X48186Y-44050D01*
X48095Y-43958D01*
X48095Y-43882D01*
X48004Y-43663D01*
X47850Y-43508D01*
X47850Y-40144D01*
X47956Y-40038D01*
X47989Y-40045D01*
X48010Y-40045D01*
X48219Y-40003D01*
X48396Y-39885D01*
X48514Y-39708D01*
X48555Y-39500D01*
X48514Y-39291D01*
X48396Y-39114D01*
X48219Y-38996D01*
X48010Y-38955D01*
X47989Y-38955D01*
X47956Y-38961D01*
X47850Y-38855D01*
X47850Y-38250D01*
X47850Y-38000D01*
X47850Y-37894D01*
X47894Y-37850D01*
X48080Y-37850D01*
X48103Y-37885D01*
X48275Y-37999D01*
X48103Y-38114D01*
X47985Y-38291D01*
X47944Y-38500D01*
X47985Y-38708D01*
X48103Y-38885D01*
X48280Y-39003D01*
X48489Y-39045D01*
X48510Y-39045D01*
X48719Y-39003D01*
X48896Y-38885D01*
X49014Y-38708D01*
X49055Y-38500D01*
X49014Y-38291D01*
X48896Y-38114D01*
X48724Y-38000D01*
X48896Y-37885D01*
X49014Y-37708D01*
X49055Y-37500D01*
X49014Y-37291D01*
X48896Y-37114D01*
X48850Y-37083D01*
X48850Y-36916D01*
X48896Y-36885D01*
X48900Y-36879D01*
X48900Y-37000D01*
X48926Y-37133D01*
X49002Y-37247D01*
X49252Y-37497D01*
X49252Y-37497D01*
X49366Y-37573D01*
X49500Y-37600D01*
X50500Y-37600D01*
X50633Y-37573D01*
X50633Y-37573D01*
X50650Y-37562D01*
X50650Y-42362D01*
X50650Y-42362D01*
G37*
G54D23*
X50650Y-42362D02*
X50549Y-42462D01*
X50392Y-42462D01*
X50191Y-42545D01*
X50148Y-42588D01*
X50130Y-42592D01*
X49984Y-42689D01*
X49984Y-42689D01*
X49984Y-42689D01*
X49719Y-42954D01*
X49703Y-42954D01*
X49502Y-43037D01*
X49349Y-43190D01*
X49266Y-43391D01*
X49265Y-43607D01*
X49348Y-43808D01*
X49501Y-43961D01*
X49702Y-44044D01*
X49818Y-44045D01*
X49813Y-44050D01*
X49750Y-44050D01*
X48186Y-44050D01*
X48095Y-43958D01*
X48095Y-43882D01*
X48004Y-43663D01*
X47850Y-43508D01*
X47850Y-40144D01*
X47956Y-40038D01*
X47989Y-40045D01*
X48010Y-40045D01*
X48219Y-40003D01*
X48396Y-39885D01*
X48514Y-39708D01*
X48555Y-39500D01*
X48514Y-39291D01*
X48396Y-39114D01*
X48219Y-38996D01*
X48010Y-38955D01*
X47989Y-38955D01*
X47956Y-38961D01*
X47850Y-38855D01*
X47850Y-38250D01*
X47850Y-38000D01*
X47850Y-37894D01*
X47894Y-37850D01*
X48080Y-37850D01*
X48103Y-37885D01*
X48275Y-37999D01*
X48103Y-38114D01*
X47985Y-38291D01*
X47944Y-38500D01*
X47985Y-38708D01*
X48103Y-38885D01*
X48280Y-39003D01*
X48489Y-39045D01*
X48510Y-39045D01*
X48719Y-39003D01*
X48896Y-38885D01*
X49014Y-38708D01*
X49055Y-38500D01*
X49014Y-38291D01*
X48896Y-38114D01*
X48724Y-38000D01*
X48896Y-37885D01*
X49014Y-37708D01*
X49055Y-37500D01*
X49014Y-37291D01*
X48896Y-37114D01*
X48850Y-37083D01*
X48850Y-36916D01*
X48896Y-36885D01*
X48900Y-36879D01*
X48900Y-37000D01*
X48926Y-37133D01*
X49002Y-37247D01*
X49252Y-37497D01*
X49252Y-37497D01*
X49366Y-37573D01*
X49500Y-37600D01*
X50500Y-37600D01*
X50633Y-37573D01*
X50633Y-37573D01*
X50650Y-37562D01*
X50650Y-42362D01*
G54D10*
G36*
X52200Y-45200D02*
X52055Y-45200D01*
X52055Y-27000D01*
X52014Y-26791D01*
X51896Y-26614D01*
X51719Y-26496D01*
X51510Y-26455D01*
X51489Y-26455D01*
X51280Y-26496D01*
X51103Y-26614D01*
X50985Y-26791D01*
X50944Y-27000D01*
X50985Y-27208D01*
X51103Y-27385D01*
X51280Y-27503D01*
X51489Y-27545D01*
X51510Y-27545D01*
X51719Y-27503D01*
X51896Y-27385D01*
X52014Y-27208D01*
X52055Y-27000D01*
X52055Y-45200D01*
X51734Y-45200D01*
X51734Y-43392D01*
X51651Y-43191D01*
X51498Y-43038D01*
X51297Y-42955D01*
X51081Y-42954D01*
X51045Y-42969D01*
X51045Y-42957D01*
X51247Y-42755D01*
X51323Y-42641D01*
X51323Y-42641D01*
X51350Y-42507D01*
X51350Y-36967D01*
X51385Y-36943D01*
X51503Y-36767D01*
X51545Y-36558D01*
X51545Y-36236D01*
X51503Y-36027D01*
X51385Y-35851D01*
X51208Y-35732D01*
X51045Y-35700D01*
X51045Y-35441D01*
X51003Y-35232D01*
X50885Y-35056D01*
X50850Y-35032D01*
X50850Y-34919D01*
X50885Y-34896D01*
X51003Y-34719D01*
X51045Y-34510D01*
X51045Y-34489D01*
X51003Y-34280D01*
X50885Y-34103D01*
X50708Y-33985D01*
X50500Y-33944D01*
X50291Y-33985D01*
X50114Y-34103D01*
X49996Y-34280D01*
X49955Y-34489D01*
X49955Y-34510D01*
X49996Y-34719D01*
X50114Y-34896D01*
X50150Y-34919D01*
X50150Y-35032D01*
X50114Y-35056D01*
X49996Y-35232D01*
X49955Y-35441D01*
X49955Y-35700D01*
X49791Y-35732D01*
X49614Y-35851D01*
X49600Y-35872D01*
X49600Y-35250D01*
X49573Y-35116D01*
X49497Y-35002D01*
X49497Y-35002D01*
X49247Y-34752D01*
X49133Y-34676D01*
X49000Y-34650D01*
X48919Y-34650D01*
X48896Y-34614D01*
X48850Y-34583D01*
X48850Y-34416D01*
X48896Y-34385D01*
X49014Y-34208D01*
X49055Y-34000D01*
X49014Y-33791D01*
X48896Y-33614D01*
X48882Y-33605D01*
X48882Y-30660D01*
X48879Y-30493D01*
X48880Y-30325D01*
X48877Y-30318D01*
X48876Y-30310D01*
X48754Y-30013D01*
X48750Y-30012D01*
X48746Y-30002D01*
X48499Y-29754D01*
X48488Y-29749D01*
X48486Y-29745D01*
X48330Y-29684D01*
X48175Y-29620D01*
X48167Y-29620D01*
X48160Y-29617D01*
X47993Y-29620D01*
X47825Y-29619D01*
X47818Y-29622D01*
X47810Y-29623D01*
X47513Y-29745D01*
X47512Y-29749D01*
X47502Y-29753D01*
X47254Y-30000D01*
X47249Y-30011D01*
X47245Y-30013D01*
X47184Y-30169D01*
X47120Y-30324D01*
X47120Y-30332D01*
X47117Y-30339D01*
X47120Y-30506D01*
X47119Y-30674D01*
X47122Y-30681D01*
X47123Y-30689D01*
X47245Y-30986D01*
X47249Y-30987D01*
X47253Y-30997D01*
X47500Y-31245D01*
X47511Y-31250D01*
X47513Y-31254D01*
X47669Y-31315D01*
X47824Y-31379D01*
X47832Y-31379D01*
X47839Y-31382D01*
X48006Y-31379D01*
X48174Y-31380D01*
X48181Y-31377D01*
X48189Y-31376D01*
X48486Y-31254D01*
X48487Y-31250D01*
X48497Y-31246D01*
X48745Y-30999D01*
X48750Y-30988D01*
X48754Y-30986D01*
X48815Y-30830D01*
X48879Y-30675D01*
X48879Y-30667D01*
X48882Y-30660D01*
X48882Y-33605D01*
X48719Y-33496D01*
X48510Y-33455D01*
X48489Y-33455D01*
X48280Y-33496D01*
X48103Y-33614D01*
X47985Y-33791D01*
X47944Y-34000D01*
X47985Y-34208D01*
X48103Y-34385D01*
X48150Y-34416D01*
X48150Y-34583D01*
X48103Y-34614D01*
X47985Y-34791D01*
X47944Y-35000D01*
X47985Y-35208D01*
X48103Y-35385D01*
X48280Y-35503D01*
X48489Y-35545D01*
X48510Y-35545D01*
X48719Y-35503D01*
X48892Y-35387D01*
X48900Y-35394D01*
X48900Y-36120D01*
X48896Y-36114D01*
X48719Y-35996D01*
X48510Y-35955D01*
X48489Y-35955D01*
X48280Y-35996D01*
X48103Y-36114D01*
X47985Y-36291D01*
X47944Y-36500D01*
X47985Y-36708D01*
X48103Y-36885D01*
X48150Y-36916D01*
X48150Y-37083D01*
X48103Y-37114D01*
X48080Y-37150D01*
X47750Y-37150D01*
X47616Y-37176D01*
X47502Y-37252D01*
X47502Y-37252D01*
X47252Y-37502D01*
X47176Y-37616D01*
X47150Y-37750D01*
X47150Y-38000D01*
X47150Y-38250D01*
X47150Y-39000D01*
X47176Y-39133D01*
X47252Y-39247D01*
X47454Y-39449D01*
X47444Y-39500D01*
X47454Y-39550D01*
X47252Y-39752D01*
X47176Y-39866D01*
X47150Y-40000D01*
X47150Y-43508D01*
X46995Y-43662D01*
X46905Y-43881D01*
X46904Y-44117D01*
X46995Y-44336D01*
X47162Y-44504D01*
X47381Y-44594D01*
X47458Y-44594D01*
X47681Y-44818D01*
X47827Y-44915D01*
X48000Y-44950D01*
X49750Y-44950D01*
X50000Y-44950D01*
X50172Y-44915D01*
X50318Y-44818D01*
X50599Y-44537D01*
X50607Y-44537D01*
X50808Y-44454D01*
X50851Y-44411D01*
X50869Y-44407D01*
X51015Y-44310D01*
X51280Y-44045D01*
X51296Y-44045D01*
X51497Y-43962D01*
X51650Y-43809D01*
X51733Y-43608D01*
X51734Y-43392D01*
X51734Y-45200D01*
X43632Y-45200D01*
X43632Y-41160D01*
X43629Y-40993D01*
X43630Y-40825D01*
X43627Y-40818D01*
X43626Y-40810D01*
X43504Y-40513D01*
X43500Y-40512D01*
X43496Y-40502D01*
X43249Y-40254D01*
X43238Y-40249D01*
X43236Y-40245D01*
X43080Y-40184D01*
X42925Y-40120D01*
X42917Y-40120D01*
X42910Y-40117D01*
X42743Y-40120D01*
X42575Y-40119D01*
X42568Y-40122D01*
X42560Y-40123D01*
X42263Y-40245D01*
X42262Y-40249D01*
X42252Y-40253D01*
X42004Y-40500D01*
X41999Y-40511D01*
X41995Y-40513D01*
X41934Y-40669D01*
X41870Y-40824D01*
X41870Y-40832D01*
X41867Y-40839D01*
X41870Y-41006D01*
X41869Y-41174D01*
X41872Y-41181D01*
X41873Y-41189D01*
X41995Y-41486D01*
X41999Y-41487D01*
X42003Y-41497D01*
X42250Y-41745D01*
X42261Y-41750D01*
X42263Y-41754D01*
X42419Y-41815D01*
X42574Y-41879D01*
X42582Y-41879D01*
X42589Y-41882D01*
X42756Y-41879D01*
X42924Y-41880D01*
X42931Y-41877D01*
X42939Y-41876D01*
X43236Y-41754D01*
X43237Y-41750D01*
X43247Y-41746D01*
X43495Y-41499D01*
X43500Y-41488D01*
X43504Y-41486D01*
X43565Y-41330D01*
X43629Y-41175D01*
X43629Y-41167D01*
X43632Y-41160D01*
X43632Y-45200D01*
X41555Y-45200D01*
X41555Y-38500D01*
X41514Y-38291D01*
X41396Y-38114D01*
X41224Y-37999D01*
X41396Y-37885D01*
X41514Y-37708D01*
X41555Y-37500D01*
X41514Y-37291D01*
X41396Y-37114D01*
X41350Y-37083D01*
X41350Y-36916D01*
X41396Y-36885D01*
X41514Y-36708D01*
X41555Y-36500D01*
X41514Y-36291D01*
X41396Y-36114D01*
X41350Y-36083D01*
X41350Y-35416D01*
X41396Y-35385D01*
X41514Y-35208D01*
X41555Y-35000D01*
X41514Y-34791D01*
X41396Y-34614D01*
X41350Y-34583D01*
X41350Y-34416D01*
X41396Y-34385D01*
X41514Y-34208D01*
X41555Y-34000D01*
X41514Y-33791D01*
X41396Y-33614D01*
X41219Y-33496D01*
X41010Y-33455D01*
X40989Y-33455D01*
X40780Y-33496D01*
X40603Y-33614D01*
X40485Y-33791D01*
X40444Y-34000D01*
X40485Y-34208D01*
X40603Y-34385D01*
X40650Y-34416D01*
X40650Y-34583D01*
X40603Y-34614D01*
X40485Y-34791D01*
X40444Y-35000D01*
X40485Y-35208D01*
X40603Y-35385D01*
X40650Y-35416D01*
X40650Y-36083D01*
X40603Y-36114D01*
X40485Y-36291D01*
X40444Y-36500D01*
X40485Y-36708D01*
X40603Y-36885D01*
X40650Y-36916D01*
X40650Y-37083D01*
X40603Y-37114D01*
X40485Y-37291D01*
X40444Y-37500D01*
X40485Y-37708D01*
X40603Y-37885D01*
X40775Y-38000D01*
X40603Y-38114D01*
X40485Y-38291D01*
X40444Y-38500D01*
X40485Y-38708D01*
X40603Y-38885D01*
X40780Y-39003D01*
X40989Y-39045D01*
X41010Y-39045D01*
X41219Y-39003D01*
X41396Y-38885D01*
X41514Y-38708D01*
X41555Y-38500D01*
X41555Y-45200D01*
X39436Y-45200D01*
X40041Y-44595D01*
X40117Y-44595D01*
X40336Y-44504D01*
X40504Y-44337D01*
X40594Y-44118D01*
X40595Y-43882D01*
X40504Y-43663D01*
X40350Y-43508D01*
X40350Y-40144D01*
X40456Y-40038D01*
X40489Y-40045D01*
X40510Y-40045D01*
X40719Y-40003D01*
X40896Y-39885D01*
X41014Y-39708D01*
X41055Y-39500D01*
X41014Y-39291D01*
X40896Y-39114D01*
X40719Y-38996D01*
X40510Y-38955D01*
X40489Y-38955D01*
X40456Y-38961D01*
X40247Y-38752D01*
X40247Y-38752D01*
X38747Y-37252D01*
X38633Y-37176D01*
X38500Y-37150D01*
X37419Y-37150D01*
X37396Y-37114D01*
X37350Y-37083D01*
X37350Y-36916D01*
X37396Y-36885D01*
X37514Y-36708D01*
X37555Y-36500D01*
X37514Y-36291D01*
X37453Y-36200D01*
X37500Y-36200D01*
X37672Y-36165D01*
X37818Y-36068D01*
X39318Y-34568D01*
X39318Y-34568D01*
X39383Y-34470D01*
X39415Y-34422D01*
X39415Y-34422D01*
X39449Y-34250D01*
X39450Y-34250D01*
X39450Y-32586D01*
X39681Y-32818D01*
X39827Y-32915D01*
X40000Y-32950D01*
X41813Y-32950D01*
X42300Y-33436D01*
X42300Y-33672D01*
X42284Y-33688D01*
X42200Y-33890D01*
X42199Y-34108D01*
X42283Y-34311D01*
X42422Y-34449D01*
X42400Y-34449D01*
X42308Y-34487D01*
X42238Y-34558D01*
X42200Y-34650D01*
X42199Y-34749D01*
X42199Y-35349D01*
X42237Y-35441D01*
X42300Y-35503D01*
X42300Y-35506D01*
X42243Y-35563D01*
X42205Y-35655D01*
X42204Y-35754D01*
X42204Y-36344D01*
X42242Y-36436D01*
X42313Y-36506D01*
X42405Y-36544D01*
X42504Y-36545D01*
X43094Y-36545D01*
X43186Y-36507D01*
X43256Y-36436D01*
X43294Y-36344D01*
X43295Y-36245D01*
X43295Y-35655D01*
X43257Y-35563D01*
X43200Y-35506D01*
X43200Y-35503D01*
X43261Y-35441D01*
X43299Y-35349D01*
X43300Y-35299D01*
X43300Y-37313D01*
X43181Y-37431D01*
X43181Y-37431D01*
X43181Y-37431D01*
X42431Y-38181D01*
X42334Y-38327D01*
X42300Y-38500D01*
X42300Y-38700D01*
X42246Y-38780D01*
X42205Y-38989D01*
X42205Y-39010D01*
X42246Y-39219D01*
X42313Y-39320D01*
X42334Y-39422D01*
X42431Y-39568D01*
X42681Y-39818D01*
X42827Y-39915D01*
X43000Y-39950D01*
X43750Y-39950D01*
X44059Y-39950D01*
X44050Y-40000D01*
X44050Y-40500D01*
X44050Y-41000D01*
X44084Y-41172D01*
X44181Y-41318D01*
X44681Y-41818D01*
X44827Y-41915D01*
X44921Y-41934D01*
X44942Y-41986D01*
X45013Y-42056D01*
X45050Y-42072D01*
X45050Y-43427D01*
X45013Y-43442D01*
X44943Y-43513D01*
X44905Y-43605D01*
X44904Y-43704D01*
X44904Y-44394D01*
X44942Y-44486D01*
X45013Y-44556D01*
X45105Y-44594D01*
X45204Y-44595D01*
X45894Y-44595D01*
X45986Y-44557D01*
X46056Y-44486D01*
X46094Y-44394D01*
X46095Y-44295D01*
X46095Y-43605D01*
X46057Y-43513D01*
X45986Y-43443D01*
X45950Y-43427D01*
X45950Y-42072D01*
X45986Y-42057D01*
X46056Y-41986D01*
X46094Y-41894D01*
X46095Y-41795D01*
X46095Y-41105D01*
X46057Y-41013D01*
X45986Y-40943D01*
X45929Y-40919D01*
X46049Y-40739D01*
X46095Y-40511D01*
X46095Y-40488D01*
X46080Y-40414D01*
X46247Y-40247D01*
X46323Y-40133D01*
X46323Y-40133D01*
X46350Y-40000D01*
X46350Y-39500D01*
X46350Y-39000D01*
X46323Y-38866D01*
X46323Y-38866D01*
X46247Y-38752D01*
X45747Y-38252D01*
X45633Y-38176D01*
X45500Y-38150D01*
X44919Y-38150D01*
X44896Y-38114D01*
X44724Y-37999D01*
X44896Y-37885D01*
X45014Y-37708D01*
X45055Y-37500D01*
X45014Y-37291D01*
X44896Y-37114D01*
X44850Y-37083D01*
X44850Y-36916D01*
X44896Y-36885D01*
X45014Y-36708D01*
X45055Y-36500D01*
X45014Y-36291D01*
X44896Y-36114D01*
X44850Y-36083D01*
X44850Y-35416D01*
X44896Y-35385D01*
X45014Y-35208D01*
X45055Y-35000D01*
X45014Y-34791D01*
X44896Y-34614D01*
X44850Y-34583D01*
X44850Y-34416D01*
X44896Y-34385D01*
X45014Y-34208D01*
X45055Y-34000D01*
X45014Y-33791D01*
X44896Y-33614D01*
X44719Y-33496D01*
X44510Y-33455D01*
X44489Y-33455D01*
X44280Y-33496D01*
X44200Y-33550D01*
X44200Y-33436D01*
X44686Y-32950D01*
X45750Y-32950D01*
X45922Y-32915D01*
X46068Y-32818D01*
X46818Y-32068D01*
X46818Y-32068D01*
X46818Y-32068D01*
X46915Y-31922D01*
X46915Y-31922D01*
X46949Y-31750D01*
X46950Y-31750D01*
X46950Y-30493D01*
X47006Y-30436D01*
X47044Y-30344D01*
X47045Y-30245D01*
X47045Y-29949D01*
X47644Y-29350D01*
X48355Y-29350D01*
X49252Y-30247D01*
X49752Y-30747D01*
X49866Y-30823D01*
X49866Y-30823D01*
X50000Y-30850D01*
X50083Y-30850D01*
X50114Y-30896D01*
X50291Y-31014D01*
X50500Y-31055D01*
X50708Y-31014D01*
X50885Y-30896D01*
X51003Y-30719D01*
X51045Y-30510D01*
X51045Y-30489D01*
X51003Y-30280D01*
X50885Y-30103D01*
X50708Y-29985D01*
X50500Y-29944D01*
X50291Y-29985D01*
X50114Y-30103D01*
X50108Y-30113D01*
X49747Y-29752D01*
X48747Y-28752D01*
X48633Y-28676D01*
X48500Y-28650D01*
X47500Y-28650D01*
X47366Y-28676D01*
X47252Y-28752D01*
X46550Y-29454D01*
X46155Y-29454D01*
X46063Y-29492D01*
X45993Y-29563D01*
X45955Y-29655D01*
X45954Y-29754D01*
X45954Y-30344D01*
X45992Y-30436D01*
X46050Y-30493D01*
X46050Y-31563D01*
X45563Y-32050D01*
X44500Y-32050D01*
X44327Y-32084D01*
X44181Y-32181D01*
X44181Y-32181D01*
X44181Y-32181D01*
X43431Y-32931D01*
X43334Y-33077D01*
X43300Y-33250D01*
X43300Y-33750D01*
X43300Y-33890D01*
X43216Y-33688D01*
X43200Y-33672D01*
X43200Y-33250D01*
X43199Y-33249D01*
X43165Y-33077D01*
X43165Y-33077D01*
X43068Y-32931D01*
X43068Y-32931D01*
X42318Y-32181D01*
X42172Y-32084D01*
X42000Y-32050D01*
X41345Y-32050D01*
X41345Y-27382D01*
X41254Y-27163D01*
X41087Y-26995D01*
X40868Y-26905D01*
X40791Y-26905D01*
X40568Y-26681D01*
X40422Y-26584D01*
X40250Y-26550D01*
X39304Y-26550D01*
X39208Y-26485D01*
X39000Y-26444D01*
X38791Y-26485D01*
X38614Y-26603D01*
X38501Y-26772D01*
X38396Y-26614D01*
X38219Y-26496D01*
X38010Y-26455D01*
X37989Y-26455D01*
X37780Y-26496D01*
X37603Y-26614D01*
X37485Y-26791D01*
X37444Y-27000D01*
X37485Y-27208D01*
X37603Y-27385D01*
X37650Y-27416D01*
X37650Y-28000D01*
X37676Y-28133D01*
X37752Y-28247D01*
X38252Y-28747D01*
X38366Y-28823D01*
X38366Y-28823D01*
X38500Y-28850D01*
X39355Y-28850D01*
X39650Y-29144D01*
X39650Y-31000D01*
X39676Y-31133D01*
X39752Y-31247D01*
X40002Y-31497D01*
X40002Y-31497D01*
X40116Y-31573D01*
X40250Y-31600D01*
X40274Y-31600D01*
X40329Y-31682D01*
X40522Y-31811D01*
X40750Y-31856D01*
X40977Y-31811D01*
X41170Y-31682D01*
X41299Y-31489D01*
X41345Y-31261D01*
X41345Y-31238D01*
X41299Y-31010D01*
X41179Y-30830D01*
X41236Y-30807D01*
X41306Y-30736D01*
X41344Y-30644D01*
X41345Y-30545D01*
X41345Y-29855D01*
X41307Y-29763D01*
X41236Y-29693D01*
X41144Y-29655D01*
X41100Y-29655D01*
X41100Y-27991D01*
X41254Y-27837D01*
X41344Y-27618D01*
X41345Y-27382D01*
X41345Y-32050D01*
X40186Y-32050D01*
X39450Y-31313D01*
X39450Y-30493D01*
X39506Y-30436D01*
X39544Y-30344D01*
X39545Y-30245D01*
X39545Y-29655D01*
X39507Y-29563D01*
X39436Y-29493D01*
X39344Y-29455D01*
X39245Y-29454D01*
X38949Y-29454D01*
X38247Y-28752D01*
X38133Y-28676D01*
X38000Y-28650D01*
X37000Y-28650D01*
X36866Y-28676D01*
X36752Y-28752D01*
X35752Y-29752D01*
X35391Y-30113D01*
X35385Y-30103D01*
X35208Y-29985D01*
X35000Y-29944D01*
X34791Y-29985D01*
X34614Y-30103D01*
X34555Y-30192D01*
X34555Y-27000D01*
X34514Y-26791D01*
X34396Y-26614D01*
X34219Y-26496D01*
X34010Y-26455D01*
X33989Y-26455D01*
X33780Y-26496D01*
X33603Y-26614D01*
X33485Y-26791D01*
X33444Y-27000D01*
X33485Y-27208D01*
X33603Y-27385D01*
X33780Y-27503D01*
X33989Y-27545D01*
X34010Y-27545D01*
X34219Y-27503D01*
X34396Y-27385D01*
X34514Y-27208D01*
X34555Y-27000D01*
X34555Y-30192D01*
X34496Y-30280D01*
X34455Y-30489D01*
X34455Y-30510D01*
X34496Y-30719D01*
X34614Y-30896D01*
X34791Y-31014D01*
X35000Y-31055D01*
X35208Y-31014D01*
X35385Y-30896D01*
X35416Y-30850D01*
X35500Y-30850D01*
X35633Y-30823D01*
X35633Y-30823D01*
X35747Y-30747D01*
X36247Y-30247D01*
X37144Y-29350D01*
X37855Y-29350D01*
X38454Y-29949D01*
X38454Y-30344D01*
X38492Y-30436D01*
X38550Y-30493D01*
X38550Y-31500D01*
X38550Y-34063D01*
X38382Y-34230D01*
X38382Y-30660D01*
X38379Y-30493D01*
X38380Y-30325D01*
X38377Y-30318D01*
X38376Y-30310D01*
X38254Y-30013D01*
X38250Y-30012D01*
X38246Y-30002D01*
X37999Y-29754D01*
X37988Y-29749D01*
X37986Y-29745D01*
X37830Y-29684D01*
X37675Y-29620D01*
X37667Y-29620D01*
X37660Y-29617D01*
X37493Y-29620D01*
X37325Y-29619D01*
X37318Y-29622D01*
X37310Y-29623D01*
X37013Y-29745D01*
X37012Y-29749D01*
X37002Y-29753D01*
X36754Y-30000D01*
X36749Y-30011D01*
X36745Y-30013D01*
X36684Y-30169D01*
X36620Y-30324D01*
X36620Y-30332D01*
X36617Y-30339D01*
X36620Y-30506D01*
X36619Y-30674D01*
X36622Y-30681D01*
X36623Y-30689D01*
X36745Y-30986D01*
X36749Y-30987D01*
X36753Y-30997D01*
X37000Y-31245D01*
X37011Y-31250D01*
X37013Y-31254D01*
X37169Y-31315D01*
X37324Y-31379D01*
X37332Y-31379D01*
X37339Y-31382D01*
X37506Y-31379D01*
X37674Y-31380D01*
X37681Y-31377D01*
X37689Y-31376D01*
X37986Y-31254D01*
X37987Y-31250D01*
X37997Y-31246D01*
X38245Y-30999D01*
X38250Y-30988D01*
X38254Y-30986D01*
X38315Y-30830D01*
X38379Y-30675D01*
X38379Y-30667D01*
X38382Y-30660D01*
X38382Y-34230D01*
X37541Y-35072D01*
X37555Y-35000D01*
X37514Y-34791D01*
X37396Y-34614D01*
X37350Y-34583D01*
X37350Y-34416D01*
X37396Y-34385D01*
X37514Y-34208D01*
X37555Y-34000D01*
X37514Y-33791D01*
X37396Y-33614D01*
X37219Y-33496D01*
X37010Y-33455D01*
X36989Y-33455D01*
X36780Y-33496D01*
X36603Y-33614D01*
X36485Y-33791D01*
X36444Y-34000D01*
X36485Y-34208D01*
X36603Y-34385D01*
X36650Y-34416D01*
X36650Y-34583D01*
X36603Y-34614D01*
X36580Y-34650D01*
X36500Y-34650D01*
X36366Y-34676D01*
X36252Y-34752D01*
X35545Y-35460D01*
X35545Y-35441D01*
X35503Y-35232D01*
X35385Y-35056D01*
X35350Y-35032D01*
X35350Y-34919D01*
X35385Y-34896D01*
X35503Y-34719D01*
X35545Y-34510D01*
X35545Y-34489D01*
X35503Y-34280D01*
X35385Y-34103D01*
X35208Y-33985D01*
X35000Y-33944D01*
X34791Y-33985D01*
X34614Y-34103D01*
X34496Y-34280D01*
X34455Y-34489D01*
X34455Y-34510D01*
X34496Y-34719D01*
X34614Y-34896D01*
X34650Y-34919D01*
X34650Y-35032D01*
X34614Y-35056D01*
X34496Y-35232D01*
X34455Y-35441D01*
X34455Y-35700D01*
X34291Y-35732D01*
X34114Y-35851D01*
X33996Y-36027D01*
X33955Y-36236D01*
X33955Y-36558D01*
X33996Y-36767D01*
X34114Y-36943D01*
X34291Y-37062D01*
X34500Y-37103D01*
X34708Y-37062D01*
X34885Y-36943D01*
X34999Y-36772D01*
X35114Y-36943D01*
X35150Y-36967D01*
X35150Y-42362D01*
X35049Y-42462D01*
X34892Y-42462D01*
X34691Y-42545D01*
X34538Y-42698D01*
X34455Y-42898D01*
X34455Y-42916D01*
X34416Y-42955D01*
X34203Y-42954D01*
X34002Y-43037D01*
X33849Y-43190D01*
X33766Y-43391D01*
X33765Y-43607D01*
X33848Y-43808D01*
X34001Y-43961D01*
X34202Y-44044D01*
X34418Y-44045D01*
X34454Y-44030D01*
X34454Y-44100D01*
X34537Y-44300D01*
X34690Y-44453D01*
X34891Y-44537D01*
X35107Y-44537D01*
X35308Y-44454D01*
X35351Y-44411D01*
X35369Y-44407D01*
X35515Y-44310D01*
X35688Y-44136D01*
X36752Y-45200D01*
X33300Y-45200D01*
X33300Y-26300D01*
X43313Y-26300D01*
X42708Y-26904D01*
X42632Y-26904D01*
X42413Y-26995D01*
X42245Y-27162D01*
X42155Y-27381D01*
X42154Y-27617D01*
X42245Y-27836D01*
X42400Y-27991D01*
X42400Y-29654D01*
X42355Y-29654D01*
X42263Y-29692D01*
X42193Y-29763D01*
X42155Y-29855D01*
X42154Y-29954D01*
X42154Y-30644D01*
X42192Y-30736D01*
X42263Y-30806D01*
X42320Y-30830D01*
X42200Y-31010D01*
X42155Y-31238D01*
X42155Y-31261D01*
X42200Y-31489D01*
X42329Y-31682D01*
X42522Y-31811D01*
X42750Y-31856D01*
X42977Y-31811D01*
X43170Y-31682D01*
X43225Y-31600D01*
X45250Y-31600D01*
X45383Y-31573D01*
X45383Y-31573D01*
X45497Y-31497D01*
X45747Y-31247D01*
X45747Y-31247D01*
X45747Y-31247D01*
X45823Y-31133D01*
X45850Y-31000D01*
X45850Y-29144D01*
X46144Y-28850D01*
X46500Y-28850D01*
X47000Y-28850D01*
X47133Y-28823D01*
X47133Y-28823D01*
X47247Y-28747D01*
X47747Y-28247D01*
X47823Y-28133D01*
X47823Y-28133D01*
X47850Y-28000D01*
X47850Y-27416D01*
X47896Y-27385D01*
X48014Y-27208D01*
X48055Y-27000D01*
X48014Y-26791D01*
X47896Y-26614D01*
X47719Y-26496D01*
X47510Y-26455D01*
X47489Y-26455D01*
X47280Y-26496D01*
X47103Y-26614D01*
X46998Y-26772D01*
X46885Y-26603D01*
X46708Y-26485D01*
X46600Y-26464D01*
X46436Y-26300D01*
X52200Y-26300D01*
X52200Y-45200D01*
X52200Y-45200D01*
G37*
G54D23*
X52200Y-45200D02*
X52055Y-45200D01*
X52055Y-27000D01*
X52014Y-26791D01*
X51896Y-26614D01*
X51719Y-26496D01*
X51510Y-26455D01*
X51489Y-26455D01*
X51280Y-26496D01*
X51103Y-26614D01*
X50985Y-26791D01*
X50944Y-27000D01*
X50985Y-27208D01*
X51103Y-27385D01*
X51280Y-27503D01*
X51489Y-27545D01*
X51510Y-27545D01*
X51719Y-27503D01*
X51896Y-27385D01*
X52014Y-27208D01*
X52055Y-27000D01*
X52055Y-45200D01*
X51734Y-45200D01*
X51734Y-43392D01*
X51651Y-43191D01*
X51498Y-43038D01*
X51297Y-42955D01*
X51081Y-42954D01*
X51045Y-42969D01*
X51045Y-42957D01*
X51247Y-42755D01*
X51323Y-42641D01*
X51323Y-42641D01*
X51350Y-42507D01*
X51350Y-36967D01*
X51385Y-36943D01*
X51503Y-36767D01*
X51545Y-36558D01*
X51545Y-36236D01*
X51503Y-36027D01*
X51385Y-35851D01*
X51208Y-35732D01*
X51045Y-35700D01*
X51045Y-35441D01*
X51003Y-35232D01*
X50885Y-35056D01*
X50850Y-35032D01*
X50850Y-34919D01*
X50885Y-34896D01*
X51003Y-34719D01*
X51045Y-34510D01*
X51045Y-34489D01*
X51003Y-34280D01*
X50885Y-34103D01*
X50708Y-33985D01*
X50500Y-33944D01*
X50291Y-33985D01*
X50114Y-34103D01*
X49996Y-34280D01*
X49955Y-34489D01*
X49955Y-34510D01*
X49996Y-34719D01*
X50114Y-34896D01*
X50150Y-34919D01*
X50150Y-35032D01*
X50114Y-35056D01*
X49996Y-35232D01*
X49955Y-35441D01*
X49955Y-35700D01*
X49791Y-35732D01*
X49614Y-35851D01*
X49600Y-35872D01*
X49600Y-35250D01*
X49573Y-35116D01*
X49497Y-35002D01*
X49497Y-35002D01*
X49247Y-34752D01*
X49133Y-34676D01*
X49000Y-34650D01*
X48919Y-34650D01*
X48896Y-34614D01*
X48850Y-34583D01*
X48850Y-34416D01*
X48896Y-34385D01*
X49014Y-34208D01*
X49055Y-34000D01*
X49014Y-33791D01*
X48896Y-33614D01*
X48882Y-33605D01*
X48882Y-30660D01*
X48879Y-30493D01*
X48880Y-30325D01*
X48877Y-30318D01*
X48876Y-30310D01*
X48754Y-30013D01*
X48750Y-30012D01*
X48746Y-30002D01*
X48499Y-29754D01*
X48488Y-29749D01*
X48486Y-29745D01*
X48330Y-29684D01*
X48175Y-29620D01*
X48167Y-29620D01*
X48160Y-29617D01*
X47993Y-29620D01*
X47825Y-29619D01*
X47818Y-29622D01*
X47810Y-29623D01*
X47513Y-29745D01*
X47512Y-29749D01*
X47502Y-29753D01*
X47254Y-30000D01*
X47249Y-30011D01*
X47245Y-30013D01*
X47184Y-30169D01*
X47120Y-30324D01*
X47120Y-30332D01*
X47117Y-30339D01*
X47120Y-30506D01*
X47119Y-30674D01*
X47122Y-30681D01*
X47123Y-30689D01*
X47245Y-30986D01*
X47249Y-30987D01*
X47253Y-30997D01*
X47500Y-31245D01*
X47511Y-31250D01*
X47513Y-31254D01*
X47669Y-31315D01*
X47824Y-31379D01*
X47832Y-31379D01*
X47839Y-31382D01*
X48006Y-31379D01*
X48174Y-31380D01*
X48181Y-31377D01*
X48189Y-31376D01*
X48486Y-31254D01*
X48487Y-31250D01*
X48497Y-31246D01*
X48745Y-30999D01*
X48750Y-30988D01*
X48754Y-30986D01*
X48815Y-30830D01*
X48879Y-30675D01*
X48879Y-30667D01*
X48882Y-30660D01*
X48882Y-33605D01*
X48719Y-33496D01*
X48510Y-33455D01*
X48489Y-33455D01*
X48280Y-33496D01*
X48103Y-33614D01*
X47985Y-33791D01*
X47944Y-34000D01*
X47985Y-34208D01*
X48103Y-34385D01*
X48150Y-34416D01*
X48150Y-34583D01*
X48103Y-34614D01*
X47985Y-34791D01*
X47944Y-35000D01*
X47985Y-35208D01*
X48103Y-35385D01*
X48280Y-35503D01*
X48489Y-35545D01*
X48510Y-35545D01*
X48719Y-35503D01*
X48892Y-35387D01*
X48900Y-35394D01*
X48900Y-36120D01*
X48896Y-36114D01*
X48719Y-35996D01*
X48510Y-35955D01*
X48489Y-35955D01*
X48280Y-35996D01*
X48103Y-36114D01*
X47985Y-36291D01*
X47944Y-36500D01*
X47985Y-36708D01*
X48103Y-36885D01*
X48150Y-36916D01*
X48150Y-37083D01*
X48103Y-37114D01*
X48080Y-37150D01*
X47750Y-37150D01*
X47616Y-37176D01*
X47502Y-37252D01*
X47502Y-37252D01*
X47252Y-37502D01*
X47176Y-37616D01*
X47150Y-37750D01*
X47150Y-38000D01*
X47150Y-38250D01*
X47150Y-39000D01*
X47176Y-39133D01*
X47252Y-39247D01*
X47454Y-39449D01*
X47444Y-39500D01*
X47454Y-39550D01*
X47252Y-39752D01*
X47176Y-39866D01*
X47150Y-40000D01*
X47150Y-43508D01*
X46995Y-43662D01*
X46905Y-43881D01*
X46904Y-44117D01*
X46995Y-44336D01*
X47162Y-44504D01*
X47381Y-44594D01*
X47458Y-44594D01*
X47681Y-44818D01*
X47827Y-44915D01*
X48000Y-44950D01*
X49750Y-44950D01*
X50000Y-44950D01*
X50172Y-44915D01*
X50318Y-44818D01*
X50599Y-44537D01*
X50607Y-44537D01*
X50808Y-44454D01*
X50851Y-44411D01*
X50869Y-44407D01*
X51015Y-44310D01*
X51280Y-44045D01*
X51296Y-44045D01*
X51497Y-43962D01*
X51650Y-43809D01*
X51733Y-43608D01*
X51734Y-43392D01*
X51734Y-45200D01*
X43632Y-45200D01*
X43632Y-41160D01*
X43629Y-40993D01*
X43630Y-40825D01*
X43627Y-40818D01*
X43626Y-40810D01*
X43504Y-40513D01*
X43500Y-40512D01*
X43496Y-40502D01*
X43249Y-40254D01*
X43238Y-40249D01*
X43236Y-40245D01*
X43080Y-40184D01*
X42925Y-40120D01*
X42917Y-40120D01*
X42910Y-40117D01*
X42743Y-40120D01*
X42575Y-40119D01*
X42568Y-40122D01*
X42560Y-40123D01*
X42263Y-40245D01*
X42262Y-40249D01*
X42252Y-40253D01*
X42004Y-40500D01*
X41999Y-40511D01*
X41995Y-40513D01*
X41934Y-40669D01*
X41870Y-40824D01*
X41870Y-40832D01*
X41867Y-40839D01*
X41870Y-41006D01*
X41869Y-41174D01*
X41872Y-41181D01*
X41873Y-41189D01*
X41995Y-41486D01*
X41999Y-41487D01*
X42003Y-41497D01*
X42250Y-41745D01*
X42261Y-41750D01*
X42263Y-41754D01*
X42419Y-41815D01*
X42574Y-41879D01*
X42582Y-41879D01*
X42589Y-41882D01*
X42756Y-41879D01*
X42924Y-41880D01*
X42931Y-41877D01*
X42939Y-41876D01*
X43236Y-41754D01*
X43237Y-41750D01*
X43247Y-41746D01*
X43495Y-41499D01*
X43500Y-41488D01*
X43504Y-41486D01*
X43565Y-41330D01*
X43629Y-41175D01*
X43629Y-41167D01*
X43632Y-41160D01*
X43632Y-45200D01*
X41555Y-45200D01*
X41555Y-38500D01*
X41514Y-38291D01*
X41396Y-38114D01*
X41224Y-37999D01*
X41396Y-37885D01*
X41514Y-37708D01*
X41555Y-37500D01*
X41514Y-37291D01*
X41396Y-37114D01*
X41350Y-37083D01*
X41350Y-36916D01*
X41396Y-36885D01*
X41514Y-36708D01*
X41555Y-36500D01*
X41514Y-36291D01*
X41396Y-36114D01*
X41350Y-36083D01*
X41350Y-35416D01*
X41396Y-35385D01*
X41514Y-35208D01*
X41555Y-35000D01*
X41514Y-34791D01*
X41396Y-34614D01*
X41350Y-34583D01*
X41350Y-34416D01*
X41396Y-34385D01*
X41514Y-34208D01*
X41555Y-34000D01*
X41514Y-33791D01*
X41396Y-33614D01*
X41219Y-33496D01*
X41010Y-33455D01*
X40989Y-33455D01*
X40780Y-33496D01*
X40603Y-33614D01*
X40485Y-33791D01*
X40444Y-34000D01*
X40485Y-34208D01*
X40603Y-34385D01*
X40650Y-34416D01*
X40650Y-34583D01*
X40603Y-34614D01*
X40485Y-34791D01*
X40444Y-35000D01*
X40485Y-35208D01*
X40603Y-35385D01*
X40650Y-35416D01*
X40650Y-36083D01*
X40603Y-36114D01*
X40485Y-36291D01*
X40444Y-36500D01*
X40485Y-36708D01*
X40603Y-36885D01*
X40650Y-36916D01*
X40650Y-37083D01*
X40603Y-37114D01*
X40485Y-37291D01*
X40444Y-37500D01*
X40485Y-37708D01*
X40603Y-37885D01*
X40775Y-38000D01*
X40603Y-38114D01*
X40485Y-38291D01*
X40444Y-38500D01*
X40485Y-38708D01*
X40603Y-38885D01*
X40780Y-39003D01*
X40989Y-39045D01*
X41010Y-39045D01*
X41219Y-39003D01*
X41396Y-38885D01*
X41514Y-38708D01*
X41555Y-38500D01*
X41555Y-45200D01*
X39436Y-45200D01*
X40041Y-44595D01*
X40117Y-44595D01*
X40336Y-44504D01*
X40504Y-44337D01*
X40594Y-44118D01*
X40595Y-43882D01*
X40504Y-43663D01*
X40350Y-43508D01*
X40350Y-40144D01*
X40456Y-40038D01*
X40489Y-40045D01*
X40510Y-40045D01*
X40719Y-40003D01*
X40896Y-39885D01*
X41014Y-39708D01*
X41055Y-39500D01*
X41014Y-39291D01*
X40896Y-39114D01*
X40719Y-38996D01*
X40510Y-38955D01*
X40489Y-38955D01*
X40456Y-38961D01*
X40247Y-38752D01*
X40247Y-38752D01*
X38747Y-37252D01*
X38633Y-37176D01*
X38500Y-37150D01*
X37419Y-37150D01*
X37396Y-37114D01*
X37350Y-37083D01*
X37350Y-36916D01*
X37396Y-36885D01*
X37514Y-36708D01*
X37555Y-36500D01*
X37514Y-36291D01*
X37453Y-36200D01*
X37500Y-36200D01*
X37672Y-36165D01*
X37818Y-36068D01*
X39318Y-34568D01*
X39318Y-34568D01*
X39383Y-34470D01*
X39415Y-34422D01*
X39415Y-34422D01*
X39449Y-34250D01*
X39450Y-34250D01*
X39450Y-32586D01*
X39681Y-32818D01*
X39827Y-32915D01*
X40000Y-32950D01*
X41813Y-32950D01*
X42300Y-33436D01*
X42300Y-33672D01*
X42284Y-33688D01*
X42200Y-33890D01*
X42199Y-34108D01*
X42283Y-34311D01*
X42422Y-34449D01*
X42400Y-34449D01*
X42308Y-34487D01*
X42238Y-34558D01*
X42200Y-34650D01*
X42199Y-34749D01*
X42199Y-35349D01*
X42237Y-35441D01*
X42300Y-35503D01*
X42300Y-35506D01*
X42243Y-35563D01*
X42205Y-35655D01*
X42204Y-35754D01*
X42204Y-36344D01*
X42242Y-36436D01*
X42313Y-36506D01*
X42405Y-36544D01*
X42504Y-36545D01*
X43094Y-36545D01*
X43186Y-36507D01*
X43256Y-36436D01*
X43294Y-36344D01*
X43295Y-36245D01*
X43295Y-35655D01*
X43257Y-35563D01*
X43200Y-35506D01*
X43200Y-35503D01*
X43261Y-35441D01*
X43299Y-35349D01*
X43300Y-35299D01*
X43300Y-37313D01*
X43181Y-37431D01*
X43181Y-37431D01*
X43181Y-37431D01*
X42431Y-38181D01*
X42334Y-38327D01*
X42300Y-38500D01*
X42300Y-38700D01*
X42246Y-38780D01*
X42205Y-38989D01*
X42205Y-39010D01*
X42246Y-39219D01*
X42313Y-39320D01*
X42334Y-39422D01*
X42431Y-39568D01*
X42681Y-39818D01*
X42827Y-39915D01*
X43000Y-39950D01*
X43750Y-39950D01*
X44059Y-39950D01*
X44050Y-40000D01*
X44050Y-40500D01*
X44050Y-41000D01*
X44084Y-41172D01*
X44181Y-41318D01*
X44681Y-41818D01*
X44827Y-41915D01*
X44921Y-41934D01*
X44942Y-41986D01*
X45013Y-42056D01*
X45050Y-42072D01*
X45050Y-43427D01*
X45013Y-43442D01*
X44943Y-43513D01*
X44905Y-43605D01*
X44904Y-43704D01*
X44904Y-44394D01*
X44942Y-44486D01*
X45013Y-44556D01*
X45105Y-44594D01*
X45204Y-44595D01*
X45894Y-44595D01*
X45986Y-44557D01*
X46056Y-44486D01*
X46094Y-44394D01*
X46095Y-44295D01*
X46095Y-43605D01*
X46057Y-43513D01*
X45986Y-43443D01*
X45950Y-43427D01*
X45950Y-42072D01*
X45986Y-42057D01*
X46056Y-41986D01*
X46094Y-41894D01*
X46095Y-41795D01*
X46095Y-41105D01*
X46057Y-41013D01*
X45986Y-40943D01*
X45929Y-40919D01*
X46049Y-40739D01*
X46095Y-40511D01*
X46095Y-40488D01*
X46080Y-40414D01*
X46247Y-40247D01*
X46323Y-40133D01*
X46323Y-40133D01*
X46350Y-40000D01*
X46350Y-39500D01*
X46350Y-39000D01*
X46323Y-38866D01*
X46323Y-38866D01*
X46247Y-38752D01*
X45747Y-38252D01*
X45633Y-38176D01*
X45500Y-38150D01*
X44919Y-38150D01*
X44896Y-38114D01*
X44724Y-37999D01*
X44896Y-37885D01*
X45014Y-37708D01*
X45055Y-37500D01*
X45014Y-37291D01*
X44896Y-37114D01*
X44850Y-37083D01*
X44850Y-36916D01*
X44896Y-36885D01*
X45014Y-36708D01*
X45055Y-36500D01*
X45014Y-36291D01*
X44896Y-36114D01*
X44850Y-36083D01*
X44850Y-35416D01*
X44896Y-35385D01*
X45014Y-35208D01*
X45055Y-35000D01*
X45014Y-34791D01*
X44896Y-34614D01*
X44850Y-34583D01*
X44850Y-34416D01*
X44896Y-34385D01*
X45014Y-34208D01*
X45055Y-34000D01*
X45014Y-33791D01*
X44896Y-33614D01*
X44719Y-33496D01*
X44510Y-33455D01*
X44489Y-33455D01*
X44280Y-33496D01*
X44200Y-33550D01*
X44200Y-33436D01*
X44686Y-32950D01*
X45750Y-32950D01*
X45922Y-32915D01*
X46068Y-32818D01*
X46818Y-32068D01*
X46818Y-32068D01*
X46818Y-32068D01*
X46915Y-31922D01*
X46915Y-31922D01*
X46949Y-31750D01*
X46950Y-31750D01*
X46950Y-30493D01*
X47006Y-30436D01*
X47044Y-30344D01*
X47045Y-30245D01*
X47045Y-29949D01*
X47644Y-29350D01*
X48355Y-29350D01*
X49252Y-30247D01*
X49752Y-30747D01*
X49866Y-30823D01*
X49866Y-30823D01*
X50000Y-30850D01*
X50083Y-30850D01*
X50114Y-30896D01*
X50291Y-31014D01*
X50500Y-31055D01*
X50708Y-31014D01*
X50885Y-30896D01*
X51003Y-30719D01*
X51045Y-30510D01*
X51045Y-30489D01*
X51003Y-30280D01*
X50885Y-30103D01*
X50708Y-29985D01*
X50500Y-29944D01*
X50291Y-29985D01*
X50114Y-30103D01*
X50108Y-30113D01*
X49747Y-29752D01*
X48747Y-28752D01*
X48633Y-28676D01*
X48500Y-28650D01*
X47500Y-28650D01*
X47366Y-28676D01*
X47252Y-28752D01*
X46550Y-29454D01*
X46155Y-29454D01*
X46063Y-29492D01*
X45993Y-29563D01*
X45955Y-29655D01*
X45954Y-29754D01*
X45954Y-30344D01*
X45992Y-30436D01*
X46050Y-30493D01*
X46050Y-31563D01*
X45563Y-32050D01*
X44500Y-32050D01*
X44327Y-32084D01*
X44181Y-32181D01*
X44181Y-32181D01*
X44181Y-32181D01*
X43431Y-32931D01*
X43334Y-33077D01*
X43300Y-33250D01*
X43300Y-33750D01*
X43300Y-33890D01*
X43216Y-33688D01*
X43200Y-33672D01*
X43200Y-33250D01*
X43199Y-33249D01*
X43165Y-33077D01*
X43165Y-33077D01*
X43068Y-32931D01*
X43068Y-32931D01*
X42318Y-32181D01*
X42172Y-32084D01*
X42000Y-32050D01*
X41345Y-32050D01*
X41345Y-27382D01*
X41254Y-27163D01*
X41087Y-26995D01*
X40868Y-26905D01*
X40791Y-26905D01*
X40568Y-26681D01*
X40422Y-26584D01*
X40250Y-26550D01*
X39304Y-26550D01*
X39208Y-26485D01*
X39000Y-26444D01*
X38791Y-26485D01*
X38614Y-26603D01*
X38501Y-26772D01*
X38396Y-26614D01*
X38219Y-26496D01*
X38010Y-26455D01*
X37989Y-26455D01*
X37780Y-26496D01*
X37603Y-26614D01*
X37485Y-26791D01*
X37444Y-27000D01*
X37485Y-27208D01*
X37603Y-27385D01*
X37650Y-27416D01*
X37650Y-28000D01*
X37676Y-28133D01*
X37752Y-28247D01*
X38252Y-28747D01*
X38366Y-28823D01*
X38366Y-28823D01*
X38500Y-28850D01*
X39355Y-28850D01*
X39650Y-29144D01*
X39650Y-31000D01*
X39676Y-31133D01*
X39752Y-31247D01*
X40002Y-31497D01*
X40002Y-31497D01*
X40116Y-31573D01*
X40250Y-31600D01*
X40274Y-31600D01*
X40329Y-31682D01*
X40522Y-31811D01*
X40750Y-31856D01*
X40977Y-31811D01*
X41170Y-31682D01*
X41299Y-31489D01*
X41345Y-31261D01*
X41345Y-31238D01*
X41299Y-31010D01*
X41179Y-30830D01*
X41236Y-30807D01*
X41306Y-30736D01*
X41344Y-30644D01*
X41345Y-30545D01*
X41345Y-29855D01*
X41307Y-29763D01*
X41236Y-29693D01*
X41144Y-29655D01*
X41100Y-29655D01*
X41100Y-27991D01*
X41254Y-27837D01*
X41344Y-27618D01*
X41345Y-27382D01*
X41345Y-32050D01*
X40186Y-32050D01*
X39450Y-31313D01*
X39450Y-30493D01*
X39506Y-30436D01*
X39544Y-30344D01*
X39545Y-30245D01*
X39545Y-29655D01*
X39507Y-29563D01*
X39436Y-29493D01*
X39344Y-29455D01*
X39245Y-29454D01*
X38949Y-29454D01*
X38247Y-28752D01*
X38133Y-28676D01*
X38000Y-28650D01*
X37000Y-28650D01*
X36866Y-28676D01*
X36752Y-28752D01*
X35752Y-29752D01*
X35391Y-30113D01*
X35385Y-30103D01*
X35208Y-29985D01*
X35000Y-29944D01*
X34791Y-29985D01*
X34614Y-30103D01*
X34555Y-30192D01*
X34555Y-27000D01*
X34514Y-26791D01*
X34396Y-26614D01*
X34219Y-26496D01*
X34010Y-26455D01*
X33989Y-26455D01*
X33780Y-26496D01*
X33603Y-26614D01*
X33485Y-26791D01*
X33444Y-27000D01*
X33485Y-27208D01*
X33603Y-27385D01*
X33780Y-27503D01*
X33989Y-27545D01*
X34010Y-27545D01*
X34219Y-27503D01*
X34396Y-27385D01*
X34514Y-27208D01*
X34555Y-27000D01*
X34555Y-30192D01*
X34496Y-30280D01*
X34455Y-30489D01*
X34455Y-30510D01*
X34496Y-30719D01*
X34614Y-30896D01*
X34791Y-31014D01*
X35000Y-31055D01*
X35208Y-31014D01*
X35385Y-30896D01*
X35416Y-30850D01*
X35500Y-30850D01*
X35633Y-30823D01*
X35633Y-30823D01*
X35747Y-30747D01*
X36247Y-30247D01*
X37144Y-29350D01*
X37855Y-29350D01*
X38454Y-29949D01*
X38454Y-30344D01*
X38492Y-30436D01*
X38550Y-30493D01*
X38550Y-31500D01*
X38550Y-34063D01*
X38382Y-34230D01*
X38382Y-30660D01*
X38379Y-30493D01*
X38380Y-30325D01*
X38377Y-30318D01*
X38376Y-30310D01*
X38254Y-30013D01*
X38250Y-30012D01*
X38246Y-30002D01*
X37999Y-29754D01*
X37988Y-29749D01*
X37986Y-29745D01*
X37830Y-29684D01*
X37675Y-29620D01*
X37667Y-29620D01*
X37660Y-29617D01*
X37493Y-29620D01*
X37325Y-29619D01*
X37318Y-29622D01*
X37310Y-29623D01*
X37013Y-29745D01*
X37012Y-29749D01*
X37002Y-29753D01*
X36754Y-30000D01*
X36749Y-30011D01*
X36745Y-30013D01*
X36684Y-30169D01*
X36620Y-30324D01*
X36620Y-30332D01*
X36617Y-30339D01*
X36620Y-30506D01*
X36619Y-30674D01*
X36622Y-30681D01*
X36623Y-30689D01*
X36745Y-30986D01*
X36749Y-30987D01*
X36753Y-30997D01*
X37000Y-31245D01*
X37011Y-31250D01*
X37013Y-31254D01*
X37169Y-31315D01*
X37324Y-31379D01*
X37332Y-31379D01*
X37339Y-31382D01*
X37506Y-31379D01*
X37674Y-31380D01*
X37681Y-31377D01*
X37689Y-31376D01*
X37986Y-31254D01*
X37987Y-31250D01*
X37997Y-31246D01*
X38245Y-30999D01*
X38250Y-30988D01*
X38254Y-30986D01*
X38315Y-30830D01*
X38379Y-30675D01*
X38379Y-30667D01*
X38382Y-30660D01*
X38382Y-34230D01*
X37541Y-35072D01*
X37555Y-35000D01*
X37514Y-34791D01*
X37396Y-34614D01*
X37350Y-34583D01*
X37350Y-34416D01*
X37396Y-34385D01*
X37514Y-34208D01*
X37555Y-34000D01*
X37514Y-33791D01*
X37396Y-33614D01*
X37219Y-33496D01*
X37010Y-33455D01*
X36989Y-33455D01*
X36780Y-33496D01*
X36603Y-33614D01*
X36485Y-33791D01*
X36444Y-34000D01*
X36485Y-34208D01*
X36603Y-34385D01*
X36650Y-34416D01*
X36650Y-34583D01*
X36603Y-34614D01*
X36580Y-34650D01*
X36500Y-34650D01*
X36366Y-34676D01*
X36252Y-34752D01*
X35545Y-35460D01*
X35545Y-35441D01*
X35503Y-35232D01*
X35385Y-35056D01*
X35350Y-35032D01*
X35350Y-34919D01*
X35385Y-34896D01*
X35503Y-34719D01*
X35545Y-34510D01*
X35545Y-34489D01*
X35503Y-34280D01*
X35385Y-34103D01*
X35208Y-33985D01*
X35000Y-33944D01*
X34791Y-33985D01*
X34614Y-34103D01*
X34496Y-34280D01*
X34455Y-34489D01*
X34455Y-34510D01*
X34496Y-34719D01*
X34614Y-34896D01*
X34650Y-34919D01*
X34650Y-35032D01*
X34614Y-35056D01*
X34496Y-35232D01*
X34455Y-35441D01*
X34455Y-35700D01*
X34291Y-35732D01*
X34114Y-35851D01*
X33996Y-36027D01*
X33955Y-36236D01*
X33955Y-36558D01*
X33996Y-36767D01*
X34114Y-36943D01*
X34291Y-37062D01*
X34500Y-37103D01*
X34708Y-37062D01*
X34885Y-36943D01*
X34999Y-36772D01*
X35114Y-36943D01*
X35150Y-36967D01*
X35150Y-42362D01*
X35049Y-42462D01*
X34892Y-42462D01*
X34691Y-42545D01*
X34538Y-42698D01*
X34455Y-42898D01*
X34455Y-42916D01*
X34416Y-42955D01*
X34203Y-42954D01*
X34002Y-43037D01*
X33849Y-43190D01*
X33766Y-43391D01*
X33765Y-43607D01*
X33848Y-43808D01*
X34001Y-43961D01*
X34202Y-44044D01*
X34418Y-44045D01*
X34454Y-44030D01*
X34454Y-44100D01*
X34537Y-44300D01*
X34690Y-44453D01*
X34891Y-44537D01*
X35107Y-44537D01*
X35308Y-44454D01*
X35351Y-44411D01*
X35369Y-44407D01*
X35515Y-44310D01*
X35688Y-44136D01*
X36752Y-45200D01*
X33300Y-45200D01*
X33300Y-26300D01*
X43313Y-26300D01*
X42708Y-26904D01*
X42632Y-26904D01*
X42413Y-26995D01*
X42245Y-27162D01*
X42155Y-27381D01*
X42154Y-27617D01*
X42245Y-27836D01*
X42400Y-27991D01*
X42400Y-29654D01*
X42355Y-29654D01*
X42263Y-29692D01*
X42193Y-29763D01*
X42155Y-29855D01*
X42154Y-29954D01*
X42154Y-30644D01*
X42192Y-30736D01*
X42263Y-30806D01*
X42320Y-30830D01*
X42200Y-31010D01*
X42155Y-31238D01*
X42155Y-31261D01*
X42200Y-31489D01*
X42329Y-31682D01*
X42522Y-31811D01*
X42750Y-31856D01*
X42977Y-31811D01*
X43170Y-31682D01*
X43225Y-31600D01*
X45250Y-31600D01*
X45383Y-31573D01*
X45383Y-31573D01*
X45497Y-31497D01*
X45747Y-31247D01*
X45747Y-31247D01*
X45747Y-31247D01*
X45823Y-31133D01*
X45850Y-31000D01*
X45850Y-29144D01*
X46144Y-28850D01*
X46500Y-28850D01*
X47000Y-28850D01*
X47133Y-28823D01*
X47133Y-28823D01*
X47247Y-28747D01*
X47747Y-28247D01*
X47823Y-28133D01*
X47823Y-28133D01*
X47850Y-28000D01*
X47850Y-27416D01*
X47896Y-27385D01*
X48014Y-27208D01*
X48055Y-27000D01*
X48014Y-26791D01*
X47896Y-26614D01*
X47719Y-26496D01*
X47510Y-26455D01*
X47489Y-26455D01*
X47280Y-26496D01*
X47103Y-26614D01*
X46998Y-26772D01*
X46885Y-26603D01*
X46708Y-26485D01*
X46600Y-26464D01*
X46436Y-26300D01*
X52200Y-26300D01*
X52200Y-45200D01*
M02*
